solid OpenSCAD_Model
  facet normal 1 0 0
    outer loop
      vertex 5 2 15
      vertex 5 0 15
      vertex 5 2 3
    endloop
  endfacet
  facet normal 1 0 0
    outer loop
      vertex 5 24 15
      vertex 5 22 15
      vertex 5 24 3
    endloop
  endfacet
  facet normal 1 0 0
    outer loop
      vertex 5 32 3
      vertex 5 30 0
      vertex 5 32 -7
    endloop
  endfacet
  facet normal 1 -0 0
    outer loop
      vertex 5 24 3
      vertex 5 30 0
      vertex 5 32 3
    endloop
  endfacet
  facet normal 1 0 0
    outer loop
      vertex 5 22 3
      vertex 5 24 3
      vertex 5 22 15
    endloop
  endfacet
  facet normal 1 -0 0
    outer loop
      vertex 5 22 3
      vertex 5 30 0
      vertex 5 24 3
    endloop
  endfacet
  facet normal 1 0 0
    outer loop
      vertex 5 0 0
      vertex 5 22 3
      vertex 5 2 3
    endloop
  endfacet
  facet normal 1 0 0
    outer loop
      vertex 5 22 3
      vertex 5 0 0
      vertex 5 30 0
    endloop
  endfacet
  facet normal 1 0 0
    outer loop
      vertex 5 0 0
      vertex 5 2 3
      vertex 5 0 15
    endloop
  endfacet
  facet normal 1 0 0
    outer loop
      vertex 5 32 -7
      vertex 5 30 0
      vertex 5 30 -7
    endloop
  endfacet
  facet normal -0 0 1
    outer loop
      vertex 0 32 3
      vertex 5 24 3
      vertex 5 32 3
    endloop
  endfacet
  facet normal 0 0 1
    outer loop
      vertex 5 24 3
      vertex 0 32 3
      vertex 0 24 3
    endloop
  endfacet
  facet normal -0 0 1
    outer loop
      vertex 0 22 3
      vertex 5 2 3
      vertex 5 22 3
    endloop
  endfacet
  facet normal 0 0 1
    outer loop
      vertex 5 2 3
      vertex 0 22 3
      vertex 0 2 3
    endloop
  endfacet
  facet normal 0 0 -1
    outer loop
      vertex 0 0 0
      vertex 5 30 0
      vertex 5 0 0
    endloop
  endfacet
  facet normal -0 0 -1
    outer loop
      vertex 5 30 0
      vertex 0 0 0
      vertex 0 30 0
    endloop
  endfacet
  facet normal -1 0 0
    outer loop
      vertex 0 30 0
      vertex 0 32 -7
      vertex 0 30 -7
    endloop
  endfacet
  facet normal -1 0 0
    outer loop
      vertex 0 32 -7
      vertex 0 30 0
      vertex 0 32 3
    endloop
  endfacet
  facet normal -1 0 0
    outer loop
      vertex 0 30 0
      vertex 0 24 3
      vertex 0 32 3
    endloop
  endfacet
  facet normal -1 0 0
    outer loop
      vertex 0 24 3
      vertex 0 22 3
      vertex 0 24 15
    endloop
  endfacet
  facet normal -1 0 0
    outer loop
      vertex 0 30 0
      vertex 0 22 3
      vertex 0 24 3
    endloop
  endfacet
  facet normal -1 0 0
    outer loop
      vertex 0 0 0
      vertex 0 22 3
      vertex 0 30 0
    endloop
  endfacet
  facet normal -1 -0 0
    outer loop
      vertex 0 22 3
      vertex 0 0 0
      vertex 0 2 3
    endloop
  endfacet
  facet normal -1 0 0
    outer loop
      vertex 0 0 15
      vertex 0 2 3
      vertex 0 0 0
    endloop
  endfacet
  facet normal -1 0 0
    outer loop
      vertex 0 2 3
      vertex 0 0 15
      vertex 0 2 15
    endloop
  endfacet
  facet normal -1 -0 0
    outer loop
      vertex 0 24 15
      vertex 0 22 3
      vertex 0 22 15
    endloop
  endfacet
  facet normal 0 -1 0
    outer loop
      vertex 0 30 -7
      vertex 5 30 0
      vertex 0 30 0
    endloop
  endfacet
  facet normal 0 -1 -0
    outer loop
      vertex 5 30 0
      vertex 0 30 -7
      vertex 5 30 -7
    endloop
  endfacet
  facet normal 0 -1 0
    outer loop
      vertex 0 0 0
      vertex 5 0 15
      vertex 0 0 15
    endloop
  endfacet
  facet normal 0 -1 -0
    outer loop
      vertex 5 0 15
      vertex 0 0 0
      vertex 5 0 0
    endloop
  endfacet
  facet normal -0 0 1
    outer loop
      vertex 0 2 15
      vertex 5 0 15
      vertex 5 2 15
    endloop
  endfacet
  facet normal 0 0 1
    outer loop
      vertex 5 0 15
      vertex 0 2 15
      vertex 0 0 15
    endloop
  endfacet
  facet normal 0 1 -0
    outer loop
      vertex 5 2 3
      vertex 0 2 15
      vertex 5 2 15
    endloop
  endfacet
  facet normal 0 1 0
    outer loop
      vertex 0 2 15
      vertex 5 2 3
      vertex 0 2 3
    endloop
  endfacet
  facet normal -0 0 1
    outer loop
      vertex 0 24 15
      vertex 5 22 15
      vertex 5 24 15
    endloop
  endfacet
  facet normal 0 0 1
    outer loop
      vertex 5 22 15
      vertex 0 24 15
      vertex 0 22 15
    endloop
  endfacet
  facet normal 0 1 -0
    outer loop
      vertex 5 24 3
      vertex 0 24 15
      vertex 5 24 15
    endloop
  endfacet
  facet normal 0 1 0
    outer loop
      vertex 0 24 15
      vertex 5 24 3
      vertex 0 24 3
    endloop
  endfacet
  facet normal 0 -1 0
    outer loop
      vertex 0 22 3
      vertex 5 22 15
      vertex 0 22 15
    endloop
  endfacet
  facet normal 0 -1 -0
    outer loop
      vertex 5 22 15
      vertex 0 22 3
      vertex 5 22 3
    endloop
  endfacet
  facet normal 0 0 -1
    outer loop
      vertex 0 30 -7
      vertex 5 32 -7
      vertex 5 30 -7
    endloop
  endfacet
  facet normal -0 0 -1
    outer loop
      vertex 5 32 -7
      vertex 0 30 -7
      vertex 0 32 -7
    endloop
  endfacet
  facet normal 0 1 -0
    outer loop
      vertex 5 32 -7
      vertex 0 32 3
      vertex 5 32 3
    endloop
  endfacet
  facet normal 0 1 0
    outer loop
      vertex 0 32 3
      vertex 5 32 -7
      vertex 0 32 -7
    endloop
  endfacet
endsolid OpenSCAD_Model
