solid OpenSCAD_Model
  facet normal 1 -0 0
    outer loop
      vertex 5 11 19
      vertex 5 18.5 16.5
      vertex 5 21 19
    endloop
  endfacet
  facet normal 1 0 0
    outer loop
      vertex 5 18.5 16.5
      vertex 5 11 19
      vertex 5 13 14
    endloop
  endfacet
  facet normal 1 0 0
    outer loop
      vertex 5 11 1
      vertex 5 13 14
      vertex 5 11 19
    endloop
  endfacet
  facet normal 1 0 0
    outer loop
      vertex 5 13 14
      vertex 5 11 1
      vertex 5 13 -1
    endloop
  endfacet
  facet normal 1 0 0
    outer loop
      vertex 5 -11 -1
      vertex 5 11 1
      vertex 5 -11 1
    endloop
  endfacet
  facet normal 1 0 0
    outer loop
      vertex 5 11 1
      vertex 5 -11 -1
      vertex 5 13 -1
    endloop
  endfacet
  facet normal 1 0 0
    outer loop
      vertex 5 21 14
      vertex 5 18.5 16.5
      vertex 5 13 14
    endloop
  endfacet
  facet normal 0 0 1
    outer loop
      vertex 5 11 1
      vertex 2 0 1
      vertex 5 -11 1
    endloop
  endfacet
  facet normal 0 0 1
    outer loop
      vertex 5 11 1
      vertex 1.99513 0.139512 1
      vertex 2 0 1
    endloop
  endfacet
  facet normal 0 0 1
    outer loop
      vertex 5 11 1
      vertex 1.98054 0.278346 1
      vertex 1.99513 0.139512 1
    endloop
  endfacet
  facet normal 0 0 1
    outer loop
      vertex 5 11 1
      vertex 1.9563 0.415823 1
      vertex 1.98054 0.278346 1
    endloop
  endfacet
  facet normal 0 0 1
    outer loop
      vertex 5 11 1
      vertex 1.92252 0.551274 1
      vertex 1.9563 0.415823 1
    endloop
  endfacet
  facet normal 0 0 1
    outer loop
      vertex 5 11 1
      vertex 1.87938 0.68404 1
      vertex 1.92252 0.551274 1
    endloop
  endfacet
  facet normal 0 0 1
    outer loop
      vertex 5 11 1
      vertex 1.82709 0.813473 1
      vertex 1.87938 0.68404 1
    endloop
  endfacet
  facet normal 0 0 1
    outer loop
      vertex 5 11 1
      vertex 1.76589 0.938943 1
      vertex 1.82709 0.813473 1
    endloop
  endfacet
  facet normal 0 0 1
    outer loop
      vertex 5 11 1
      vertex 1.6961 1.05984 1
      vertex 1.76589 0.938943 1
    endloop
  endfacet
  facet normal 0 0 1
    outer loop
      vertex 5 11 1
      vertex 1.61803 1.17557 1
      vertex 1.6961 1.05984 1
    endloop
  endfacet
  facet normal 0 0 1
    outer loop
      vertex 5 11 1
      vertex 1.53209 1.28557 1
      vertex 1.61803 1.17557 1
    endloop
  endfacet
  facet normal 0 0 1
    outer loop
      vertex 5 11 1
      vertex 1.43868 1.38932 1
      vertex 1.53209 1.28557 1
    endloop
  endfacet
  facet normal 0 0 1
    outer loop
      vertex 5 11 1
      vertex 1.33826 1.48629 1
      vertex 1.43868 1.38932 1
    endloop
  endfacet
  facet normal 0 0 1
    outer loop
      vertex 5 11 1
      vertex 1.23132 1.57602 1
      vertex 1.33826 1.48629 1
    endloop
  endfacet
  facet normal 0 0 1
    outer loop
      vertex 5 11 1
      vertex 1.11839 1.65807 1
      vertex 1.23132 1.57602 1
    endloop
  endfacet
  facet normal 0 0 1
    outer loop
      vertex 5 11 1
      vertex 1 1.73205 1
      vertex 1.11839 1.65807 1
    endloop
  endfacet
  facet normal 0 0 1
    outer loop
      vertex 5 11 1
      vertex 0.876741 1.79759 1
      vertex 1 1.73205 1
    endloop
  endfacet
  facet normal 0 0 1
    outer loop
      vertex 5 11 1
      vertex 0.749212 1.85437 1
      vertex 0.876741 1.79759 1
    endloop
  endfacet
  facet normal 0 0 1
    outer loop
      vertex 5 11 1
      vertex 0.618033 1.90211 1
      vertex 0.749212 1.85437 1
    endloop
  endfacet
  facet normal 0 0 1
    outer loop
      vertex 5 11 1
      vertex 0.483843 1.94059 1
      vertex 0.618033 1.90211 1
    endloop
  endfacet
  facet normal 0 0 1
    outer loop
      vertex 5 11 1
      vertex 0.347296 1.96961 1
      vertex 0.483843 1.94059 1
    endloop
  endfacet
  facet normal 0 0 1
    outer loop
      vertex 5 11 1
      vertex 0.209057 1.98904 1
      vertex 0.347296 1.96961 1
    endloop
  endfacet
  facet normal 0 0 1
    outer loop
      vertex 5 11 1
      vertex 0.0697985 1.99878 1
      vertex 0.209057 1.98904 1
    endloop
  endfacet
  facet normal 0 0 1
    outer loop
      vertex 5 11 1
      vertex -0.0697985 1.99878 1
      vertex 0.0697985 1.99878 1
    endloop
  endfacet
  facet normal -0 0 1
    outer loop
      vertex -5 11 1
      vertex -0.0697985 1.99878 1
      vertex 5 11 1
    endloop
  endfacet
  facet normal 0 0 1
    outer loop
      vertex -0.0697985 1.99878 1
      vertex -5 11 1
      vertex -0.209057 1.98904 1
    endloop
  endfacet
  facet normal 0 0 1
    outer loop
      vertex -0.209057 1.98904 1
      vertex -5 11 1
      vertex -0.347296 1.96961 1
    endloop
  endfacet
  facet normal 0 0 1
    outer loop
      vertex -0.347296 1.96961 1
      vertex -5 11 1
      vertex -0.483843 1.94059 1
    endloop
  endfacet
  facet normal 0 0 1
    outer loop
      vertex -0.483843 1.94059 1
      vertex -5 11 1
      vertex -0.618033 1.90211 1
    endloop
  endfacet
  facet normal 0 0 1
    outer loop
      vertex -0.618033 1.90211 1
      vertex -5 11 1
      vertex -0.749212 1.85437 1
    endloop
  endfacet
  facet normal 0 0 1
    outer loop
      vertex -0.749212 1.85437 1
      vertex -5 11 1
      vertex -0.876741 1.79759 1
    endloop
  endfacet
  facet normal 0 0 1
    outer loop
      vertex -0.876741 1.79759 1
      vertex -5 11 1
      vertex -1 1.73205 1
    endloop
  endfacet
  facet normal 0 0 1
    outer loop
      vertex -1 1.73205 1
      vertex -5 11 1
      vertex -1.11839 1.65807 1
    endloop
  endfacet
  facet normal 0 0 1
    outer loop
      vertex -1.11839 1.65807 1
      vertex -5 11 1
      vertex -1.23132 1.57602 1
    endloop
  endfacet
  facet normal 0 0 1
    outer loop
      vertex -1.23132 1.57602 1
      vertex -5 11 1
      vertex -1.33826 1.48629 1
    endloop
  endfacet
  facet normal 0 0 1
    outer loop
      vertex -1.33826 1.48629 1
      vertex -5 11 1
      vertex -1.43868 1.38932 1
    endloop
  endfacet
  facet normal 0 0 1
    outer loop
      vertex -1.43868 1.38932 1
      vertex -5 11 1
      vertex -1.53209 1.28557 1
    endloop
  endfacet
  facet normal 0 0 1
    outer loop
      vertex -1.53209 1.28557 1
      vertex -5 11 1
      vertex -1.61803 1.17557 1
    endloop
  endfacet
  facet normal 0 0 1
    outer loop
      vertex -1.99513 0.139512 1
      vertex -5 11 1
      vertex -2 0 1
    endloop
  endfacet
  facet normal 0 0 1
    outer loop
      vertex -1.98054 0.278346 1
      vertex -5 11 1
      vertex -1.99513 0.139512 1
    endloop
  endfacet
  facet normal 0 0 1
    outer loop
      vertex -1.9563 0.415823 1
      vertex -5 11 1
      vertex -1.98054 0.278346 1
    endloop
  endfacet
  facet normal 0 0 1
    outer loop
      vertex -1.92252 0.551274 1
      vertex -5 11 1
      vertex -1.9563 0.415823 1
    endloop
  endfacet
  facet normal 0 0 1
    outer loop
      vertex -1.87938 0.68404 1
      vertex -5 11 1
      vertex -1.92252 0.551274 1
    endloop
  endfacet
  facet normal 0 0 1
    outer loop
      vertex -1.82709 0.813473 1
      vertex -5 11 1
      vertex -1.87938 0.68404 1
    endloop
  endfacet
  facet normal 0 0 1
    outer loop
      vertex -1.76589 0.938943 1
      vertex -5 11 1
      vertex -1.82709 0.813473 1
    endloop
  endfacet
  facet normal 0 0 1
    outer loop
      vertex -1.6961 1.05984 1
      vertex -5 11 1
      vertex -1.76589 0.938943 1
    endloop
  endfacet
  facet normal 0 0 1
    outer loop
      vertex -1.61803 1.17557 1
      vertex -5 11 1
      vertex -1.6961 1.05984 1
    endloop
  endfacet
  facet normal -0 0 1
    outer loop
      vertex 1.99513 -0.139512 1
      vertex 5 -11 1
      vertex 2 0 1
    endloop
  endfacet
  facet normal -0 0 1
    outer loop
      vertex 1.98054 -0.278346 1
      vertex 5 -11 1
      vertex 1.99513 -0.139512 1
    endloop
  endfacet
  facet normal -0 0 1
    outer loop
      vertex 1.9563 -0.415823 1
      vertex 5 -11 1
      vertex 1.98054 -0.278346 1
    endloop
  endfacet
  facet normal -0 0 1
    outer loop
      vertex 1.92252 -0.551274 1
      vertex 5 -11 1
      vertex 1.9563 -0.415823 1
    endloop
  endfacet
  facet normal -0 0 1
    outer loop
      vertex 1.87938 -0.68404 1
      vertex 5 -11 1
      vertex 1.92252 -0.551274 1
    endloop
  endfacet
  facet normal -0 0 1
    outer loop
      vertex 1.82709 -0.813473 1
      vertex 5 -11 1
      vertex 1.87938 -0.68404 1
    endloop
  endfacet
  facet normal -0 0 1
    outer loop
      vertex 1.76589 -0.938943 1
      vertex 5 -11 1
      vertex 1.82709 -0.813473 1
    endloop
  endfacet
  facet normal -0 0 1
    outer loop
      vertex 1.6961 -1.05984 1
      vertex 5 -11 1
      vertex 1.76589 -0.938943 1
    endloop
  endfacet
  facet normal -0 0 1
    outer loop
      vertex 1.61803 -1.17557 1
      vertex 5 -11 1
      vertex 1.6961 -1.05984 1
    endloop
  endfacet
  facet normal -0 0 1
    outer loop
      vertex 1.53209 -1.28557 1
      vertex 5 -11 1
      vertex 1.61803 -1.17557 1
    endloop
  endfacet
  facet normal -0 0 1
    outer loop
      vertex 1.43868 -1.38932 1
      vertex 5 -11 1
      vertex 1.53209 -1.28557 1
    endloop
  endfacet
  facet normal -0 0 1
    outer loop
      vertex 1.33826 -1.48629 1
      vertex 5 -11 1
      vertex 1.43868 -1.38932 1
    endloop
  endfacet
  facet normal -0 0 1
    outer loop
      vertex 1.23132 -1.57602 1
      vertex 5 -11 1
      vertex 1.33826 -1.48629 1
    endloop
  endfacet
  facet normal -0 0 1
    outer loop
      vertex 1.11839 -1.65807 1
      vertex 5 -11 1
      vertex 1.23132 -1.57602 1
    endloop
  endfacet
  facet normal -0 0 1
    outer loop
      vertex 1 -1.73205 1
      vertex 5 -11 1
      vertex 1.11839 -1.65807 1
    endloop
  endfacet
  facet normal -0 0 1
    outer loop
      vertex 0.876741 -1.79759 1
      vertex 5 -11 1
      vertex 1 -1.73205 1
    endloop
  endfacet
  facet normal -0 0 1
    outer loop
      vertex 0.749212 -1.85437 1
      vertex 5 -11 1
      vertex 0.876741 -1.79759 1
    endloop
  endfacet
  facet normal -0 0 1
    outer loop
      vertex 0.618033 -1.90211 1
      vertex 5 -11 1
      vertex 0.749212 -1.85437 1
    endloop
  endfacet
  facet normal -0 0 1
    outer loop
      vertex 0.483843 -1.94059 1
      vertex 5 -11 1
      vertex 0.618033 -1.90211 1
    endloop
  endfacet
  facet normal -0 0 1
    outer loop
      vertex 0.347296 -1.96961 1
      vertex 5 -11 1
      vertex 0.483843 -1.94059 1
    endloop
  endfacet
  facet normal -0 0 1
    outer loop
      vertex 0.209057 -1.98904 1
      vertex 5 -11 1
      vertex 0.347296 -1.96961 1
    endloop
  endfacet
  facet normal -0 0 1
    outer loop
      vertex 0.0697985 -1.99878 1
      vertex 5 -11 1
      vertex 0.209057 -1.98904 1
    endloop
  endfacet
  facet normal -0 0 1
    outer loop
      vertex -0.0697985 -1.99878 1
      vertex 5 -11 1
      vertex 0.0697985 -1.99878 1
    endloop
  endfacet
  facet normal 0 0 1
    outer loop
      vertex -5 -11 1
      vertex -0.0697985 -1.99878 1
      vertex -0.209057 -1.98904 1
    endloop
  endfacet
  facet normal 0 0 1
    outer loop
      vertex -5 -11 1
      vertex -0.209057 -1.98904 1
      vertex -0.347296 -1.96961 1
    endloop
  endfacet
  facet normal 0 0 1
    outer loop
      vertex -5 -11 1
      vertex -0.347296 -1.96961 1
      vertex -0.483843 -1.94059 1
    endloop
  endfacet
  facet normal 0 0 1
    outer loop
      vertex -5 -11 1
      vertex -0.483843 -1.94059 1
      vertex -0.618033 -1.90211 1
    endloop
  endfacet
  facet normal 0 0 1
    outer loop
      vertex -5 -11 1
      vertex -0.618033 -1.90211 1
      vertex -0.749212 -1.85437 1
    endloop
  endfacet
  facet normal 0 0 1
    outer loop
      vertex -5 -11 1
      vertex -0.749212 -1.85437 1
      vertex -0.876741 -1.79759 1
    endloop
  endfacet
  facet normal 0 0 1
    outer loop
      vertex -5 -11 1
      vertex -0.876741 -1.79759 1
      vertex -1 -1.73205 1
    endloop
  endfacet
  facet normal 0 0 1
    outer loop
      vertex -5 -11 1
      vertex -1 -1.73205 1
      vertex -1.11839 -1.65807 1
    endloop
  endfacet
  facet normal 0 0 1
    outer loop
      vertex -5 -11 1
      vertex -1.11839 -1.65807 1
      vertex -1.23132 -1.57602 1
    endloop
  endfacet
  facet normal 0 0 1
    outer loop
      vertex -5 -11 1
      vertex -1.23132 -1.57602 1
      vertex -1.33826 -1.48629 1
    endloop
  endfacet
  facet normal 0 0 1
    outer loop
      vertex -5 -11 1
      vertex -1.33826 -1.48629 1
      vertex -1.43868 -1.38932 1
    endloop
  endfacet
  facet normal 0 0 1
    outer loop
      vertex -5 -11 1
      vertex -1.43868 -1.38932 1
      vertex -1.53209 -1.28557 1
    endloop
  endfacet
  facet normal 0 0 1
    outer loop
      vertex -5 -11 1
      vertex -1.53209 -1.28557 1
      vertex -1.61803 -1.17557 1
    endloop
  endfacet
  facet normal 0 0 1
    outer loop
      vertex -5 -11 1
      vertex -1.61803 -1.17557 1
      vertex -1.6961 -1.05984 1
    endloop
  endfacet
  facet normal 0 0 1
    outer loop
      vertex -5 -11 1
      vertex -2 0 1
      vertex -5 11 1
    endloop
  endfacet
  facet normal 0 0 1
    outer loop
      vertex -2 0 1
      vertex -5 -11 1
      vertex -1.99513 -0.139512 1
    endloop
  endfacet
  facet normal 0 0 1
    outer loop
      vertex -1.99513 -0.139512 1
      vertex -5 -11 1
      vertex -1.98054 -0.278346 1
    endloop
  endfacet
  facet normal 0 0 1
    outer loop
      vertex -1.98054 -0.278346 1
      vertex -5 -11 1
      vertex -1.9563 -0.415823 1
    endloop
  endfacet
  facet normal 0 0 1
    outer loop
      vertex -0.0697985 -1.99878 1
      vertex -5 -11 1
      vertex 5 -11 1
    endloop
  endfacet
  facet normal 0 0 1
    outer loop
      vertex -1.76589 -0.938943 1
      vertex -5 -11 1
      vertex -1.6961 -1.05984 1
    endloop
  endfacet
  facet normal 0 0 1
    outer loop
      vertex -1.82709 -0.813473 1
      vertex -5 -11 1
      vertex -1.76589 -0.938943 1
    endloop
  endfacet
  facet normal 0 0 1
    outer loop
      vertex -1.87938 -0.68404 1
      vertex -5 -11 1
      vertex -1.82709 -0.813473 1
    endloop
  endfacet
  facet normal 0 0 1
    outer loop
      vertex -1.92252 -0.551274 1
      vertex -5 -11 1
      vertex -1.87938 -0.68404 1
    endloop
  endfacet
  facet normal 0 0 1
    outer loop
      vertex -1.9563 -0.415823 1
      vertex -5 -11 1
      vertex -1.92252 -0.551274 1
    endloop
  endfacet
  facet normal 0 0 -1
    outer loop
      vertex -5 -11 -1
      vertex -1.95 -0.441071 -1
      vertex -1.95 -11 -1
    endloop
  endfacet
  facet normal -0 0 -1
    outer loop
      vertex -1.95 -0.441071 -1
      vertex -5 -11 -1
      vertex -1.9563 -0.415823 -1
    endloop
  endfacet
  facet normal -0 0 -1
    outer loop
      vertex -1.9563 -0.415823 -1
      vertex -5 -11 -1
      vertex -1.98054 -0.278346 -1
    endloop
  endfacet
  facet normal -0 0 -1
    outer loop
      vertex -1.98054 -0.278346 -1
      vertex -5 -11 -1
      vertex -1.99513 -0.139512 -1
    endloop
  endfacet
  facet normal -0 0 -1
    outer loop
      vertex -1.99513 -0.139512 -1
      vertex -5 -11 -1
      vertex -2 0 -1
    endloop
  endfacet
  facet normal 0 0 -1
    outer loop
      vertex -5 13 -1
      vertex -1.95 0.441071 -1
      vertex -1.9563 0.415823 -1
    endloop
  endfacet
  facet normal 0 0 -1
    outer loop
      vertex 5 -11 -1
      vertex 2 0 -1
      vertex 5 13 -1
    endloop
  endfacet
  facet normal 0 0 -1
    outer loop
      vertex 5 -11 -1
      vertex 1.99513 -0.139512 -1
      vertex 2 0 -1
    endloop
  endfacet
  facet normal 0 0 -1
    outer loop
      vertex 5 -11 -1
      vertex 1.98054 -0.278346 -1
      vertex 1.99513 -0.139512 -1
    endloop
  endfacet
  facet normal 0 0 -1
    outer loop
      vertex 5 -11 -1
      vertex 1.9563 -0.415823 -1
      vertex 1.98054 -0.278346 -1
    endloop
  endfacet
  facet normal 0 0 -1
    outer loop
      vertex 1.95 -0.441071 -1
      vertex 5 -11 -1
      vertex 1.95 -11 -1
    endloop
  endfacet
  facet normal 0 0 -1
    outer loop
      vertex 5 -11 -1
      vertex 1.95 -0.441071 -1
      vertex 1.9563 -0.415823 -1
    endloop
  endfacet
  facet normal 0 0 -1
    outer loop
      vertex 1.99513 0.139512 -1
      vertex 5 13 -1
      vertex 2 0 -1
    endloop
  endfacet
  facet normal 0 0 -1
    outer loop
      vertex 1.98054 0.278346 -1
      vertex 5 13 -1
      vertex 1.99513 0.139512 -1
    endloop
  endfacet
  facet normal 0 0 -1
    outer loop
      vertex 1.9563 0.415823 -1
      vertex 5 13 -1
      vertex 1.98054 0.278346 -1
    endloop
  endfacet
  facet normal 0 0 -1
    outer loop
      vertex 1.95 0.441071 -1
      vertex 5 13 -1
      vertex 1.9563 0.415823 -1
    endloop
  endfacet
  facet normal 0 0 -1
    outer loop
      vertex 1.95 11 -1
      vertex 5 13 -1
      vertex 1.95 0.441071 -1
    endloop
  endfacet
  facet normal 0 0 -1
    outer loop
      vertex -1.95 11 -1
      vertex 5 13 -1
      vertex 1.95 11 -1
    endloop
  endfacet
  facet normal 0 0 -1
    outer loop
      vertex -5 13 -1
      vertex -1.9563 0.415823 -1
      vertex -1.98054 0.278346 -1
    endloop
  endfacet
  facet normal 0 0 -1
    outer loop
      vertex -5 13 -1
      vertex -1.98054 0.278346 -1
      vertex -1.99513 0.139512 -1
    endloop
  endfacet
  facet normal 0 0 -1
    outer loop
      vertex -5 13 -1
      vertex -1.99513 0.139512 -1
      vertex -2 0 -1
    endloop
  endfacet
  facet normal 0 0 -1
    outer loop
      vertex -5 13 -1
      vertex -2 0 -1
      vertex -5 -11 -1
    endloop
  endfacet
  facet normal 0 0 -1
    outer loop
      vertex -1.95 11 -1
      vertex -5 13 -1
      vertex 5 13 -1
    endloop
  endfacet
  facet normal 0 0 -1
    outer loop
      vertex -1.95 0.441071 -1
      vertex -5 13 -1
      vertex -1.95 11 -1
    endloop
  endfacet
  facet normal -1 0 0
    outer loop
      vertex -5 13 -1
      vertex -5 11 1
      vertex -5 13 14
    endloop
  endfacet
  facet normal -1 0 0
    outer loop
      vertex -5 -11 -1
      vertex -5 11 1
      vertex -5 13 -1
    endloop
  endfacet
  facet normal -1 -0 0
    outer loop
      vertex -5 11 1
      vertex -5 -11 -1
      vertex -5 -11 1
    endloop
  endfacet
  facet normal -1 0 0
    outer loop
      vertex -5 21 14
      vertex -5 13 14
      vertex -5 18.5 16.5
    endloop
  endfacet
  facet normal -1 0 0
    outer loop
      vertex -5 11 19
      vertex -5 18.5 16.5
      vertex -5 13 14
    endloop
  endfacet
  facet normal -1 0 0
    outer loop
      vertex -5 18.5 16.5
      vertex -5 11 19
      vertex -5 21 19
    endloop
  endfacet
  facet normal -1 0 0
    outer loop
      vertex -5 11 19
      vertex -5 13 14
      vertex -5 11 1
    endloop
  endfacet
  facet normal 0 -1 0
    outer loop
      vertex -5 11 1
      vertex 5 11 19
      vertex -5 11 19
    endloop
  endfacet
  facet normal 0 -1 -0
    outer loop
      vertex 5 11 19
      vertex -5 11 1
      vertex 5 11 1
    endloop
  endfacet
  facet normal 0 1 -0
    outer loop
      vertex 1.95 11 -2
      vertex -1.95 11 -1
      vertex 1.95 11 -1
    endloop
  endfacet
  facet normal 0 1 0
    outer loop
      vertex -1.95 11 -1
      vertex 1.95 11 -2
      vertex -1.95 11 -2
    endloop
  endfacet
  facet normal 0 -1 0
    outer loop
      vertex -1.95 -11 -2
      vertex 1.95 -11 -1
      vertex -1.95 -11 -1
    endloop
  endfacet
  facet normal 0 -1 -0
    outer loop
      vertex 1.95 -11 -1
      vertex -1.95 -11 -2
      vertex 1.95 -11 -2
    endloop
  endfacet
  facet normal 0 -1 0
    outer loop
      vertex -1.95 -11 -1
      vertex -5 -11 1
      vertex -5 -11 -1
    endloop
  endfacet
  facet normal 0 -1 0
    outer loop
      vertex -5 -11 1
      vertex -1.95 -11 -1
      vertex 5 -11 1
    endloop
  endfacet
  facet normal 0 -1 0
    outer loop
      vertex 1.95 -11 -1
      vertex 5 -11 1
      vertex -1.95 -11 -1
    endloop
  endfacet
  facet normal 0 -1 -0
    outer loop
      vertex 5 -11 1
      vertex 1.95 -11 -1
      vertex 5 -11 -1
    endloop
  endfacet
  facet normal 1 -0 0
    outer loop
      vertex 1.95 0.441071 -1
      vertex 1.95 11 -2
      vertex 1.95 11 -1
    endloop
  endfacet
  facet normal 1 0 0
    outer loop
      vertex 1.95 11 -2
      vertex 1.95 0.441071 -1
      vertex 1.95 0.441071 -2
    endloop
  endfacet
  facet normal 1 -0 0
    outer loop
      vertex 1.95 -11 -1
      vertex 1.95 -0.441071 -2
      vertex 1.95 -0.441071 -1
    endloop
  endfacet
  facet normal 1 0 0
    outer loop
      vertex 1.95 -0.441071 -2
      vertex 1.95 -11 -1
      vertex 1.95 -11 -2
    endloop
  endfacet
  facet normal 0 0 -1
    outer loop
      vertex 1.92252 0.551274 -2
      vertex 1.95 11 -2
      vertex 1.95 0.441071 -2
    endloop
  endfacet
  facet normal 0 0 -1
    outer loop
      vertex 1.87938 0.68404 -2
      vertex 1.95 11 -2
      vertex 1.92252 0.551274 -2
    endloop
  endfacet
  facet normal 0 0 -1
    outer loop
      vertex 1.82709 0.813473 -2
      vertex 1.95 11 -2
      vertex 1.87938 0.68404 -2
    endloop
  endfacet
  facet normal 0 0 -1
    outer loop
      vertex 1.76589 0.938943 -2
      vertex 1.95 11 -2
      vertex 1.82709 0.813473 -2
    endloop
  endfacet
  facet normal 0 0 -1
    outer loop
      vertex 1.6961 1.05984 -2
      vertex 1.95 11 -2
      vertex 1.76589 0.938943 -2
    endloop
  endfacet
  facet normal 0 0 -1
    outer loop
      vertex 1.61803 1.17557 -2
      vertex 1.95 11 -2
      vertex 1.6961 1.05984 -2
    endloop
  endfacet
  facet normal 0 0 -1
    outer loop
      vertex 1.53209 1.28557 -2
      vertex 1.95 11 -2
      vertex 1.61803 1.17557 -2
    endloop
  endfacet
  facet normal 0 0 -1
    outer loop
      vertex 1.43868 1.38932 -2
      vertex 1.95 11 -2
      vertex 1.53209 1.28557 -2
    endloop
  endfacet
  facet normal 0 0 -1
    outer loop
      vertex 1.33826 1.48629 -2
      vertex 1.95 11 -2
      vertex 1.43868 1.38932 -2
    endloop
  endfacet
  facet normal 0 0 -1
    outer loop
      vertex 1.23132 1.57602 -2
      vertex 1.95 11 -2
      vertex 1.33826 1.48629 -2
    endloop
  endfacet
  facet normal 0 0 -1
    outer loop
      vertex 1.11839 1.65807 -2
      vertex 1.95 11 -2
      vertex 1.23132 1.57602 -2
    endloop
  endfacet
  facet normal 0 0 -1
    outer loop
      vertex 1 1.73205 -2
      vertex 1.95 11 -2
      vertex 1.11839 1.65807 -2
    endloop
  endfacet
  facet normal 0 0 -1
    outer loop
      vertex 0.876741 1.79759 -2
      vertex 1.95 11 -2
      vertex 1 1.73205 -2
    endloop
  endfacet
  facet normal 0 0 -1
    outer loop
      vertex 0.749212 1.85437 -2
      vertex 1.95 11 -2
      vertex 0.876741 1.79759 -2
    endloop
  endfacet
  facet normal 0 0 -1
    outer loop
      vertex 0.618033 1.90211 -2
      vertex 1.95 11 -2
      vertex 0.749212 1.85437 -2
    endloop
  endfacet
  facet normal 0 0 -1
    outer loop
      vertex 0.483843 1.94059 -2
      vertex 1.95 11 -2
      vertex 0.618033 1.90211 -2
    endloop
  endfacet
  facet normal 0 0 -1
    outer loop
      vertex 0.347296 1.96961 -2
      vertex 1.95 11 -2
      vertex 0.483843 1.94059 -2
    endloop
  endfacet
  facet normal 0 0 -1
    outer loop
      vertex 0.209057 1.98904 -2
      vertex 1.95 11 -2
      vertex 0.347296 1.96961 -2
    endloop
  endfacet
  facet normal 0 0 -1
    outer loop
      vertex 0.0697985 1.99878 -2
      vertex 1.95 11 -2
      vertex 0.209057 1.98904 -2
    endloop
  endfacet
  facet normal 0 0 -1
    outer loop
      vertex -0.0697985 1.99878 -2
      vertex 1.95 11 -2
      vertex 0.0697985 1.99878 -2
    endloop
  endfacet
  facet normal 0 0 -1
    outer loop
      vertex -1.95 11 -2
      vertex -0.0697985 1.99878 -2
      vertex -0.209057 1.98904 -2
    endloop
  endfacet
  facet normal 0 0 -1
    outer loop
      vertex -1.95 11 -2
      vertex -0.209057 1.98904 -2
      vertex -0.347296 1.96961 -2
    endloop
  endfacet
  facet normal 0 0 -1
    outer loop
      vertex -1.95 11 -2
      vertex -0.347296 1.96961 -2
      vertex -0.483843 1.94059 -2
    endloop
  endfacet
  facet normal 0 0 -1
    outer loop
      vertex -1.95 11 -2
      vertex -0.483843 1.94059 -2
      vertex -0.618033 1.90211 -2
    endloop
  endfacet
  facet normal 0 0 -1
    outer loop
      vertex -1.95 11 -2
      vertex -0.618033 1.90211 -2
      vertex -0.749212 1.85437 -2
    endloop
  endfacet
  facet normal 0 0 -1
    outer loop
      vertex -1.95 11 -2
      vertex -0.749212 1.85437 -2
      vertex -0.876741 1.79759 -2
    endloop
  endfacet
  facet normal 0 0 -1
    outer loop
      vertex -1.95 11 -2
      vertex -0.876741 1.79759 -2
      vertex -1 1.73205 -2
    endloop
  endfacet
  facet normal 0 0 -1
    outer loop
      vertex -1.95 11 -2
      vertex -1 1.73205 -2
      vertex -1.11839 1.65807 -2
    endloop
  endfacet
  facet normal 0 0 -1
    outer loop
      vertex -1.95 11 -2
      vertex -1.11839 1.65807 -2
      vertex -1.23132 1.57602 -2
    endloop
  endfacet
  facet normal 0 0 -1
    outer loop
      vertex -1.95 11 -2
      vertex -1.23132 1.57602 -2
      vertex -1.33826 1.48629 -2
    endloop
  endfacet
  facet normal 0 0 -1
    outer loop
      vertex -1.95 11 -2
      vertex -1.33826 1.48629 -2
      vertex -1.43868 1.38932 -2
    endloop
  endfacet
  facet normal 0 0 -1
    outer loop
      vertex -1.95 11 -2
      vertex -1.43868 1.38932 -2
      vertex -1.53209 1.28557 -2
    endloop
  endfacet
  facet normal 0 0 -1
    outer loop
      vertex -1.95 11 -2
      vertex -1.53209 1.28557 -2
      vertex -1.61803 1.17557 -2
    endloop
  endfacet
  facet normal 0 0 -1
    outer loop
      vertex -1.95 11 -2
      vertex -1.61803 1.17557 -2
      vertex -1.6961 1.05984 -2
    endloop
  endfacet
  facet normal 0 0 -1
    outer loop
      vertex -1.95 11 -2
      vertex -1.6961 1.05984 -2
      vertex -1.76589 0.938943 -2
    endloop
  endfacet
  facet normal 0 0 -1
    outer loop
      vertex -1.95 11 -2
      vertex -1.76589 0.938943 -2
      vertex -1.82709 0.813473 -2
    endloop
  endfacet
  facet normal 0 0 -1
    outer loop
      vertex -1.95 11 -2
      vertex -1.82709 0.813473 -2
      vertex -1.87938 0.68404 -2
    endloop
  endfacet
  facet normal 0 0 -1
    outer loop
      vertex -0.0697985 1.99878 -2
      vertex -1.95 11 -2
      vertex 1.95 11 -2
    endloop
  endfacet
  facet normal 0 0 -1
    outer loop
      vertex -1.92252 0.551274 -2
      vertex -1.95 11 -2
      vertex -1.87938 0.68404 -2
    endloop
  endfacet
  facet normal 0 0 -1
    outer loop
      vertex -1.95 11 -2
      vertex -1.92252 0.551274 -2
      vertex -1.95 0.441071 -2
    endloop
  endfacet
  facet normal 0 0 -1
    outer loop
      vertex 1.95 -11 -2
      vertex 1.92252 -0.551274 -2
      vertex 1.95 -0.441071 -2
    endloop
  endfacet
  facet normal 0 0 -1
    outer loop
      vertex 1.95 -11 -2
      vertex 1.87938 -0.68404 -2
      vertex 1.92252 -0.551274 -2
    endloop
  endfacet
  facet normal 0 0 -1
    outer loop
      vertex 1.95 -11 -2
      vertex 1.82709 -0.813473 -2
      vertex 1.87938 -0.68404 -2
    endloop
  endfacet
  facet normal 0 0 -1
    outer loop
      vertex 1.95 -11 -2
      vertex 1.76589 -0.938943 -2
      vertex 1.82709 -0.813473 -2
    endloop
  endfacet
  facet normal 0 0 -1
    outer loop
      vertex 1.95 -11 -2
      vertex 1.6961 -1.05984 -2
      vertex 1.76589 -0.938943 -2
    endloop
  endfacet
  facet normal 0 0 -1
    outer loop
      vertex 1.95 -11 -2
      vertex 1.61803 -1.17557 -2
      vertex 1.6961 -1.05984 -2
    endloop
  endfacet
  facet normal 0 0 -1
    outer loop
      vertex 1.95 -11 -2
      vertex 1.53209 -1.28557 -2
      vertex 1.61803 -1.17557 -2
    endloop
  endfacet
  facet normal 0 0 -1
    outer loop
      vertex 1.95 -11 -2
      vertex 1.43868 -1.38932 -2
      vertex 1.53209 -1.28557 -2
    endloop
  endfacet
  facet normal 0 0 -1
    outer loop
      vertex 1.95 -11 -2
      vertex 1.33826 -1.48629 -2
      vertex 1.43868 -1.38932 -2
    endloop
  endfacet
  facet normal 0 0 -1
    outer loop
      vertex 1.95 -11 -2
      vertex 1.23132 -1.57602 -2
      vertex 1.33826 -1.48629 -2
    endloop
  endfacet
  facet normal 0 0 -1
    outer loop
      vertex 1.95 -11 -2
      vertex 1.11839 -1.65807 -2
      vertex 1.23132 -1.57602 -2
    endloop
  endfacet
  facet normal 0 0 -1
    outer loop
      vertex 1.95 -11 -2
      vertex 1 -1.73205 -2
      vertex 1.11839 -1.65807 -2
    endloop
  endfacet
  facet normal 0 0 -1
    outer loop
      vertex 1.95 -11 -2
      vertex 0.876741 -1.79759 -2
      vertex 1 -1.73205 -2
    endloop
  endfacet
  facet normal 0 0 -1
    outer loop
      vertex 1.95 -11 -2
      vertex 0.749212 -1.85437 -2
      vertex 0.876741 -1.79759 -2
    endloop
  endfacet
  facet normal 0 0 -1
    outer loop
      vertex 1.95 -11 -2
      vertex 0.618033 -1.90211 -2
      vertex 0.749212 -1.85437 -2
    endloop
  endfacet
  facet normal 0 0 -1
    outer loop
      vertex 1.95 -11 -2
      vertex 0.483843 -1.94059 -2
      vertex 0.618033 -1.90211 -2
    endloop
  endfacet
  facet normal 0 0 -1
    outer loop
      vertex 1.95 -11 -2
      vertex 0.347296 -1.96961 -2
      vertex 0.483843 -1.94059 -2
    endloop
  endfacet
  facet normal 0 0 -1
    outer loop
      vertex 1.95 -11 -2
      vertex 0.209057 -1.98904 -2
      vertex 0.347296 -1.96961 -2
    endloop
  endfacet
  facet normal 0 0 -1
    outer loop
      vertex 1.95 -11 -2
      vertex 0.0697985 -1.99878 -2
      vertex 0.209057 -1.98904 -2
    endloop
  endfacet
  facet normal 0 0 -1
    outer loop
      vertex 1.95 -11 -2
      vertex -0.0697985 -1.99878 -2
      vertex 0.0697985 -1.99878 -2
    endloop
  endfacet
  facet normal 0 0 -1
    outer loop
      vertex -1.95 -11 -2
      vertex -0.0697985 -1.99878 -2
      vertex 1.95 -11 -2
    endloop
  endfacet
  facet normal -0 0 -1
    outer loop
      vertex -0.0697985 -1.99878 -2
      vertex -1.95 -11 -2
      vertex -0.209057 -1.98904 -2
    endloop
  endfacet
  facet normal -0 0 -1
    outer loop
      vertex -0.209057 -1.98904 -2
      vertex -1.95 -11 -2
      vertex -0.347296 -1.96961 -2
    endloop
  endfacet
  facet normal -0 0 -1
    outer loop
      vertex -0.347296 -1.96961 -2
      vertex -1.95 -11 -2
      vertex -0.483843 -1.94059 -2
    endloop
  endfacet
  facet normal -0 0 -1
    outer loop
      vertex -0.483843 -1.94059 -2
      vertex -1.95 -11 -2
      vertex -0.618033 -1.90211 -2
    endloop
  endfacet
  facet normal -0 0 -1
    outer loop
      vertex -0.618033 -1.90211 -2
      vertex -1.95 -11 -2
      vertex -0.749212 -1.85437 -2
    endloop
  endfacet
  facet normal -0 0 -1
    outer loop
      vertex -0.749212 -1.85437 -2
      vertex -1.95 -11 -2
      vertex -0.876741 -1.79759 -2
    endloop
  endfacet
  facet normal -0 0 -1
    outer loop
      vertex -0.876741 -1.79759 -2
      vertex -1.95 -11 -2
      vertex -1 -1.73205 -2
    endloop
  endfacet
  facet normal -0 0 -1
    outer loop
      vertex -1 -1.73205 -2
      vertex -1.95 -11 -2
      vertex -1.11839 -1.65807 -2
    endloop
  endfacet
  facet normal -0 0 -1
    outer loop
      vertex -1.11839 -1.65807 -2
      vertex -1.95 -11 -2
      vertex -1.23132 -1.57602 -2
    endloop
  endfacet
  facet normal -0 0 -1
    outer loop
      vertex -1.23132 -1.57602 -2
      vertex -1.95 -11 -2
      vertex -1.33826 -1.48629 -2
    endloop
  endfacet
  facet normal -0 0 -1
    outer loop
      vertex -1.33826 -1.48629 -2
      vertex -1.95 -11 -2
      vertex -1.43868 -1.38932 -2
    endloop
  endfacet
  facet normal -0 0 -1
    outer loop
      vertex -1.43868 -1.38932 -2
      vertex -1.95 -11 -2
      vertex -1.53209 -1.28557 -2
    endloop
  endfacet
  facet normal -0 0 -1
    outer loop
      vertex -1.53209 -1.28557 -2
      vertex -1.95 -11 -2
      vertex -1.61803 -1.17557 -2
    endloop
  endfacet
  facet normal -0 0 -1
    outer loop
      vertex -1.61803 -1.17557 -2
      vertex -1.95 -11 -2
      vertex -1.6961 -1.05984 -2
    endloop
  endfacet
  facet normal -0 0 -1
    outer loop
      vertex -1.6961 -1.05984 -2
      vertex -1.95 -11 -2
      vertex -1.76589 -0.938943 -2
    endloop
  endfacet
  facet normal -0 0 -1
    outer loop
      vertex -1.76589 -0.938943 -2
      vertex -1.95 -11 -2
      vertex -1.82709 -0.813473 -2
    endloop
  endfacet
  facet normal -0 0 -1
    outer loop
      vertex -1.82709 -0.813473 -2
      vertex -1.95 -11 -2
      vertex -1.87938 -0.68404 -2
    endloop
  endfacet
  facet normal 0 0 -1
    outer loop
      vertex -1.95 -11 -2
      vertex -1.92252 -0.551274 -2
      vertex -1.87938 -0.68404 -2
    endloop
  endfacet
  facet normal -0 0 -1
    outer loop
      vertex -1.92252 -0.551274 -2
      vertex -1.95 -11 -2
      vertex -1.95 -0.441071 -2
    endloop
  endfacet
  facet normal -1 0 0
    outer loop
      vertex -1.95 0.441071 -2
      vertex -1.95 11 -1
      vertex -1.95 11 -2
    endloop
  endfacet
  facet normal -1 -0 0
    outer loop
      vertex -1.95 11 -1
      vertex -1.95 0.441071 -2
      vertex -1.95 0.441071 -1
    endloop
  endfacet
  facet normal -1 0 0
    outer loop
      vertex -1.95 -11 -2
      vertex -1.95 -0.441071 -1
      vertex -1.95 -0.441071 -2
    endloop
  endfacet
  facet normal -1 -0 0
    outer loop
      vertex -1.95 -0.441071 -1
      vertex -1.95 -11 -2
      vertex -1.95 -11 -1
    endloop
  endfacet
  facet normal 0.898782 -0.438395 0
    outer loop
      vertex -1.82709 0.813473 1
      vertex -1.76589 0.938943 -2
      vertex -1.76589 0.938943 1
    endloop
  endfacet
  facet normal 0.898782 -0.438395 0
    outer loop
      vertex -1.76589 0.938943 -2
      vertex -1.82709 0.813473 1
      vertex -1.82709 0.813473 -2
    endloop
  endfacet
  facet normal 0.529928 -0.848043 0
    outer loop
      vertex -1.11839 1.65807 -2
      vertex -1 1.73205 1
      vertex -1.11839 1.65807 1
    endloop
  endfacet
  facet normal 0.529928 -0.848043 0
    outer loop
      vertex -1 1.73205 1
      vertex -1.11839 1.65807 -2
      vertex -1 1.73205 -2
    endloop
  endfacet
  facet normal 0.951053 0.309028 0
    outer loop
      vertex -1.87938 -0.68404 1
      vertex -1.92252 -0.551274 -2
      vertex -1.92252 -0.551274 1
    endloop
  endfacet
  facet normal 0.951053 0.309028 0
    outer loop
      vertex -1.92252 -0.551274 -2
      vertex -1.87938 -0.68404 1
      vertex -1.87938 -0.68404 -2
    endloop
  endfacet
  facet normal -0.529928 0.848043 0
    outer loop
      vertex 1.11839 -1.65807 -2
      vertex 1 -1.73205 1
      vertex 1.11839 -1.65807 1
    endloop
  endfacet
  facet normal -0.529928 0.848043 0
    outer loop
      vertex 1 -1.73205 1
      vertex 1.11839 -1.65807 -2
      vertex 1 -1.73205 -2
    endloop
  endfacet
  facet normal 0.207885 -0.978153 0
    outer loop
      vertex -0.483843 1.94059 -2
      vertex -0.347296 1.96961 1
      vertex -0.483843 1.94059 1
    endloop
  endfacet
  facet normal 0.207885 -0.978153 0
    outer loop
      vertex -0.347296 1.96961 1
      vertex -0.483843 1.94059 -2
      vertex -0.347296 1.96961 -2
    endloop
  endfacet
  facet normal -0.829007 -0.559238 0
    outer loop
      vertex 1.6961 1.05984 -2
      vertex 1.61803 1.17557 1
      vertex 1.61803 1.17557 -2
    endloop
  endfacet
  facet normal -0.829007 -0.559238 0
    outer loop
      vertex 1.61803 1.17557 1
      vertex 1.6961 1.05984 -2
      vertex 1.6961 1.05984 1
    endloop
  endfacet
  facet normal -0.0697714 -0.997563 0
    outer loop
      vertex 0.0697985 1.99878 -2
      vertex 0.209057 1.98904 1
      vertex 0.0697985 1.99878 1
    endloop
  endfacet
  facet normal -0.0697714 -0.997563 -0
    outer loop
      vertex 0.209057 1.98904 1
      vertex 0.0697985 1.99878 -2
      vertex 0.209057 1.98904 -2
    endloop
  endfacet
  facet normal -0.406739 -0.913544 0
    outer loop
      vertex 0.749212 1.85437 -2
      vertex 0.876741 1.79759 1
      vertex 0.749212 1.85437 1
    endloop
  endfacet
  facet normal -0.406739 -0.913544 -0
    outer loop
      vertex 0.876741 1.79759 1
      vertex 0.749212 1.85437 -2
      vertex 0.876741 1.79759 -2
    endloop
  endfacet
  facet normal 0.139186 -0.990266 0
    outer loop
      vertex -0.347296 1.96961 -2
      vertex -0.209057 1.98904 1
      vertex -0.347296 1.96961 1
    endloop
  endfacet
  facet normal 0.139186 -0.990266 0
    outer loop
      vertex -0.209057 1.98904 1
      vertex -0.347296 1.96961 -2
      vertex -0.209057 1.98904 -2
    endloop
  endfacet
  facet normal -0.642774 0.766056 0
    outer loop
      vertex 1.33826 -1.48629 -2
      vertex 1.23132 -1.57602 1
      vertex 1.33826 -1.48629 1
    endloop
  endfacet
  facet normal -0.642774 0.766056 0
    outer loop
      vertex 1.23132 -1.57602 1
      vertex 1.33826 -1.48629 -2
      vertex 1.23132 -1.57602 -2
    endloop
  endfacet
  facet normal -0.994523 -0.104514 0
    outer loop
      vertex 1.99513 0.139512 -1
      vertex 1.98054 0.278346 1
      vertex 1.98054 0.278346 -1
    endloop
  endfacet
  facet normal -0.994523 -0.104514 0
    outer loop
      vertex 1.98054 0.278346 1
      vertex 1.99513 0.139512 -1
      vertex 1.99513 0.139512 1
    endloop
  endfacet
  facet normal 0.866056 0.499947 0
    outer loop
      vertex -1.6961 -1.05984 1
      vertex -1.76589 -0.938943 -2
      vertex -1.76589 -0.938943 1
    endloop
  endfacet
  facet normal 0.866056 0.499947 0
    outer loop
      vertex -1.76589 -0.938943 -2
      vertex -1.6961 -1.05984 1
      vertex -1.6961 -1.05984 -2
    endloop
  endfacet
  facet normal -0.341987 0.939705 0
    outer loop
      vertex 0.749212 -1.85437 -2
      vertex 0.618033 -1.90211 1
      vertex 0.749212 -1.85437 1
    endloop
  endfacet
  facet normal -0.341987 0.939705 0
    outer loop
      vertex 0.618033 -1.90211 1
      vertex 0.749212 -1.85437 -2
      vertex 0.618033 -1.90211 -2
    endloop
  endfacet
  facet normal -0.0697714 0.997563 0
    outer loop
      vertex 0.209057 -1.98904 -2
      vertex 0.0697985 -1.99878 1
      vertex 0.209057 -1.98904 1
    endloop
  endfacet
  facet normal -0.0697714 0.997563 0
    outer loop
      vertex 0.0697985 -1.99878 1
      vertex 0.209057 -1.98904 -2
      vertex 0.0697985 -1.99878 -2
    endloop
  endfacet
  facet normal 0.694642 -0.719356 0
    outer loop
      vertex -1.43868 1.38932 -2
      vertex -1.33826 1.48629 1
      vertex -1.43868 1.38932 1
    endloop
  endfacet
  facet normal 0.694642 -0.719356 0
    outer loop
      vertex -1.33826 1.48629 1
      vertex -1.43868 1.38932 -2
      vertex -1.33826 1.48629 -2
    endloop
  endfacet
  facet normal 0.743169 0.669103 0
    outer loop
      vertex -1.43868 -1.38932 1
      vertex -1.53209 -1.28557 -2
      vertex -1.53209 -1.28557 1
    endloop
  endfacet
  facet normal 0.743169 0.669103 0
    outer loop
      vertex -1.53209 -1.28557 -2
      vertex -1.43868 -1.38932 1
      vertex -1.43868 -1.38932 -2
    endloop
  endfacet
  facet normal -0.694642 -0.719356 0
    outer loop
      vertex 1.33826 1.48629 -2
      vertex 1.43868 1.38932 1
      vertex 1.33826 1.48629 1
    endloop
  endfacet
  facet normal -0.694642 -0.719356 -0
    outer loop
      vertex 1.43868 1.38932 1
      vertex 1.33826 1.48629 -2
      vertex 1.43868 1.38932 -2
    endloop
  endfacet
  facet normal -0.406739 0.913544 0
    outer loop
      vertex 0.876741 -1.79759 -2
      vertex 0.749212 -1.85437 1
      vertex 0.876741 -1.79759 1
    endloop
  endfacet
  facet normal -0.406739 0.913544 0
    outer loop
      vertex 0.749212 -1.85437 1
      vertex 0.876741 -1.79759 -2
      vertex 0.749212 -1.85437 -2
    endloop
  endfacet
  facet normal -0.999391 -0.0348861 0
    outer loop
      vertex 2 0 -1
      vertex 1.99513 0.139512 1
      vertex 1.99513 0.139512 -1
    endloop
  endfacet
  facet normal -0.999391 -0.0348861 0
    outer loop
      vertex 1.99513 0.139512 1
      vertex 2 0 -1
      vertex 2 0 1
    endloop
  endfacet
  facet normal 0.994523 -0.104514 0
    outer loop
      vertex -1.99513 0.139512 1
      vertex -1.98054 0.278346 -1
      vertex -1.98054 0.278346 1
    endloop
  endfacet
  facet normal 0.994523 -0.104514 0
    outer loop
      vertex -1.98054 0.278346 -1
      vertex -1.99513 0.139512 1
      vertex -1.99513 0.139512 -1
    endloop
  endfacet
  facet normal -0.341987 -0.939705 0
    outer loop
      vertex 0.618033 1.90211 -2
      vertex 0.749212 1.85437 1
      vertex 0.618033 1.90211 1
    endloop
  endfacet
  facet normal -0.341987 -0.939705 -0
    outer loop
      vertex 0.749212 1.85437 1
      vertex 0.618033 1.90211 -2
      vertex 0.749212 1.85437 -2
    endloop
  endfacet
  facet normal -0.139186 0.990266 0
    outer loop
      vertex 0.347296 -1.96961 -2
      vertex 0.209057 -1.98904 1
      vertex 0.347296 -1.96961 1
    endloop
  endfacet
  facet normal -0.139186 0.990266 0
    outer loop
      vertex 0.209057 -1.98904 1
      vertex 0.347296 -1.96961 -2
      vertex 0.209057 -1.98904 -2
    endloop
  endfacet
  facet normal 0.994523 0.104514 0
    outer loop
      vertex -1.98054 -0.278346 1
      vertex -1.99513 -0.139512 -1
      vertex -1.99513 -0.139512 1
    endloop
  endfacet
  facet normal 0.994523 0.104514 0
    outer loop
      vertex -1.99513 -0.139512 -1
      vertex -1.98054 -0.278346 1
      vertex -1.98054 -0.278346 -1
    endloop
  endfacet
  facet normal 0.341987 -0.939705 0
    outer loop
      vertex -0.749212 1.85437 -2
      vertex -0.618033 1.90211 1
      vertex -0.749212 1.85437 1
    endloop
  endfacet
  facet normal 0.341987 -0.939705 0
    outer loop
      vertex -0.618033 1.90211 1
      vertex -0.749212 1.85437 -2
      vertex -0.618033 1.90211 -2
    endloop
  endfacet
  facet normal 0.0697714 -0.997563 0
    outer loop
      vertex -0.209057 1.98904 -2
      vertex -0.0697985 1.99878 1
      vertex -0.209057 1.98904 1
    endloop
  endfacet
  facet normal 0.0697714 -0.997563 0
    outer loop
      vertex -0.0697985 1.99878 1
      vertex -0.209057 1.98904 -2
      vertex -0.0697985 1.99878 -2
    endloop
  endfacet
  facet normal -0.898782 0.438395 0
    outer loop
      vertex 1.76589 -0.938943 -2
      vertex 1.82709 -0.813473 1
      vertex 1.82709 -0.813473 -2
    endloop
  endfacet
  facet normal -0.898782 0.438395 0
    outer loop
      vertex 1.82709 -0.813473 1
      vertex 1.76589 -0.938943 -2
      vertex 1.76589 -0.938943 1
    endloop
  endfacet
  facet normal -0.970289 -0.241949 -0
    outer loop
      vertex 1.95 0.441071 -1
      vertex 1.92252 0.551274 -2
      vertex 1.95 0.441071 -2
    endloop
  endfacet
  facet normal -0.970289 -0.241949 0
    outer loop
      vertex 1.92252 0.551274 -2
      vertex 1.95 0.441071 -1
      vertex 1.92252 0.551274 1
    endloop
  endfacet
  facet normal -0.970251 -0.242102 -0
    outer loop
      vertex 1.9563 0.415823 1
      vertex 1.95 0.441071 -1
      vertex 1.9563 0.415823 -1
    endloop
  endfacet
  facet normal -0.970282 -0.241978 1.66139e-06
    outer loop
      vertex 1.95 0.441071 -1
      vertex 1.9563 0.415823 1
      vertex 1.92252 0.551274 1
    endloop
  endfacet
  facet normal 0.999391 0.0348861 0
    outer loop
      vertex -1.99513 -0.139512 1
      vertex -2 0 -1
      vertex -2 0 1
    endloop
  endfacet
  facet normal 0.999391 0.0348861 0
    outer loop
      vertex -2 0 -1
      vertex -1.99513 -0.139512 1
      vertex -1.99513 -0.139512 -1
    endloop
  endfacet
  facet normal 0.788016 0.615655 0
    outer loop
      vertex -1.53209 -1.28557 1
      vertex -1.61803 -1.17557 -2
      vertex -1.61803 -1.17557 1
    endloop
  endfacet
  facet normal 0.788016 0.615655 0
    outer loop
      vertex -1.61803 -1.17557 -2
      vertex -1.53209 -1.28557 1
      vertex -1.53209 -1.28557 -2
    endloop
  endfacet
  facet normal -0.207885 -0.978153 0
    outer loop
      vertex 0.347296 1.96961 -2
      vertex 0.483843 1.94059 1
      vertex 0.347296 1.96961 1
    endloop
  endfacet
  facet normal -0.207885 -0.978153 -0
    outer loop
      vertex 0.483843 1.94059 1
      vertex 0.347296 1.96961 -2
      vertex 0.483843 1.94059 -2
    endloop
  endfacet
  facet normal -0.642774 -0.766056 0
    outer loop
      vertex 1.23132 1.57602 -2
      vertex 1.33826 1.48629 1
      vertex 1.23132 1.57602 1
    endloop
  endfacet
  facet normal -0.642774 -0.766056 -0
    outer loop
      vertex 1.33826 1.48629 1
      vertex 1.23132 1.57602 -2
      vertex 1.33826 1.48629 -2
    endloop
  endfacet
  facet normal -0.743169 -0.669103 0
    outer loop
      vertex 1.53209 1.28557 -2
      vertex 1.43868 1.38932 1
      vertex 1.43868 1.38932 -2
    endloop
  endfacet
  facet normal -0.743169 -0.669103 0
    outer loop
      vertex 1.43868 1.38932 1
      vertex 1.53209 1.28557 -2
      vertex 1.53209 1.28557 1
    endloop
  endfacet
  facet normal -0.587793 -0.809012 0
    outer loop
      vertex 1.11839 1.65807 -2
      vertex 1.23132 1.57602 1
      vertex 1.11839 1.65807 1
    endloop
  endfacet
  facet normal -0.587793 -0.809012 -0
    outer loop
      vertex 1.23132 1.57602 1
      vertex 1.11839 1.65807 -2
      vertex 1.23132 1.57602 -2
    endloop
  endfacet
  facet normal -0.927195 -0.37458 0
    outer loop
      vertex 1.87938 0.68404 -2
      vertex 1.82709 0.813473 1
      vertex 1.82709 0.813473 -2
    endloop
  endfacet
  facet normal -0.927195 -0.37458 0
    outer loop
      vertex 1.82709 0.813473 1
      vertex 1.87938 0.68404 -2
      vertex 1.87938 0.68404 1
    endloop
  endfacet
  facet normal -0.587793 0.809012 0
    outer loop
      vertex 1.23132 -1.57602 -2
      vertex 1.11839 -1.65807 1
      vertex 1.23132 -1.57602 1
    endloop
  endfacet
  facet normal -0.587793 0.809012 0
    outer loop
      vertex 1.11839 -1.65807 1
      vertex 1.23132 -1.57602 -2
      vertex 1.11839 -1.65807 -2
    endloop
  endfacet
  facet normal -0.999391 0.0348861 0
    outer loop
      vertex 1.99513 -0.139512 -1
      vertex 2 0 1
      vertex 2 0 -1
    endloop
  endfacet
  facet normal -0.999391 0.0348861 0
    outer loop
      vertex 2 0 1
      vertex 1.99513 -0.139512 -1
      vertex 1.99513 -0.139512 1
    endloop
  endfacet
  facet normal -0.866056 -0.499947 0
    outer loop
      vertex 1.76589 0.938943 -2
      vertex 1.6961 1.05984 1
      vertex 1.6961 1.05984 -2
    endloop
  endfacet
  facet normal -0.866056 -0.499947 0
    outer loop
      vertex 1.6961 1.05984 1
      vertex 1.76589 0.938943 -2
      vertex 1.76589 0.938943 1
    endloop
  endfacet
  facet normal -0.694642 0.719356 0
    outer loop
      vertex 1.43868 -1.38932 -2
      vertex 1.33826 -1.48629 1
      vertex 1.43868 -1.38932 1
    endloop
  endfacet
  facet normal -0.694642 0.719356 0
    outer loop
      vertex 1.33826 -1.48629 1
      vertex 1.43868 -1.38932 -2
      vertex 1.33826 -1.48629 -2
    endloop
  endfacet
  facet normal -0.788016 0.615655 0
    outer loop
      vertex 1.53209 -1.28557 -2
      vertex 1.61803 -1.17557 1
      vertex 1.61803 -1.17557 -2
    endloop
  endfacet
  facet normal -0.788016 0.615655 0
    outer loop
      vertex 1.61803 -1.17557 1
      vertex 1.53209 -1.28557 -2
      vertex 1.53209 -1.28557 1
    endloop
  endfacet
  facet normal 0.743169 -0.669103 0
    outer loop
      vertex -1.53209 1.28557 1
      vertex -1.43868 1.38932 -2
      vertex -1.43868 1.38932 1
    endloop
  endfacet
  facet normal 0.743169 -0.669103 0
    outer loop
      vertex -1.43868 1.38932 -2
      vertex -1.53209 1.28557 1
      vertex -1.53209 1.28557 -2
    endloop
  endfacet
  facet normal 0.927195 -0.37458 0
    outer loop
      vertex -1.87938 0.68404 1
      vertex -1.82709 0.813473 -2
      vertex -1.82709 0.813473 1
    endloop
  endfacet
  facet normal 0.927195 -0.37458 0
    outer loop
      vertex -1.82709 0.813473 -2
      vertex -1.87938 0.68404 1
      vertex -1.87938 0.68404 -2
    endloop
  endfacet
  facet normal -0.927195 0.37458 0
    outer loop
      vertex 1.82709 -0.813473 -2
      vertex 1.87938 -0.68404 1
      vertex 1.87938 -0.68404 -2
    endloop
  endfacet
  facet normal -0.927195 0.37458 0
    outer loop
      vertex 1.87938 -0.68404 1
      vertex 1.82709 -0.813473 -2
      vertex 1.82709 -0.813473 1
    endloop
  endfacet
  facet normal 0.951053 -0.309028 0
    outer loop
      vertex -1.92252 0.551274 1
      vertex -1.87938 0.68404 -2
      vertex -1.87938 0.68404 1
    endloop
  endfacet
  facet normal 0.951053 -0.309028 0
    outer loop
      vertex -1.87938 0.68404 -2
      vertex -1.92252 0.551274 1
      vertex -1.92252 0.551274 -2
    endloop
  endfacet
  facet normal -0.984809 -0.173642 0
    outer loop
      vertex 1.98054 0.278346 -1
      vertex 1.9563 0.415823 1
      vertex 1.9563 0.415823 -1
    endloop
  endfacet
  facet normal -0.984809 -0.173642 0
    outer loop
      vertex 1.9563 0.415823 1
      vertex 1.98054 0.278346 -1
      vertex 1.98054 0.278346 1
    endloop
  endfacet
  facet normal 0.341987 0.939705 -0
    outer loop
      vertex -0.618033 -1.90211 -2
      vertex -0.749212 -1.85437 1
      vertex -0.618033 -1.90211 1
    endloop
  endfacet
  facet normal 0.341987 0.939705 0
    outer loop
      vertex -0.749212 -1.85437 1
      vertex -0.618033 -1.90211 -2
      vertex -0.749212 -1.85437 -2
    endloop
  endfacet
  facet normal -0.951053 -0.309028 0
    outer loop
      vertex 1.92252 0.551274 -2
      vertex 1.87938 0.68404 1
      vertex 1.87938 0.68404 -2
    endloop
  endfacet
  facet normal -0.951053 -0.309028 0
    outer loop
      vertex 1.87938 0.68404 1
      vertex 1.92252 0.551274 -2
      vertex 1.92252 0.551274 1
    endloop
  endfacet
  facet normal -0.970289 0.241949 0
    outer loop
      vertex 1.95 -0.441071 -2
      vertex 1.92252 -0.551274 -2
      vertex 1.95 -0.441071 -1
    endloop
  endfacet
  facet normal -0.970251 0.242102 0
    outer loop
      vertex 1.95 -0.441071 -1
      vertex 1.9563 -0.415823 1
      vertex 1.9563 -0.415823 -1
    endloop
  endfacet
  facet normal -0.970289 0.241949 0
    outer loop
      vertex 1.92252 -0.551274 1
      vertex 1.95 -0.441071 -1
      vertex 1.92252 -0.551274 -2
    endloop
  endfacet
  facet normal -0.970282 0.241978 1.66139e-06
    outer loop
      vertex 1.95 -0.441071 -1
      vertex 1.92252 -0.551274 1
      vertex 1.9563 -0.415823 1
    endloop
  endfacet
  facet normal -0.275648 0.961259 0
    outer loop
      vertex 0.618033 -1.90211 -2
      vertex 0.483843 -1.94059 1
      vertex 0.618033 -1.90211 1
    endloop
  endfacet
  facet normal -0.275648 0.961259 0
    outer loop
      vertex 0.483843 -1.94059 1
      vertex 0.618033 -1.90211 -2
      vertex 0.483843 -1.94059 -2
    endloop
  endfacet
  facet normal 0.927195 0.37458 0
    outer loop
      vertex -1.82709 -0.813473 1
      vertex -1.87938 -0.68404 -2
      vertex -1.87938 -0.68404 1
    endloop
  endfacet
  facet normal 0.927195 0.37458 0
    outer loop
      vertex -1.87938 -0.68404 -2
      vertex -1.82709 -0.813473 1
      vertex -1.82709 -0.813473 -2
    endloop
  endfacet
  facet normal -0.788016 -0.615655 0
    outer loop
      vertex 1.61803 1.17557 -2
      vertex 1.53209 1.28557 1
      vertex 1.53209 1.28557 -2
    endloop
  endfacet
  facet normal -0.788016 -0.615655 0
    outer loop
      vertex 1.53209 1.28557 1
      vertex 1.61803 1.17557 -2
      vertex 1.61803 1.17557 1
    endloop
  endfacet
  facet normal 0.587793 -0.809012 0
    outer loop
      vertex -1.23132 1.57602 -2
      vertex -1.11839 1.65807 1
      vertex -1.23132 1.57602 1
    endloop
  endfacet
  facet normal 0.587793 -0.809012 0
    outer loop
      vertex -1.11839 1.65807 1
      vertex -1.23132 1.57602 -2
      vertex -1.11839 1.65807 -2
    endloop
  endfacet
  facet normal 0.0697714 0.997563 -0
    outer loop
      vertex -0.0697985 -1.99878 -2
      vertex -0.209057 -1.98904 1
      vertex -0.0697985 -1.99878 1
    endloop
  endfacet
  facet normal 0.0697714 0.997563 0
    outer loop
      vertex -0.209057 -1.98904 1
      vertex -0.0697985 -1.99878 -2
      vertex -0.209057 -1.98904 -2
    endloop
  endfacet
  facet normal 0.469483 0.882942 -0
    outer loop
      vertex -0.876741 -1.79759 -2
      vertex -1 -1.73205 1
      vertex -0.876741 -1.79759 1
    endloop
  endfacet
  facet normal 0.469483 0.882942 0
    outer loop
      vertex -1 -1.73205 1
      vertex -0.876741 -1.79759 -2
      vertex -1 -1.73205 -2
    endloop
  endfacet
  facet normal -0.829007 0.559238 0
    outer loop
      vertex 1.61803 -1.17557 -2
      vertex 1.6961 -1.05984 1
      vertex 1.6961 -1.05984 -2
    endloop
  endfacet
  facet normal -0.829007 0.559238 0
    outer loop
      vertex 1.6961 -1.05984 1
      vertex 1.61803 -1.17557 -2
      vertex 1.61803 -1.17557 1
    endloop
  endfacet
  facet normal 0.469483 -0.882942 0
    outer loop
      vertex -1 1.73205 -2
      vertex -0.876741 1.79759 1
      vertex -1 1.73205 1
    endloop
  endfacet
  facet normal 0.469483 -0.882942 0
    outer loop
      vertex -0.876741 1.79759 1
      vertex -1 1.73205 -2
      vertex -0.876741 1.79759 -2
    endloop
  endfacet
  facet normal 0.829007 0.559238 0
    outer loop
      vertex -1.61803 -1.17557 1
      vertex -1.6961 -1.05984 -2
      vertex -1.6961 -1.05984 1
    endloop
  endfacet
  facet normal 0.829007 0.559238 0
    outer loop
      vertex -1.6961 -1.05984 -2
      vertex -1.61803 -1.17557 1
      vertex -1.61803 -1.17557 -2
    endloop
  endfacet
  facet normal 0.275648 0.961259 -0
    outer loop
      vertex -0.483843 -1.94059 -2
      vertex -0.618033 -1.90211 1
      vertex -0.483843 -1.94059 1
    endloop
  endfacet
  facet normal 0.275648 0.961259 0
    outer loop
      vertex -0.618033 -1.90211 1
      vertex -0.483843 -1.94059 -2
      vertex -0.618033 -1.90211 -2
    endloop
  endfacet
  facet normal 0 -1 0
    outer loop
      vertex -0.0697985 1.99878 -2
      vertex 0.0697985 1.99878 1
      vertex -0.0697985 1.99878 1
    endloop
  endfacet
  facet normal 0 -1 -0
    outer loop
      vertex 0.0697985 1.99878 1
      vertex -0.0697985 1.99878 -2
      vertex 0.0697985 1.99878 -2
    endloop
  endfacet
  facet normal 0.970289 -0.241949 0
    outer loop
      vertex -1.92252 0.551274 1
      vertex -1.95 0.441071 -1
      vertex -1.92252 0.551274 -2
    endloop
  endfacet
  facet normal 0.970282 -0.241978 1.66139e-06
    outer loop
      vertex -1.9563 0.415823 1
      vertex -1.95 0.441071 -1
      vertex -1.92252 0.551274 1
    endloop
  endfacet
  facet normal 0.970251 -0.242102 0
    outer loop
      vertex -1.95 0.441071 -1
      vertex -1.9563 0.415823 1
      vertex -1.9563 0.415823 -1
    endloop
  endfacet
  facet normal 0.970289 -0.241949 0
    outer loop
      vertex -1.92252 0.551274 -2
      vertex -1.95 0.441071 -1
      vertex -1.95 0.441071 -2
    endloop
  endfacet
  facet normal 0 1 -0
    outer loop
      vertex 0.0697985 -1.99878 -2
      vertex -0.0697985 -1.99878 1
      vertex 0.0697985 -1.99878 1
    endloop
  endfacet
  facet normal 0 1 0
    outer loop
      vertex -0.0697985 -1.99878 1
      vertex 0.0697985 -1.99878 -2
      vertex -0.0697985 -1.99878 -2
    endloop
  endfacet
  facet normal 0.406739 0.913544 -0
    outer loop
      vertex -0.749212 -1.85437 -2
      vertex -0.876741 -1.79759 1
      vertex -0.749212 -1.85437 1
    endloop
  endfacet
  facet normal 0.406739 0.913544 0
    outer loop
      vertex -0.876741 -1.79759 1
      vertex -0.749212 -1.85437 -2
      vertex -0.876741 -1.79759 -2
    endloop
  endfacet
  facet normal -0.743169 0.669103 0
    outer loop
      vertex 1.43868 -1.38932 -2
      vertex 1.53209 -1.28557 1
      vertex 1.53209 -1.28557 -2
    endloop
  endfacet
  facet normal -0.743169 0.669103 0
    outer loop
      vertex 1.53209 -1.28557 1
      vertex 1.43868 -1.38932 -2
      vertex 1.43868 -1.38932 1
    endloop
  endfacet
  facet normal -0.469483 -0.882942 0
    outer loop
      vertex 0.876741 1.79759 -2
      vertex 1 1.73205 1
      vertex 0.876741 1.79759 1
    endloop
  endfacet
  facet normal -0.469483 -0.882942 -0
    outer loop
      vertex 1 1.73205 1
      vertex 0.876741 1.79759 -2
      vertex 1 1.73205 -2
    endloop
  endfacet
  facet normal 0.275648 -0.961259 0
    outer loop
      vertex -0.618033 1.90211 -2
      vertex -0.483843 1.94059 1
      vertex -0.618033 1.90211 1
    endloop
  endfacet
  facet normal 0.275648 -0.961259 0
    outer loop
      vertex -0.483843 1.94059 1
      vertex -0.618033 1.90211 -2
      vertex -0.483843 1.94059 -2
    endloop
  endfacet
  facet normal 0.406739 -0.913544 0
    outer loop
      vertex -0.876741 1.79759 -2
      vertex -0.749212 1.85437 1
      vertex -0.876741 1.79759 1
    endloop
  endfacet
  facet normal 0.406739 -0.913544 0
    outer loop
      vertex -0.749212 1.85437 1
      vertex -0.876741 1.79759 -2
      vertex -0.749212 1.85437 -2
    endloop
  endfacet
  facet normal -0.529928 -0.848043 0
    outer loop
      vertex 1 1.73205 -2
      vertex 1.11839 1.65807 1
      vertex 1 1.73205 1
    endloop
  endfacet
  facet normal -0.529928 -0.848043 -0
    outer loop
      vertex 1.11839 1.65807 1
      vertex 1 1.73205 -2
      vertex 1.11839 1.65807 -2
    endloop
  endfacet
  facet normal -0.139186 -0.990266 0
    outer loop
      vertex 0.209057 1.98904 -2
      vertex 0.347296 1.96961 1
      vertex 0.209057 1.98904 1
    endloop
  endfacet
  facet normal -0.139186 -0.990266 -0
    outer loop
      vertex 0.347296 1.96961 1
      vertex 0.209057 1.98904 -2
      vertex 0.347296 1.96961 -2
    endloop
  endfacet
  facet normal 0.999391 -0.0348861 0
    outer loop
      vertex -2 0 1
      vertex -1.99513 0.139512 -1
      vertex -1.99513 0.139512 1
    endloop
  endfacet
  facet normal 0.999391 -0.0348861 0
    outer loop
      vertex -1.99513 0.139512 -1
      vertex -2 0 1
      vertex -2 0 -1
    endloop
  endfacet
  facet normal 0.970251 0.242102 0
    outer loop
      vertex -1.9563 -0.415823 1
      vertex -1.95 -0.441071 -1
      vertex -1.9563 -0.415823 -1
    endloop
  endfacet
  facet normal 0.970282 0.241978 1.66139e-06
    outer loop
      vertex -1.92252 -0.551274 1
      vertex -1.95 -0.441071 -1
      vertex -1.9563 -0.415823 1
    endloop
  endfacet
  facet normal 0.970289 0.241949 -0
    outer loop
      vertex -1.92252 -0.551274 -2
      vertex -1.95 -0.441071 -1
      vertex -1.92252 -0.551274 1
    endloop
  endfacet
  facet normal 0.970289 0.241949 0
    outer loop
      vertex -1.95 -0.441071 -1
      vertex -1.92252 -0.551274 -2
      vertex -1.95 -0.441071 -2
    endloop
  endfacet
  facet normal 0.139186 0.990266 -0
    outer loop
      vertex -0.209057 -1.98904 -2
      vertex -0.347296 -1.96961 1
      vertex -0.209057 -1.98904 1
    endloop
  endfacet
  facet normal 0.139186 0.990266 0
    outer loop
      vertex -0.347296 -1.96961 1
      vertex -0.209057 -1.98904 -2
      vertex -0.347296 -1.96961 -2
    endloop
  endfacet
  facet normal 0.587793 0.809012 -0
    outer loop
      vertex -1.11839 -1.65807 -2
      vertex -1.23132 -1.57602 1
      vertex -1.11839 -1.65807 1
    endloop
  endfacet
  facet normal 0.587793 0.809012 0
    outer loop
      vertex -1.23132 -1.57602 1
      vertex -1.11839 -1.65807 -2
      vertex -1.23132 -1.57602 -2
    endloop
  endfacet
  facet normal 0.642774 -0.766056 0
    outer loop
      vertex -1.33826 1.48629 -2
      vertex -1.23132 1.57602 1
      vertex -1.33826 1.48629 1
    endloop
  endfacet
  facet normal 0.642774 -0.766056 0
    outer loop
      vertex -1.23132 1.57602 1
      vertex -1.33826 1.48629 -2
      vertex -1.23132 1.57602 -2
    endloop
  endfacet
  facet normal -0.207885 0.978153 0
    outer loop
      vertex 0.483843 -1.94059 -2
      vertex 0.347296 -1.96961 1
      vertex 0.483843 -1.94059 1
    endloop
  endfacet
  facet normal -0.207885 0.978153 0
    outer loop
      vertex 0.347296 -1.96961 1
      vertex 0.483843 -1.94059 -2
      vertex 0.347296 -1.96961 -2
    endloop
  endfacet
  facet normal 0.694642 0.719356 -0
    outer loop
      vertex -1.33826 -1.48629 -2
      vertex -1.43868 -1.38932 1
      vertex -1.33826 -1.48629 1
    endloop
  endfacet
  facet normal 0.694642 0.719356 0
    outer loop
      vertex -1.43868 -1.38932 1
      vertex -1.33826 -1.48629 -2
      vertex -1.43868 -1.38932 -2
    endloop
  endfacet
  facet normal -0.994523 0.104514 0
    outer loop
      vertex 1.98054 -0.278346 -1
      vertex 1.99513 -0.139512 1
      vertex 1.99513 -0.139512 -1
    endloop
  endfacet
  facet normal -0.994523 0.104514 0
    outer loop
      vertex 1.99513 -0.139512 1
      vertex 1.98054 -0.278346 -1
      vertex 1.98054 -0.278346 1
    endloop
  endfacet
  facet normal -0.984809 0.173642 0
    outer loop
      vertex 1.9563 -0.415823 -1
      vertex 1.98054 -0.278346 1
      vertex 1.98054 -0.278346 -1
    endloop
  endfacet
  facet normal -0.984809 0.173642 0
    outer loop
      vertex 1.98054 -0.278346 1
      vertex 1.9563 -0.415823 -1
      vertex 1.9563 -0.415823 1
    endloop
  endfacet
  facet normal 0.984809 -0.173642 0
    outer loop
      vertex -1.98054 0.278346 1
      vertex -1.9563 0.415823 -1
      vertex -1.9563 0.415823 1
    endloop
  endfacet
  facet normal 0.984809 -0.173642 0
    outer loop
      vertex -1.9563 0.415823 -1
      vertex -1.98054 0.278346 1
      vertex -1.98054 0.278346 -1
    endloop
  endfacet
  facet normal -0.469483 0.882942 0
    outer loop
      vertex 1 -1.73205 -2
      vertex 0.876741 -1.79759 1
      vertex 1 -1.73205 1
    endloop
  endfacet
  facet normal -0.469483 0.882942 0
    outer loop
      vertex 0.876741 -1.79759 1
      vertex 1 -1.73205 -2
      vertex 0.876741 -1.79759 -2
    endloop
  endfacet
  facet normal -0.898782 -0.438395 0
    outer loop
      vertex 1.82709 0.813473 -2
      vertex 1.76589 0.938943 1
      vertex 1.76589 0.938943 -2
    endloop
  endfacet
  facet normal -0.898782 -0.438395 0
    outer loop
      vertex 1.76589 0.938943 1
      vertex 1.82709 0.813473 -2
      vertex 1.82709 0.813473 1
    endloop
  endfacet
  facet normal -0.275648 -0.961259 0
    outer loop
      vertex 0.483843 1.94059 -2
      vertex 0.618033 1.90211 1
      vertex 0.483843 1.94059 1
    endloop
  endfacet
  facet normal -0.275648 -0.961259 -0
    outer loop
      vertex 0.618033 1.90211 1
      vertex 0.483843 1.94059 -2
      vertex 0.618033 1.90211 -2
    endloop
  endfacet
  facet normal -0.951053 0.309028 0
    outer loop
      vertex 1.87938 -0.68404 -2
      vertex 1.92252 -0.551274 1
      vertex 1.92252 -0.551274 -2
    endloop
  endfacet
  facet normal -0.951053 0.309028 0
    outer loop
      vertex 1.92252 -0.551274 1
      vertex 1.87938 -0.68404 -2
      vertex 1.87938 -0.68404 1
    endloop
  endfacet
  facet normal 0.898782 0.438395 0
    outer loop
      vertex -1.76589 -0.938943 1
      vertex -1.82709 -0.813473 -2
      vertex -1.82709 -0.813473 1
    endloop
  endfacet
  facet normal 0.898782 0.438395 0
    outer loop
      vertex -1.82709 -0.813473 -2
      vertex -1.76589 -0.938943 1
      vertex -1.76589 -0.938943 -2
    endloop
  endfacet
  facet normal 0.984809 0.173642 0
    outer loop
      vertex -1.9563 -0.415823 1
      vertex -1.98054 -0.278346 -1
      vertex -1.98054 -0.278346 1
    endloop
  endfacet
  facet normal 0.984809 0.173642 0
    outer loop
      vertex -1.98054 -0.278346 -1
      vertex -1.9563 -0.415823 1
      vertex -1.9563 -0.415823 -1
    endloop
  endfacet
  facet normal -0.866056 0.499947 0
    outer loop
      vertex 1.6961 -1.05984 -2
      vertex 1.76589 -0.938943 1
      vertex 1.76589 -0.938943 -2
    endloop
  endfacet
  facet normal -0.866056 0.499947 0
    outer loop
      vertex 1.76589 -0.938943 1
      vertex 1.6961 -1.05984 -2
      vertex 1.6961 -1.05984 1
    endloop
  endfacet
  facet normal 0.788016 -0.615655 0
    outer loop
      vertex -1.61803 1.17557 1
      vertex -1.53209 1.28557 -2
      vertex -1.53209 1.28557 1
    endloop
  endfacet
  facet normal 0.788016 -0.615655 0
    outer loop
      vertex -1.53209 1.28557 -2
      vertex -1.61803 1.17557 1
      vertex -1.61803 1.17557 -2
    endloop
  endfacet
  facet normal 0.529928 0.848043 -0
    outer loop
      vertex -1 -1.73205 -2
      vertex -1.11839 -1.65807 1
      vertex -1 -1.73205 1
    endloop
  endfacet
  facet normal 0.529928 0.848043 0
    outer loop
      vertex -1.11839 -1.65807 1
      vertex -1 -1.73205 -2
      vertex -1.11839 -1.65807 -2
    endloop
  endfacet
  facet normal 0.866056 -0.499947 0
    outer loop
      vertex -1.76589 0.938943 1
      vertex -1.6961 1.05984 -2
      vertex -1.6961 1.05984 1
    endloop
  endfacet
  facet normal 0.866056 -0.499947 0
    outer loop
      vertex -1.6961 1.05984 -2
      vertex -1.76589 0.938943 1
      vertex -1.76589 0.938943 -2
    endloop
  endfacet
  facet normal 0.829007 -0.559238 0
    outer loop
      vertex -1.6961 1.05984 1
      vertex -1.61803 1.17557 -2
      vertex -1.61803 1.17557 1
    endloop
  endfacet
  facet normal 0.829007 -0.559238 0
    outer loop
      vertex -1.61803 1.17557 -2
      vertex -1.6961 1.05984 1
      vertex -1.6961 1.05984 -2
    endloop
  endfacet
  facet normal 0.207885 0.978153 -0
    outer loop
      vertex -0.347296 -1.96961 -2
      vertex -0.483843 -1.94059 1
      vertex -0.347296 -1.96961 1
    endloop
  endfacet
  facet normal 0.207885 0.978153 0
    outer loop
      vertex -0.483843 -1.94059 1
      vertex -0.347296 -1.96961 -2
      vertex -0.483843 -1.94059 -2
    endloop
  endfacet
  facet normal 0.642774 0.766056 -0
    outer loop
      vertex -1.23132 -1.57602 -2
      vertex -1.33826 -1.48629 1
      vertex -1.23132 -1.57602 1
    endloop
  endfacet
  facet normal 0.642774 0.766056 0
    outer loop
      vertex -1.33826 -1.48629 1
      vertex -1.23132 -1.57602 -2
      vertex -1.33826 -1.48629 -2
    endloop
  endfacet
  facet normal -0 0 1
    outer loop
      vertex -5 21 19
      vertex 5 11 19
      vertex 5 21 19
    endloop
  endfacet
  facet normal 0 0 1
    outer loop
      vertex 5 11 19
      vertex -5 21 19
      vertex -5 11 19
    endloop
  endfacet
  facet normal 0 0 -1
    outer loop
      vertex -5 13 14
      vertex 5 21 14
      vertex 5 13 14
    endloop
  endfacet
  facet normal -0 0 -1
    outer loop
      vertex 5 21 14
      vertex -5 13 14
      vertex -5 21 14
    endloop
  endfacet
  facet normal 0 0.707107 0.707107
    outer loop
      vertex 5 21 14
      vertex -5 18.5 16.5
      vertex 5 18.5 16.5
    endloop
  endfacet
  facet normal 0 0.707107 0.707107
    outer loop
      vertex -5 18.5 16.5
      vertex 5 21 14
      vertex -5 21 14
    endloop
  endfacet
  facet normal 0 0.707107 -0.707107
    outer loop
      vertex 5 18.5 16.5
      vertex -5 21 19
      vertex 5 21 19
    endloop
  endfacet
  facet normal 0 0.707107 -0.707107
    outer loop
      vertex -5 21 19
      vertex 5 18.5 16.5
      vertex -5 18.5 16.5
    endloop
  endfacet
  facet normal 0 1 -0
    outer loop
      vertex 5 13 -1
      vertex -5 13 14
      vertex 5 13 14
    endloop
  endfacet
  facet normal 0 1 0
    outer loop
      vertex -5 13 14
      vertex 5 13 -1
      vertex -5 13 -1
    endloop
  endfacet
endsolid OpenSCAD_Model
