solid OpenSCAD_Model
  facet normal 0 -1 0
    outer loop
      vertex -5 -8.66025 0
      vertex 5 -8.66025 4
      vertex -5 -8.66025 4
    endloop
  endfacet
  facet normal 0 -1 -0
    outer loop
      vertex 5 -8.66025 4
      vertex -5 -8.66025 0
      vertex 5 -8.66025 0
    endloop
  endfacet
  facet normal 0.866025 -0.5 0
    outer loop
      vertex 5 -8.66025 4
      vertex 10 0 0
      vertex 10 0 4
    endloop
  endfacet
  facet normal 0.866025 -0.5 0
    outer loop
      vertex 10 0 0
      vertex 5 -8.66025 4
      vertex 5 -8.66025 0
    endloop
  endfacet
  facet normal 0 1 -0
    outer loop
      vertex 5 8.66025 0
      vertex -5 8.66025 4
      vertex 5 8.66025 4
    endloop
  endfacet
  facet normal 0 1 0
    outer loop
      vertex -5 8.66025 4
      vertex 5 8.66025 0
      vertex -5 8.66025 0
    endloop
  endfacet
  facet normal 0.866025 0.5 0
    outer loop
      vertex 10 0 4
      vertex 5 8.66025 0
      vertex 5 8.66025 4
    endloop
  endfacet
  facet normal 0.866025 0.5 0
    outer loop
      vertex 5 8.66025 0
      vertex 10 0 4
      vertex 10 0 0
    endloop
  endfacet
  facet normal -0.866025 0.5 0
    outer loop
      vertex -10 0 0
      vertex -5 8.66025 4
      vertex -5 8.66025 0
    endloop
  endfacet
  facet normal -0.866025 0.5 0
    outer loop
      vertex -5 8.66025 4
      vertex -10 0 0
      vertex -10 0 4
    endloop
  endfacet
  facet normal -0.866025 -0.5 0
    outer loop
      vertex -5 -8.66025 0
      vertex -10 0 4
      vertex -10 0 0
    endloop
  endfacet
  facet normal -0.866025 -0.5 0
    outer loop
      vertex -10 0 4
      vertex -5 -8.66025 0
      vertex -5 -8.66025 4
    endloop
  endfacet
  facet normal -0 0 1
    outer loop
      vertex 1.76589 0.938943 4
      vertex 10 0 4
      vertex 5 8.66025 4
    endloop
  endfacet
  facet normal 0 0 1
    outer loop
      vertex 1.99513 -0.139512 4
      vertex 10 0 4
      vertex 2 0 4
    endloop
  endfacet
  facet normal 0 0 1
    outer loop
      vertex 10 0 4
      vertex 1.99513 0.139512 4
      vertex 2 0 4
    endloop
  endfacet
  facet normal 0 0 1
    outer loop
      vertex 10 0 4
      vertex 1.98054 0.278346 4
      vertex 1.99513 0.139512 4
    endloop
  endfacet
  facet normal 0 0 1
    outer loop
      vertex 10 0 4
      vertex 1.9563 0.415823 4
      vertex 1.98054 0.278346 4
    endloop
  endfacet
  facet normal 0 0 1
    outer loop
      vertex 10 0 4
      vertex 1.92252 0.551274 4
      vertex 1.9563 0.415823 4
    endloop
  endfacet
  facet normal 0 0 1
    outer loop
      vertex 10 0 4
      vertex 1.87938 0.68404 4
      vertex 1.92252 0.551274 4
    endloop
  endfacet
  facet normal 0 0 1
    outer loop
      vertex 10 0 4
      vertex 1.82709 0.813473 4
      vertex 1.87938 0.68404 4
    endloop
  endfacet
  facet normal 0 0 1
    outer loop
      vertex 10 0 4
      vertex 1.76589 0.938943 4
      vertex 1.82709 0.813473 4
    endloop
  endfacet
  facet normal 0 0 1
    outer loop
      vertex 5 8.66025 4
      vertex 1.6961 1.05984 4
      vertex 1.76589 0.938943 4
    endloop
  endfacet
  facet normal 0 0 1
    outer loop
      vertex 5 8.66025 4
      vertex 1.61803 1.17557 4
      vertex 1.6961 1.05984 4
    endloop
  endfacet
  facet normal 0 0 1
    outer loop
      vertex 5 8.66025 4
      vertex 1.53209 1.28557 4
      vertex 1.61803 1.17557 4
    endloop
  endfacet
  facet normal 0 0 1
    outer loop
      vertex 5 8.66025 4
      vertex 1.43868 1.38932 4
      vertex 1.53209 1.28557 4
    endloop
  endfacet
  facet normal 0 0 1
    outer loop
      vertex 5 8.66025 4
      vertex 1.33826 1.48629 4
      vertex 1.43868 1.38932 4
    endloop
  endfacet
  facet normal 0 0 1
    outer loop
      vertex 5 8.66025 4
      vertex 1.23132 1.57602 4
      vertex 1.33826 1.48629 4
    endloop
  endfacet
  facet normal 0 0 1
    outer loop
      vertex 5 8.66025 4
      vertex 1.11839 1.65807 4
      vertex 1.23132 1.57602 4
    endloop
  endfacet
  facet normal 0 0 1
    outer loop
      vertex 5 8.66025 4
      vertex 1 1.73205 4
      vertex 1.11839 1.65807 4
    endloop
  endfacet
  facet normal 0 0 1
    outer loop
      vertex 5 8.66025 4
      vertex 0.876741 1.79759 4
      vertex 1 1.73205 4
    endloop
  endfacet
  facet normal 0 0 1
    outer loop
      vertex 5 8.66025 4
      vertex 0.749212 1.85437 4
      vertex 0.876741 1.79759 4
    endloop
  endfacet
  facet normal 0 0 1
    outer loop
      vertex 5 8.66025 4
      vertex 0.618033 1.90211 4
      vertex 0.749212 1.85437 4
    endloop
  endfacet
  facet normal 0 0 1
    outer loop
      vertex 5 8.66025 4
      vertex 0.483843 1.94059 4
      vertex 0.618033 1.90211 4
    endloop
  endfacet
  facet normal 0 0 1
    outer loop
      vertex 5 8.66025 4
      vertex 0.347296 1.96961 4
      vertex 0.483843 1.94059 4
    endloop
  endfacet
  facet normal 0 0 1
    outer loop
      vertex 5 8.66025 4
      vertex 0.209057 1.98904 4
      vertex 0.347296 1.96961 4
    endloop
  endfacet
  facet normal 0 0 1
    outer loop
      vertex 5 8.66025 4
      vertex 0.0697985 1.99878 4
      vertex 0.209057 1.98904 4
    endloop
  endfacet
  facet normal 0 0 1
    outer loop
      vertex 5 8.66025 4
      vertex -0.0697985 1.99878 4
      vertex 0.0697985 1.99878 4
    endloop
  endfacet
  facet normal -0 0 1
    outer loop
      vertex -5 8.66025 4
      vertex -0.0697985 1.99878 4
      vertex 5 8.66025 4
    endloop
  endfacet
  facet normal 0 0 1
    outer loop
      vertex -0.0697985 1.99878 4
      vertex -5 8.66025 4
      vertex -0.209057 1.98904 4
    endloop
  endfacet
  facet normal 0 0 1
    outer loop
      vertex -0.209057 1.98904 4
      vertex -5 8.66025 4
      vertex -0.347296 1.96961 4
    endloop
  endfacet
  facet normal 0 0 1
    outer loop
      vertex -0.347296 1.96961 4
      vertex -5 8.66025 4
      vertex -0.483843 1.94059 4
    endloop
  endfacet
  facet normal 0 0 1
    outer loop
      vertex -0.483843 1.94059 4
      vertex -5 8.66025 4
      vertex -0.618033 1.90211 4
    endloop
  endfacet
  facet normal 0 0 1
    outer loop
      vertex -0.618033 1.90211 4
      vertex -5 8.66025 4
      vertex -0.749212 1.85437 4
    endloop
  endfacet
  facet normal 0 0 1
    outer loop
      vertex -0.749212 1.85437 4
      vertex -5 8.66025 4
      vertex -0.876741 1.79759 4
    endloop
  endfacet
  facet normal 0 0 1
    outer loop
      vertex -0.876741 1.79759 4
      vertex -5 8.66025 4
      vertex -1 1.73205 4
    endloop
  endfacet
  facet normal 0 0 1
    outer loop
      vertex -1 1.73205 4
      vertex -5 8.66025 4
      vertex -1.11839 1.65807 4
    endloop
  endfacet
  facet normal 0 0 1
    outer loop
      vertex -1.11839 1.65807 4
      vertex -5 8.66025 4
      vertex -1.23132 1.57602 4
    endloop
  endfacet
  facet normal 0 0 1
    outer loop
      vertex -1.23132 1.57602 4
      vertex -5 8.66025 4
      vertex -1.33826 1.48629 4
    endloop
  endfacet
  facet normal 0 0 1
    outer loop
      vertex -1.33826 1.48629 4
      vertex -5 8.66025 4
      vertex -1.43868 1.38932 4
    endloop
  endfacet
  facet normal 0 0 1
    outer loop
      vertex -1.98054 0.278346 4
      vertex -10 0 4
      vertex -1.99513 0.139512 4
    endloop
  endfacet
  facet normal 0 0 1
    outer loop
      vertex -1.9563 0.415823 4
      vertex -10 0 4
      vertex -1.98054 0.278346 4
    endloop
  endfacet
  facet normal 0 0 1
    outer loop
      vertex -1.92252 0.551274 4
      vertex -10 0 4
      vertex -1.9563 0.415823 4
    endloop
  endfacet
  facet normal 0 0 1
    outer loop
      vertex -1.87938 0.68404 4
      vertex -10 0 4
      vertex -1.92252 0.551274 4
    endloop
  endfacet
  facet normal 0 0 1
    outer loop
      vertex -1.82709 0.813473 4
      vertex -10 0 4
      vertex -1.87938 0.68404 4
    endloop
  endfacet
  facet normal 0 0 1
    outer loop
      vertex -1.76589 0.938943 4
      vertex -10 0 4
      vertex -1.82709 0.813473 4
    endloop
  endfacet
  facet normal 0 0 1
    outer loop
      vertex -10 0 4
      vertex -1.76589 0.938943 4
      vertex -5 8.66025 4
    endloop
  endfacet
  facet normal 0 0 1
    outer loop
      vertex -1.6961 1.05984 4
      vertex -5 8.66025 4
      vertex -1.76589 0.938943 4
    endloop
  endfacet
  facet normal 0 0 1
    outer loop
      vertex -1.61803 1.17557 4
      vertex -5 8.66025 4
      vertex -1.6961 1.05984 4
    endloop
  endfacet
  facet normal 0 0 1
    outer loop
      vertex -1.53209 1.28557 4
      vertex -5 8.66025 4
      vertex -1.61803 1.17557 4
    endloop
  endfacet
  facet normal 0 0 1
    outer loop
      vertex -1.43868 1.38932 4
      vertex -5 8.66025 4
      vertex -1.53209 1.28557 4
    endloop
  endfacet
  facet normal 0 0 1
    outer loop
      vertex 1.98054 -0.278346 4
      vertex 10 0 4
      vertex 1.99513 -0.139512 4
    endloop
  endfacet
  facet normal 0 0 1
    outer loop
      vertex 1.9563 -0.415823 4
      vertex 10 0 4
      vertex 1.98054 -0.278346 4
    endloop
  endfacet
  facet normal 0 0 1
    outer loop
      vertex 1.92252 -0.551274 4
      vertex 10 0 4
      vertex 1.9563 -0.415823 4
    endloop
  endfacet
  facet normal 0 0 1
    outer loop
      vertex 1.87938 -0.68404 4
      vertex 10 0 4
      vertex 1.92252 -0.551274 4
    endloop
  endfacet
  facet normal 0 0 1
    outer loop
      vertex 1.82709 -0.813473 4
      vertex 10 0 4
      vertex 1.87938 -0.68404 4
    endloop
  endfacet
  facet normal 0 0 1
    outer loop
      vertex 1.76589 -0.938943 4
      vertex 10 0 4
      vertex 1.82709 -0.813473 4
    endloop
  endfacet
  facet normal 0 0 1
    outer loop
      vertex 10 0 4
      vertex 1.76589 -0.938943 4
      vertex 5 -8.66025 4
    endloop
  endfacet
  facet normal -0 0 1
    outer loop
      vertex 1.6961 -1.05984 4
      vertex 5 -8.66025 4
      vertex 1.76589 -0.938943 4
    endloop
  endfacet
  facet normal -0 0 1
    outer loop
      vertex 1.61803 -1.17557 4
      vertex 5 -8.66025 4
      vertex 1.6961 -1.05984 4
    endloop
  endfacet
  facet normal -0 0 1
    outer loop
      vertex 1.53209 -1.28557 4
      vertex 5 -8.66025 4
      vertex 1.61803 -1.17557 4
    endloop
  endfacet
  facet normal -0 0 1
    outer loop
      vertex 1.43868 -1.38932 4
      vertex 5 -8.66025 4
      vertex 1.53209 -1.28557 4
    endloop
  endfacet
  facet normal -0 0 1
    outer loop
      vertex 1.33826 -1.48629 4
      vertex 5 -8.66025 4
      vertex 1.43868 -1.38932 4
    endloop
  endfacet
  facet normal -0 0 1
    outer loop
      vertex 1.23132 -1.57602 4
      vertex 5 -8.66025 4
      vertex 1.33826 -1.48629 4
    endloop
  endfacet
  facet normal -0 0 1
    outer loop
      vertex 1.11839 -1.65807 4
      vertex 5 -8.66025 4
      vertex 1.23132 -1.57602 4
    endloop
  endfacet
  facet normal -0 0 1
    outer loop
      vertex 1 -1.73205 4
      vertex 5 -8.66025 4
      vertex 1.11839 -1.65807 4
    endloop
  endfacet
  facet normal -0 0 1
    outer loop
      vertex 0.876741 -1.79759 4
      vertex 5 -8.66025 4
      vertex 1 -1.73205 4
    endloop
  endfacet
  facet normal -0 0 1
    outer loop
      vertex 0.749212 -1.85437 4
      vertex 5 -8.66025 4
      vertex 0.876741 -1.79759 4
    endloop
  endfacet
  facet normal -0 0 1
    outer loop
      vertex 0.618033 -1.90211 4
      vertex 5 -8.66025 4
      vertex 0.749212 -1.85437 4
    endloop
  endfacet
  facet normal -0 0 1
    outer loop
      vertex 0.483843 -1.94059 4
      vertex 5 -8.66025 4
      vertex 0.618033 -1.90211 4
    endloop
  endfacet
  facet normal -0 0 1
    outer loop
      vertex 0.347296 -1.96961 4
      vertex 5 -8.66025 4
      vertex 0.483843 -1.94059 4
    endloop
  endfacet
  facet normal -0 0 1
    outer loop
      vertex 0.209057 -1.98904 4
      vertex 5 -8.66025 4
      vertex 0.347296 -1.96961 4
    endloop
  endfacet
  facet normal -0 0 1
    outer loop
      vertex 0.0697985 -1.99878 4
      vertex 5 -8.66025 4
      vertex 0.209057 -1.98904 4
    endloop
  endfacet
  facet normal -0 0 1
    outer loop
      vertex -0.0697985 -1.99878 4
      vertex 5 -8.66025 4
      vertex 0.0697985 -1.99878 4
    endloop
  endfacet
  facet normal 0 0 1
    outer loop
      vertex -5 -8.66025 4
      vertex -0.0697985 -1.99878 4
      vertex -0.209057 -1.98904 4
    endloop
  endfacet
  facet normal 0 0 1
    outer loop
      vertex -5 -8.66025 4
      vertex -0.209057 -1.98904 4
      vertex -0.347296 -1.96961 4
    endloop
  endfacet
  facet normal 0 0 1
    outer loop
      vertex -5 -8.66025 4
      vertex -0.347296 -1.96961 4
      vertex -0.483843 -1.94059 4
    endloop
  endfacet
  facet normal 0 0 1
    outer loop
      vertex -5 -8.66025 4
      vertex -0.483843 -1.94059 4
      vertex -0.618033 -1.90211 4
    endloop
  endfacet
  facet normal 0 0 1
    outer loop
      vertex -5 -8.66025 4
      vertex -0.618033 -1.90211 4
      vertex -0.749212 -1.85437 4
    endloop
  endfacet
  facet normal 0 0 1
    outer loop
      vertex -5 -8.66025 4
      vertex -0.749212 -1.85437 4
      vertex -0.876741 -1.79759 4
    endloop
  endfacet
  facet normal 0 0 1
    outer loop
      vertex -5 -8.66025 4
      vertex -0.876741 -1.79759 4
      vertex -1 -1.73205 4
    endloop
  endfacet
  facet normal 0 0 1
    outer loop
      vertex -5 -8.66025 4
      vertex -1 -1.73205 4
      vertex -1.11839 -1.65807 4
    endloop
  endfacet
  facet normal 0 0 1
    outer loop
      vertex -5 -8.66025 4
      vertex -1.11839 -1.65807 4
      vertex -1.23132 -1.57602 4
    endloop
  endfacet
  facet normal 0 0 1
    outer loop
      vertex -5 -8.66025 4
      vertex -1.23132 -1.57602 4
      vertex -1.33826 -1.48629 4
    endloop
  endfacet
  facet normal 0 0 1
    outer loop
      vertex -5 -8.66025 4
      vertex -1.33826 -1.48629 4
      vertex -1.43868 -1.38932 4
    endloop
  endfacet
  facet normal 0 0 1
    outer loop
      vertex -5 -8.66025 4
      vertex -1.43868 -1.38932 4
      vertex -1.53209 -1.28557 4
    endloop
  endfacet
  facet normal 0 0 1
    outer loop
      vertex -1.99513 0.139512 4
      vertex -10 0 4
      vertex -2 0 4
    endloop
  endfacet
  facet normal 0 0 1
    outer loop
      vertex -2 0 4
      vertex -10 0 4
      vertex -1.99513 -0.139512 4
    endloop
  endfacet
  facet normal 0 0 1
    outer loop
      vertex -1.99513 -0.139512 4
      vertex -10 0 4
      vertex -1.98054 -0.278346 4
    endloop
  endfacet
  facet normal 0 0 1
    outer loop
      vertex -1.98054 -0.278346 4
      vertex -10 0 4
      vertex -1.9563 -0.415823 4
    endloop
  endfacet
  facet normal 0 0 1
    outer loop
      vertex -1.9563 -0.415823 4
      vertex -10 0 4
      vertex -1.92252 -0.551274 4
    endloop
  endfacet
  facet normal 0 0 1
    outer loop
      vertex -0.0697985 -1.99878 4
      vertex -5 -8.66025 4
      vertex 5 -8.66025 4
    endloop
  endfacet
  facet normal 0 0 1
    outer loop
      vertex -1.61803 -1.17557 4
      vertex -5 -8.66025 4
      vertex -1.53209 -1.28557 4
    endloop
  endfacet
  facet normal 0 0 1
    outer loop
      vertex -1.6961 -1.05984 4
      vertex -5 -8.66025 4
      vertex -1.61803 -1.17557 4
    endloop
  endfacet
  facet normal 0 0 1
    outer loop
      vertex -1.76589 -0.938943 4
      vertex -5 -8.66025 4
      vertex -1.6961 -1.05984 4
    endloop
  endfacet
  facet normal 0 0 1
    outer loop
      vertex -10 0 4
      vertex -1.76589 -0.938943 4
      vertex -1.82709 -0.813473 4
    endloop
  endfacet
  facet normal 0 0 1
    outer loop
      vertex -10 0 4
      vertex -1.82709 -0.813473 4
      vertex -1.87938 -0.68404 4
    endloop
  endfacet
  facet normal 0 0 1
    outer loop
      vertex -1.92252 -0.551274 4
      vertex -10 0 4
      vertex -1.87938 -0.68404 4
    endloop
  endfacet
  facet normal 0 0 1
    outer loop
      vertex -1.76589 -0.938943 4
      vertex -10 0 4
      vertex -5 -8.66025 4
    endloop
  endfacet
  facet normal 0 0 -1
    outer loop
      vertex 4 0 0
      vertex 10 0 0
      vertex 5 -8.66025 0
    endloop
  endfacet
  facet normal 0 0 -1
    outer loop
      vertex 10 0 0
      vertex 4 0 0
      vertex 5 8.66025 0
    endloop
  endfacet
  facet normal 0 0 -1
    outer loop
      vertex 5 -8.66025 0
      vertex 2 -3.4641 0
      vertex 4 0 0
    endloop
  endfacet
  facet normal 0 0 -1
    outer loop
      vertex 5 -8.66025 0
      vertex -2 -3.4641 0
      vertex 2 -3.4641 0
    endloop
  endfacet
  facet normal -0 0 -1
    outer loop
      vertex -2 -3.4641 0
      vertex -5 -8.66025 0
      vertex -4 0 0
    endloop
  endfacet
  facet normal 0 0 -1
    outer loop
      vertex -5 -8.66025 0
      vertex -2 -3.4641 0
      vertex 5 -8.66025 0
    endloop
  endfacet
  facet normal 0 0 -1
    outer loop
      vertex 2 3.4641 0
      vertex 5 8.66025 0
      vertex 4 0 0
    endloop
  endfacet
  facet normal 0 0 -1
    outer loop
      vertex -2 3.4641 0
      vertex 5 8.66025 0
      vertex 2 3.4641 0
    endloop
  endfacet
  facet normal 0 0 -1
    outer loop
      vertex -2 3.4641 0
      vertex -5 8.66025 0
      vertex 5 8.66025 0
    endloop
  endfacet
  facet normal 0 0 -1
    outer loop
      vertex -4 0 0
      vertex -5 8.66025 0
      vertex -2 3.4641 0
    endloop
  endfacet
  facet normal 0 0 -1
    outer loop
      vertex -10 0 0
      vertex -4 0 0
      vertex -5 -8.66025 0
    endloop
  endfacet
  facet normal 0 0 -1
    outer loop
      vertex -4 0 0
      vertex -10 0 0
      vertex -5 8.66025 0
    endloop
  endfacet
  facet normal 0 1 -0
    outer loop
      vertex 2 -3.4641 0
      vertex -2 -3.4641 3
      vertex 2 -3.4641 3
    endloop
  endfacet
  facet normal 0 1 0
    outer loop
      vertex -2 -3.4641 3
      vertex 2 -3.4641 0
      vertex -2 -3.4641 0
    endloop
  endfacet
  facet normal -0.866025 0.5 0
    outer loop
      vertex 2 -3.4641 0
      vertex 4 0 3
      vertex 4 0 0
    endloop
  endfacet
  facet normal -0.866025 0.5 0
    outer loop
      vertex 4 0 3
      vertex 2 -3.4641 0
      vertex 2 -3.4641 3
    endloop
  endfacet
  facet normal 0 -1 0
    outer loop
      vertex -2 3.4641 0
      vertex 2 3.4641 3
      vertex -2 3.4641 3
    endloop
  endfacet
  facet normal 0 -1 -0
    outer loop
      vertex 2 3.4641 3
      vertex -2 3.4641 0
      vertex 2 3.4641 0
    endloop
  endfacet
  facet normal -0.866025 -0.5 0
    outer loop
      vertex 4 0 0
      vertex 2 3.4641 3
      vertex 2 3.4641 0
    endloop
  endfacet
  facet normal -0.866025 -0.5 0
    outer loop
      vertex 2 3.4641 3
      vertex 4 0 0
      vertex 4 0 3
    endloop
  endfacet
  facet normal 0.866025 -0.5 0
    outer loop
      vertex -4 0 3
      vertex -2 3.4641 0
      vertex -2 3.4641 3
    endloop
  endfacet
  facet normal 0.866025 -0.5 0
    outer loop
      vertex -2 3.4641 0
      vertex -4 0 3
      vertex -4 0 0
    endloop
  endfacet
  facet normal 0.866025 0.5 0
    outer loop
      vertex -2 -3.4641 3
      vertex -4 0 0
      vertex -4 0 3
    endloop
  endfacet
  facet normal 0.866025 0.5 0
    outer loop
      vertex -4 0 0
      vertex -2 -3.4641 3
      vertex -2 -3.4641 0
    endloop
  endfacet
  facet normal -0 0 -1
    outer loop
      vertex 4 0 3
      vertex 1.99513 -0.139512 3
      vertex 2 0 3
    endloop
  endfacet
  facet normal 0 0 -1
    outer loop
      vertex 4 0 3
      vertex 1.98054 -0.278346 3
      vertex 1.99513 -0.139512 3
    endloop
  endfacet
  facet normal 0 0 -1
    outer loop
      vertex 4 0 3
      vertex 1.9563 -0.415823 3
      vertex 1.98054 -0.278346 3
    endloop
  endfacet
  facet normal 0 0 -1
    outer loop
      vertex 4 0 3
      vertex 1.92252 -0.551274 3
      vertex 1.9563 -0.415823 3
    endloop
  endfacet
  facet normal 0 0 -1
    outer loop
      vertex 4 0 3
      vertex 1.87938 -0.68404 3
      vertex 1.92252 -0.551274 3
    endloop
  endfacet
  facet normal 0 0 -1
    outer loop
      vertex 4 0 3
      vertex 1.82709 -0.813473 3
      vertex 1.87938 -0.68404 3
    endloop
  endfacet
  facet normal 0 0 -1
    outer loop
      vertex 4 0 3
      vertex 1.76589 -0.938943 3
      vertex 1.82709 -0.813473 3
    endloop
  endfacet
  facet normal 0 0 -1
    outer loop
      vertex 2 -3.4641 3
      vertex 1.6961 -1.05984 3
      vertex 1.76589 -0.938943 3
    endloop
  endfacet
  facet normal 0 0 -1
    outer loop
      vertex 2 -3.4641 3
      vertex 1.61803 -1.17557 3
      vertex 1.6961 -1.05984 3
    endloop
  endfacet
  facet normal 0 0 -1
    outer loop
      vertex 2 -3.4641 3
      vertex 1.53209 -1.28557 3
      vertex 1.61803 -1.17557 3
    endloop
  endfacet
  facet normal 0 0 -1
    outer loop
      vertex 2 -3.4641 3
      vertex 1.43868 -1.38932 3
      vertex 1.53209 -1.28557 3
    endloop
  endfacet
  facet normal 0 0 -1
    outer loop
      vertex 2 -3.4641 3
      vertex 1.33826 -1.48629 3
      vertex 1.43868 -1.38932 3
    endloop
  endfacet
  facet normal 0 0 -1
    outer loop
      vertex 2 -3.4641 3
      vertex 1.23132 -1.57602 3
      vertex 1.33826 -1.48629 3
    endloop
  endfacet
  facet normal 0 0 -1
    outer loop
      vertex 2 -3.4641 3
      vertex 1.11839 -1.65807 3
      vertex 1.23132 -1.57602 3
    endloop
  endfacet
  facet normal 0 0 -1
    outer loop
      vertex 2 -3.4641 3
      vertex 1 -1.73205 3
      vertex 1.11839 -1.65807 3
    endloop
  endfacet
  facet normal 0 0 -1
    outer loop
      vertex 2 -3.4641 3
      vertex 0.876741 -1.79759 3
      vertex 1 -1.73205 3
    endloop
  endfacet
  facet normal 0 0 -1
    outer loop
      vertex 2 -3.4641 3
      vertex 0.749212 -1.85437 3
      vertex 0.876741 -1.79759 3
    endloop
  endfacet
  facet normal 0 0 -1
    outer loop
      vertex 2 -3.4641 3
      vertex 0.618033 -1.90211 3
      vertex 0.749212 -1.85437 3
    endloop
  endfacet
  facet normal 0 0 -1
    outer loop
      vertex 2 -3.4641 3
      vertex 0.483843 -1.94059 3
      vertex 0.618033 -1.90211 3
    endloop
  endfacet
  facet normal 0 0 -1
    outer loop
      vertex 2 -3.4641 3
      vertex 0.347296 -1.96961 3
      vertex 0.483843 -1.94059 3
    endloop
  endfacet
  facet normal 0 0 -1
    outer loop
      vertex 2 -3.4641 3
      vertex 0.209057 -1.98904 3
      vertex 0.347296 -1.96961 3
    endloop
  endfacet
  facet normal 0 0 -1
    outer loop
      vertex 2 -3.4641 3
      vertex 0.0697985 -1.99878 3
      vertex 0.209057 -1.98904 3
    endloop
  endfacet
  facet normal 0 0 -1
    outer loop
      vertex 2 -3.4641 3
      vertex -0.0697985 -1.99878 3
      vertex 0.0697985 -1.99878 3
    endloop
  endfacet
  facet normal 0 0 -1
    outer loop
      vertex -2 -3.4641 3
      vertex -0.0697985 -1.99878 3
      vertex 2 -3.4641 3
    endloop
  endfacet
  facet normal -0 0 -1
    outer loop
      vertex -0.0697985 -1.99878 3
      vertex -2 -3.4641 3
      vertex -0.209057 -1.98904 3
    endloop
  endfacet
  facet normal -0 0 -1
    outer loop
      vertex -0.209057 -1.98904 3
      vertex -2 -3.4641 3
      vertex -0.347296 -1.96961 3
    endloop
  endfacet
  facet normal -0 0 -1
    outer loop
      vertex -0.347296 -1.96961 3
      vertex -2 -3.4641 3
      vertex -0.483843 -1.94059 3
    endloop
  endfacet
  facet normal -0 0 -1
    outer loop
      vertex -0.483843 -1.94059 3
      vertex -2 -3.4641 3
      vertex -0.618033 -1.90211 3
    endloop
  endfacet
  facet normal -0 0 -1
    outer loop
      vertex -0.618033 -1.90211 3
      vertex -2 -3.4641 3
      vertex -0.749212 -1.85437 3
    endloop
  endfacet
  facet normal -0 0 -1
    outer loop
      vertex -0.749212 -1.85437 3
      vertex -2 -3.4641 3
      vertex -0.876741 -1.79759 3
    endloop
  endfacet
  facet normal -0 0 -1
    outer loop
      vertex -0.876741 -1.79759 3
      vertex -2 -3.4641 3
      vertex -1 -1.73205 3
    endloop
  endfacet
  facet normal 0 0 -1
    outer loop
      vertex -2 -3.4641 3
      vertex -1.11839 -1.65807 3
      vertex -1 -1.73205 3
    endloop
  endfacet
  facet normal 0 0 -1
    outer loop
      vertex -2 -3.4641 3
      vertex -1.23132 -1.57602 3
      vertex -1.11839 -1.65807 3
    endloop
  endfacet
  facet normal 0 0 -1
    outer loop
      vertex -2 -3.4641 3
      vertex -1.33826 -1.48629 3
      vertex -1.23132 -1.57602 3
    endloop
  endfacet
  facet normal 0 0 -1
    outer loop
      vertex -2 -3.4641 3
      vertex -1.43868 -1.38932 3
      vertex -1.33826 -1.48629 3
    endloop
  endfacet
  facet normal 0 0 -1
    outer loop
      vertex -2 -3.4641 3
      vertex -1.53209 -1.28557 3
      vertex -1.43868 -1.38932 3
    endloop
  endfacet
  facet normal 0 0 -1
    outer loop
      vertex -2 -3.4641 3
      vertex -1.61803 -1.17557 3
      vertex -1.53209 -1.28557 3
    endloop
  endfacet
  facet normal 0 0 -1
    outer loop
      vertex -2 -3.4641 3
      vertex -1.6961 -1.05984 3
      vertex -1.61803 -1.17557 3
    endloop
  endfacet
  facet normal 0 0 -1
    outer loop
      vertex -2 -3.4641 3
      vertex -1.76589 -0.938943 3
      vertex -1.6961 -1.05984 3
    endloop
  endfacet
  facet normal 0 0 -1
    outer loop
      vertex -4 0 3
      vertex -1.76589 -0.938943 3
      vertex -2 -3.4641 3
    endloop
  endfacet
  facet normal 0 0 -1
    outer loop
      vertex -1.76589 -0.938943 3
      vertex -4 0 3
      vertex -1.82709 -0.813473 3
    endloop
  endfacet
  facet normal 0 0 -1
    outer loop
      vertex -1.82709 -0.813473 3
      vertex -4 0 3
      vertex -1.87938 -0.68404 3
    endloop
  endfacet
  facet normal 0 0 -1
    outer loop
      vertex -1.87938 -0.68404 3
      vertex -4 0 3
      vertex -1.92252 -0.551274 3
    endloop
  endfacet
  facet normal 0 0 -1
    outer loop
      vertex -1.92252 -0.551274 3
      vertex -4 0 3
      vertex -1.9563 -0.415823 3
    endloop
  endfacet
  facet normal 0 0 -1
    outer loop
      vertex -1.9563 -0.415823 3
      vertex -4 0 3
      vertex -1.98054 -0.278346 3
    endloop
  endfacet
  facet normal 0 0 -1
    outer loop
      vertex -1.98054 -0.278346 3
      vertex -4 0 3
      vertex -1.99513 -0.139512 3
    endloop
  endfacet
  facet normal 0 0 -1
    outer loop
      vertex -1.99513 -0.139512 3
      vertex -4 0 3
      vertex -2 0 3
    endloop
  endfacet
  facet normal 0 0 -1
    outer loop
      vertex -2 0 3
      vertex -4 0 3
      vertex -2 3.4641 3
    endloop
  endfacet
  facet normal 0 0 -1
    outer loop
      vertex 1.76589 -0.938943 3
      vertex 4 0 3
      vertex 2 -3.4641 3
    endloop
  endfacet
  facet normal 0 0 -1
    outer loop
      vertex 1.99513 0.139512 3
      vertex 4 0 3
      vertex 2 0 3
    endloop
  endfacet
  facet normal 0 0 -1
    outer loop
      vertex 1.98054 0.278346 3
      vertex 4 0 3
      vertex 1.99513 0.139512 3
    endloop
  endfacet
  facet normal 0 0 -1
    outer loop
      vertex 1.9563 0.415823 3
      vertex 4 0 3
      vertex 1.98054 0.278346 3
    endloop
  endfacet
  facet normal 0 0 -1
    outer loop
      vertex 1.92252 0.551274 3
      vertex 4 0 3
      vertex 1.9563 0.415823 3
    endloop
  endfacet
  facet normal 0 0 -1
    outer loop
      vertex 1.87938 0.68404 3
      vertex 4 0 3
      vertex 1.92252 0.551274 3
    endloop
  endfacet
  facet normal 0 0 -1
    outer loop
      vertex 1.82709 0.813473 3
      vertex 4 0 3
      vertex 1.87938 0.68404 3
    endloop
  endfacet
  facet normal 0 0 -1
    outer loop
      vertex 1.76589 0.938943 3
      vertex 4 0 3
      vertex 1.82709 0.813473 3
    endloop
  endfacet
  facet normal 0 0 -1
    outer loop
      vertex 4 0 3
      vertex 1.76589 0.938943 3
      vertex 2 3.4641 3
    endloop
  endfacet
  facet normal 0 0 -1
    outer loop
      vertex 1.6961 1.05984 3
      vertex 2 3.4641 3
      vertex 1.76589 0.938943 3
    endloop
  endfacet
  facet normal 0 0 -1
    outer loop
      vertex 1.61803 1.17557 3
      vertex 2 3.4641 3
      vertex 1.6961 1.05984 3
    endloop
  endfacet
  facet normal 0 0 -1
    outer loop
      vertex 1.53209 1.28557 3
      vertex 2 3.4641 3
      vertex 1.61803 1.17557 3
    endloop
  endfacet
  facet normal 0 0 -1
    outer loop
      vertex 1.43868 1.38932 3
      vertex 2 3.4641 3
      vertex 1.53209 1.28557 3
    endloop
  endfacet
  facet normal 0 0 -1
    outer loop
      vertex 1.33826 1.48629 3
      vertex 2 3.4641 3
      vertex 1.43868 1.38932 3
    endloop
  endfacet
  facet normal 0 0 -1
    outer loop
      vertex 1.23132 1.57602 3
      vertex 2 3.4641 3
      vertex 1.33826 1.48629 3
    endloop
  endfacet
  facet normal 0 0 -1
    outer loop
      vertex 1.11839 1.65807 3
      vertex 2 3.4641 3
      vertex 1.23132 1.57602 3
    endloop
  endfacet
  facet normal 0 0 -1
    outer loop
      vertex 1 1.73205 3
      vertex 2 3.4641 3
      vertex 1.11839 1.65807 3
    endloop
  endfacet
  facet normal 0 0 -1
    outer loop
      vertex 0.876741 1.79759 3
      vertex 2 3.4641 3
      vertex 1 1.73205 3
    endloop
  endfacet
  facet normal 0 0 -1
    outer loop
      vertex 0.749212 1.85437 3
      vertex 2 3.4641 3
      vertex 0.876741 1.79759 3
    endloop
  endfacet
  facet normal 0 0 -1
    outer loop
      vertex 0.618033 1.90211 3
      vertex 2 3.4641 3
      vertex 0.749212 1.85437 3
    endloop
  endfacet
  facet normal 0 0 -1
    outer loop
      vertex 0.483843 1.94059 3
      vertex 2 3.4641 3
      vertex 0.618033 1.90211 3
    endloop
  endfacet
  facet normal 0 0 -1
    outer loop
      vertex 0.347296 1.96961 3
      vertex 2 3.4641 3
      vertex 0.483843 1.94059 3
    endloop
  endfacet
  facet normal 0 0 -1
    outer loop
      vertex 0.209057 1.98904 3
      vertex 2 3.4641 3
      vertex 0.347296 1.96961 3
    endloop
  endfacet
  facet normal 0 0 -1
    outer loop
      vertex 0.0697985 1.99878 3
      vertex 2 3.4641 3
      vertex 0.209057 1.98904 3
    endloop
  endfacet
  facet normal 0 0 -1
    outer loop
      vertex -0.0697985 1.99878 3
      vertex 2 3.4641 3
      vertex 0.0697985 1.99878 3
    endloop
  endfacet
  facet normal 0 0 -1
    outer loop
      vertex -2 3.4641 3
      vertex -0.0697985 1.99878 3
      vertex -0.209057 1.98904 3
    endloop
  endfacet
  facet normal 0 0 -1
    outer loop
      vertex -2 3.4641 3
      vertex -0.209057 1.98904 3
      vertex -0.347296 1.96961 3
    endloop
  endfacet
  facet normal 0 0 -1
    outer loop
      vertex -2 3.4641 3
      vertex -0.347296 1.96961 3
      vertex -0.483843 1.94059 3
    endloop
  endfacet
  facet normal 0 0 -1
    outer loop
      vertex -2 3.4641 3
      vertex -0.483843 1.94059 3
      vertex -0.618033 1.90211 3
    endloop
  endfacet
  facet normal 0 0 -1
    outer loop
      vertex -2 3.4641 3
      vertex -0.618033 1.90211 3
      vertex -0.749212 1.85437 3
    endloop
  endfacet
  facet normal 0 0 -1
    outer loop
      vertex -2 3.4641 3
      vertex -0.749212 1.85437 3
      vertex -0.876741 1.79759 3
    endloop
  endfacet
  facet normal 0 0 -1
    outer loop
      vertex -2 3.4641 3
      vertex -0.876741 1.79759 3
      vertex -1 1.73205 3
    endloop
  endfacet
  facet normal 0 0 -1
    outer loop
      vertex -0.0697985 1.99878 3
      vertex -2 3.4641 3
      vertex 2 3.4641 3
    endloop
  endfacet
  facet normal 0 0 -1
    outer loop
      vertex -1.11839 1.65807 3
      vertex -2 3.4641 3
      vertex -1 1.73205 3
    endloop
  endfacet
  facet normal 0 0 -1
    outer loop
      vertex -1.23132 1.57602 3
      vertex -2 3.4641 3
      vertex -1.11839 1.65807 3
    endloop
  endfacet
  facet normal 0 0 -1
    outer loop
      vertex -1.33826 1.48629 3
      vertex -2 3.4641 3
      vertex -1.23132 1.57602 3
    endloop
  endfacet
  facet normal 0 0 -1
    outer loop
      vertex -1.43868 1.38932 3
      vertex -2 3.4641 3
      vertex -1.33826 1.48629 3
    endloop
  endfacet
  facet normal 0 0 -1
    outer loop
      vertex -1.53209 1.28557 3
      vertex -2 3.4641 3
      vertex -1.43868 1.38932 3
    endloop
  endfacet
  facet normal 0 0 -1
    outer loop
      vertex -1.61803 1.17557 3
      vertex -2 3.4641 3
      vertex -1.53209 1.28557 3
    endloop
  endfacet
  facet normal 0 0 -1
    outer loop
      vertex -1.6961 1.05984 3
      vertex -2 3.4641 3
      vertex -1.61803 1.17557 3
    endloop
  endfacet
  facet normal 0 0 -1
    outer loop
      vertex -1.76589 0.938943 3
      vertex -2 3.4641 3
      vertex -1.6961 1.05984 3
    endloop
  endfacet
  facet normal 0 0 -1
    outer loop
      vertex -1.82709 0.813473 3
      vertex -2 3.4641 3
      vertex -1.76589 0.938943 3
    endloop
  endfacet
  facet normal 0 0 -1
    outer loop
      vertex -1.87938 0.68404 3
      vertex -2 3.4641 3
      vertex -1.82709 0.813473 3
    endloop
  endfacet
  facet normal 0 0 -1
    outer loop
      vertex -1.92252 0.551274 3
      vertex -2 3.4641 3
      vertex -1.87938 0.68404 3
    endloop
  endfacet
  facet normal 0 0 -1
    outer loop
      vertex -1.9563 0.415823 3
      vertex -2 3.4641 3
      vertex -1.92252 0.551274 3
    endloop
  endfacet
  facet normal 0 0 -1
    outer loop
      vertex -1.98054 0.278346 3
      vertex -2 3.4641 3
      vertex -1.9563 0.415823 3
    endloop
  endfacet
  facet normal 0 0 -1
    outer loop
      vertex -1.99513 0.139512 3
      vertex -2 3.4641 3
      vertex -1.98054 0.278346 3
    endloop
  endfacet
  facet normal 0 0 -1
    outer loop
      vertex -2 3.4641 3
      vertex -1.99513 0.139512 3
      vertex -2 0 3
    endloop
  endfacet
  facet normal -0.984809 -0.173642 0
    outer loop
      vertex 1.98054 0.278346 3
      vertex 1.9563 0.415823 4
      vertex 1.9563 0.415823 3
    endloop
  endfacet
  facet normal -0.984809 -0.173642 0
    outer loop
      vertex 1.9563 0.415823 4
      vertex 1.98054 0.278346 3
      vertex 1.98054 0.278346 4
    endloop
  endfacet
  facet normal 0.469483 -0.882942 0
    outer loop
      vertex -1 1.73205 3
      vertex -0.876741 1.79759 4
      vertex -1 1.73205 4
    endloop
  endfacet
  facet normal 0.469483 -0.882942 0
    outer loop
      vertex -0.876741 1.79759 4
      vertex -1 1.73205 3
      vertex -0.876741 1.79759 3
    endloop
  endfacet
  facet normal 0.139186 -0.990266 0
    outer loop
      vertex -0.347296 1.96961 3
      vertex -0.209057 1.98904 4
      vertex -0.347296 1.96961 4
    endloop
  endfacet
  facet normal 0.139186 -0.990266 0
    outer loop
      vertex -0.209057 1.98904 4
      vertex -0.347296 1.96961 3
      vertex -0.209057 1.98904 3
    endloop
  endfacet
  facet normal 0.970282 0.241978 0
    outer loop
      vertex -1.92252 -0.551274 4
      vertex -1.9563 -0.415823 3
      vertex -1.9563 -0.415823 4
    endloop
  endfacet
  facet normal 0.970282 0.241978 0
    outer loop
      vertex -1.9563 -0.415823 3
      vertex -1.92252 -0.551274 4
      vertex -1.92252 -0.551274 3
    endloop
  endfacet
  facet normal -0.341987 -0.939705 0
    outer loop
      vertex 0.618033 1.90211 3
      vertex 0.749212 1.85437 4
      vertex 0.618033 1.90211 4
    endloop
  endfacet
  facet normal -0.341987 -0.939705 -0
    outer loop
      vertex 0.749212 1.85437 4
      vertex 0.618033 1.90211 3
      vertex 0.749212 1.85437 3
    endloop
  endfacet
  facet normal 0.951053 -0.309028 0
    outer loop
      vertex -1.92252 0.551274 4
      vertex -1.87938 0.68404 3
      vertex -1.87938 0.68404 4
    endloop
  endfacet
  facet normal 0.951053 -0.309028 0
    outer loop
      vertex -1.87938 0.68404 3
      vertex -1.92252 0.551274 4
      vertex -1.92252 0.551274 3
    endloop
  endfacet
  facet normal -0.994523 -0.104514 0
    outer loop
      vertex 1.99513 0.139512 3
      vertex 1.98054 0.278346 4
      vertex 1.98054 0.278346 3
    endloop
  endfacet
  facet normal -0.994523 -0.104514 0
    outer loop
      vertex 1.98054 0.278346 4
      vertex 1.99513 0.139512 3
      vertex 1.99513 0.139512 4
    endloop
  endfacet
  facet normal 0.529928 -0.848043 0
    outer loop
      vertex -1.11839 1.65807 3
      vertex -1 1.73205 4
      vertex -1.11839 1.65807 4
    endloop
  endfacet
  facet normal 0.529928 -0.848043 0
    outer loop
      vertex -1 1.73205 4
      vertex -1.11839 1.65807 3
      vertex -1 1.73205 3
    endloop
  endfacet
  facet normal -0.743169 -0.669103 0
    outer loop
      vertex 1.53209 1.28557 3
      vertex 1.43868 1.38932 4
      vertex 1.43868 1.38932 3
    endloop
  endfacet
  facet normal -0.743169 -0.669103 0
    outer loop
      vertex 1.43868 1.38932 4
      vertex 1.53209 1.28557 3
      vertex 1.53209 1.28557 4
    endloop
  endfacet
  facet normal 0.951053 0.309028 0
    outer loop
      vertex -1.87938 -0.68404 4
      vertex -1.92252 -0.551274 3
      vertex -1.92252 -0.551274 4
    endloop
  endfacet
  facet normal 0.951053 0.309028 0
    outer loop
      vertex -1.92252 -0.551274 3
      vertex -1.87938 -0.68404 4
      vertex -1.87938 -0.68404 3
    endloop
  endfacet
  facet normal 0.984809 -0.173642 0
    outer loop
      vertex -1.98054 0.278346 4
      vertex -1.9563 0.415823 3
      vertex -1.9563 0.415823 4
    endloop
  endfacet
  facet normal 0.984809 -0.173642 0
    outer loop
      vertex -1.9563 0.415823 3
      vertex -1.98054 0.278346 4
      vertex -1.98054 0.278346 3
    endloop
  endfacet
  facet normal 0.694642 -0.719356 0
    outer loop
      vertex -1.43868 1.38932 3
      vertex -1.33826 1.48629 4
      vertex -1.43868 1.38932 4
    endloop
  endfacet
  facet normal 0.694642 -0.719356 0
    outer loop
      vertex -1.33826 1.48629 4
      vertex -1.43868 1.38932 3
      vertex -1.33826 1.48629 3
    endloop
  endfacet
  facet normal -0.788016 0.615655 0
    outer loop
      vertex 1.53209 -1.28557 3
      vertex 1.61803 -1.17557 4
      vertex 1.61803 -1.17557 3
    endloop
  endfacet
  facet normal -0.788016 0.615655 0
    outer loop
      vertex 1.61803 -1.17557 4
      vertex 1.53209 -1.28557 3
      vertex 1.53209 -1.28557 4
    endloop
  endfacet
  facet normal -0.529928 -0.848043 0
    outer loop
      vertex 1 1.73205 3
      vertex 1.11839 1.65807 4
      vertex 1 1.73205 4
    endloop
  endfacet
  facet normal -0.529928 -0.848043 -0
    outer loop
      vertex 1.11839 1.65807 4
      vertex 1 1.73205 3
      vertex 1.11839 1.65807 3
    endloop
  endfacet
  facet normal 0 1 -0
    outer loop
      vertex 0.0697985 -1.99878 3
      vertex -0.0697985 -1.99878 4
      vertex 0.0697985 -1.99878 4
    endloop
  endfacet
  facet normal 0 1 0
    outer loop
      vertex -0.0697985 -1.99878 4
      vertex 0.0697985 -1.99878 3
      vertex -0.0697985 -1.99878 3
    endloop
  endfacet
  facet normal -0.341987 0.939705 0
    outer loop
      vertex 0.749212 -1.85437 3
      vertex 0.618033 -1.90211 4
      vertex 0.749212 -1.85437 4
    endloop
  endfacet
  facet normal -0.341987 0.939705 0
    outer loop
      vertex 0.618033 -1.90211 4
      vertex 0.749212 -1.85437 3
      vertex 0.618033 -1.90211 3
    endloop
  endfacet
  facet normal -0.999391 0.0348861 0
    outer loop
      vertex 1.99513 -0.139512 3
      vertex 2 0 4
      vertex 2 0 3
    endloop
  endfacet
  facet normal -0.999391 0.0348861 0
    outer loop
      vertex 2 0 4
      vertex 1.99513 -0.139512 3
      vertex 1.99513 -0.139512 4
    endloop
  endfacet
  facet normal -0.0697714 0.997563 0
    outer loop
      vertex 0.209057 -1.98904 3
      vertex 0.0697985 -1.99878 4
      vertex 0.209057 -1.98904 4
    endloop
  endfacet
  facet normal -0.0697714 0.997563 0
    outer loop
      vertex 0.0697985 -1.99878 4
      vertex 0.209057 -1.98904 3
      vertex 0.0697985 -1.99878 3
    endloop
  endfacet
  facet normal -0.207885 0.978153 0
    outer loop
      vertex 0.483843 -1.94059 3
      vertex 0.347296 -1.96961 4
      vertex 0.483843 -1.94059 4
    endloop
  endfacet
  facet normal -0.207885 0.978153 0
    outer loop
      vertex 0.347296 -1.96961 4
      vertex 0.483843 -1.94059 3
      vertex 0.347296 -1.96961 3
    endloop
  endfacet
  facet normal -0.994523 0.104514 0
    outer loop
      vertex 1.98054 -0.278346 3
      vertex 1.99513 -0.139512 4
      vertex 1.99513 -0.139512 3
    endloop
  endfacet
  facet normal -0.994523 0.104514 0
    outer loop
      vertex 1.99513 -0.139512 4
      vertex 1.98054 -0.278346 3
      vertex 1.98054 -0.278346 4
    endloop
  endfacet
  facet normal -0.999391 -0.0348861 0
    outer loop
      vertex 2 0 3
      vertex 1.99513 0.139512 4
      vertex 1.99513 0.139512 3
    endloop
  endfacet
  facet normal -0.999391 -0.0348861 0
    outer loop
      vertex 1.99513 0.139512 4
      vertex 2 0 3
      vertex 2 0 4
    endloop
  endfacet
  facet normal 0.341987 -0.939705 0
    outer loop
      vertex -0.749212 1.85437 3
      vertex -0.618033 1.90211 4
      vertex -0.749212 1.85437 4
    endloop
  endfacet
  facet normal 0.341987 -0.939705 0
    outer loop
      vertex -0.618033 1.90211 4
      vertex -0.749212 1.85437 3
      vertex -0.618033 1.90211 3
    endloop
  endfacet
  facet normal -0.970282 -0.241978 0
    outer loop
      vertex 1.9563 0.415823 3
      vertex 1.92252 0.551274 4
      vertex 1.92252 0.551274 3
    endloop
  endfacet
  facet normal -0.970282 -0.241978 0
    outer loop
      vertex 1.92252 0.551274 4
      vertex 1.9563 0.415823 3
      vertex 1.9563 0.415823 4
    endloop
  endfacet
  facet normal -0.587793 -0.809012 0
    outer loop
      vertex 1.11839 1.65807 3
      vertex 1.23132 1.57602 4
      vertex 1.11839 1.65807 4
    endloop
  endfacet
  facet normal -0.587793 -0.809012 -0
    outer loop
      vertex 1.23132 1.57602 4
      vertex 1.11839 1.65807 3
      vertex 1.23132 1.57602 3
    endloop
  endfacet
  facet normal -0.970282 0.241978 0
    outer loop
      vertex 1.92252 -0.551274 3
      vertex 1.9563 -0.415823 4
      vertex 1.9563 -0.415823 3
    endloop
  endfacet
  facet normal -0.970282 0.241978 0
    outer loop
      vertex 1.9563 -0.415823 4
      vertex 1.92252 -0.551274 3
      vertex 1.92252 -0.551274 4
    endloop
  endfacet
  facet normal 0.898782 -0.438395 0
    outer loop
      vertex -1.82709 0.813473 4
      vertex -1.76589 0.938943 3
      vertex -1.76589 0.938943 4
    endloop
  endfacet
  facet normal 0.898782 -0.438395 0
    outer loop
      vertex -1.76589 0.938943 3
      vertex -1.82709 0.813473 4
      vertex -1.82709 0.813473 3
    endloop
  endfacet
  facet normal -0.951053 -0.309028 0
    outer loop
      vertex 1.92252 0.551274 3
      vertex 1.87938 0.68404 4
      vertex 1.87938 0.68404 3
    endloop
  endfacet
  facet normal -0.951053 -0.309028 0
    outer loop
      vertex 1.87938 0.68404 4
      vertex 1.92252 0.551274 3
      vertex 1.92252 0.551274 4
    endloop
  endfacet
  facet normal 0.207885 -0.978153 0
    outer loop
      vertex -0.483843 1.94059 3
      vertex -0.347296 1.96961 4
      vertex -0.483843 1.94059 4
    endloop
  endfacet
  facet normal 0.207885 -0.978153 0
    outer loop
      vertex -0.347296 1.96961 4
      vertex -0.483843 1.94059 3
      vertex -0.347296 1.96961 3
    endloop
  endfacet
  facet normal -0.866056 -0.499947 0
    outer loop
      vertex 1.76589 0.938943 3
      vertex 1.6961 1.05984 4
      vertex 1.6961 1.05984 3
    endloop
  endfacet
  facet normal -0.866056 -0.499947 0
    outer loop
      vertex 1.6961 1.05984 4
      vertex 1.76589 0.938943 3
      vertex 1.76589 0.938943 4
    endloop
  endfacet
  facet normal 0.984809 0.173642 0
    outer loop
      vertex -1.9563 -0.415823 4
      vertex -1.98054 -0.278346 3
      vertex -1.98054 -0.278346 4
    endloop
  endfacet
  facet normal 0.984809 0.173642 0
    outer loop
      vertex -1.98054 -0.278346 3
      vertex -1.9563 -0.415823 4
      vertex -1.9563 -0.415823 3
    endloop
  endfacet
  facet normal 0.275648 0.961259 -0
    outer loop
      vertex -0.483843 -1.94059 3
      vertex -0.618033 -1.90211 4
      vertex -0.483843 -1.94059 4
    endloop
  endfacet
  facet normal 0.275648 0.961259 0
    outer loop
      vertex -0.618033 -1.90211 4
      vertex -0.483843 -1.94059 3
      vertex -0.618033 -1.90211 3
    endloop
  endfacet
  facet normal -0.139186 0.990266 0
    outer loop
      vertex 0.347296 -1.96961 3
      vertex 0.209057 -1.98904 4
      vertex 0.347296 -1.96961 4
    endloop
  endfacet
  facet normal -0.139186 0.990266 0
    outer loop
      vertex 0.209057 -1.98904 4
      vertex 0.347296 -1.96961 3
      vertex 0.209057 -1.98904 3
    endloop
  endfacet
  facet normal 0 -1 0
    outer loop
      vertex -0.0697985 1.99878 3
      vertex 0.0697985 1.99878 4
      vertex -0.0697985 1.99878 4
    endloop
  endfacet
  facet normal 0 -1 -0
    outer loop
      vertex 0.0697985 1.99878 4
      vertex -0.0697985 1.99878 3
      vertex 0.0697985 1.99878 3
    endloop
  endfacet
  facet normal 0.999391 0.0348861 0
    outer loop
      vertex -1.99513 -0.139512 4
      vertex -2 0 3
      vertex -2 0 4
    endloop
  endfacet
  facet normal 0.999391 0.0348861 0
    outer loop
      vertex -2 0 3
      vertex -1.99513 -0.139512 4
      vertex -1.99513 -0.139512 3
    endloop
  endfacet
  facet normal -0.951053 0.309028 0
    outer loop
      vertex 1.87938 -0.68404 3
      vertex 1.92252 -0.551274 4
      vertex 1.92252 -0.551274 3
    endloop
  endfacet
  facet normal -0.951053 0.309028 0
    outer loop
      vertex 1.92252 -0.551274 4
      vertex 1.87938 -0.68404 3
      vertex 1.87938 -0.68404 4
    endloop
  endfacet
  facet normal -0.898782 0.438395 0
    outer loop
      vertex 1.76589 -0.938943 3
      vertex 1.82709 -0.813473 4
      vertex 1.82709 -0.813473 3
    endloop
  endfacet
  facet normal -0.898782 0.438395 0
    outer loop
      vertex 1.82709 -0.813473 4
      vertex 1.76589 -0.938943 3
      vertex 1.76589 -0.938943 4
    endloop
  endfacet
  facet normal -0.927195 -0.37458 0
    outer loop
      vertex 1.87938 0.68404 3
      vertex 1.82709 0.813473 4
      vertex 1.82709 0.813473 3
    endloop
  endfacet
  facet normal -0.927195 -0.37458 0
    outer loop
      vertex 1.82709 0.813473 4
      vertex 1.87938 0.68404 3
      vertex 1.87938 0.68404 4
    endloop
  endfacet
  facet normal -0.829007 -0.559238 0
    outer loop
      vertex 1.6961 1.05984 3
      vertex 1.61803 1.17557 4
      vertex 1.61803 1.17557 3
    endloop
  endfacet
  facet normal -0.829007 -0.559238 0
    outer loop
      vertex 1.61803 1.17557 4
      vertex 1.6961 1.05984 3
      vertex 1.6961 1.05984 4
    endloop
  endfacet
  facet normal 0.469483 0.882942 -0
    outer loop
      vertex -0.876741 -1.79759 3
      vertex -1 -1.73205 4
      vertex -0.876741 -1.79759 4
    endloop
  endfacet
  facet normal 0.469483 0.882942 0
    outer loop
      vertex -1 -1.73205 4
      vertex -0.876741 -1.79759 3
      vertex -1 -1.73205 3
    endloop
  endfacet
  facet normal 0.999391 -0.0348861 0
    outer loop
      vertex -2 0 4
      vertex -1.99513 0.139512 3
      vertex -1.99513 0.139512 4
    endloop
  endfacet
  facet normal 0.999391 -0.0348861 0
    outer loop
      vertex -1.99513 0.139512 3
      vertex -2 0 4
      vertex -2 0 3
    endloop
  endfacet
  facet normal 0.406739 0.913544 -0
    outer loop
      vertex -0.749212 -1.85437 3
      vertex -0.876741 -1.79759 4
      vertex -0.749212 -1.85437 4
    endloop
  endfacet
  facet normal 0.406739 0.913544 0
    outer loop
      vertex -0.876741 -1.79759 4
      vertex -0.749212 -1.85437 3
      vertex -0.876741 -1.79759 3
    endloop
  endfacet
  facet normal 0.970282 -0.241978 0
    outer loop
      vertex -1.9563 0.415823 4
      vertex -1.92252 0.551274 3
      vertex -1.92252 0.551274 4
    endloop
  endfacet
  facet normal 0.970282 -0.241978 0
    outer loop
      vertex -1.92252 0.551274 3
      vertex -1.9563 0.415823 4
      vertex -1.9563 0.415823 3
    endloop
  endfacet
  facet normal -0.139186 -0.990266 0
    outer loop
      vertex 0.209057 1.98904 3
      vertex 0.347296 1.96961 4
      vertex 0.209057 1.98904 4
    endloop
  endfacet
  facet normal -0.139186 -0.990266 -0
    outer loop
      vertex 0.347296 1.96961 4
      vertex 0.209057 1.98904 3
      vertex 0.347296 1.96961 3
    endloop
  endfacet
  facet normal 0.587793 -0.809012 0
    outer loop
      vertex -1.23132 1.57602 3
      vertex -1.11839 1.65807 4
      vertex -1.23132 1.57602 4
    endloop
  endfacet
  facet normal 0.587793 -0.809012 0
    outer loop
      vertex -1.11839 1.65807 4
      vertex -1.23132 1.57602 3
      vertex -1.11839 1.65807 3
    endloop
  endfacet
  facet normal -0.642774 -0.766056 0
    outer loop
      vertex 1.23132 1.57602 3
      vertex 1.33826 1.48629 4
      vertex 1.23132 1.57602 4
    endloop
  endfacet
  facet normal -0.642774 -0.766056 -0
    outer loop
      vertex 1.33826 1.48629 4
      vertex 1.23132 1.57602 3
      vertex 1.33826 1.48629 3
    endloop
  endfacet
  facet normal 0.275648 -0.961259 0
    outer loop
      vertex -0.618033 1.90211 3
      vertex -0.483843 1.94059 4
      vertex -0.618033 1.90211 4
    endloop
  endfacet
  facet normal 0.275648 -0.961259 0
    outer loop
      vertex -0.483843 1.94059 4
      vertex -0.618033 1.90211 3
      vertex -0.483843 1.94059 3
    endloop
  endfacet
  facet normal 0.0697714 0.997563 -0
    outer loop
      vertex -0.0697985 -1.99878 3
      vertex -0.209057 -1.98904 4
      vertex -0.0697985 -1.99878 4
    endloop
  endfacet
  facet normal 0.0697714 0.997563 0
    outer loop
      vertex -0.209057 -1.98904 4
      vertex -0.0697985 -1.99878 3
      vertex -0.209057 -1.98904 3
    endloop
  endfacet
  facet normal -0.0697714 -0.997563 0
    outer loop
      vertex 0.0697985 1.99878 3
      vertex 0.209057 1.98904 4
      vertex 0.0697985 1.99878 4
    endloop
  endfacet
  facet normal -0.0697714 -0.997563 -0
    outer loop
      vertex 0.209057 1.98904 4
      vertex 0.0697985 1.99878 3
      vertex 0.209057 1.98904 3
    endloop
  endfacet
  facet normal -0.829007 0.559238 0
    outer loop
      vertex 1.61803 -1.17557 3
      vertex 1.6961 -1.05984 4
      vertex 1.6961 -1.05984 3
    endloop
  endfacet
  facet normal -0.829007 0.559238 0
    outer loop
      vertex 1.6961 -1.05984 4
      vertex 1.61803 -1.17557 3
      vertex 1.61803 -1.17557 4
    endloop
  endfacet
  facet normal 0.0697714 -0.997563 0
    outer loop
      vertex -0.209057 1.98904 3
      vertex -0.0697985 1.99878 4
      vertex -0.209057 1.98904 4
    endloop
  endfacet
  facet normal 0.0697714 -0.997563 0
    outer loop
      vertex -0.0697985 1.99878 4
      vertex -0.209057 1.98904 3
      vertex -0.0697985 1.99878 3
    endloop
  endfacet
  facet normal 0.927195 -0.37458 0
    outer loop
      vertex -1.87938 0.68404 4
      vertex -1.82709 0.813473 3
      vertex -1.82709 0.813473 4
    endloop
  endfacet
  facet normal 0.927195 -0.37458 0
    outer loop
      vertex -1.82709 0.813473 3
      vertex -1.87938 0.68404 4
      vertex -1.87938 0.68404 3
    endloop
  endfacet
  facet normal 0.994523 0.104514 0
    outer loop
      vertex -1.98054 -0.278346 4
      vertex -1.99513 -0.139512 3
      vertex -1.99513 -0.139512 4
    endloop
  endfacet
  facet normal 0.994523 0.104514 0
    outer loop
      vertex -1.99513 -0.139512 3
      vertex -1.98054 -0.278346 4
      vertex -1.98054 -0.278346 3
    endloop
  endfacet
  facet normal -0.406739 0.913544 0
    outer loop
      vertex 0.876741 -1.79759 3
      vertex 0.749212 -1.85437 4
      vertex 0.876741 -1.79759 4
    endloop
  endfacet
  facet normal -0.406739 0.913544 0
    outer loop
      vertex 0.749212 -1.85437 4
      vertex 0.876741 -1.79759 3
      vertex 0.749212 -1.85437 3
    endloop
  endfacet
  facet normal -0.866056 0.499947 0
    outer loop
      vertex 1.6961 -1.05984 3
      vertex 1.76589 -0.938943 4
      vertex 1.76589 -0.938943 3
    endloop
  endfacet
  facet normal -0.866056 0.499947 0
    outer loop
      vertex 1.76589 -0.938943 4
      vertex 1.6961 -1.05984 3
      vertex 1.6961 -1.05984 4
    endloop
  endfacet
  facet normal -0.898782 -0.438395 0
    outer loop
      vertex 1.82709 0.813473 3
      vertex 1.76589 0.938943 4
      vertex 1.76589 0.938943 3
    endloop
  endfacet
  facet normal -0.898782 -0.438395 0
    outer loop
      vertex 1.76589 0.938943 4
      vertex 1.82709 0.813473 3
      vertex 1.82709 0.813473 4
    endloop
  endfacet
  facet normal -0.694642 -0.719356 0
    outer loop
      vertex 1.33826 1.48629 3
      vertex 1.43868 1.38932 4
      vertex 1.33826 1.48629 4
    endloop
  endfacet
  facet normal -0.694642 -0.719356 -0
    outer loop
      vertex 1.43868 1.38932 4
      vertex 1.33826 1.48629 3
      vertex 1.43868 1.38932 3
    endloop
  endfacet
  facet normal 0.139186 0.990266 -0
    outer loop
      vertex -0.209057 -1.98904 3
      vertex -0.347296 -1.96961 4
      vertex -0.209057 -1.98904 4
    endloop
  endfacet
  facet normal 0.139186 0.990266 0
    outer loop
      vertex -0.347296 -1.96961 4
      vertex -0.209057 -1.98904 3
      vertex -0.347296 -1.96961 3
    endloop
  endfacet
  facet normal -0.743169 0.669103 0
    outer loop
      vertex 1.43868 -1.38932 3
      vertex 1.53209 -1.28557 4
      vertex 1.53209 -1.28557 3
    endloop
  endfacet
  facet normal -0.743169 0.669103 0
    outer loop
      vertex 1.53209 -1.28557 4
      vertex 1.43868 -1.38932 3
      vertex 1.43868 -1.38932 4
    endloop
  endfacet
  facet normal -0.406739 -0.913544 0
    outer loop
      vertex 0.749212 1.85437 3
      vertex 0.876741 1.79759 4
      vertex 0.749212 1.85437 4
    endloop
  endfacet
  facet normal -0.406739 -0.913544 -0
    outer loop
      vertex 0.876741 1.79759 4
      vertex 0.749212 1.85437 3
      vertex 0.876741 1.79759 3
    endloop
  endfacet
  facet normal -0.642774 0.766056 0
    outer loop
      vertex 1.33826 -1.48629 3
      vertex 1.23132 -1.57602 4
      vertex 1.33826 -1.48629 4
    endloop
  endfacet
  facet normal -0.642774 0.766056 0
    outer loop
      vertex 1.23132 -1.57602 4
      vertex 1.33826 -1.48629 3
      vertex 1.23132 -1.57602 3
    endloop
  endfacet
  facet normal 0.829007 0.559238 0
    outer loop
      vertex -1.61803 -1.17557 4
      vertex -1.6961 -1.05984 3
      vertex -1.6961 -1.05984 4
    endloop
  endfacet
  facet normal 0.829007 0.559238 0
    outer loop
      vertex -1.6961 -1.05984 3
      vertex -1.61803 -1.17557 4
      vertex -1.61803 -1.17557 3
    endloop
  endfacet
  facet normal 0.866056 0.499947 0
    outer loop
      vertex -1.6961 -1.05984 4
      vertex -1.76589 -0.938943 3
      vertex -1.76589 -0.938943 4
    endloop
  endfacet
  facet normal 0.866056 0.499947 0
    outer loop
      vertex -1.76589 -0.938943 3
      vertex -1.6961 -1.05984 4
      vertex -1.6961 -1.05984 3
    endloop
  endfacet
  facet normal 0.207885 0.978153 -0
    outer loop
      vertex -0.347296 -1.96961 3
      vertex -0.483843 -1.94059 4
      vertex -0.347296 -1.96961 4
    endloop
  endfacet
  facet normal 0.207885 0.978153 0
    outer loop
      vertex -0.483843 -1.94059 4
      vertex -0.347296 -1.96961 3
      vertex -0.483843 -1.94059 3
    endloop
  endfacet
  facet normal -0.469483 0.882942 0
    outer loop
      vertex 1 -1.73205 3
      vertex 0.876741 -1.79759 4
      vertex 1 -1.73205 4
    endloop
  endfacet
  facet normal -0.469483 0.882942 0
    outer loop
      vertex 0.876741 -1.79759 4
      vertex 1 -1.73205 3
      vertex 0.876741 -1.79759 3
    endloop
  endfacet
  facet normal -0.275648 0.961259 0
    outer loop
      vertex 0.618033 -1.90211 3
      vertex 0.483843 -1.94059 4
      vertex 0.618033 -1.90211 4
    endloop
  endfacet
  facet normal -0.275648 0.961259 0
    outer loop
      vertex 0.483843 -1.94059 4
      vertex 0.618033 -1.90211 3
      vertex 0.483843 -1.94059 3
    endloop
  endfacet
  facet normal 0.642774 -0.766056 0
    outer loop
      vertex -1.33826 1.48629 3
      vertex -1.23132 1.57602 4
      vertex -1.33826 1.48629 4
    endloop
  endfacet
  facet normal 0.642774 -0.766056 0
    outer loop
      vertex -1.23132 1.57602 4
      vertex -1.33826 1.48629 3
      vertex -1.23132 1.57602 3
    endloop
  endfacet
  facet normal 0.587793 0.809012 -0
    outer loop
      vertex -1.11839 -1.65807 3
      vertex -1.23132 -1.57602 4
      vertex -1.11839 -1.65807 4
    endloop
  endfacet
  facet normal 0.587793 0.809012 0
    outer loop
      vertex -1.23132 -1.57602 4
      vertex -1.11839 -1.65807 3
      vertex -1.23132 -1.57602 3
    endloop
  endfacet
  facet normal 0.829007 -0.559238 0
    outer loop
      vertex -1.6961 1.05984 4
      vertex -1.61803 1.17557 3
      vertex -1.61803 1.17557 4
    endloop
  endfacet
  facet normal 0.829007 -0.559238 0
    outer loop
      vertex -1.61803 1.17557 3
      vertex -1.6961 1.05984 4
      vertex -1.6961 1.05984 3
    endloop
  endfacet
  facet normal 0.743169 -0.669103 0
    outer loop
      vertex -1.53209 1.28557 4
      vertex -1.43868 1.38932 3
      vertex -1.43868 1.38932 4
    endloop
  endfacet
  facet normal 0.743169 -0.669103 0
    outer loop
      vertex -1.43868 1.38932 3
      vertex -1.53209 1.28557 4
      vertex -1.53209 1.28557 3
    endloop
  endfacet
  facet normal 0.642774 0.766056 -0
    outer loop
      vertex -1.23132 -1.57602 3
      vertex -1.33826 -1.48629 4
      vertex -1.23132 -1.57602 4
    endloop
  endfacet
  facet normal 0.642774 0.766056 0
    outer loop
      vertex -1.33826 -1.48629 4
      vertex -1.23132 -1.57602 3
      vertex -1.33826 -1.48629 3
    endloop
  endfacet
  facet normal -0.927195 0.37458 0
    outer loop
      vertex 1.82709 -0.813473 3
      vertex 1.87938 -0.68404 4
      vertex 1.87938 -0.68404 3
    endloop
  endfacet
  facet normal -0.927195 0.37458 0
    outer loop
      vertex 1.87938 -0.68404 4
      vertex 1.82709 -0.813473 3
      vertex 1.82709 -0.813473 4
    endloop
  endfacet
  facet normal -0.984809 0.173642 0
    outer loop
      vertex 1.9563 -0.415823 3
      vertex 1.98054 -0.278346 4
      vertex 1.98054 -0.278346 3
    endloop
  endfacet
  facet normal -0.984809 0.173642 0
    outer loop
      vertex 1.98054 -0.278346 4
      vertex 1.9563 -0.415823 3
      vertex 1.9563 -0.415823 4
    endloop
  endfacet
  facet normal 0.788016 0.615655 0
    outer loop
      vertex -1.53209 -1.28557 4
      vertex -1.61803 -1.17557 3
      vertex -1.61803 -1.17557 4
    endloop
  endfacet
  facet normal 0.788016 0.615655 0
    outer loop
      vertex -1.61803 -1.17557 3
      vertex -1.53209 -1.28557 4
      vertex -1.53209 -1.28557 3
    endloop
  endfacet
  facet normal 0.743169 0.669103 0
    outer loop
      vertex -1.43868 -1.38932 4
      vertex -1.53209 -1.28557 3
      vertex -1.53209 -1.28557 4
    endloop
  endfacet
  facet normal 0.743169 0.669103 0
    outer loop
      vertex -1.53209 -1.28557 3
      vertex -1.43868 -1.38932 4
      vertex -1.43868 -1.38932 3
    endloop
  endfacet
  facet normal -0.207885 -0.978153 0
    outer loop
      vertex 0.347296 1.96961 3
      vertex 0.483843 1.94059 4
      vertex 0.347296 1.96961 4
    endloop
  endfacet
  facet normal -0.207885 -0.978153 -0
    outer loop
      vertex 0.483843 1.94059 4
      vertex 0.347296 1.96961 3
      vertex 0.483843 1.94059 3
    endloop
  endfacet
  facet normal 0.694642 0.719356 -0
    outer loop
      vertex -1.33826 -1.48629 3
      vertex -1.43868 -1.38932 4
      vertex -1.33826 -1.48629 4
    endloop
  endfacet
  facet normal 0.694642 0.719356 0
    outer loop
      vertex -1.43868 -1.38932 4
      vertex -1.33826 -1.48629 3
      vertex -1.43868 -1.38932 3
    endloop
  endfacet
  facet normal 0.341987 0.939705 -0
    outer loop
      vertex -0.618033 -1.90211 3
      vertex -0.749212 -1.85437 4
      vertex -0.618033 -1.90211 4
    endloop
  endfacet
  facet normal 0.341987 0.939705 0
    outer loop
      vertex -0.749212 -1.85437 4
      vertex -0.618033 -1.90211 3
      vertex -0.749212 -1.85437 3
    endloop
  endfacet
  facet normal -0.275648 -0.961259 0
    outer loop
      vertex 0.483843 1.94059 3
      vertex 0.618033 1.90211 4
      vertex 0.483843 1.94059 4
    endloop
  endfacet
  facet normal -0.275648 -0.961259 -0
    outer loop
      vertex 0.618033 1.90211 4
      vertex 0.483843 1.94059 3
      vertex 0.618033 1.90211 3
    endloop
  endfacet
  facet normal 0.406739 -0.913544 0
    outer loop
      vertex -0.876741 1.79759 3
      vertex -0.749212 1.85437 4
      vertex -0.876741 1.79759 4
    endloop
  endfacet
  facet normal 0.406739 -0.913544 0
    outer loop
      vertex -0.749212 1.85437 4
      vertex -0.876741 1.79759 3
      vertex -0.749212 1.85437 3
    endloop
  endfacet
  facet normal -0.469483 -0.882942 0
    outer loop
      vertex 0.876741 1.79759 3
      vertex 1 1.73205 4
      vertex 0.876741 1.79759 4
    endloop
  endfacet
  facet normal -0.469483 -0.882942 -0
    outer loop
      vertex 1 1.73205 4
      vertex 0.876741 1.79759 3
      vertex 1 1.73205 3
    endloop
  endfacet
  facet normal 0.994523 -0.104514 0
    outer loop
      vertex -1.99513 0.139512 4
      vertex -1.98054 0.278346 3
      vertex -1.98054 0.278346 4
    endloop
  endfacet
  facet normal 0.994523 -0.104514 0
    outer loop
      vertex -1.98054 0.278346 3
      vertex -1.99513 0.139512 4
      vertex -1.99513 0.139512 3
    endloop
  endfacet
  facet normal -0.587793 0.809012 0
    outer loop
      vertex 1.23132 -1.57602 3
      vertex 1.11839 -1.65807 4
      vertex 1.23132 -1.57602 4
    endloop
  endfacet
  facet normal -0.587793 0.809012 0
    outer loop
      vertex 1.11839 -1.65807 4
      vertex 1.23132 -1.57602 3
      vertex 1.11839 -1.65807 3
    endloop
  endfacet
  facet normal -0.529928 0.848043 0
    outer loop
      vertex 1.11839 -1.65807 3
      vertex 1 -1.73205 4
      vertex 1.11839 -1.65807 4
    endloop
  endfacet
  facet normal -0.529928 0.848043 0
    outer loop
      vertex 1 -1.73205 4
      vertex 1.11839 -1.65807 3
      vertex 1 -1.73205 3
    endloop
  endfacet
  facet normal 0.866056 -0.499947 0
    outer loop
      vertex -1.76589 0.938943 4
      vertex -1.6961 1.05984 3
      vertex -1.6961 1.05984 4
    endloop
  endfacet
  facet normal 0.866056 -0.499947 0
    outer loop
      vertex -1.6961 1.05984 3
      vertex -1.76589 0.938943 4
      vertex -1.76589 0.938943 3
    endloop
  endfacet
  facet normal -0.788016 -0.615655 0
    outer loop
      vertex 1.61803 1.17557 3
      vertex 1.53209 1.28557 4
      vertex 1.53209 1.28557 3
    endloop
  endfacet
  facet normal -0.788016 -0.615655 0
    outer loop
      vertex 1.53209 1.28557 4
      vertex 1.61803 1.17557 3
      vertex 1.61803 1.17557 4
    endloop
  endfacet
  facet normal -0.694642 0.719356 0
    outer loop
      vertex 1.43868 -1.38932 3
      vertex 1.33826 -1.48629 4
      vertex 1.43868 -1.38932 4
    endloop
  endfacet
  facet normal -0.694642 0.719356 0
    outer loop
      vertex 1.33826 -1.48629 4
      vertex 1.43868 -1.38932 3
      vertex 1.33826 -1.48629 3
    endloop
  endfacet
  facet normal 0.529928 0.848043 -0
    outer loop
      vertex -1 -1.73205 3
      vertex -1.11839 -1.65807 4
      vertex -1 -1.73205 4
    endloop
  endfacet
  facet normal 0.529928 0.848043 0
    outer loop
      vertex -1.11839 -1.65807 4
      vertex -1 -1.73205 3
      vertex -1.11839 -1.65807 3
    endloop
  endfacet
  facet normal 0.788016 -0.615655 0
    outer loop
      vertex -1.61803 1.17557 4
      vertex -1.53209 1.28557 3
      vertex -1.53209 1.28557 4
    endloop
  endfacet
  facet normal 0.788016 -0.615655 0
    outer loop
      vertex -1.53209 1.28557 3
      vertex -1.61803 1.17557 4
      vertex -1.61803 1.17557 3
    endloop
  endfacet
  facet normal 0.898782 0.438395 0
    outer loop
      vertex -1.76589 -0.938943 4
      vertex -1.82709 -0.813473 3
      vertex -1.82709 -0.813473 4
    endloop
  endfacet
  facet normal 0.898782 0.438395 0
    outer loop
      vertex -1.82709 -0.813473 3
      vertex -1.76589 -0.938943 4
      vertex -1.76589 -0.938943 3
    endloop
  endfacet
  facet normal 0.927195 0.37458 0
    outer loop
      vertex -1.82709 -0.813473 4
      vertex -1.87938 -0.68404 3
      vertex -1.87938 -0.68404 4
    endloop
  endfacet
  facet normal 0.927195 0.37458 0
    outer loop
      vertex -1.87938 -0.68404 3
      vertex -1.82709 -0.813473 4
      vertex -1.82709 -0.813473 3
    endloop
  endfacet
endsolid OpenSCAD_Model
