solid OpenSCAD_Model
  facet normal 0 -1 0
    outer loop
      vertex -5 -8.66025 0
      vertex 5 -8.66025 10
      vertex -5 -8.66025 10
    endloop
  endfacet
  facet normal 0 -1 -0
    outer loop
      vertex 5 -8.66025 10
      vertex -5 -8.66025 0
      vertex 5 -8.66025 0
    endloop
  endfacet
  facet normal 0.866025 -0.5 0
    outer loop
      vertex 5 -8.66025 10
      vertex 10 0 0
      vertex 10 0 10
    endloop
  endfacet
  facet normal 0.866025 -0.5 0
    outer loop
      vertex 10 0 0
      vertex 5 -8.66025 10
      vertex 5 -8.66025 0
    endloop
  endfacet
  facet normal 0 1 -0
    outer loop
      vertex 5 8.66025 0
      vertex -5 8.66025 10
      vertex 5 8.66025 10
    endloop
  endfacet
  facet normal 0 1 0
    outer loop
      vertex -5 8.66025 10
      vertex 5 8.66025 0
      vertex -5 8.66025 0
    endloop
  endfacet
  facet normal 0.866025 0.5 0
    outer loop
      vertex 10 0 10
      vertex 5 8.66025 0
      vertex 5 8.66025 10
    endloop
  endfacet
  facet normal 0.866025 0.5 0
    outer loop
      vertex 5 8.66025 0
      vertex 10 0 10
      vertex 10 0 0
    endloop
  endfacet
  facet normal -0.866025 0.5 0
    outer loop
      vertex -10 0 0
      vertex -5 8.66025 10
      vertex -5 8.66025 0
    endloop
  endfacet
  facet normal -0.866025 0.5 0
    outer loop
      vertex -5 8.66025 10
      vertex -10 0 0
      vertex -10 0 10
    endloop
  endfacet
  facet normal -0.866025 -0.5 0
    outer loop
      vertex -5 -8.66025 0
      vertex -10 0 10
      vertex -10 0 0
    endloop
  endfacet
  facet normal -0.866025 -0.5 0
    outer loop
      vertex -10 0 10
      vertex -5 -8.66025 0
      vertex -5 -8.66025 10
    endloop
  endfacet
  facet normal -0 0 1
    outer loop
      vertex 1.76589 0.938943 10
      vertex 10 0 10
      vertex 5 8.66025 10
    endloop
  endfacet
  facet normal 0 0 1
    outer loop
      vertex 1.99513 -0.139512 10
      vertex 10 0 10
      vertex 2 0 10
    endloop
  endfacet
  facet normal 0 0 1
    outer loop
      vertex 10 0 10
      vertex 1.99513 0.139512 10
      vertex 2 0 10
    endloop
  endfacet
  facet normal 0 0 1
    outer loop
      vertex 10 0 10
      vertex 1.98054 0.278346 10
      vertex 1.99513 0.139512 10
    endloop
  endfacet
  facet normal 0 0 1
    outer loop
      vertex 10 0 10
      vertex 1.9563 0.415823 10
      vertex 1.98054 0.278346 10
    endloop
  endfacet
  facet normal 0 0 1
    outer loop
      vertex 10 0 10
      vertex 1.92252 0.551274 10
      vertex 1.9563 0.415823 10
    endloop
  endfacet
  facet normal 0 0 1
    outer loop
      vertex 10 0 10
      vertex 1.87938 0.68404 10
      vertex 1.92252 0.551274 10
    endloop
  endfacet
  facet normal 0 0 1
    outer loop
      vertex 10 0 10
      vertex 1.82709 0.813473 10
      vertex 1.87938 0.68404 10
    endloop
  endfacet
  facet normal 0 0 1
    outer loop
      vertex 10 0 10
      vertex 1.76589 0.938943 10
      vertex 1.82709 0.813473 10
    endloop
  endfacet
  facet normal 0 0 1
    outer loop
      vertex 5 8.66025 10
      vertex 1.6961 1.05984 10
      vertex 1.76589 0.938943 10
    endloop
  endfacet
  facet normal 0 0 1
    outer loop
      vertex 5 8.66025 10
      vertex 1.61803 1.17557 10
      vertex 1.6961 1.05984 10
    endloop
  endfacet
  facet normal 0 0 1
    outer loop
      vertex 5 8.66025 10
      vertex 1.53209 1.28557 10
      vertex 1.61803 1.17557 10
    endloop
  endfacet
  facet normal 0 0 1
    outer loop
      vertex 5 8.66025 10
      vertex 1.43868 1.38932 10
      vertex 1.53209 1.28557 10
    endloop
  endfacet
  facet normal 0 0 1
    outer loop
      vertex 5 8.66025 10
      vertex 1.33826 1.48629 10
      vertex 1.43868 1.38932 10
    endloop
  endfacet
  facet normal 0 0 1
    outer loop
      vertex 5 8.66025 10
      vertex 1.23132 1.57602 10
      vertex 1.33826 1.48629 10
    endloop
  endfacet
  facet normal 0 0 1
    outer loop
      vertex 5 8.66025 10
      vertex 1.11839 1.65807 10
      vertex 1.23132 1.57602 10
    endloop
  endfacet
  facet normal 0 0 1
    outer loop
      vertex 5 8.66025 10
      vertex 1 1.73205 10
      vertex 1.11839 1.65807 10
    endloop
  endfacet
  facet normal 0 0 1
    outer loop
      vertex 5 8.66025 10
      vertex 0.876741 1.79759 10
      vertex 1 1.73205 10
    endloop
  endfacet
  facet normal 0 0 1
    outer loop
      vertex 5 8.66025 10
      vertex 0.749212 1.85437 10
      vertex 0.876741 1.79759 10
    endloop
  endfacet
  facet normal 0 0 1
    outer loop
      vertex 5 8.66025 10
      vertex 0.618033 1.90211 10
      vertex 0.749212 1.85437 10
    endloop
  endfacet
  facet normal 0 0 1
    outer loop
      vertex 5 8.66025 10
      vertex 0.483843 1.94059 10
      vertex 0.618033 1.90211 10
    endloop
  endfacet
  facet normal 0 0 1
    outer loop
      vertex 5 8.66025 10
      vertex 0.347296 1.96961 10
      vertex 0.483843 1.94059 10
    endloop
  endfacet
  facet normal 0 0 1
    outer loop
      vertex 5 8.66025 10
      vertex 0.209057 1.98904 10
      vertex 0.347296 1.96961 10
    endloop
  endfacet
  facet normal 0 0 1
    outer loop
      vertex 5 8.66025 10
      vertex 0.0697985 1.99878 10
      vertex 0.209057 1.98904 10
    endloop
  endfacet
  facet normal 0 0 1
    outer loop
      vertex 5 8.66025 10
      vertex -0.0697985 1.99878 10
      vertex 0.0697985 1.99878 10
    endloop
  endfacet
  facet normal -0 0 1
    outer loop
      vertex -5 8.66025 10
      vertex -0.0697985 1.99878 10
      vertex 5 8.66025 10
    endloop
  endfacet
  facet normal 0 0 1
    outer loop
      vertex -0.0697985 1.99878 10
      vertex -5 8.66025 10
      vertex -0.209057 1.98904 10
    endloop
  endfacet
  facet normal 0 0 1
    outer loop
      vertex -0.209057 1.98904 10
      vertex -5 8.66025 10
      vertex -0.347296 1.96961 10
    endloop
  endfacet
  facet normal 0 0 1
    outer loop
      vertex -0.347296 1.96961 10
      vertex -5 8.66025 10
      vertex -0.483843 1.94059 10
    endloop
  endfacet
  facet normal 0 0 1
    outer loop
      vertex -0.483843 1.94059 10
      vertex -5 8.66025 10
      vertex -0.618033 1.90211 10
    endloop
  endfacet
  facet normal 0 0 1
    outer loop
      vertex -0.618033 1.90211 10
      vertex -5 8.66025 10
      vertex -0.749212 1.85437 10
    endloop
  endfacet
  facet normal 0 0 1
    outer loop
      vertex -0.749212 1.85437 10
      vertex -5 8.66025 10
      vertex -0.876741 1.79759 10
    endloop
  endfacet
  facet normal 0 0 1
    outer loop
      vertex -0.876741 1.79759 10
      vertex -5 8.66025 10
      vertex -1 1.73205 10
    endloop
  endfacet
  facet normal 0 0 1
    outer loop
      vertex -1 1.73205 10
      vertex -5 8.66025 10
      vertex -1.11839 1.65807 10
    endloop
  endfacet
  facet normal 0 0 1
    outer loop
      vertex -1.11839 1.65807 10
      vertex -5 8.66025 10
      vertex -1.23132 1.57602 10
    endloop
  endfacet
  facet normal 0 0 1
    outer loop
      vertex -1.23132 1.57602 10
      vertex -5 8.66025 10
      vertex -1.33826 1.48629 10
    endloop
  endfacet
  facet normal 0 0 1
    outer loop
      vertex -1.33826 1.48629 10
      vertex -5 8.66025 10
      vertex -1.43868 1.38932 10
    endloop
  endfacet
  facet normal 0 0 1
    outer loop
      vertex -1.98054 0.278346 10
      vertex -10 0 10
      vertex -1.99513 0.139512 10
    endloop
  endfacet
  facet normal 0 0 1
    outer loop
      vertex -1.9563 0.415823 10
      vertex -10 0 10
      vertex -1.98054 0.278346 10
    endloop
  endfacet
  facet normal 0 0 1
    outer loop
      vertex -1.92252 0.551274 10
      vertex -10 0 10
      vertex -1.9563 0.415823 10
    endloop
  endfacet
  facet normal 0 0 1
    outer loop
      vertex -1.87938 0.68404 10
      vertex -10 0 10
      vertex -1.92252 0.551274 10
    endloop
  endfacet
  facet normal 0 0 1
    outer loop
      vertex -1.82709 0.813473 10
      vertex -10 0 10
      vertex -1.87938 0.68404 10
    endloop
  endfacet
  facet normal 0 0 1
    outer loop
      vertex -1.76589 0.938943 10
      vertex -10 0 10
      vertex -1.82709 0.813473 10
    endloop
  endfacet
  facet normal 0 0 1
    outer loop
      vertex -10 0 10
      vertex -1.76589 0.938943 10
      vertex -5 8.66025 10
    endloop
  endfacet
  facet normal 0 0 1
    outer loop
      vertex -1.6961 1.05984 10
      vertex -5 8.66025 10
      vertex -1.76589 0.938943 10
    endloop
  endfacet
  facet normal 0 0 1
    outer loop
      vertex -1.61803 1.17557 10
      vertex -5 8.66025 10
      vertex -1.6961 1.05984 10
    endloop
  endfacet
  facet normal 0 0 1
    outer loop
      vertex -1.53209 1.28557 10
      vertex -5 8.66025 10
      vertex -1.61803 1.17557 10
    endloop
  endfacet
  facet normal 0 0 1
    outer loop
      vertex -1.43868 1.38932 10
      vertex -5 8.66025 10
      vertex -1.53209 1.28557 10
    endloop
  endfacet
  facet normal 0 0 1
    outer loop
      vertex 1.98054 -0.278346 10
      vertex 10 0 10
      vertex 1.99513 -0.139512 10
    endloop
  endfacet
  facet normal 0 0 1
    outer loop
      vertex 1.9563 -0.415823 10
      vertex 10 0 10
      vertex 1.98054 -0.278346 10
    endloop
  endfacet
  facet normal 0 0 1
    outer loop
      vertex 1.92252 -0.551274 10
      vertex 10 0 10
      vertex 1.9563 -0.415823 10
    endloop
  endfacet
  facet normal 0 0 1
    outer loop
      vertex 1.87938 -0.68404 10
      vertex 10 0 10
      vertex 1.92252 -0.551274 10
    endloop
  endfacet
  facet normal 0 0 1
    outer loop
      vertex 1.82709 -0.813473 10
      vertex 10 0 10
      vertex 1.87938 -0.68404 10
    endloop
  endfacet
  facet normal 0 0 1
    outer loop
      vertex 1.76589 -0.938943 10
      vertex 10 0 10
      vertex 1.82709 -0.813473 10
    endloop
  endfacet
  facet normal 0 0 1
    outer loop
      vertex 10 0 10
      vertex 1.76589 -0.938943 10
      vertex 5 -8.66025 10
    endloop
  endfacet
  facet normal -0 0 1
    outer loop
      vertex 1.6961 -1.05984 10
      vertex 5 -8.66025 10
      vertex 1.76589 -0.938943 10
    endloop
  endfacet
  facet normal -0 0 1
    outer loop
      vertex 1.61803 -1.17557 10
      vertex 5 -8.66025 10
      vertex 1.6961 -1.05984 10
    endloop
  endfacet
  facet normal -0 0 1
    outer loop
      vertex 1.53209 -1.28557 10
      vertex 5 -8.66025 10
      vertex 1.61803 -1.17557 10
    endloop
  endfacet
  facet normal -0 0 1
    outer loop
      vertex 1.43868 -1.38932 10
      vertex 5 -8.66025 10
      vertex 1.53209 -1.28557 10
    endloop
  endfacet
  facet normal -0 0 1
    outer loop
      vertex 1.33826 -1.48629 10
      vertex 5 -8.66025 10
      vertex 1.43868 -1.38932 10
    endloop
  endfacet
  facet normal -0 0 1
    outer loop
      vertex 1.23132 -1.57602 10
      vertex 5 -8.66025 10
      vertex 1.33826 -1.48629 10
    endloop
  endfacet
  facet normal -0 0 1
    outer loop
      vertex 1.11839 -1.65807 10
      vertex 5 -8.66025 10
      vertex 1.23132 -1.57602 10
    endloop
  endfacet
  facet normal -0 0 1
    outer loop
      vertex 1 -1.73205 10
      vertex 5 -8.66025 10
      vertex 1.11839 -1.65807 10
    endloop
  endfacet
  facet normal -0 0 1
    outer loop
      vertex 0.876741 -1.79759 10
      vertex 5 -8.66025 10
      vertex 1 -1.73205 10
    endloop
  endfacet
  facet normal -0 0 1
    outer loop
      vertex 0.749212 -1.85437 10
      vertex 5 -8.66025 10
      vertex 0.876741 -1.79759 10
    endloop
  endfacet
  facet normal -0 0 1
    outer loop
      vertex 0.618033 -1.90211 10
      vertex 5 -8.66025 10
      vertex 0.749212 -1.85437 10
    endloop
  endfacet
  facet normal -0 0 1
    outer loop
      vertex 0.483843 -1.94059 10
      vertex 5 -8.66025 10
      vertex 0.618033 -1.90211 10
    endloop
  endfacet
  facet normal -0 0 1
    outer loop
      vertex 0.347296 -1.96961 10
      vertex 5 -8.66025 10
      vertex 0.483843 -1.94059 10
    endloop
  endfacet
  facet normal -0 0 1
    outer loop
      vertex 0.209057 -1.98904 10
      vertex 5 -8.66025 10
      vertex 0.347296 -1.96961 10
    endloop
  endfacet
  facet normal -0 0 1
    outer loop
      vertex 0.0697985 -1.99878 10
      vertex 5 -8.66025 10
      vertex 0.209057 -1.98904 10
    endloop
  endfacet
  facet normal -0 0 1
    outer loop
      vertex -0.0697985 -1.99878 10
      vertex 5 -8.66025 10
      vertex 0.0697985 -1.99878 10
    endloop
  endfacet
  facet normal 0 0 1
    outer loop
      vertex -5 -8.66025 10
      vertex -0.0697985 -1.99878 10
      vertex -0.209057 -1.98904 10
    endloop
  endfacet
  facet normal 0 0 1
    outer loop
      vertex -5 -8.66025 10
      vertex -0.209057 -1.98904 10
      vertex -0.347296 -1.96961 10
    endloop
  endfacet
  facet normal 0 0 1
    outer loop
      vertex -5 -8.66025 10
      vertex -0.347296 -1.96961 10
      vertex -0.483843 -1.94059 10
    endloop
  endfacet
  facet normal 0 0 1
    outer loop
      vertex -5 -8.66025 10
      vertex -0.483843 -1.94059 10
      vertex -0.618033 -1.90211 10
    endloop
  endfacet
  facet normal 0 0 1
    outer loop
      vertex -5 -8.66025 10
      vertex -0.618033 -1.90211 10
      vertex -0.749212 -1.85437 10
    endloop
  endfacet
  facet normal 0 0 1
    outer loop
      vertex -5 -8.66025 10
      vertex -0.749212 -1.85437 10
      vertex -0.876741 -1.79759 10
    endloop
  endfacet
  facet normal 0 0 1
    outer loop
      vertex -5 -8.66025 10
      vertex -0.876741 -1.79759 10
      vertex -1 -1.73205 10
    endloop
  endfacet
  facet normal 0 0 1
    outer loop
      vertex -5 -8.66025 10
      vertex -1 -1.73205 10
      vertex -1.11839 -1.65807 10
    endloop
  endfacet
  facet normal 0 0 1
    outer loop
      vertex -5 -8.66025 10
      vertex -1.11839 -1.65807 10
      vertex -1.23132 -1.57602 10
    endloop
  endfacet
  facet normal 0 0 1
    outer loop
      vertex -5 -8.66025 10
      vertex -1.23132 -1.57602 10
      vertex -1.33826 -1.48629 10
    endloop
  endfacet
  facet normal 0 0 1
    outer loop
      vertex -5 -8.66025 10
      vertex -1.33826 -1.48629 10
      vertex -1.43868 -1.38932 10
    endloop
  endfacet
  facet normal 0 0 1
    outer loop
      vertex -5 -8.66025 10
      vertex -1.43868 -1.38932 10
      vertex -1.53209 -1.28557 10
    endloop
  endfacet
  facet normal 0 0 1
    outer loop
      vertex -1.99513 0.139512 10
      vertex -10 0 10
      vertex -2 0 10
    endloop
  endfacet
  facet normal 0 0 1
    outer loop
      vertex -2 0 10
      vertex -10 0 10
      vertex -1.99513 -0.139512 10
    endloop
  endfacet
  facet normal 0 0 1
    outer loop
      vertex -1.99513 -0.139512 10
      vertex -10 0 10
      vertex -1.98054 -0.278346 10
    endloop
  endfacet
  facet normal 0 0 1
    outer loop
      vertex -1.98054 -0.278346 10
      vertex -10 0 10
      vertex -1.9563 -0.415823 10
    endloop
  endfacet
  facet normal 0 0 1
    outer loop
      vertex -1.9563 -0.415823 10
      vertex -10 0 10
      vertex -1.92252 -0.551274 10
    endloop
  endfacet
  facet normal 0 0 1
    outer loop
      vertex -0.0697985 -1.99878 10
      vertex -5 -8.66025 10
      vertex 5 -8.66025 10
    endloop
  endfacet
  facet normal 0 0 1
    outer loop
      vertex -1.61803 -1.17557 10
      vertex -5 -8.66025 10
      vertex -1.53209 -1.28557 10
    endloop
  endfacet
  facet normal 0 0 1
    outer loop
      vertex -1.6961 -1.05984 10
      vertex -5 -8.66025 10
      vertex -1.61803 -1.17557 10
    endloop
  endfacet
  facet normal 0 0 1
    outer loop
      vertex -1.76589 -0.938943 10
      vertex -5 -8.66025 10
      vertex -1.6961 -1.05984 10
    endloop
  endfacet
  facet normal 0 0 1
    outer loop
      vertex -10 0 10
      vertex -1.76589 -0.938943 10
      vertex -1.82709 -0.813473 10
    endloop
  endfacet
  facet normal 0 0 1
    outer loop
      vertex -10 0 10
      vertex -1.82709 -0.813473 10
      vertex -1.87938 -0.68404 10
    endloop
  endfacet
  facet normal 0 0 1
    outer loop
      vertex -1.92252 -0.551274 10
      vertex -10 0 10
      vertex -1.87938 -0.68404 10
    endloop
  endfacet
  facet normal 0 0 1
    outer loop
      vertex -1.76589 -0.938943 10
      vertex -10 0 10
      vertex -5 -8.66025 10
    endloop
  endfacet
  facet normal 0 0 -1
    outer loop
      vertex 4.05 0 0
      vertex 10 0 0
      vertex 5 -8.66025 0
    endloop
  endfacet
  facet normal 0 0 -1
    outer loop
      vertex 10 0 0
      vertex 4.05 0 0
      vertex 5 8.66025 0
    endloop
  endfacet
  facet normal 0 0 -1
    outer loop
      vertex 5 -8.66025 0
      vertex 2.025 -3.5074 0
      vertex 4.05 0 0
    endloop
  endfacet
  facet normal 0 0 -1
    outer loop
      vertex 5 -8.66025 0
      vertex -2.025 -3.5074 0
      vertex 2.025 -3.5074 0
    endloop
  endfacet
  facet normal -0 0 -1
    outer loop
      vertex -2.025 -3.5074 0
      vertex -5 -8.66025 0
      vertex -4.05 0 0
    endloop
  endfacet
  facet normal 0 0 -1
    outer loop
      vertex -5 -8.66025 0
      vertex -2.025 -3.5074 0
      vertex 5 -8.66025 0
    endloop
  endfacet
  facet normal 0 0 -1
    outer loop
      vertex 2.025 3.5074 0
      vertex 5 8.66025 0
      vertex 4.05 0 0
    endloop
  endfacet
  facet normal 0 0 -1
    outer loop
      vertex -2.025 3.5074 0
      vertex 5 8.66025 0
      vertex 2.025 3.5074 0
    endloop
  endfacet
  facet normal 0 0 -1
    outer loop
      vertex -2.025 3.5074 0
      vertex -5 8.66025 0
      vertex 5 8.66025 0
    endloop
  endfacet
  facet normal 0 0 -1
    outer loop
      vertex -4.05 0 0
      vertex -5 8.66025 0
      vertex -2.025 3.5074 0
    endloop
  endfacet
  facet normal 0 0 -1
    outer loop
      vertex -10 0 0
      vertex -4.05 0 0
      vertex -5 -8.66025 0
    endloop
  endfacet
  facet normal 0 0 -1
    outer loop
      vertex -4.05 0 0
      vertex -10 0 0
      vertex -5 8.66025 0
    endloop
  endfacet
  facet normal 0 1 -0
    outer loop
      vertex 2.025 -3.5074 0
      vertex -2.025 -3.5074 9
      vertex 2.025 -3.5074 9
    endloop
  endfacet
  facet normal 0 1 0
    outer loop
      vertex -2.025 -3.5074 9
      vertex 2.025 -3.5074 0
      vertex -2.025 -3.5074 0
    endloop
  endfacet
  facet normal -0.866025 0.5 0
    outer loop
      vertex 2.025 -3.5074 0
      vertex 4.05 0 9
      vertex 4.05 0 0
    endloop
  endfacet
  facet normal -0.866025 0.5 0
    outer loop
      vertex 4.05 0 9
      vertex 2.025 -3.5074 0
      vertex 2.025 -3.5074 9
    endloop
  endfacet
  facet normal 0 -1 0
    outer loop
      vertex -2.025 3.5074 0
      vertex 2.025 3.5074 9
      vertex -2.025 3.5074 9
    endloop
  endfacet
  facet normal 0 -1 -0
    outer loop
      vertex 2.025 3.5074 9
      vertex -2.025 3.5074 0
      vertex 2.025 3.5074 0
    endloop
  endfacet
  facet normal -0.866025 -0.5 0
    outer loop
      vertex 4.05 0 0
      vertex 2.025 3.5074 9
      vertex 2.025 3.5074 0
    endloop
  endfacet
  facet normal -0.866025 -0.5 0
    outer loop
      vertex 2.025 3.5074 9
      vertex 4.05 0 0
      vertex 4.05 0 9
    endloop
  endfacet
  facet normal 0.866025 -0.5 0
    outer loop
      vertex -4.05 0 9
      vertex -2.025 3.5074 0
      vertex -2.025 3.5074 9
    endloop
  endfacet
  facet normal 0.866025 -0.5 0
    outer loop
      vertex -2.025 3.5074 0
      vertex -4.05 0 9
      vertex -4.05 0 0
    endloop
  endfacet
  facet normal 0.866025 0.5 0
    outer loop
      vertex -2.025 -3.5074 9
      vertex -4.05 0 0
      vertex -4.05 0 9
    endloop
  endfacet
  facet normal 0.866025 0.5 0
    outer loop
      vertex -4.05 0 0
      vertex -2.025 -3.5074 9
      vertex -2.025 -3.5074 0
    endloop
  endfacet
  facet normal 0 0 -1
    outer loop
      vertex 1.76589 -0.938943 9
      vertex 4.05 0 9
      vertex 2.025 -3.5074 9
    endloop
  endfacet
  facet normal 0 0 -1
    outer loop
      vertex 1.99513 0.139512 9
      vertex 4.05 0 9
      vertex 2 0 9
    endloop
  endfacet
  facet normal -0 0 -1
    outer loop
      vertex 4.05 0 9
      vertex 1.99513 -0.139512 9
      vertex 2 0 9
    endloop
  endfacet
  facet normal 0 0 -1
    outer loop
      vertex 4.05 0 9
      vertex 1.98054 -0.278346 9
      vertex 1.99513 -0.139512 9
    endloop
  endfacet
  facet normal 0 0 -1
    outer loop
      vertex 4.05 0 9
      vertex 1.9563 -0.415823 9
      vertex 1.98054 -0.278346 9
    endloop
  endfacet
  facet normal 0 0 -1
    outer loop
      vertex 4.05 0 9
      vertex 1.92252 -0.551274 9
      vertex 1.9563 -0.415823 9
    endloop
  endfacet
  facet normal 0 0 -1
    outer loop
      vertex 4.05 0 9
      vertex 1.87938 -0.68404 9
      vertex 1.92252 -0.551274 9
    endloop
  endfacet
  facet normal 0 0 -1
    outer loop
      vertex 4.05 0 9
      vertex 1.82709 -0.813473 9
      vertex 1.87938 -0.68404 9
    endloop
  endfacet
  facet normal 0 0 -1
    outer loop
      vertex 4.05 0 9
      vertex 1.76589 -0.938943 9
      vertex 1.82709 -0.813473 9
    endloop
  endfacet
  facet normal 0 0 -1
    outer loop
      vertex 2.025 -3.5074 9
      vertex 1.6961 -1.05984 9
      vertex 1.76589 -0.938943 9
    endloop
  endfacet
  facet normal 0 0 -1
    outer loop
      vertex 2.025 -3.5074 9
      vertex 1.61803 -1.17557 9
      vertex 1.6961 -1.05984 9
    endloop
  endfacet
  facet normal 0 0 -1
    outer loop
      vertex 2.025 -3.5074 9
      vertex 1.53209 -1.28557 9
      vertex 1.61803 -1.17557 9
    endloop
  endfacet
  facet normal 0 0 -1
    outer loop
      vertex 2.025 -3.5074 9
      vertex 1.43868 -1.38932 9
      vertex 1.53209 -1.28557 9
    endloop
  endfacet
  facet normal 0 0 -1
    outer loop
      vertex 2.025 -3.5074 9
      vertex 1.33826 -1.48629 9
      vertex 1.43868 -1.38932 9
    endloop
  endfacet
  facet normal 0 0 -1
    outer loop
      vertex 2.025 -3.5074 9
      vertex 1.23132 -1.57602 9
      vertex 1.33826 -1.48629 9
    endloop
  endfacet
  facet normal 0 0 -1
    outer loop
      vertex 2.025 -3.5074 9
      vertex 1.11839 -1.65807 9
      vertex 1.23132 -1.57602 9
    endloop
  endfacet
  facet normal 0 0 -1
    outer loop
      vertex 2.025 -3.5074 9
      vertex 1 -1.73205 9
      vertex 1.11839 -1.65807 9
    endloop
  endfacet
  facet normal 0 0 -1
    outer loop
      vertex 2.025 -3.5074 9
      vertex 0.876741 -1.79759 9
      vertex 1 -1.73205 9
    endloop
  endfacet
  facet normal 0 0 -1
    outer loop
      vertex 2.025 -3.5074 9
      vertex 0.749212 -1.85437 9
      vertex 0.876741 -1.79759 9
    endloop
  endfacet
  facet normal 0 0 -1
    outer loop
      vertex 2.025 -3.5074 9
      vertex 0.618033 -1.90211 9
      vertex 0.749212 -1.85437 9
    endloop
  endfacet
  facet normal 0 0 -1
    outer loop
      vertex 2.025 -3.5074 9
      vertex 0.483843 -1.94059 9
      vertex 0.618033 -1.90211 9
    endloop
  endfacet
  facet normal 0 0 -1
    outer loop
      vertex 2.025 -3.5074 9
      vertex 0.347296 -1.96961 9
      vertex 0.483843 -1.94059 9
    endloop
  endfacet
  facet normal 0 0 -1
    outer loop
      vertex 2.025 -3.5074 9
      vertex 0.209057 -1.98904 9
      vertex 0.347296 -1.96961 9
    endloop
  endfacet
  facet normal 0 0 -1
    outer loop
      vertex 2.025 -3.5074 9
      vertex 0.0697985 -1.99878 9
      vertex 0.209057 -1.98904 9
    endloop
  endfacet
  facet normal 0 0 -1
    outer loop
      vertex 2.025 -3.5074 9
      vertex -0.0697985 -1.99878 9
      vertex 0.0697985 -1.99878 9
    endloop
  endfacet
  facet normal 0 0 -1
    outer loop
      vertex -2.025 -3.5074 9
      vertex -0.0697985 -1.99878 9
      vertex 2.025 -3.5074 9
    endloop
  endfacet
  facet normal -0 0 -1
    outer loop
      vertex -0.0697985 -1.99878 9
      vertex -2.025 -3.5074 9
      vertex -0.209057 -1.98904 9
    endloop
  endfacet
  facet normal -0 0 -1
    outer loop
      vertex -0.209057 -1.98904 9
      vertex -2.025 -3.5074 9
      vertex -0.347296 -1.96961 9
    endloop
  endfacet
  facet normal -0 0 -1
    outer loop
      vertex -0.347296 -1.96961 9
      vertex -2.025 -3.5074 9
      vertex -0.483843 -1.94059 9
    endloop
  endfacet
  facet normal -0 0 -1
    outer loop
      vertex -0.483843 -1.94059 9
      vertex -2.025 -3.5074 9
      vertex -0.618033 -1.90211 9
    endloop
  endfacet
  facet normal -0 0 -1
    outer loop
      vertex -0.618033 -1.90211 9
      vertex -2.025 -3.5074 9
      vertex -0.749212 -1.85437 9
    endloop
  endfacet
  facet normal -0 0 -1
    outer loop
      vertex -0.749212 -1.85437 9
      vertex -2.025 -3.5074 9
      vertex -0.876741 -1.79759 9
    endloop
  endfacet
  facet normal 0 0 -1
    outer loop
      vertex -1.98054 -0.278346 9
      vertex -4.05 0 9
      vertex -1.99513 -0.139512 9
    endloop
  endfacet
  facet normal 0 0 -1
    outer loop
      vertex -1.9563 -0.415823 9
      vertex -4.05 0 9
      vertex -1.98054 -0.278346 9
    endloop
  endfacet
  facet normal 0 0 -1
    outer loop
      vertex -1.92252 -0.551274 9
      vertex -4.05 0 9
      vertex -1.9563 -0.415823 9
    endloop
  endfacet
  facet normal 0 0 -1
    outer loop
      vertex -1.87938 -0.68404 9
      vertex -4.05 0 9
      vertex -1.92252 -0.551274 9
    endloop
  endfacet
  facet normal 0 0 -1
    outer loop
      vertex -1.82709 -0.813473 9
      vertex -4.05 0 9
      vertex -1.87938 -0.68404 9
    endloop
  endfacet
  facet normal 0 0 -1
    outer loop
      vertex -1.76589 -0.938943 9
      vertex -4.05 0 9
      vertex -1.82709 -0.813473 9
    endloop
  endfacet
  facet normal 0 0 -1
    outer loop
      vertex -4.05 0 9
      vertex -1.76589 -0.938943 9
      vertex -2.025 -3.5074 9
    endloop
  endfacet
  facet normal -0 0 -1
    outer loop
      vertex -1.6961 -1.05984 9
      vertex -2.025 -3.5074 9
      vertex -1.76589 -0.938943 9
    endloop
  endfacet
  facet normal -0 0 -1
    outer loop
      vertex -1.61803 -1.17557 9
      vertex -2.025 -3.5074 9
      vertex -1.6961 -1.05984 9
    endloop
  endfacet
  facet normal -0 0 -1
    outer loop
      vertex -1.53209 -1.28557 9
      vertex -2.025 -3.5074 9
      vertex -1.61803 -1.17557 9
    endloop
  endfacet
  facet normal -0 0 -1
    outer loop
      vertex -1.43868 -1.38932 9
      vertex -2.025 -3.5074 9
      vertex -1.53209 -1.28557 9
    endloop
  endfacet
  facet normal -0 0 -1
    outer loop
      vertex -1.33826 -1.48629 9
      vertex -2.025 -3.5074 9
      vertex -1.43868 -1.38932 9
    endloop
  endfacet
  facet normal -0 0 -1
    outer loop
      vertex -1.23132 -1.57602 9
      vertex -2.025 -3.5074 9
      vertex -1.33826 -1.48629 9
    endloop
  endfacet
  facet normal -0 0 -1
    outer loop
      vertex -1.11839 -1.65807 9
      vertex -2.025 -3.5074 9
      vertex -1.23132 -1.57602 9
    endloop
  endfacet
  facet normal -0 0 -1
    outer loop
      vertex -1 -1.73205 9
      vertex -2.025 -3.5074 9
      vertex -1.11839 -1.65807 9
    endloop
  endfacet
  facet normal -0 0 -1
    outer loop
      vertex -0.876741 -1.79759 9
      vertex -2.025 -3.5074 9
      vertex -1 -1.73205 9
    endloop
  endfacet
  facet normal 0 0 -1
    outer loop
      vertex 1.98054 0.278346 9
      vertex 4.05 0 9
      vertex 1.99513 0.139512 9
    endloop
  endfacet
  facet normal 0 0 -1
    outer loop
      vertex 1.9563 0.415823 9
      vertex 4.05 0 9
      vertex 1.98054 0.278346 9
    endloop
  endfacet
  facet normal 0 0 -1
    outer loop
      vertex 1.92252 0.551274 9
      vertex 4.05 0 9
      vertex 1.9563 0.415823 9
    endloop
  endfacet
  facet normal 0 0 -1
    outer loop
      vertex 1.87938 0.68404 9
      vertex 4.05 0 9
      vertex 1.92252 0.551274 9
    endloop
  endfacet
  facet normal 0 0 -1
    outer loop
      vertex 1.82709 0.813473 9
      vertex 4.05 0 9
      vertex 1.87938 0.68404 9
    endloop
  endfacet
  facet normal 0 0 -1
    outer loop
      vertex 1.76589 0.938943 9
      vertex 4.05 0 9
      vertex 1.82709 0.813473 9
    endloop
  endfacet
  facet normal 0 0 -1
    outer loop
      vertex 4.05 0 9
      vertex 1.76589 0.938943 9
      vertex 2.025 3.5074 9
    endloop
  endfacet
  facet normal 0 0 -1
    outer loop
      vertex 1.6961 1.05984 9
      vertex 2.025 3.5074 9
      vertex 1.76589 0.938943 9
    endloop
  endfacet
  facet normal 0 0 -1
    outer loop
      vertex 1.61803 1.17557 9
      vertex 2.025 3.5074 9
      vertex 1.6961 1.05984 9
    endloop
  endfacet
  facet normal 0 0 -1
    outer loop
      vertex 1.53209 1.28557 9
      vertex 2.025 3.5074 9
      vertex 1.61803 1.17557 9
    endloop
  endfacet
  facet normal 0 0 -1
    outer loop
      vertex 1.43868 1.38932 9
      vertex 2.025 3.5074 9
      vertex 1.53209 1.28557 9
    endloop
  endfacet
  facet normal 0 0 -1
    outer loop
      vertex 1.33826 1.48629 9
      vertex 2.025 3.5074 9
      vertex 1.43868 1.38932 9
    endloop
  endfacet
  facet normal 0 0 -1
    outer loop
      vertex 1.23132 1.57602 9
      vertex 2.025 3.5074 9
      vertex 1.33826 1.48629 9
    endloop
  endfacet
  facet normal 0 0 -1
    outer loop
      vertex 1.11839 1.65807 9
      vertex 2.025 3.5074 9
      vertex 1.23132 1.57602 9
    endloop
  endfacet
  facet normal 0 0 -1
    outer loop
      vertex 1 1.73205 9
      vertex 2.025 3.5074 9
      vertex 1.11839 1.65807 9
    endloop
  endfacet
  facet normal 0 0 -1
    outer loop
      vertex 0.876741 1.79759 9
      vertex 2.025 3.5074 9
      vertex 1 1.73205 9
    endloop
  endfacet
  facet normal 0 0 -1
    outer loop
      vertex 0.749212 1.85437 9
      vertex 2.025 3.5074 9
      vertex 0.876741 1.79759 9
    endloop
  endfacet
  facet normal 0 0 -1
    outer loop
      vertex 0.618033 1.90211 9
      vertex 2.025 3.5074 9
      vertex 0.749212 1.85437 9
    endloop
  endfacet
  facet normal 0 0 -1
    outer loop
      vertex 0.483843 1.94059 9
      vertex 2.025 3.5074 9
      vertex 0.618033 1.90211 9
    endloop
  endfacet
  facet normal 0 0 -1
    outer loop
      vertex 0.347296 1.96961 9
      vertex 2.025 3.5074 9
      vertex 0.483843 1.94059 9
    endloop
  endfacet
  facet normal 0 0 -1
    outer loop
      vertex 0.209057 1.98904 9
      vertex 2.025 3.5074 9
      vertex 0.347296 1.96961 9
    endloop
  endfacet
  facet normal 0 0 -1
    outer loop
      vertex 0.0697985 1.99878 9
      vertex 2.025 3.5074 9
      vertex 0.209057 1.98904 9
    endloop
  endfacet
  facet normal 0 0 -1
    outer loop
      vertex -0.0697985 1.99878 9
      vertex 2.025 3.5074 9
      vertex 0.0697985 1.99878 9
    endloop
  endfacet
  facet normal 0 0 -1
    outer loop
      vertex -2.025 3.5074 9
      vertex -0.0697985 1.99878 9
      vertex -0.209057 1.98904 9
    endloop
  endfacet
  facet normal 0 0 -1
    outer loop
      vertex -2.025 3.5074 9
      vertex -0.209057 1.98904 9
      vertex -0.347296 1.96961 9
    endloop
  endfacet
  facet normal 0 0 -1
    outer loop
      vertex -2.025 3.5074 9
      vertex -0.347296 1.96961 9
      vertex -0.483843 1.94059 9
    endloop
  endfacet
  facet normal 0 0 -1
    outer loop
      vertex -2.025 3.5074 9
      vertex -0.483843 1.94059 9
      vertex -0.618033 1.90211 9
    endloop
  endfacet
  facet normal 0 0 -1
    outer loop
      vertex -2.025 3.5074 9
      vertex -0.618033 1.90211 9
      vertex -0.749212 1.85437 9
    endloop
  endfacet
  facet normal 0 0 -1
    outer loop
      vertex -2.025 3.5074 9
      vertex -0.749212 1.85437 9
      vertex -0.876741 1.79759 9
    endloop
  endfacet
  facet normal 0 0 -1
    outer loop
      vertex -2.025 3.5074 9
      vertex -0.876741 1.79759 9
      vertex -1 1.73205 9
    endloop
  endfacet
  facet normal 0 0 -1
    outer loop
      vertex -0.0697985 1.99878 9
      vertex -2.025 3.5074 9
      vertex 2.025 3.5074 9
    endloop
  endfacet
  facet normal 0 0 -1
    outer loop
      vertex -1.11839 1.65807 9
      vertex -2.025 3.5074 9
      vertex -1 1.73205 9
    endloop
  endfacet
  facet normal 0 0 -1
    outer loop
      vertex -1.23132 1.57602 9
      vertex -2.025 3.5074 9
      vertex -1.11839 1.65807 9
    endloop
  endfacet
  facet normal 0 0 -1
    outer loop
      vertex -1.33826 1.48629 9
      vertex -2.025 3.5074 9
      vertex -1.23132 1.57602 9
    endloop
  endfacet
  facet normal 0 0 -1
    outer loop
      vertex -1.43868 1.38932 9
      vertex -2.025 3.5074 9
      vertex -1.33826 1.48629 9
    endloop
  endfacet
  facet normal 0 0 -1
    outer loop
      vertex -1.53209 1.28557 9
      vertex -2.025 3.5074 9
      vertex -1.43868 1.38932 9
    endloop
  endfacet
  facet normal 0 0 -1
    outer loop
      vertex -1.61803 1.17557 9
      vertex -2.025 3.5074 9
      vertex -1.53209 1.28557 9
    endloop
  endfacet
  facet normal 0 0 -1
    outer loop
      vertex -1.6961 1.05984 9
      vertex -2.025 3.5074 9
      vertex -1.61803 1.17557 9
    endloop
  endfacet
  facet normal 0 0 -1
    outer loop
      vertex -1.76589 0.938943 9
      vertex -2.025 3.5074 9
      vertex -1.6961 1.05984 9
    endloop
  endfacet
  facet normal 0 0 -1
    outer loop
      vertex -4.05 0 9
      vertex -1.76589 0.938943 9
      vertex -1.82709 0.813473 9
    endloop
  endfacet
  facet normal 0 0 -1
    outer loop
      vertex -4.05 0 9
      vertex -1.82709 0.813473 9
      vertex -1.87938 0.68404 9
    endloop
  endfacet
  facet normal 0 0 -1
    outer loop
      vertex -4.05 0 9
      vertex -1.87938 0.68404 9
      vertex -1.92252 0.551274 9
    endloop
  endfacet
  facet normal 0 0 -1
    outer loop
      vertex -4.05 0 9
      vertex -1.92252 0.551274 9
      vertex -1.9563 0.415823 9
    endloop
  endfacet
  facet normal 0 0 -1
    outer loop
      vertex -4.05 0 9
      vertex -1.9563 0.415823 9
      vertex -1.98054 0.278346 9
    endloop
  endfacet
  facet normal 0 0 -1
    outer loop
      vertex -4.05 0 9
      vertex -1.98054 0.278346 9
      vertex -1.99513 0.139512 9
    endloop
  endfacet
  facet normal 0 0 -1
    outer loop
      vertex -4.05 0 9
      vertex -1.99513 0.139512 9
      vertex -2 0 9
    endloop
  endfacet
  facet normal 0 0 -1
    outer loop
      vertex -1.99513 -0.139512 9
      vertex -4.05 0 9
      vertex -2 0 9
    endloop
  endfacet
  facet normal -0 0 -1
    outer loop
      vertex -1.76589 0.938943 9
      vertex -4.05 0 9
      vertex -2.025 3.5074 9
    endloop
  endfacet
  facet normal -0.994523 -0.104514 0
    outer loop
      vertex 1.99513 0.139512 9
      vertex 1.98054 0.278346 10
      vertex 1.98054 0.278346 9
    endloop
  endfacet
  facet normal -0.994523 -0.104514 0
    outer loop
      vertex 1.98054 0.278346 10
      vertex 1.99513 0.139512 9
      vertex 1.99513 0.139512 10
    endloop
  endfacet
  facet normal -0.999391 -0.0348861 0
    outer loop
      vertex 2 0 9
      vertex 1.99513 0.139512 10
      vertex 1.99513 0.139512 9
    endloop
  endfacet
  facet normal -0.999391 -0.0348861 0
    outer loop
      vertex 1.99513 0.139512 10
      vertex 2 0 9
      vertex 2 0 10
    endloop
  endfacet
  facet normal -0.984809 -0.173642 0
    outer loop
      vertex 1.98054 0.278346 9
      vertex 1.9563 0.415823 10
      vertex 1.9563 0.415823 9
    endloop
  endfacet
  facet normal -0.984809 -0.173642 0
    outer loop
      vertex 1.9563 0.415823 10
      vertex 1.98054 0.278346 9
      vertex 1.98054 0.278346 10
    endloop
  endfacet
  facet normal -0.970282 -0.241978 0
    outer loop
      vertex 1.9563 0.415823 9
      vertex 1.92252 0.551274 10
      vertex 1.92252 0.551274 9
    endloop
  endfacet
  facet normal -0.970282 -0.241978 0
    outer loop
      vertex 1.92252 0.551274 10
      vertex 1.9563 0.415823 9
      vertex 1.9563 0.415823 10
    endloop
  endfacet
  facet normal -0.829007 -0.559238 0
    outer loop
      vertex 1.6961 1.05984 9
      vertex 1.61803 1.17557 10
      vertex 1.61803 1.17557 9
    endloop
  endfacet
  facet normal -0.829007 -0.559238 0
    outer loop
      vertex 1.61803 1.17557 10
      vertex 1.6961 1.05984 9
      vertex 1.6961 1.05984 10
    endloop
  endfacet
  facet normal 0.694642 0.719356 -0
    outer loop
      vertex -1.33826 -1.48629 9
      vertex -1.43868 -1.38932 10
      vertex -1.33826 -1.48629 10
    endloop
  endfacet
  facet normal 0.694642 0.719356 0
    outer loop
      vertex -1.43868 -1.38932 10
      vertex -1.33826 -1.48629 9
      vertex -1.43868 -1.38932 9
    endloop
  endfacet
  facet normal 0.529928 -0.848043 0
    outer loop
      vertex -1.11839 1.65807 9
      vertex -1 1.73205 10
      vertex -1.11839 1.65807 10
    endloop
  endfacet
  facet normal 0.529928 -0.848043 0
    outer loop
      vertex -1 1.73205 10
      vertex -1.11839 1.65807 9
      vertex -1 1.73205 9
    endloop
  endfacet
  facet normal -0.951053 -0.309028 0
    outer loop
      vertex 1.92252 0.551274 9
      vertex 1.87938 0.68404 10
      vertex 1.87938 0.68404 9
    endloop
  endfacet
  facet normal -0.951053 -0.309028 0
    outer loop
      vertex 1.87938 0.68404 10
      vertex 1.92252 0.551274 9
      vertex 1.92252 0.551274 10
    endloop
  endfacet
  facet normal -0.469483 -0.882942 0
    outer loop
      vertex 0.876741 1.79759 9
      vertex 1 1.73205 10
      vertex 0.876741 1.79759 10
    endloop
  endfacet
  facet normal -0.469483 -0.882942 -0
    outer loop
      vertex 1 1.73205 10
      vertex 0.876741 1.79759 9
      vertex 1 1.73205 9
    endloop
  endfacet
  facet normal 0.788016 -0.615655 0
    outer loop
      vertex -1.61803 1.17557 10
      vertex -1.53209 1.28557 9
      vertex -1.53209 1.28557 10
    endloop
  endfacet
  facet normal 0.788016 -0.615655 0
    outer loop
      vertex -1.53209 1.28557 9
      vertex -1.61803 1.17557 10
      vertex -1.61803 1.17557 9
    endloop
  endfacet
  facet normal -0.788016 0.615655 0
    outer loop
      vertex 1.53209 -1.28557 9
      vertex 1.61803 -1.17557 10
      vertex 1.61803 -1.17557 9
    endloop
  endfacet
  facet normal -0.788016 0.615655 0
    outer loop
      vertex 1.61803 -1.17557 10
      vertex 1.53209 -1.28557 9
      vertex 1.53209 -1.28557 10
    endloop
  endfacet
  facet normal 0.275648 0.961259 -0
    outer loop
      vertex -0.483843 -1.94059 9
      vertex -0.618033 -1.90211 10
      vertex -0.483843 -1.94059 10
    endloop
  endfacet
  facet normal 0.275648 0.961259 0
    outer loop
      vertex -0.618033 -1.90211 10
      vertex -0.483843 -1.94059 9
      vertex -0.618033 -1.90211 9
    endloop
  endfacet
  facet normal 0.743169 0.669103 0
    outer loop
      vertex -1.43868 -1.38932 10
      vertex -1.53209 -1.28557 9
      vertex -1.53209 -1.28557 10
    endloop
  endfacet
  facet normal 0.743169 0.669103 0
    outer loop
      vertex -1.53209 -1.28557 9
      vertex -1.43868 -1.38932 10
      vertex -1.43868 -1.38932 9
    endloop
  endfacet
  facet normal 0.341987 -0.939705 0
    outer loop
      vertex -0.749212 1.85437 9
      vertex -0.618033 1.90211 10
      vertex -0.749212 1.85437 10
    endloop
  endfacet
  facet normal 0.341987 -0.939705 0
    outer loop
      vertex -0.618033 1.90211 10
      vertex -0.749212 1.85437 9
      vertex -0.618033 1.90211 9
    endloop
  endfacet
  facet normal 0.587793 0.809012 -0
    outer loop
      vertex -1.11839 -1.65807 9
      vertex -1.23132 -1.57602 10
      vertex -1.11839 -1.65807 10
    endloop
  endfacet
  facet normal 0.587793 0.809012 0
    outer loop
      vertex -1.23132 -1.57602 10
      vertex -1.11839 -1.65807 9
      vertex -1.23132 -1.57602 9
    endloop
  endfacet
  facet normal -0.788016 -0.615655 0
    outer loop
      vertex 1.61803 1.17557 9
      vertex 1.53209 1.28557 10
      vertex 1.53209 1.28557 9
    endloop
  endfacet
  facet normal -0.788016 -0.615655 0
    outer loop
      vertex 1.53209 1.28557 10
      vertex 1.61803 1.17557 9
      vertex 1.61803 1.17557 10
    endloop
  endfacet
  facet normal 0.275648 -0.961259 0
    outer loop
      vertex -0.618033 1.90211 9
      vertex -0.483843 1.94059 10
      vertex -0.618033 1.90211 10
    endloop
  endfacet
  facet normal 0.275648 -0.961259 0
    outer loop
      vertex -0.483843 1.94059 10
      vertex -0.618033 1.90211 9
      vertex -0.483843 1.94059 9
    endloop
  endfacet
  facet normal -0.0697714 -0.997563 0
    outer loop
      vertex 0.0697985 1.99878 9
      vertex 0.209057 1.98904 10
      vertex 0.0697985 1.99878 10
    endloop
  endfacet
  facet normal -0.0697714 -0.997563 -0
    outer loop
      vertex 0.209057 1.98904 10
      vertex 0.0697985 1.99878 9
      vertex 0.209057 1.98904 9
    endloop
  endfacet
  facet normal 0.587793 -0.809012 0
    outer loop
      vertex -1.23132 1.57602 9
      vertex -1.11839 1.65807 10
      vertex -1.23132 1.57602 10
    endloop
  endfacet
  facet normal 0.587793 -0.809012 0
    outer loop
      vertex -1.11839 1.65807 10
      vertex -1.23132 1.57602 9
      vertex -1.11839 1.65807 9
    endloop
  endfacet
  facet normal 0.984809 -0.173642 0
    outer loop
      vertex -1.98054 0.278346 10
      vertex -1.9563 0.415823 9
      vertex -1.9563 0.415823 10
    endloop
  endfacet
  facet normal 0.984809 -0.173642 0
    outer loop
      vertex -1.9563 0.415823 9
      vertex -1.98054 0.278346 10
      vertex -1.98054 0.278346 9
    endloop
  endfacet
  facet normal -0.951053 0.309028 0
    outer loop
      vertex 1.87938 -0.68404 9
      vertex 1.92252 -0.551274 10
      vertex 1.92252 -0.551274 9
    endloop
  endfacet
  facet normal -0.951053 0.309028 0
    outer loop
      vertex 1.92252 -0.551274 10
      vertex 1.87938 -0.68404 9
      vertex 1.87938 -0.68404 10
    endloop
  endfacet
  facet normal 0.0697714 -0.997563 0
    outer loop
      vertex -0.209057 1.98904 9
      vertex -0.0697985 1.99878 10
      vertex -0.209057 1.98904 10
    endloop
  endfacet
  facet normal 0.0697714 -0.997563 0
    outer loop
      vertex -0.0697985 1.99878 10
      vertex -0.209057 1.98904 9
      vertex -0.0697985 1.99878 9
    endloop
  endfacet
  facet normal 0.898782 -0.438395 0
    outer loop
      vertex -1.82709 0.813473 10
      vertex -1.76589 0.938943 9
      vertex -1.76589 0.938943 10
    endloop
  endfacet
  facet normal 0.898782 -0.438395 0
    outer loop
      vertex -1.76589 0.938943 9
      vertex -1.82709 0.813473 10
      vertex -1.82709 0.813473 9
    endloop
  endfacet
  facet normal 0.866056 -0.499947 0
    outer loop
      vertex -1.76589 0.938943 10
      vertex -1.6961 1.05984 9
      vertex -1.6961 1.05984 10
    endloop
  endfacet
  facet normal 0.866056 -0.499947 0
    outer loop
      vertex -1.6961 1.05984 9
      vertex -1.76589 0.938943 10
      vertex -1.76589 0.938943 9
    endloop
  endfacet
  facet normal -0.406739 0.913544 0
    outer loop
      vertex 0.876741 -1.79759 9
      vertex 0.749212 -1.85437 10
      vertex 0.876741 -1.79759 10
    endloop
  endfacet
  facet normal -0.406739 0.913544 0
    outer loop
      vertex 0.749212 -1.85437 10
      vertex 0.876741 -1.79759 9
      vertex 0.749212 -1.85437 9
    endloop
  endfacet
  facet normal 0 1 -0
    outer loop
      vertex 0.0697985 -1.99878 9
      vertex -0.0697985 -1.99878 10
      vertex 0.0697985 -1.99878 10
    endloop
  endfacet
  facet normal 0 1 0
    outer loop
      vertex -0.0697985 -1.99878 10
      vertex 0.0697985 -1.99878 9
      vertex -0.0697985 -1.99878 9
    endloop
  endfacet
  facet normal -0.139186 0.990266 0
    outer loop
      vertex 0.347296 -1.96961 9
      vertex 0.209057 -1.98904 10
      vertex 0.347296 -1.96961 10
    endloop
  endfacet
  facet normal -0.139186 0.990266 0
    outer loop
      vertex 0.209057 -1.98904 10
      vertex 0.347296 -1.96961 9
      vertex 0.209057 -1.98904 9
    endloop
  endfacet
  facet normal -0.970282 0.241978 0
    outer loop
      vertex 1.92252 -0.551274 9
      vertex 1.9563 -0.415823 10
      vertex 1.9563 -0.415823 9
    endloop
  endfacet
  facet normal -0.970282 0.241978 0
    outer loop
      vertex 1.9563 -0.415823 10
      vertex 1.92252 -0.551274 9
      vertex 1.92252 -0.551274 10
    endloop
  endfacet
  facet normal 0.994523 0.104514 0
    outer loop
      vertex -1.98054 -0.278346 10
      vertex -1.99513 -0.139512 9
      vertex -1.99513 -0.139512 10
    endloop
  endfacet
  facet normal 0.994523 0.104514 0
    outer loop
      vertex -1.99513 -0.139512 9
      vertex -1.98054 -0.278346 10
      vertex -1.98054 -0.278346 9
    endloop
  endfacet
  facet normal 0.406739 0.913544 -0
    outer loop
      vertex -0.749212 -1.85437 9
      vertex -0.876741 -1.79759 10
      vertex -0.749212 -1.85437 10
    endloop
  endfacet
  facet normal 0.406739 0.913544 0
    outer loop
      vertex -0.876741 -1.79759 10
      vertex -0.749212 -1.85437 9
      vertex -0.876741 -1.79759 9
    endloop
  endfacet
  facet normal 0.139186 0.990266 -0
    outer loop
      vertex -0.209057 -1.98904 9
      vertex -0.347296 -1.96961 10
      vertex -0.209057 -1.98904 10
    endloop
  endfacet
  facet normal 0.139186 0.990266 0
    outer loop
      vertex -0.347296 -1.96961 10
      vertex -0.209057 -1.98904 9
      vertex -0.347296 -1.96961 9
    endloop
  endfacet
  facet normal 0.694642 -0.719356 0
    outer loop
      vertex -1.43868 1.38932 9
      vertex -1.33826 1.48629 10
      vertex -1.43868 1.38932 10
    endloop
  endfacet
  facet normal 0.694642 -0.719356 0
    outer loop
      vertex -1.33826 1.48629 10
      vertex -1.43868 1.38932 9
      vertex -1.33826 1.48629 9
    endloop
  endfacet
  facet normal -0.207885 0.978153 0
    outer loop
      vertex 0.483843 -1.94059 9
      vertex 0.347296 -1.96961 10
      vertex 0.483843 -1.94059 10
    endloop
  endfacet
  facet normal -0.207885 0.978153 0
    outer loop
      vertex 0.347296 -1.96961 10
      vertex 0.483843 -1.94059 9
      vertex 0.347296 -1.96961 9
    endloop
  endfacet
  facet normal -0.866056 -0.499947 0
    outer loop
      vertex 1.76589 0.938943 9
      vertex 1.6961 1.05984 10
      vertex 1.6961 1.05984 9
    endloop
  endfacet
  facet normal -0.866056 -0.499947 0
    outer loop
      vertex 1.6961 1.05984 10
      vertex 1.76589 0.938943 9
      vertex 1.76589 0.938943 10
    endloop
  endfacet
  facet normal -0.984809 0.173642 0
    outer loop
      vertex 1.9563 -0.415823 9
      vertex 1.98054 -0.278346 10
      vertex 1.98054 -0.278346 9
    endloop
  endfacet
  facet normal -0.984809 0.173642 0
    outer loop
      vertex 1.98054 -0.278346 10
      vertex 1.9563 -0.415823 9
      vertex 1.9563 -0.415823 10
    endloop
  endfacet
  facet normal -0.898782 0.438395 0
    outer loop
      vertex 1.76589 -0.938943 9
      vertex 1.82709 -0.813473 10
      vertex 1.82709 -0.813473 9
    endloop
  endfacet
  facet normal -0.898782 0.438395 0
    outer loop
      vertex 1.82709 -0.813473 10
      vertex 1.76589 -0.938943 9
      vertex 1.76589 -0.938943 10
    endloop
  endfacet
  facet normal -0.587793 -0.809012 0
    outer loop
      vertex 1.11839 1.65807 9
      vertex 1.23132 1.57602 10
      vertex 1.11839 1.65807 10
    endloop
  endfacet
  facet normal -0.587793 -0.809012 -0
    outer loop
      vertex 1.23132 1.57602 10
      vertex 1.11839 1.65807 9
      vertex 1.23132 1.57602 9
    endloop
  endfacet
  facet normal -0.994523 0.104514 0
    outer loop
      vertex 1.98054 -0.278346 9
      vertex 1.99513 -0.139512 10
      vertex 1.99513 -0.139512 9
    endloop
  endfacet
  facet normal -0.994523 0.104514 0
    outer loop
      vertex 1.99513 -0.139512 10
      vertex 1.98054 -0.278346 9
      vertex 1.98054 -0.278346 10
    endloop
  endfacet
  facet normal -0.529928 -0.848043 0
    outer loop
      vertex 1 1.73205 9
      vertex 1.11839 1.65807 10
      vertex 1 1.73205 10
    endloop
  endfacet
  facet normal -0.529928 -0.848043 -0
    outer loop
      vertex 1.11839 1.65807 10
      vertex 1 1.73205 9
      vertex 1.11839 1.65807 9
    endloop
  endfacet
  facet normal -0.999391 0.0348861 0
    outer loop
      vertex 1.99513 -0.139512 9
      vertex 2 0 10
      vertex 2 0 9
    endloop
  endfacet
  facet normal -0.999391 0.0348861 0
    outer loop
      vertex 2 0 10
      vertex 1.99513 -0.139512 9
      vertex 1.99513 -0.139512 10
    endloop
  endfacet
  facet normal -0.341987 -0.939705 0
    outer loop
      vertex 0.618033 1.90211 9
      vertex 0.749212 1.85437 10
      vertex 0.618033 1.90211 10
    endloop
  endfacet
  facet normal -0.341987 -0.939705 -0
    outer loop
      vertex 0.749212 1.85437 10
      vertex 0.618033 1.90211 9
      vertex 0.749212 1.85437 9
    endloop
  endfacet
  facet normal 0.927195 -0.37458 0
    outer loop
      vertex -1.87938 0.68404 10
      vertex -1.82709 0.813473 9
      vertex -1.82709 0.813473 10
    endloop
  endfacet
  facet normal 0.927195 -0.37458 0
    outer loop
      vertex -1.82709 0.813473 9
      vertex -1.87938 0.68404 10
      vertex -1.87938 0.68404 9
    endloop
  endfacet
  facet normal -0.642774 -0.766056 0
    outer loop
      vertex 1.23132 1.57602 9
      vertex 1.33826 1.48629 10
      vertex 1.23132 1.57602 10
    endloop
  endfacet
  facet normal -0.642774 -0.766056 -0
    outer loop
      vertex 1.33826 1.48629 10
      vertex 1.23132 1.57602 9
      vertex 1.33826 1.48629 9
    endloop
  endfacet
  facet normal 0.999391 0.0348861 0
    outer loop
      vertex -1.99513 -0.139512 10
      vertex -2 0 9
      vertex -2 0 10
    endloop
  endfacet
  facet normal 0.999391 0.0348861 0
    outer loop
      vertex -2 0 9
      vertex -1.99513 -0.139512 10
      vertex -1.99513 -0.139512 9
    endloop
  endfacet
  facet normal 0.927195 0.37458 0
    outer loop
      vertex -1.82709 -0.813473 10
      vertex -1.87938 -0.68404 9
      vertex -1.87938 -0.68404 10
    endloop
  endfacet
  facet normal 0.927195 0.37458 0
    outer loop
      vertex -1.87938 -0.68404 9
      vertex -1.82709 -0.813473 10
      vertex -1.82709 -0.813473 9
    endloop
  endfacet
  facet normal -0.587793 0.809012 0
    outer loop
      vertex 1.23132 -1.57602 9
      vertex 1.11839 -1.65807 10
      vertex 1.23132 -1.57602 10
    endloop
  endfacet
  facet normal -0.587793 0.809012 0
    outer loop
      vertex 1.11839 -1.65807 10
      vertex 1.23132 -1.57602 9
      vertex 1.11839 -1.65807 9
    endloop
  endfacet
  facet normal 0.999391 -0.0348861 0
    outer loop
      vertex -2 0 10
      vertex -1.99513 0.139512 9
      vertex -1.99513 0.139512 10
    endloop
  endfacet
  facet normal 0.999391 -0.0348861 0
    outer loop
      vertex -1.99513 0.139512 9
      vertex -2 0 10
      vertex -2 0 9
    endloop
  endfacet
  facet normal -0.207885 -0.978153 0
    outer loop
      vertex 0.347296 1.96961 9
      vertex 0.483843 1.94059 10
      vertex 0.347296 1.96961 10
    endloop
  endfacet
  facet normal -0.207885 -0.978153 -0
    outer loop
      vertex 0.483843 1.94059 10
      vertex 0.347296 1.96961 9
      vertex 0.483843 1.94059 9
    endloop
  endfacet
  facet normal -0.469483 0.882942 0
    outer loop
      vertex 1 -1.73205 9
      vertex 0.876741 -1.79759 10
      vertex 1 -1.73205 10
    endloop
  endfacet
  facet normal -0.469483 0.882942 0
    outer loop
      vertex 0.876741 -1.79759 10
      vertex 1 -1.73205 9
      vertex 0.876741 -1.79759 9
    endloop
  endfacet
  facet normal 0 -1 0
    outer loop
      vertex -0.0697985 1.99878 9
      vertex 0.0697985 1.99878 10
      vertex -0.0697985 1.99878 10
    endloop
  endfacet
  facet normal 0 -1 -0
    outer loop
      vertex 0.0697985 1.99878 10
      vertex -0.0697985 1.99878 9
      vertex 0.0697985 1.99878 9
    endloop
  endfacet
  facet normal 0.984809 0.173642 0
    outer loop
      vertex -1.9563 -0.415823 10
      vertex -1.98054 -0.278346 9
      vertex -1.98054 -0.278346 10
    endloop
  endfacet
  facet normal 0.984809 0.173642 0
    outer loop
      vertex -1.98054 -0.278346 9
      vertex -1.9563 -0.415823 10
      vertex -1.9563 -0.415823 9
    endloop
  endfacet
  facet normal -0.743169 0.669103 0
    outer loop
      vertex 1.43868 -1.38932 9
      vertex 1.53209 -1.28557 10
      vertex 1.53209 -1.28557 9
    endloop
  endfacet
  facet normal -0.743169 0.669103 0
    outer loop
      vertex 1.53209 -1.28557 10
      vertex 1.43868 -1.38932 9
      vertex 1.43868 -1.38932 10
    endloop
  endfacet
  facet normal 0.139186 -0.990266 0
    outer loop
      vertex -0.347296 1.96961 9
      vertex -0.209057 1.98904 10
      vertex -0.347296 1.96961 10
    endloop
  endfacet
  facet normal 0.139186 -0.990266 0
    outer loop
      vertex -0.209057 1.98904 10
      vertex -0.347296 1.96961 9
      vertex -0.209057 1.98904 9
    endloop
  endfacet
  facet normal 0.970282 -0.241978 0
    outer loop
      vertex -1.9563 0.415823 10
      vertex -1.92252 0.551274 9
      vertex -1.92252 0.551274 10
    endloop
  endfacet
  facet normal 0.970282 -0.241978 0
    outer loop
      vertex -1.92252 0.551274 9
      vertex -1.9563 0.415823 10
      vertex -1.9563 0.415823 9
    endloop
  endfacet
  facet normal -0.406739 -0.913544 0
    outer loop
      vertex 0.749212 1.85437 9
      vertex 0.876741 1.79759 10
      vertex 0.749212 1.85437 10
    endloop
  endfacet
  facet normal -0.406739 -0.913544 -0
    outer loop
      vertex 0.876741 1.79759 10
      vertex 0.749212 1.85437 9
      vertex 0.876741 1.79759 9
    endloop
  endfacet
  facet normal 0.829007 0.559238 0
    outer loop
      vertex -1.61803 -1.17557 10
      vertex -1.6961 -1.05984 9
      vertex -1.6961 -1.05984 10
    endloop
  endfacet
  facet normal 0.829007 0.559238 0
    outer loop
      vertex -1.6961 -1.05984 9
      vertex -1.61803 -1.17557 10
      vertex -1.61803 -1.17557 9
    endloop
  endfacet
  facet normal 0.529928 0.848043 -0
    outer loop
      vertex -1 -1.73205 9
      vertex -1.11839 -1.65807 10
      vertex -1 -1.73205 10
    endloop
  endfacet
  facet normal 0.529928 0.848043 0
    outer loop
      vertex -1.11839 -1.65807 10
      vertex -1 -1.73205 9
      vertex -1.11839 -1.65807 9
    endloop
  endfacet
  facet normal -0.694642 -0.719356 0
    outer loop
      vertex 1.33826 1.48629 9
      vertex 1.43868 1.38932 10
      vertex 1.33826 1.48629 10
    endloop
  endfacet
  facet normal -0.694642 -0.719356 -0
    outer loop
      vertex 1.43868 1.38932 10
      vertex 1.33826 1.48629 9
      vertex 1.43868 1.38932 9
    endloop
  endfacet
  facet normal -0.529928 0.848043 0
    outer loop
      vertex 1.11839 -1.65807 9
      vertex 1 -1.73205 10
      vertex 1.11839 -1.65807 10
    endloop
  endfacet
  facet normal -0.529928 0.848043 0
    outer loop
      vertex 1 -1.73205 10
      vertex 1.11839 -1.65807 9
      vertex 1 -1.73205 9
    endloop
  endfacet
  facet normal -0.275648 -0.961259 0
    outer loop
      vertex 0.483843 1.94059 9
      vertex 0.618033 1.90211 10
      vertex 0.483843 1.94059 10
    endloop
  endfacet
  facet normal -0.275648 -0.961259 -0
    outer loop
      vertex 0.618033 1.90211 10
      vertex 0.483843 1.94059 9
      vertex 0.618033 1.90211 9
    endloop
  endfacet
  facet normal -0.0697714 0.997563 0
    outer loop
      vertex 0.209057 -1.98904 9
      vertex 0.0697985 -1.99878 10
      vertex 0.209057 -1.98904 10
    endloop
  endfacet
  facet normal -0.0697714 0.997563 0
    outer loop
      vertex 0.0697985 -1.99878 10
      vertex 0.209057 -1.98904 9
      vertex 0.0697985 -1.99878 9
    endloop
  endfacet
  facet normal -0.341987 0.939705 0
    outer loop
      vertex 0.749212 -1.85437 9
      vertex 0.618033 -1.90211 10
      vertex 0.749212 -1.85437 10
    endloop
  endfacet
  facet normal -0.341987 0.939705 0
    outer loop
      vertex 0.618033 -1.90211 10
      vertex 0.749212 -1.85437 9
      vertex 0.618033 -1.90211 9
    endloop
  endfacet
  facet normal 0.469483 0.882942 -0
    outer loop
      vertex -0.876741 -1.79759 9
      vertex -1 -1.73205 10
      vertex -0.876741 -1.79759 10
    endloop
  endfacet
  facet normal 0.469483 0.882942 0
    outer loop
      vertex -1 -1.73205 10
      vertex -0.876741 -1.79759 9
      vertex -1 -1.73205 9
    endloop
  endfacet
  facet normal 0.951053 0.309028 0
    outer loop
      vertex -1.87938 -0.68404 10
      vertex -1.92252 -0.551274 9
      vertex -1.92252 -0.551274 10
    endloop
  endfacet
  facet normal 0.951053 0.309028 0
    outer loop
      vertex -1.92252 -0.551274 9
      vertex -1.87938 -0.68404 10
      vertex -1.87938 -0.68404 9
    endloop
  endfacet
  facet normal 0.970282 0.241978 0
    outer loop
      vertex -1.92252 -0.551274 10
      vertex -1.9563 -0.415823 9
      vertex -1.9563 -0.415823 10
    endloop
  endfacet
  facet normal 0.970282 0.241978 0
    outer loop
      vertex -1.9563 -0.415823 9
      vertex -1.92252 -0.551274 10
      vertex -1.92252 -0.551274 9
    endloop
  endfacet
  facet normal 0.469483 -0.882942 0
    outer loop
      vertex -1 1.73205 9
      vertex -0.876741 1.79759 10
      vertex -1 1.73205 10
    endloop
  endfacet
  facet normal 0.469483 -0.882942 0
    outer loop
      vertex -0.876741 1.79759 10
      vertex -1 1.73205 9
      vertex -0.876741 1.79759 9
    endloop
  endfacet
  facet normal 0.406739 -0.913544 0
    outer loop
      vertex -0.876741 1.79759 9
      vertex -0.749212 1.85437 10
      vertex -0.876741 1.79759 10
    endloop
  endfacet
  facet normal 0.406739 -0.913544 0
    outer loop
      vertex -0.749212 1.85437 10
      vertex -0.876741 1.79759 9
      vertex -0.749212 1.85437 9
    endloop
  endfacet
  facet normal -0.927195 0.37458 0
    outer loop
      vertex 1.82709 -0.813473 9
      vertex 1.87938 -0.68404 10
      vertex 1.87938 -0.68404 9
    endloop
  endfacet
  facet normal -0.927195 0.37458 0
    outer loop
      vertex 1.87938 -0.68404 10
      vertex 1.82709 -0.813473 9
      vertex 1.82709 -0.813473 10
    endloop
  endfacet
  facet normal 0.207885 0.978153 -0
    outer loop
      vertex -0.347296 -1.96961 9
      vertex -0.483843 -1.94059 10
      vertex -0.347296 -1.96961 10
    endloop
  endfacet
  facet normal 0.207885 0.978153 0
    outer loop
      vertex -0.483843 -1.94059 10
      vertex -0.347296 -1.96961 9
      vertex -0.483843 -1.94059 9
    endloop
  endfacet
  facet normal -0.642774 0.766056 0
    outer loop
      vertex 1.33826 -1.48629 9
      vertex 1.23132 -1.57602 10
      vertex 1.33826 -1.48629 10
    endloop
  endfacet
  facet normal -0.642774 0.766056 0
    outer loop
      vertex 1.23132 -1.57602 10
      vertex 1.33826 -1.48629 9
      vertex 1.23132 -1.57602 9
    endloop
  endfacet
  facet normal 0.829007 -0.559238 0
    outer loop
      vertex -1.6961 1.05984 10
      vertex -1.61803 1.17557 9
      vertex -1.61803 1.17557 10
    endloop
  endfacet
  facet normal 0.829007 -0.559238 0
    outer loop
      vertex -1.61803 1.17557 9
      vertex -1.6961 1.05984 10
      vertex -1.6961 1.05984 9
    endloop
  endfacet
  facet normal -0.829007 0.559238 0
    outer loop
      vertex 1.61803 -1.17557 9
      vertex 1.6961 -1.05984 10
      vertex 1.6961 -1.05984 9
    endloop
  endfacet
  facet normal -0.829007 0.559238 0
    outer loop
      vertex 1.6961 -1.05984 10
      vertex 1.61803 -1.17557 9
      vertex 1.61803 -1.17557 10
    endloop
  endfacet
  facet normal 0.642774 -0.766056 0
    outer loop
      vertex -1.33826 1.48629 9
      vertex -1.23132 1.57602 10
      vertex -1.33826 1.48629 10
    endloop
  endfacet
  facet normal 0.642774 -0.766056 0
    outer loop
      vertex -1.23132 1.57602 10
      vertex -1.33826 1.48629 9
      vertex -1.23132 1.57602 9
    endloop
  endfacet
  facet normal 0.994523 -0.104514 0
    outer loop
      vertex -1.99513 0.139512 10
      vertex -1.98054 0.278346 9
      vertex -1.98054 0.278346 10
    endloop
  endfacet
  facet normal 0.994523 -0.104514 0
    outer loop
      vertex -1.98054 0.278346 9
      vertex -1.99513 0.139512 10
      vertex -1.99513 0.139512 9
    endloop
  endfacet
  facet normal 0.866056 0.499947 0
    outer loop
      vertex -1.6961 -1.05984 10
      vertex -1.76589 -0.938943 9
      vertex -1.76589 -0.938943 10
    endloop
  endfacet
  facet normal 0.866056 0.499947 0
    outer loop
      vertex -1.76589 -0.938943 9
      vertex -1.6961 -1.05984 10
      vertex -1.6961 -1.05984 9
    endloop
  endfacet
  facet normal 0.951053 -0.309028 0
    outer loop
      vertex -1.92252 0.551274 10
      vertex -1.87938 0.68404 9
      vertex -1.87938 0.68404 10
    endloop
  endfacet
  facet normal 0.951053 -0.309028 0
    outer loop
      vertex -1.87938 0.68404 9
      vertex -1.92252 0.551274 10
      vertex -1.92252 0.551274 9
    endloop
  endfacet
  facet normal 0.788016 0.615655 0
    outer loop
      vertex -1.53209 -1.28557 10
      vertex -1.61803 -1.17557 9
      vertex -1.61803 -1.17557 10
    endloop
  endfacet
  facet normal 0.788016 0.615655 0
    outer loop
      vertex -1.61803 -1.17557 9
      vertex -1.53209 -1.28557 10
      vertex -1.53209 -1.28557 9
    endloop
  endfacet
  facet normal -0.927195 -0.37458 0
    outer loop
      vertex 1.87938 0.68404 9
      vertex 1.82709 0.813473 10
      vertex 1.82709 0.813473 9
    endloop
  endfacet
  facet normal -0.927195 -0.37458 0
    outer loop
      vertex 1.82709 0.813473 10
      vertex 1.87938 0.68404 9
      vertex 1.87938 0.68404 10
    endloop
  endfacet
  facet normal -0.898782 -0.438395 0
    outer loop
      vertex 1.82709 0.813473 9
      vertex 1.76589 0.938943 10
      vertex 1.76589 0.938943 9
    endloop
  endfacet
  facet normal -0.898782 -0.438395 0
    outer loop
      vertex 1.76589 0.938943 10
      vertex 1.82709 0.813473 9
      vertex 1.82709 0.813473 10
    endloop
  endfacet
  facet normal 0.743169 -0.669103 0
    outer loop
      vertex -1.53209 1.28557 10
      vertex -1.43868 1.38932 9
      vertex -1.43868 1.38932 10
    endloop
  endfacet
  facet normal 0.743169 -0.669103 0
    outer loop
      vertex -1.43868 1.38932 9
      vertex -1.53209 1.28557 10
      vertex -1.53209 1.28557 9
    endloop
  endfacet
  facet normal 0.0697714 0.997563 -0
    outer loop
      vertex -0.0697985 -1.99878 9
      vertex -0.209057 -1.98904 10
      vertex -0.0697985 -1.99878 10
    endloop
  endfacet
  facet normal 0.0697714 0.997563 0
    outer loop
      vertex -0.209057 -1.98904 10
      vertex -0.0697985 -1.99878 9
      vertex -0.209057 -1.98904 9
    endloop
  endfacet
  facet normal -0.694642 0.719356 0
    outer loop
      vertex 1.43868 -1.38932 9
      vertex 1.33826 -1.48629 10
      vertex 1.43868 -1.38932 10
    endloop
  endfacet
  facet normal -0.694642 0.719356 0
    outer loop
      vertex 1.33826 -1.48629 10
      vertex 1.43868 -1.38932 9
      vertex 1.33826 -1.48629 9
    endloop
  endfacet
  facet normal -0.139186 -0.990266 0
    outer loop
      vertex 0.209057 1.98904 9
      vertex 0.347296 1.96961 10
      vertex 0.209057 1.98904 10
    endloop
  endfacet
  facet normal -0.139186 -0.990266 -0
    outer loop
      vertex 0.347296 1.96961 10
      vertex 0.209057 1.98904 9
      vertex 0.347296 1.96961 9
    endloop
  endfacet
  facet normal 0.341987 0.939705 -0
    outer loop
      vertex -0.618033 -1.90211 9
      vertex -0.749212 -1.85437 10
      vertex -0.618033 -1.90211 10
    endloop
  endfacet
  facet normal 0.341987 0.939705 0
    outer loop
      vertex -0.749212 -1.85437 10
      vertex -0.618033 -1.90211 9
      vertex -0.749212 -1.85437 9
    endloop
  endfacet
  facet normal -0.743169 -0.669103 0
    outer loop
      vertex 1.53209 1.28557 9
      vertex 1.43868 1.38932 10
      vertex 1.43868 1.38932 9
    endloop
  endfacet
  facet normal -0.743169 -0.669103 0
    outer loop
      vertex 1.43868 1.38932 10
      vertex 1.53209 1.28557 9
      vertex 1.53209 1.28557 10
    endloop
  endfacet
  facet normal -0.275648 0.961259 0
    outer loop
      vertex 0.618033 -1.90211 9
      vertex 0.483843 -1.94059 10
      vertex 0.618033 -1.90211 10
    endloop
  endfacet
  facet normal -0.275648 0.961259 0
    outer loop
      vertex 0.483843 -1.94059 10
      vertex 0.618033 -1.90211 9
      vertex 0.483843 -1.94059 9
    endloop
  endfacet
  facet normal 0.207885 -0.978153 0
    outer loop
      vertex -0.483843 1.94059 9
      vertex -0.347296 1.96961 10
      vertex -0.483843 1.94059 10
    endloop
  endfacet
  facet normal 0.207885 -0.978153 0
    outer loop
      vertex -0.347296 1.96961 10
      vertex -0.483843 1.94059 9
      vertex -0.347296 1.96961 9
    endloop
  endfacet
  facet normal -0.866056 0.499947 0
    outer loop
      vertex 1.6961 -1.05984 9
      vertex 1.76589 -0.938943 10
      vertex 1.76589 -0.938943 9
    endloop
  endfacet
  facet normal -0.866056 0.499947 0
    outer loop
      vertex 1.76589 -0.938943 10
      vertex 1.6961 -1.05984 9
      vertex 1.6961 -1.05984 10
    endloop
  endfacet
  facet normal 0.642774 0.766056 -0
    outer loop
      vertex -1.23132 -1.57602 9
      vertex -1.33826 -1.48629 10
      vertex -1.23132 -1.57602 10
    endloop
  endfacet
  facet normal 0.642774 0.766056 0
    outer loop
      vertex -1.33826 -1.48629 10
      vertex -1.23132 -1.57602 9
      vertex -1.33826 -1.48629 9
    endloop
  endfacet
  facet normal 0.898782 0.438395 0
    outer loop
      vertex -1.76589 -0.938943 10
      vertex -1.82709 -0.813473 9
      vertex -1.82709 -0.813473 10
    endloop
  endfacet
  facet normal 0.898782 0.438395 0
    outer loop
      vertex -1.82709 -0.813473 9
      vertex -1.76589 -0.938943 10
      vertex -1.76589 -0.938943 9
    endloop
  endfacet
endsolid OpenSCAD_Model
