solid OpenSCAD_Model
  facet normal 1 0 0
    outer loop
      vertex 6.9 5 4.5
      vertex 6.9 0 4.5
      vertex 6.9 5 0.5
    endloop
  endfacet
  facet normal 1 0 0
    outer loop
      vertex 6.9 15 0.5
      vertex 6.9 20 4.5
      vertex 6.9 15 4.5
    endloop
  endfacet
  facet normal 1 0 0
    outer loop
      vertex 6.9 20 4.5
      vertex 6.9 15 0.5
      vertex 6.9 20 0
    endloop
  endfacet
  facet normal 1 -0 0
    outer loop
      vertex 6.9 5 0.5
      vertex 6.9 20 0
      vertex 6.9 15 0.5
    endloop
  endfacet
  facet normal 1 0 0
    outer loop
      vertex 6.9 5 0.5
      vertex 6.9 0 0
      vertex 6.9 20 0
    endloop
  endfacet
  facet normal 1 0 0
    outer loop
      vertex 6.9 0 0
      vertex 6.9 5 0.5
      vertex 6.9 0 4.5
    endloop
  endfacet
  facet normal 0 0 1
    outer loop
      vertex 6.9 15 0.5
      vertex 5.25 10 0.5
      vertex 6.9 5 0.5
    endloop
  endfacet
  facet normal 0 0 1
    outer loop
      vertex 6.9 15 0.5
      vertex 4.35 11.5588 0.5
      vertex 5.25 10 0.5
    endloop
  endfacet
  facet normal 0 0 1
    outer loop
      vertex 6.9 15 0.5
      vertex 2.55 11.5588 0.5
      vertex 4.35 11.5588 0.5
    endloop
  endfacet
  facet normal 0 0 1
    outer loop
      vertex 2.55 11.5588 0.5
      vertex 0 15 0.5
      vertex 1.65 10 0.5
    endloop
  endfacet
  facet normal -0 0 1
    outer loop
      vertex 0 15 0.5
      vertex 2.55 11.5588 0.5
      vertex 6.9 15 0.5
    endloop
  endfacet
  facet normal -0 0 1
    outer loop
      vertex 4.35 8.44115 0.5
      vertex 6.9 5 0.5
      vertex 5.25 10 0.5
    endloop
  endfacet
  facet normal -0 0 1
    outer loop
      vertex 2.55 8.44115 0.5
      vertex 6.9 5 0.5
      vertex 4.35 8.44115 0.5
    endloop
  endfacet
  facet normal 0 0 1
    outer loop
      vertex 2.55 8.44115 0.5
      vertex 0 5 0.5
      vertex 6.9 5 0.5
    endloop
  endfacet
  facet normal 0 0 1
    outer loop
      vertex 1.65 10 0.5
      vertex 0 5 0.5
      vertex 2.55 8.44115 0.5
    endloop
  endfacet
  facet normal 0 0 1
    outer loop
      vertex 0 5 0.5
      vertex 1.65 10 0.5
      vertex 0 15 0.5
    endloop
  endfacet
  facet normal 0 0 -1
    outer loop
      vertex 0 0 0
      vertex 6.9 20 0
      vertex 6.9 0 0
    endloop
  endfacet
  facet normal -0 0 -1
    outer loop
      vertex 6.9 20 0
      vertex 0 0 0
      vertex 0 20 0
    endloop
  endfacet
  facet normal -1 0 0
    outer loop
      vertex 0 20 0
      vertex 0 15 0.5
      vertex 0 20 4.5
    endloop
  endfacet
  facet normal -1 0 0
    outer loop
      vertex 0 20 0
      vertex 0 5 0.5
      vertex 0 15 0.5
    endloop
  endfacet
  facet normal -1 0 0
    outer loop
      vertex 0 0 0
      vertex 0 5 0.5
      vertex 0 20 0
    endloop
  endfacet
  facet normal -1 0 0
    outer loop
      vertex 0 0 4.5
      vertex 0 5 0.5
      vertex 0 0 0
    endloop
  endfacet
  facet normal -1 0 0
    outer loop
      vertex 0 5 0.5
      vertex 0 0 4.5
      vertex 0 5 4.5
    endloop
  endfacet
  facet normal -1 -0 0
    outer loop
      vertex 0 20 4.5
      vertex 0 15 0.5
      vertex 0 15 4.5
    endloop
  endfacet
  facet normal 0 1 -0
    outer loop
      vertex 6.9 20 0
      vertex 0 20 4.5
      vertex 6.9 20 4.5
    endloop
  endfacet
  facet normal 0 1 0
    outer loop
      vertex 0 20 4.5
      vertex 6.9 20 0
      vertex 0 20 0
    endloop
  endfacet
  facet normal 0 -1 0
    outer loop
      vertex 0 0 0
      vertex 6.9 0 4.5
      vertex 0 0 4.5
    endloop
  endfacet
  facet normal 0 -1 -0
    outer loop
      vertex 6.9 0 4.5
      vertex 0 0 0
      vertex 6.9 0 0
    endloop
  endfacet
  facet normal -0 0 1
    outer loop
      vertex 0 5 4.5
      vertex 6.9 0 4.5
      vertex 6.9 5 4.5
    endloop
  endfacet
  facet normal 0 0 1
    outer loop
      vertex 6.9 0 4.5
      vertex 0 5 4.5
      vertex 0 0 4.5
    endloop
  endfacet
  facet normal 0 1 -0
    outer loop
      vertex 6.9 5 0.5
      vertex 0 5 4.5
      vertex 6.9 5 4.5
    endloop
  endfacet
  facet normal 0 1 0
    outer loop
      vertex 0 5 4.5
      vertex 6.9 5 0.5
      vertex 0 5 0.5
    endloop
  endfacet
  facet normal -0 0 1
    outer loop
      vertex 0 20 4.5
      vertex 6.9 15 4.5
      vertex 6.9 20 4.5
    endloop
  endfacet
  facet normal 0 0 1
    outer loop
      vertex 6.9 15 4.5
      vertex 0 20 4.5
      vertex 0 15 4.5
    endloop
  endfacet
  facet normal 0 -1 0
    outer loop
      vertex 0 15 0.5
      vertex 6.9 15 4.5
      vertex 0 15 4.5
    endloop
  endfacet
  facet normal 0 -1 -0
    outer loop
      vertex 6.9 15 4.5
      vertex 0 15 0.5
      vertex 6.9 15 0.5
    endloop
  endfacet
  facet normal 0 1 -0
    outer loop
      vertex 4.35 11.5588 0.5
      vertex 2.55 11.5588 3
      vertex 4.35 11.5588 3
    endloop
  endfacet
  facet normal 0 1 0
    outer loop
      vertex 2.55 11.5588 3
      vertex 4.35 11.5588 0.5
      vertex 2.55 11.5588 0.5
    endloop
  endfacet
  facet normal 0.866019 0.500011 0
    outer loop
      vertex 5.25 10 3
      vertex 4.35 11.5588 0.5
      vertex 4.35 11.5588 3
    endloop
  endfacet
  facet normal 0.866019 0.500011 0
    outer loop
      vertex 4.35 11.5588 0.5
      vertex 5.25 10 3
      vertex 5.25 10 0.5
    endloop
  endfacet
  facet normal 0.866026 -0.499999 0
    outer loop
      vertex 4.35 8.44115 3
      vertex 5.25 10 0.5
      vertex 5.25 10 3
    endloop
  endfacet
  facet normal 0.866026 -0.499999 0
    outer loop
      vertex 5.25 10 0.5
      vertex 4.35 8.44115 3
      vertex 4.35 8.44115 0.5
    endloop
  endfacet
  facet normal 0 0 1
    outer loop
      vertex 4.35 11.5588 3
      vertex 4.35 8.44115 3
      vertex 5.25 10 3
    endloop
  endfacet
  facet normal -0 0 1
    outer loop
      vertex 2.55 11.5588 3
      vertex 4.35 8.44115 3
      vertex 4.35 11.5588 3
    endloop
  endfacet
  facet normal 0 0 1
    outer loop
      vertex 2.55 11.5588 3
      vertex 2.55 8.44115 3
      vertex 4.35 8.44115 3
    endloop
  endfacet
  facet normal 0 -0 1
    outer loop
      vertex 2.55 8.44115 3
      vertex 2.55 11.5588 3
      vertex 1.65 10 3
    endloop
  endfacet
  facet normal -0.866026 -0.499999 0
    outer loop
      vertex 2.55 8.44115 0.5
      vertex 1.65 10 3
      vertex 1.65 10 0.5
    endloop
  endfacet
  facet normal -0.866026 -0.499999 0
    outer loop
      vertex 1.65 10 3
      vertex 2.55 8.44115 0.5
      vertex 2.55 8.44115 3
    endloop
  endfacet
  facet normal 0 -1 0
    outer loop
      vertex 2.55 8.44115 0.5
      vertex 4.35 8.44115 3
      vertex 2.55 8.44115 3
    endloop
  endfacet
  facet normal 0 -1 -0
    outer loop
      vertex 4.35 8.44115 3
      vertex 2.55 8.44115 0.5
      vertex 4.35 8.44115 0.5
    endloop
  endfacet
  facet normal -0.866019 0.500011 0
    outer loop
      vertex 1.65 10 0.5
      vertex 2.55 11.5588 3
      vertex 2.55 11.5588 0.5
    endloop
  endfacet
  facet normal -0.866019 0.500011 0
    outer loop
      vertex 2.55 11.5588 3
      vertex 1.65 10 0.5
      vertex 1.65 10 3
    endloop
  endfacet
endsolid OpenSCAD_Model
