solid OpenSCAD_Model
  facet normal 1 -0 0
    outer loop
      vertex 25 -7.5 2.5
      vertex 25 7.5 -2.5
      vertex 25 7.5 2.5
    endloop
  endfacet
  facet normal 1 0 0
    outer loop
      vertex 25 7.5 -2.5
      vertex 25 -7.5 2.5
      vertex 25 -7.5 -2.5
    endloop
  endfacet
  facet normal -0 0 1
    outer loop
      vertex -25 7.5 2.5
      vertex 25 -7.5 2.5
      vertex 25 7.5 2.5
    endloop
  endfacet
  facet normal 0 0 1
    outer loop
      vertex 25 -7.5 2.5
      vertex -25 7.5 2.5
      vertex -25 -7.5 2.5
    endloop
  endfacet
  facet normal 0 0 -1
    outer loop
      vertex -25 -7.5 -2.5
      vertex 25 7.5 -2.5
      vertex 25 -7.5 -2.5
    endloop
  endfacet
  facet normal -0 0 -1
    outer loop
      vertex 25 7.5 -2.5
      vertex -25 -7.5 -2.5
      vertex -25 7.5 -2.5
    endloop
  endfacet
  facet normal -1 0 0
    outer loop
      vertex -25 -7.5 -2.5
      vertex -25 7.5 2.5
      vertex -25 7.5 -2.5
    endloop
  endfacet
  facet normal -1 -0 0
    outer loop
      vertex -25 7.5 2.5
      vertex -25 -7.5 -2.5
      vertex -25 -7.5 2.5
    endloop
  endfacet
  facet normal 0 1 -0
    outer loop
      vertex 25 7.5 -2.5
      vertex -25 7.5 2.5
      vertex 25 7.5 2.5
    endloop
  endfacet
  facet normal 0 1 0
    outer loop
      vertex -25 7.5 2.5
      vertex 25 7.5 -2.5
      vertex -25 7.5 -2.5
    endloop
  endfacet
  facet normal 0 -1 0
    outer loop
      vertex -25 -7.5 -2.5
      vertex 25 -7.5 2.5
      vertex -25 -7.5 2.5
    endloop
  endfacet
  facet normal 0 -1 -0
    outer loop
      vertex 25 -7.5 2.5
      vertex -25 -7.5 -2.5
      vertex 25 -7.5 -2.5
    endloop
  endfacet
  facet normal -1 0 0
    outer loop
      vertex 24 -6.5 -2.2
      vertex 24 6.5 2.2
      vertex 24 6.5 -2.2
    endloop
  endfacet
  facet normal -1 -0 0
    outer loop
      vertex 24 6.5 2.2
      vertex 24 -6.5 -2.2
      vertex 24 -6.5 2.2
    endloop
  endfacet
  facet normal 0 0 -1
    outer loop
      vertex -24 -6.5 2.2
      vertex 24 6.5 2.2
      vertex 24 -6.5 2.2
    endloop
  endfacet
  facet normal -0 0 -1
    outer loop
      vertex 24 6.5 2.2
      vertex -24 -6.5 2.2
      vertex -24 6.5 2.2
    endloop
  endfacet
  facet normal -0 0 1
    outer loop
      vertex -24 6.5 -2.2
      vertex 24 -6.5 -2.2
      vertex 24 6.5 -2.2
    endloop
  endfacet
  facet normal 0 0 1
    outer loop
      vertex 24 -6.5 -2.2
      vertex -24 6.5 -2.2
      vertex -24 -6.5 -2.2
    endloop
  endfacet
  facet normal 1 -0 0
    outer loop
      vertex -24 -6.5 2.2
      vertex -24 6.5 -2.2
      vertex -24 6.5 2.2
    endloop
  endfacet
  facet normal 1 0 0
    outer loop
      vertex -24 6.5 -2.2
      vertex -24 -6.5 2.2
      vertex -24 -6.5 -2.2
    endloop
  endfacet
  facet normal 0 -1 0
    outer loop
      vertex -24 6.5 -2.2
      vertex 24 6.5 2.2
      vertex -24 6.5 2.2
    endloop
  endfacet
  facet normal 0 -1 -0
    outer loop
      vertex 24 6.5 2.2
      vertex -24 6.5 -2.2
      vertex 24 6.5 -2.2
    endloop
  endfacet
  facet normal 0 1 -0
    outer loop
      vertex 24 -6.5 -2.2
      vertex -24 -6.5 2.2
      vertex 24 -6.5 2.2
    endloop
  endfacet
  facet normal 0 1 0
    outer loop
      vertex -24 -6.5 2.2
      vertex 24 -6.5 -2.2
      vertex -24 -6.5 -2.2
    endloop
  endfacet
endsolid OpenSCAD_Model
