solid OpenSCAD_Model
  facet normal 1 -0 0
    outer loop
      vertex 25 -7.5 1.25
      vertex 25 7.5 -1.25
      vertex 25 7.5 1.25
    endloop
  endfacet
  facet normal 1 0 0
    outer loop
      vertex 25 7.5 -1.25
      vertex 25 -7.5 1.25
      vertex 25 -7.5 -1.25
    endloop
  endfacet
  facet normal -0 0 1
    outer loop
      vertex -25 7.5 1.25
      vertex 25 -7.5 1.25
      vertex 25 7.5 1.25
    endloop
  endfacet
  facet normal 0 0 1
    outer loop
      vertex 25 -7.5 1.25
      vertex -25 7.5 1.25
      vertex -25 -7.5 1.25
    endloop
  endfacet
  facet normal 0 0 -1
    outer loop
      vertex -25 -7.5 -1.25
      vertex 25 7.5 -1.25
      vertex 25 -7.5 -1.25
    endloop
  endfacet
  facet normal -0 0 -1
    outer loop
      vertex 25 7.5 -1.25
      vertex -25 -7.5 -1.25
      vertex -25 7.5 -1.25
    endloop
  endfacet
  facet normal -1 0 0
    outer loop
      vertex -25 -7.5 -1.25
      vertex -25 7.5 1.25
      vertex -25 7.5 -1.25
    endloop
  endfacet
  facet normal -1 -0 0
    outer loop
      vertex -25 7.5 1.25
      vertex -25 -7.5 -1.25
      vertex -25 -7.5 1.25
    endloop
  endfacet
  facet normal 0 1 0
    outer loop
      vertex 25 7.5 1.25
      vertex 23 7.5 0.75
      vertex -25 7.5 1.25
    endloop
  endfacet
  facet normal 0 1 0
    outer loop
      vertex 25 7.5 1.25
      vertex 23 7.5 0.25
      vertex 23 7.5 0.75
    endloop
  endfacet
  facet normal 0 1 0
    outer loop
      vertex 23 7.5 0.25
      vertex 23 7.5 -0.25
      vertex -23 7.5 0.25
    endloop
  endfacet
  facet normal 0 1 0
    outer loop
      vertex 25 7.5 1.25
      vertex 23 7.5 -0.25
      vertex 23 7.5 0.25
    endloop
  endfacet
  facet normal 0 1 -0
    outer loop
      vertex 25 7.5 -1.25
      vertex 23 7.5 -0.25
      vertex 25 7.5 1.25
    endloop
  endfacet
  facet normal 0 1 0
    outer loop
      vertex 23 7.5 -0.75
      vertex 25 7.5 -1.25
      vertex -23 7.5 -0.75
    endloop
  endfacet
  facet normal 0 1 0
    outer loop
      vertex 23 7.5 -0.25
      vertex 25 7.5 -1.25
      vertex 23 7.5 -0.75
    endloop
  endfacet
  facet normal 0 1 -0
    outer loop
      vertex -23 7.5 0.75
      vertex -25 7.5 1.25
      vertex 23 7.5 0.75
    endloop
  endfacet
  facet normal 0 1 -0
    outer loop
      vertex -23 7.5 0.25
      vertex -25 7.5 1.25
      vertex -23 7.5 0.75
    endloop
  endfacet
  facet normal 0 1 0
    outer loop
      vertex -23 7.5 -0.25
      vertex -23 7.5 0.25
      vertex 23 7.5 -0.25
    endloop
  endfacet
  facet normal 0 1 -0
    outer loop
      vertex -23 7.5 -0.25
      vertex -25 7.5 1.25
      vertex -23 7.5 0.25
    endloop
  endfacet
  facet normal 0 1 0
    outer loop
      vertex -25 7.5 -1.25
      vertex -23 7.5 -0.25
      vertex -23 7.5 -0.75
    endloop
  endfacet
  facet normal 0 1 0
    outer loop
      vertex -23 7.5 -0.25
      vertex -25 7.5 -1.25
      vertex -25 7.5 1.25
    endloop
  endfacet
  facet normal 0 1 0
    outer loop
      vertex -25 7.5 -1.25
      vertex -23 7.5 -0.75
      vertex 25 7.5 -1.25
    endloop
  endfacet
  facet normal 0 -1 0
    outer loop
      vertex -25 -7.5 1.25
      vertex -23 -7.5 0.75
      vertex 25 -7.5 1.25
    endloop
  endfacet
  facet normal 0 -1 0
    outer loop
      vertex -25 -7.5 1.25
      vertex -23 -7.5 0.25
      vertex -23 -7.5 0.75
    endloop
  endfacet
  facet normal 0 -1 0
    outer loop
      vertex -23 -7.5 0.25
      vertex -23 -7.5 -0.25
      vertex 23 -7.5 0.25
    endloop
  endfacet
  facet normal 0 -1 0
    outer loop
      vertex -25 -7.5 1.25
      vertex -23 -7.5 -0.25
      vertex -23 -7.5 0.25
    endloop
  endfacet
  facet normal 0 -1 0
    outer loop
      vertex -25 -7.5 -1.25
      vertex -23 -7.5 -0.25
      vertex -25 -7.5 1.25
    endloop
  endfacet
  facet normal 0 -1 -0
    outer loop
      vertex -23 -7.5 -0.75
      vertex -25 -7.5 -1.25
      vertex 23 -7.5 -0.75
    endloop
  endfacet
  facet normal 0 -1 -0
    outer loop
      vertex -23 -7.5 -0.25
      vertex -25 -7.5 -1.25
      vertex -23 -7.5 -0.75
    endloop
  endfacet
  facet normal 0 -1 0
    outer loop
      vertex 23 -7.5 0.75
      vertex 25 -7.5 1.25
      vertex -23 -7.5 0.75
    endloop
  endfacet
  facet normal 0 -1 0
    outer loop
      vertex 23 -7.5 0.25
      vertex 25 -7.5 1.25
      vertex 23 -7.5 0.75
    endloop
  endfacet
  facet normal 0 -1 0
    outer loop
      vertex 23 -7.5 -0.25
      vertex 23 -7.5 0.25
      vertex -23 -7.5 -0.25
    endloop
  endfacet
  facet normal 0 -1 0
    outer loop
      vertex 23 -7.5 -0.25
      vertex 25 -7.5 1.25
      vertex 23 -7.5 0.25
    endloop
  endfacet
  facet normal 0 -1 0
    outer loop
      vertex 25 -7.5 -1.25
      vertex 23 -7.5 -0.25
      vertex 23 -7.5 -0.75
    endloop
  endfacet
  facet normal 0 -1 0
    outer loop
      vertex 23 -7.5 -0.25
      vertex 25 -7.5 -1.25
      vertex 25 -7.5 1.25
    endloop
  endfacet
  facet normal 0 -1 0
    outer loop
      vertex 25 -7.5 -1.25
      vertex 23 -7.5 -0.75
      vertex -25 -7.5 -1.25
    endloop
  endfacet
  facet normal -1 0 0
    outer loop
      vertex 23 -7.5 0.25
      vertex 23 7.5 0.75
      vertex 23 7.5 0.25
    endloop
  endfacet
  facet normal -1 -0 0
    outer loop
      vertex 23 7.5 0.75
      vertex 23 -7.5 0.25
      vertex 23 -7.5 0.75
    endloop
  endfacet
  facet normal 0 0 -1
    outer loop
      vertex -23 -7.5 0.75
      vertex 23 7.5 0.75
      vertex 23 -7.5 0.75
    endloop
  endfacet
  facet normal -0 0 -1
    outer loop
      vertex 23 7.5 0.75
      vertex -23 -7.5 0.75
      vertex -23 7.5 0.75
    endloop
  endfacet
  facet normal -0 0 1
    outer loop
      vertex -23 7.5 0.25
      vertex 23 -7.5 0.25
      vertex 23 7.5 0.25
    endloop
  endfacet
  facet normal 0 0 1
    outer loop
      vertex 23 -7.5 0.25
      vertex -23 7.5 0.25
      vertex -23 -7.5 0.25
    endloop
  endfacet
  facet normal 1 -0 0
    outer loop
      vertex -23 -7.5 0.75
      vertex -23 7.5 0.25
      vertex -23 7.5 0.75
    endloop
  endfacet
  facet normal 1 0 0
    outer loop
      vertex -23 7.5 0.25
      vertex -23 -7.5 0.75
      vertex -23 -7.5 0.25
    endloop
  endfacet
  facet normal -1 0 0
    outer loop
      vertex 23 -7.5 -0.75
      vertex 23 7.5 -0.25
      vertex 23 7.5 -0.75
    endloop
  endfacet
  facet normal -1 -0 0
    outer loop
      vertex 23 7.5 -0.25
      vertex 23 -7.5 -0.75
      vertex 23 -7.5 -0.25
    endloop
  endfacet
  facet normal 0 0 -1
    outer loop
      vertex -23 -7.5 -0.25
      vertex 23 7.5 -0.25
      vertex 23 -7.5 -0.25
    endloop
  endfacet
  facet normal -0 0 -1
    outer loop
      vertex 23 7.5 -0.25
      vertex -23 -7.5 -0.25
      vertex -23 7.5 -0.25
    endloop
  endfacet
  facet normal -0 0 1
    outer loop
      vertex -23 7.5 -0.75
      vertex 23 -7.5 -0.75
      vertex 23 7.5 -0.75
    endloop
  endfacet
  facet normal 0 0 1
    outer loop
      vertex 23 -7.5 -0.75
      vertex -23 7.5 -0.75
      vertex -23 -7.5 -0.75
    endloop
  endfacet
  facet normal 1 -0 0
    outer loop
      vertex -23 -7.5 -0.25
      vertex -23 7.5 -0.75
      vertex -23 7.5 -0.25
    endloop
  endfacet
  facet normal 1 0 0
    outer loop
      vertex -23 7.5 -0.75
      vertex -23 -7.5 -0.25
      vertex -23 -7.5 -0.75
    endloop
  endfacet
endsolid OpenSCAD_Model
