solid OpenSCAD_Model
  facet normal 0 -1 0
    outer loop
      vertex 0 0 1
      vertex 0.000761986 0 14.75
      vertex 0 0 14.75
    endloop
  endfacet
  facet normal 0 -1 -0
    outer loop
      vertex 10 0 6
      vertex 0 0 1
      vertex 197 0 6
    endloop
  endfacet
  facet normal 0 -1 -0
    outer loop
      vertex 0.000761986 0 14.75
      vertex 0 0 1
      vertex 10 0 6
    endloop
  endfacet
  facet normal 0 -1 0
    outer loop
      vertex 0.000761986 0 14.75
      vertex 1.25 0 16
      vertex 1.1628 0 15.997
    endloop
  endfacet
  facet normal 0 -1 0
    outer loop
      vertex 0.000761986 0 14.75
      vertex 1.1628 0 15.997
      vertex 1.07603 0 15.9878
    endloop
  endfacet
  facet normal 0 -1 0
    outer loop
      vertex 0.000761986 0 14.75
      vertex 1.07603 0 15.9878
      vertex 0.99011 0 15.9727
    endloop
  endfacet
  facet normal 0 -1 0
    outer loop
      vertex 0.000761986 0 14.75
      vertex 0.99011 0 15.9727
      vertex 0.905454 0 15.9516
    endloop
  endfacet
  facet normal 0 -1 0
    outer loop
      vertex 0.000761986 0 14.75
      vertex 0.905454 0 15.9516
      vertex 0.822475 0 15.9246
    endloop
  endfacet
  facet normal 0 -1 0
    outer loop
      vertex 0.000761986 0 14.75
      vertex 0.822475 0 15.9246
      vertex 0.74158 0 15.8919
    endloop
  endfacet
  facet normal 0 -1 0
    outer loop
      vertex 0.000761986 0 14.75
      vertex 0.74158 0 15.8919
      vertex 0.663161 0 15.8537
    endloop
  endfacet
  facet normal 0 -1 0
    outer loop
      vertex 0.000761986 0 14.75
      vertex 0.663161 0 15.8537
      vertex 0.587602 0 15.8101
    endloop
  endfacet
  facet normal 0 -1 0
    outer loop
      vertex 0.000761986 0 14.75
      vertex 0.587602 0 15.8101
      vertex 0.515269 0 15.7613
    endloop
  endfacet
  facet normal 0 -1 0
    outer loop
      vertex 0.000761986 0 14.75
      vertex 0.515269 0 15.7613
      vertex 0.446516 0 15.7076
    endloop
  endfacet
  facet normal 0 -1 0
    outer loop
      vertex 0.000761986 0 14.75
      vertex 0.446516 0 15.7076
      vertex 0.381678 0 15.6492
    endloop
  endfacet
  facet normal 0 -1 0
    outer loop
      vertex 0.000761986 0 14.75
      vertex 0.381678 0 15.6492
      vertex 0.32107 0 15.5864
    endloop
  endfacet
  facet normal 0 -1 0
    outer loop
      vertex 0.000761986 0 14.75
      vertex 0.32107 0 15.5864
      vertex 0.264987 0 15.5196
    endloop
  endfacet
  facet normal 0 -1 0
    outer loop
      vertex 0.000761986 0 14.75
      vertex 0.264987 0 15.5196
      vertex 0.213703 0 15.449
    endloop
  endfacet
  facet normal 0 -1 0
    outer loop
      vertex 0.000761986 0 14.75
      vertex 0.213703 0 15.449
      vertex 0.167469 0 15.375
    endloop
  endfacet
  facet normal 0 -1 0
    outer loop
      vertex 0.000761986 0 14.75
      vertex 0.167469 0 15.375
      vertex 0.126508 0 15.298
    endloop
  endfacet
  facet normal 0 -1 0
    outer loop
      vertex 0.000761986 0 14.75
      vertex 0.126508 0 15.298
      vertex 0.0910206 0 15.2183
    endloop
  endfacet
  facet normal 0 -1 0
    outer loop
      vertex 0.000761986 0 14.75
      vertex 0.0910206 0 15.2183
      vertex 0.0611801 0 15.1363
    endloop
  endfacet
  facet normal 0 -1 0
    outer loop
      vertex 0.000761986 0 14.75
      vertex 0.0611801 0 15.1363
      vertex 0.0371304 0 15.0524
    endloop
  endfacet
  facet normal 0 -1 0
    outer loop
      vertex 0.000761986 0 14.75
      vertex 0.0371304 0 15.0524
      vertex 0.0189905 0 14.9671
    endloop
  endfacet
  facet normal 0 -1 0
    outer loop
      vertex 0.000761986 0 14.75
      vertex 0.0189905 0 14.9671
      vertex 0.00684834 0 14.8807
    endloop
  endfacet
  facet normal 0 -1 0
    outer loop
      vertex 0.000761986 0 14.75
      vertex 0.00684834 0 14.8807
      vertex 0.000761986 0 14.7936
    endloop
  endfacet
  facet normal 0 -1 -0
    outer loop
      vertex 1.25 0 16
      vertex 0.000761986 0 14.75
      vertex 10 0 6
    endloop
  endfacet
  facet normal 0 -1 0
    outer loop
      vertex 1.25 0 16
      vertex 10 0 6
      vertex 10 0 16
    endloop
  endfacet
  facet normal 0 -1 0
    outer loop
      vertex 197 0 16
      vertex 205.75 0 15.9992
      vertex 205.75 0 16
    endloop
  endfacet
  facet normal 0 -1 0
    outer loop
      vertex 205.75 0 15.9992
      vertex 205.881 0 15.9932
      vertex 205.794 0 15.9992
    endloop
  endfacet
  facet normal 0 -1 0
    outer loop
      vertex 197 0 6
      vertex 205.75 0 15.9992
      vertex 197 0 16
    endloop
  endfacet
  facet normal -0 -1 0
    outer loop
      vertex 207 0 14.75
      vertex 205.75 0 15.9992
      vertex 197 0 6
    endloop
  endfacet
  facet normal 0 -1 0
    outer loop
      vertex 205.881 0 15.9932
      vertex 207 0 14.75
      vertex 205.967 0 15.981
    endloop
  endfacet
  facet normal 0 -1 0
    outer loop
      vertex 205.967 0 15.981
      vertex 207 0 14.75
      vertex 206.052 0 15.9629
    endloop
  endfacet
  facet normal 0 -1 0
    outer loop
      vertex 206.052 0 15.9629
      vertex 207 0 14.75
      vertex 206.136 0 15.9388
    endloop
  endfacet
  facet normal 0 -1 0
    outer loop
      vertex 206.136 0 15.9388
      vertex 207 0 14.75
      vertex 206.218 0 15.909
    endloop
  endfacet
  facet normal 0 -1 0
    outer loop
      vertex 206.218 0 15.909
      vertex 207 0 14.75
      vertex 206.298 0 15.8735
    endloop
  endfacet
  facet normal 0 -1 0
    outer loop
      vertex 206.298 0 15.8735
      vertex 207 0 14.75
      vertex 206.375 0 15.8325
    endloop
  endfacet
  facet normal 0 -1 0
    outer loop
      vertex 206.375 0 15.8325
      vertex 207 0 14.75
      vertex 206.449 0 15.7863
    endloop
  endfacet
  facet normal 0 -1 0
    outer loop
      vertex 206.449 0 15.7863
      vertex 207 0 14.75
      vertex 206.52 0 15.735
    endloop
  endfacet
  facet normal 0 -1 0
    outer loop
      vertex 206.52 0 15.735
      vertex 207 0 14.75
      vertex 206.586 0 15.6789
    endloop
  endfacet
  facet normal 0 -1 0
    outer loop
      vertex 206.586 0 15.6789
      vertex 207 0 14.75
      vertex 206.649 0 15.6183
    endloop
  endfacet
  facet normal 0 -1 0
    outer loop
      vertex 206.649 0 15.6183
      vertex 207 0 14.75
      vertex 206.708 0 15.5535
    endloop
  endfacet
  facet normal 0 -1 0
    outer loop
      vertex 206.708 0 15.5535
      vertex 207 0 14.75
      vertex 206.761 0 15.4847
    endloop
  endfacet
  facet normal 0 -1 0
    outer loop
      vertex 206.761 0 15.4847
      vertex 207 0 14.75
      vertex 206.81 0 15.4124
    endloop
  endfacet
  facet normal 0 -1 0
    outer loop
      vertex 206.81 0 15.4124
      vertex 207 0 14.75
      vertex 206.854 0 15.3368
    endloop
  endfacet
  facet normal 0 -1 0
    outer loop
      vertex 206.854 0 15.3368
      vertex 207 0 14.75
      vertex 206.892 0 15.2584
    endloop
  endfacet
  facet normal 0 -1 0
    outer loop
      vertex 206.892 0 15.2584
      vertex 207 0 14.75
      vertex 206.925 0 15.1775
    endloop
  endfacet
  facet normal 0 -1 0
    outer loop
      vertex 206.925 0 15.1775
      vertex 207 0 14.75
      vertex 206.952 0 15.0945
    endloop
  endfacet
  facet normal 0 -1 0
    outer loop
      vertex 206.952 0 15.0945
      vertex 207 0 14.75
      vertex 206.973 0 15.0099
    endloop
  endfacet
  facet normal 0 -1 0
    outer loop
      vertex 206.973 0 15.0099
      vertex 207 0 14.75
      vertex 206.988 0 14.924
    endloop
  endfacet
  facet normal 0 -1 0
    outer loop
      vertex 206.988 0 14.924
      vertex 207 0 14.75
      vertex 206.997 0 14.8372
    endloop
  endfacet
  facet normal 0 -1 0
    outer loop
      vertex 205.75 0 15.9992
      vertex 207 0 14.75
      vertex 205.881 0 15.9932
    endloop
  endfacet
  facet normal 0 -1 0
    outer loop
      vertex 197 0 6
      vertex 207 0 1
      vertex 207 0 14.75
    endloop
  endfacet
  facet normal 0 -1 0
    outer loop
      vertex 207 0 1
      vertex 197 0 6
      vertex 0 0 1
    endloop
  endfacet
  facet normal 1 -0 0
    outer loop
      vertex 207 0 14.75
      vertex 207 8 5.5
      vertex 207 8 14.75
    endloop
  endfacet
  facet normal 1 0 0
    outer loop
      vertex 207 8 5.5
      vertex 207 0 1
      vertex 207 1 0.000609398
    endloop
  endfacet
  facet normal 1 -0 -0
    outer loop
      vertex 207 0.895472 0.00547886
      vertex 207 1 0.000609398
      vertex 207 0 1
    endloop
  endfacet
  facet normal 1 0 0
    outer loop
      vertex 207 1 0.000609398
      vertex 207 0.895472 0.00547886
      vertex 207 0.965101 0.000609398
    endloop
  endfacet
  facet normal 1 0 0
    outer loop
      vertex 207 0.895472 0.00547886
      vertex 207 0 1
      vertex 207 0.826352 0.015193
    endloop
  endfacet
  facet normal 1 0 0
    outer loop
      vertex 207 0.826352 0.015193
      vertex 207 0 1
      vertex 207 0.758079 0.029705
    endloop
  endfacet
  facet normal 1 0 0
    outer loop
      vertex 207 0.758079 0.029705
      vertex 207 0 1
      vertex 207 0.690984 0.0489435
    endloop
  endfacet
  facet normal 1 0 0
    outer loop
      vertex 207 0.690984 0.0489435
      vertex 207 0 1
      vertex 207 0.625394 0.0728168
    endloop
  endfacet
  facet normal 1 0 0
    outer loop
      vertex 207 0.625394 0.0728168
      vertex 207 0 1
      vertex 207 0.561629 0.101207
    endloop
  endfacet
  facet normal 1 0 0
    outer loop
      vertex 207 0.561629 0.101207
      vertex 207 0 1
      vertex 207 0.5 0.133975
    endloop
  endfacet
  facet normal 1 0 0
    outer loop
      vertex 207 0.5 0.133975
      vertex 207 0 1
      vertex 207 0.440807 0.170963
    endloop
  endfacet
  facet normal 1 0 0
    outer loop
      vertex 207 0.440807 0.170963
      vertex 207 0 1
      vertex 207 0.384339 0.211989
    endloop
  endfacet
  facet normal 1 0 0
    outer loop
      vertex 207 0.384339 0.211989
      vertex 207 0 1
      vertex 207 0.33087 0.256856
    endloop
  endfacet
  facet normal 1 0 0
    outer loop
      vertex 207 0.33087 0.256856
      vertex 207 0 1
      vertex 207 0.280661 0.305342
    endloop
  endfacet
  facet normal 1 0 0
    outer loop
      vertex 207 0.280661 0.305342
      vertex 207 0 1
      vertex 207 0.233956 0.357213
    endloop
  endfacet
  facet normal 1 0 0
    outer loop
      vertex 207 0.233956 0.357213
      vertex 207 0 1
      vertex 207 0.190984 0.412215
    endloop
  endfacet
  facet normal 1 0 0
    outer loop
      vertex 207 0.190984 0.412215
      vertex 207 0 1
      vertex 207 0.151953 0.470081
    endloop
  endfacet
  facet normal 1 0 0
    outer loop
      vertex 207 0.151953 0.470081
      vertex 207 0 1
      vertex 207 0.117053 0.530529
    endloop
  endfacet
  facet normal 1 0 0
    outer loop
      vertex 207 0.117053 0.530529
      vertex 207 0 1
      vertex 207 0.0864553 0.593264
    endloop
  endfacet
  facet normal 1 0 0
    outer loop
      vertex 207 0.0864553 0.593264
      vertex 207 0 1
      vertex 207 0.0603075 0.65798
    endloop
  endfacet
  facet normal 1 0 0
    outer loop
      vertex 207 0.0603075 0.65798
      vertex 207 0 1
      vertex 207 0.0387392 0.724363
    endloop
  endfacet
  facet normal 1 0 0
    outer loop
      vertex 207 0.0387392 0.724363
      vertex 207 0 1
      vertex 207 0.0218525 0.792089
    endloop
  endfacet
  facet normal 1 0 0
    outer loop
      vertex 207 0.0218525 0.792089
      vertex 207 0 1
      vertex 207 0.00973225 0.860827
    endloop
  endfacet
  facet normal 1 0 0
    outer loop
      vertex 207 8 5.5
      vertex 207 0 14.75
      vertex 207 0 1
    endloop
  endfacet
  facet normal 1 0 0
    outer loop
      vertex 207 0.00973225 0.860827
      vertex 207 0 1
      vertex 207 0.00243664 0.930244
    endloop
  endfacet
  facet normal 1 -0 0
    outer loop
      vertex 207 8 5.5
      vertex 207 40 0
      vertex 207 40 5.5
    endloop
  endfacet
  facet normal 1 0 0
    outer loop
      vertex 207 1 0
      vertex 207 8 5.5
      vertex 207 1 0.000609398
    endloop
  endfacet
  facet normal 1 0 0
    outer loop
      vertex 207 8 5.5
      vertex 207 1 0
      vertex 207 40 0
    endloop
  endfacet
  facet normal -1 0 0
    outer loop
      vertex 0 40 0
      vertex 0 8 5.5
      vertex 0 40 5.5
    endloop
  endfacet
  facet normal -1 0 0
    outer loop
      vertex 0 1 0
      vertex 0 8 5.5
      vertex 0 40 0
    endloop
  endfacet
  facet normal -1 0 0
    outer loop
      vertex 0 1 0.000609398
      vertex 0 8 5.5
      vertex 0 1 0
    endloop
  endfacet
  facet normal -1 0 0
    outer loop
      vertex 0 0 1
      vertex 0 8 5.5
      vertex 0 1 0.000609398
    endloop
  endfacet
  facet normal -1 0 0
    outer loop
      vertex 0 0.895472 0.00547886
      vertex 0 1 0.000609398
      vertex 0 0.965101 0.000609398
    endloop
  endfacet
  facet normal -1 0 0
    outer loop
      vertex 0 1 0.000609398
      vertex 0 0.895472 0.00547886
      vertex 0 0 1
    endloop
  endfacet
  facet normal -1 0 0
    outer loop
      vertex 0 0 1
      vertex 0 0.895472 0.00547886
      vertex 0 0.826352 0.015193
    endloop
  endfacet
  facet normal -1 0 0
    outer loop
      vertex 0 0 1
      vertex 0 0.826352 0.015193
      vertex 0 0.758079 0.029705
    endloop
  endfacet
  facet normal -1 0 0
    outer loop
      vertex 0 0 1
      vertex 0 0.758079 0.029705
      vertex 0 0.690984 0.0489435
    endloop
  endfacet
  facet normal -1 0 0
    outer loop
      vertex 0 0 1
      vertex 0 0.690984 0.0489435
      vertex 0 0.625394 0.0728168
    endloop
  endfacet
  facet normal -1 0 0
    outer loop
      vertex 0 0 1
      vertex 0 0.625394 0.0728168
      vertex 0 0.561629 0.101207
    endloop
  endfacet
  facet normal -1 0 0
    outer loop
      vertex 0 0 1
      vertex 0 0.561629 0.101207
      vertex 0 0.5 0.133975
    endloop
  endfacet
  facet normal -1 0 0
    outer loop
      vertex 0 0 1
      vertex 0 0.5 0.133975
      vertex 0 0.440807 0.170963
    endloop
  endfacet
  facet normal -1 0 0
    outer loop
      vertex 0 0 1
      vertex 0 0.440807 0.170963
      vertex 0 0.384339 0.211989
    endloop
  endfacet
  facet normal -1 0 0
    outer loop
      vertex 0 0 1
      vertex 0 0.384339 0.211989
      vertex 0 0.33087 0.256856
    endloop
  endfacet
  facet normal -1 0 0
    outer loop
      vertex 0 0 1
      vertex 0 0.33087 0.256856
      vertex 0 0.280661 0.305342
    endloop
  endfacet
  facet normal -1 0 0
    outer loop
      vertex 0 0 1
      vertex 0 0.280661 0.305342
      vertex 0 0.233956 0.357213
    endloop
  endfacet
  facet normal -1 0 0
    outer loop
      vertex 0 0 1
      vertex 0 0.233956 0.357213
      vertex 0 0.190984 0.412215
    endloop
  endfacet
  facet normal -1 0 0
    outer loop
      vertex 0 0 1
      vertex 0 0.190984 0.412215
      vertex 0 0.151953 0.470081
    endloop
  endfacet
  facet normal -1 0 0
    outer loop
      vertex 0 0 1
      vertex 0 0.151953 0.470081
      vertex 0 0.117053 0.530529
    endloop
  endfacet
  facet normal -1 0 0
    outer loop
      vertex 0 0 1
      vertex 0 0.117053 0.530529
      vertex 0 0.0864553 0.593264
    endloop
  endfacet
  facet normal -1 0 0
    outer loop
      vertex 0 0 1
      vertex 0 0.0864553 0.593264
      vertex 0 0.0603075 0.65798
    endloop
  endfacet
  facet normal -1 0 0
    outer loop
      vertex 0 0 1
      vertex 0 0.0603075 0.65798
      vertex 0 0.0387392 0.724363
    endloop
  endfacet
  facet normal -1 0 0
    outer loop
      vertex 0 0 1
      vertex 0 0.0387392 0.724363
      vertex 0 0.0218525 0.792089
    endloop
  endfacet
  facet normal -1 0 0
    outer loop
      vertex 0 0 1
      vertex 0 0.0218525 0.792089
      vertex 0 0.00973225 0.860827
    endloop
  endfacet
  facet normal -1 0 0
    outer loop
      vertex 0 0 1
      vertex 0 0.00973225 0.860827
      vertex 0 0.00243664 0.930244
    endloop
  endfacet
  facet normal -1 0 0
    outer loop
      vertex 0 0 14.75
      vertex 0 8 5.5
      vertex 0 0 1
    endloop
  endfacet
  facet normal -1 0 0
    outer loop
      vertex 0 8 5.5
      vertex 0 0 14.75
      vertex 0 8 14.75
    endloop
  endfacet
  facet normal 0 -1 0
    outer loop
      vertex 0 1 0
      vertex 207 1 0.000609398
      vertex 0 1 0.000609398
    endloop
  endfacet
  facet normal 0 -1 -0
    outer loop
      vertex 207 1 0.000609398
      vertex 0 1 0
      vertex 207 1 0
    endloop
  endfacet
  facet normal 0 0 -1
    outer loop
      vertex 0 1 0
      vertex 207 40 0
      vertex 207 1 0
    endloop
  endfacet
  facet normal -0 0 -1
    outer loop
      vertex 207 40 0
      vertex 0 1 0
      vertex 0 40 0
    endloop
  endfacet
  facet normal 0 -0.99939 -0.0349096
    outer loop
      vertex 0 0.00243664 0.930244
      vertex 207 0 1
      vertex 0 0 1
    endloop
  endfacet
  facet normal 0 -0.99939 -0.0349096
    outer loop
      vertex 207 0 1
      vertex 0 0.00243664 0.930244
      vertex 207 0.00243664 0.930244
    endloop
  endfacet
  facet normal 0 -0.984808 -0.173647
    outer loop
      vertex 0 0.0218525 0.792089
      vertex 207 0.00973225 0.860827
      vertex 0 0.00973225 0.860827
    endloop
  endfacet
  facet normal 0 -0.984808 -0.173647
    outer loop
      vertex 207 0.00973225 0.860827
      vertex 0 0.0218525 0.792089
      vertex 207 0.0218525 0.792089
    endloop
  endfacet
  facet normal 0 -0.642798 -0.766036
    outer loop
      vertex 0 0.33087 0.256856
      vertex 207 0.384339 0.211989
      vertex 207 0.33087 0.256856
    endloop
  endfacet
  facet normal -0 -0.642798 -0.766036
    outer loop
      vertex 207 0.384339 0.211989
      vertex 0 0.33087 0.256856
      vertex 0 0.384339 0.211989
    endloop
  endfacet
  facet normal 0 -0.469464 -0.882952
    outer loop
      vertex 0 0.5 0.133975
      vertex 207 0.561629 0.101207
      vertex 207 0.5 0.133975
    endloop
  endfacet
  facet normal -0 -0.469464 -0.882952
    outer loop
      vertex 207 0.561629 0.101207
      vertex 0 0.5 0.133975
      vertex 0 0.561629 0.101207
    endloop
  endfacet
  facet normal 0 -0.207913 -0.978147
    outer loop
      vertex 0 0.758079 0.029705
      vertex 207 0.826352 0.015193
      vertex 207 0.758079 0.029705
    endloop
  endfacet
  facet normal -0 -0.207913 -0.978147
    outer loop
      vertex 207 0.826352 0.015193
      vertex 0 0.758079 0.029705
      vertex 0 0.826352 0.015193
    endloop
  endfacet
  facet normal 0 -0.994523 -0.104523
    outer loop
      vertex 0 0.00973225 0.860827
      vertex 207 0.00243664 0.930244
      vertex 0 0.00243664 0.930244
    endloop
  endfacet
  facet normal 0 -0.994523 -0.104523
    outer loop
      vertex 207 0.00243664 0.930244
      vertex 0 0.00973225 0.860827
      vertex 207 0.00973225 0.860827
    endloop
  endfacet
  facet normal 0 -0.587781 -0.80902
    outer loop
      vertex 0 0.384339 0.211989
      vertex 207 0.440807 0.170963
      vertex 207 0.384339 0.211989
    endloop
  endfacet
  facet normal -0 -0.587781 -0.80902
    outer loop
      vertex 207 0.440807 0.170963
      vertex 0 0.384339 0.211989
      vertex 0 0.440807 0.170963
    endloop
  endfacet
  facet normal 0 -0.829038 -0.559192
    outer loop
      vertex 0 0.190984 0.412215
      vertex 207 0.151953 0.470081
      vertex 0 0.151953 0.470081
    endloop
  endfacet
  facet normal 0 -0.829038 -0.559192
    outer loop
      vertex 207 0.151953 0.470081
      vertex 0 0.190984 0.412215
      vertex 207 0.190984 0.412215
    endloop
  endfacet
  facet normal 0 -0.52992 -0.848047
    outer loop
      vertex 0 0.440807 0.170963
      vertex 207 0.5 0.133975
      vertex 207 0.440807 0.170963
    endloop
  endfacet
  facet normal -0 -0.52992 -0.848047
    outer loop
      vertex 207 0.5 0.133975
      vertex 0 0.440807 0.170963
      vertex 0 0.5 0.133975
    endloop
  endfacet
  facet normal 0 -0.743144 -0.669132
    outer loop
      vertex 0 0.280661 0.305342
      vertex 207 0.233956 0.357213
      vertex 0 0.233956 0.357213
    endloop
  endfacet
  facet normal 0 -0.743144 -0.669132
    outer loop
      vertex 207 0.233956 0.357213
      vertex 0 0.280661 0.305342
      vertex 207 0.280661 0.305342
    endloop
  endfacet
  facet normal 0 -0.342026 -0.93969
    outer loop
      vertex 0 0.625394 0.0728168
      vertex 207 0.690984 0.0489435
      vertex 207 0.625394 0.0728168
    endloop
  endfacet
  facet normal -0 -0.342026 -0.93969
    outer loop
      vertex 207 0.690984 0.0489435
      vertex 0 0.625394 0.0728168
      vertex 0 0.690984 0.0489435
    endloop
  endfacet
  facet normal 0 -0.788013 -0.615659
    outer loop
      vertex 0 0.233956 0.357213
      vertex 207 0.190984 0.412215
      vertex 0 0.190984 0.412215
    endloop
  endfacet
  facet normal 0 -0.788013 -0.615659
    outer loop
      vertex 207 0.190984 0.412215
      vertex 0 0.233956 0.357213
      vertex 207 0.233956 0.357213
    endloop
  endfacet
  facet normal 0 -0.95106 -0.309006
    outer loop
      vertex 0 0.0603075 0.65798
      vertex 207 0.0387392 0.724363
      vertex 0 0.0387392 0.724363
    endloop
  endfacet
  facet normal 0 -0.95106 -0.309006
    outer loop
      vertex 207 0.0387392 0.724363
      vertex 0 0.0603075 0.65798
      vertex 207 0.0603075 0.65798
    endloop
  endfacet
  facet normal 0 -0.069764 -0.997564
    outer loop
      vertex 0 0.895472 0.00547886
      vertex 207 0.965101 0.000609398
      vertex 207 0.895472 0.00547886
    endloop
  endfacet
  facet normal -0 -0.069764 -0.997564
    outer loop
      vertex 207 0.965101 0.000609398
      vertex 0 0.895472 0.00547886
      vertex 0 0.965101 0.000609398
    endloop
  endfacet
  facet normal 0 -0.139173 -0.990268
    outer loop
      vertex 0 0.826352 0.015193
      vertex 207 0.895472 0.00547886
      vertex 207 0.826352 0.015193
    endloop
  endfacet
  facet normal -0 -0.139173 -0.990268
    outer loop
      vertex 207 0.895472 0.00547886
      vertex 0 0.826352 0.015193
      vertex 0 0.895472 0.00547886
    endloop
  endfacet
  facet normal 0 -0.866023 -0.500004
    outer loop
      vertex 0 0.151953 0.470081
      vertex 207 0.117053 0.530529
      vertex 0 0.117053 0.530529
    endloop
  endfacet
  facet normal 0 -0.866023 -0.500004
    outer loop
      vertex 207 0.117053 0.530529
      vertex 0 0.151953 0.470081
      vertex 207 0.151953 0.470081
    endloop
  endfacet
  facet normal 0 -0.92718 -0.374617
    outer loop
      vertex 0 0.0864553 0.593264
      vertex 207 0.0603075 0.65798
      vertex 0 0.0603075 0.65798
    endloop
  endfacet
  facet normal 0 -0.92718 -0.374617
    outer loop
      vertex 207 0.0603075 0.65798
      vertex 0 0.0864553 0.593264
      vertex 207 0.0864553 0.593264
    endloop
  endfacet
  facet normal 0 -0.898795 -0.438369
    outer loop
      vertex 0 0.117053 0.530529
      vertex 207 0.0864553 0.593264
      vertex 0 0.0864553 0.593264
    endloop
  endfacet
  facet normal 0 -0.898795 -0.438369
    outer loop
      vertex 207 0.0864553 0.593264
      vertex 0 0.117053 0.530529
      vertex 207 0.117053 0.530529
    endloop
  endfacet
  facet normal 0 -0.970293 -0.241931
    outer loop
      vertex 0 0.0387392 0.724363
      vertex 207 0.0218525 0.792089
      vertex 0 0.0218525 0.792089
    endloop
  endfacet
  facet normal 0 -0.970293 -0.241931
    outer loop
      vertex 207 0.0218525 0.792089
      vertex 0 0.0387392 0.724363
      vertex 207 0.0387392 0.724363
    endloop
  endfacet
  facet normal 0 -0.694656 -0.719342
    outer loop
      vertex 0 0.280661 0.305342
      vertex 207 0.33087 0.256856
      vertex 207 0.280661 0.305342
    endloop
  endfacet
  facet normal -0 -0.694656 -0.719342
    outer loop
      vertex 207 0.33087 0.256856
      vertex 0 0.280661 0.305342
      vertex 0 0.33087 0.256856
    endloop
  endfacet
  facet normal 0 -0.275628 -0.961264
    outer loop
      vertex 0 0.690984 0.0489435
      vertex 207 0.758079 0.029705
      vertex 207 0.690984 0.0489435
    endloop
  endfacet
  facet normal -0 -0.275628 -0.961264
    outer loop
      vertex 207 0.758079 0.029705
      vertex 0 0.690984 0.0489435
      vertex 0 0.758079 0.029705
    endloop
  endfacet
  facet normal 0 0 -1
    outer loop
      vertex 0 0.965101 0.000609398
      vertex 207 1 0.000609398
      vertex 207 0.965101 0.000609398
    endloop
  endfacet
  facet normal -0 0 -1
    outer loop
      vertex 207 1 0.000609398
      vertex 0 0.965101 0.000609398
      vertex 0 1 0.000609398
    endloop
  endfacet
  facet normal 0 -0.406739 -0.913544
    outer loop
      vertex 0 0.561629 0.101207
      vertex 207 0.625394 0.0728168
      vertex 207 0.561629 0.101207
    endloop
  endfacet
  facet normal -0 -0.406739 -0.913544
    outer loop
      vertex 207 0.625394 0.0728168
      vertex 0 0.561629 0.101207
      vertex 0 0.625394 0.0728168
    endloop
  endfacet
  facet normal -0 0 1
    outer loop
      vertex 0 40 5.5
      vertex 207 8 5.5
      vertex 207 40 5.5
    endloop
  endfacet
  facet normal 0 0 1
    outer loop
      vertex 207 8 5.5
      vertex 0 40 5.5
      vertex 0 8 5.5
    endloop
  endfacet
  facet normal 0 1 -0
    outer loop
      vertex 207 40 0
      vertex 0 40 5.5
      vertex 207 40 5.5
    endloop
  endfacet
  facet normal 0 1 0
    outer loop
      vertex 0 40 5.5
      vertex 207 40 0
      vertex 0 40 0
    endloop
  endfacet
  facet normal -0 0 1
    outer loop
      vertex 1.25 8 16
      vertex 10 0 16
      vertex 10 8 16
    endloop
  endfacet
  facet normal 0 0 1
    outer loop
      vertex 10 0 16
      vertex 1.25 8 16
      vertex 1.25 0 16
    endloop
  endfacet
  facet normal -0 0 1
    outer loop
      vertex 197 8 16
      vertex 205.75 0 16
      vertex 205.75 8 16
    endloop
  endfacet
  facet normal 0 0 1
    outer loop
      vertex 205.75 0 16
      vertex 197 8 16
      vertex 197 0 16
    endloop
  endfacet
  facet normal 0 1 0
    outer loop
      vertex 205.794 8 15.9992
      vertex 205.881 8 15.9932
      vertex 205.75 8 15.9992
    endloop
  endfacet
  facet normal 0 1 -0
    outer loop
      vertex 205.75 8 15.9992
      vertex 197 8 16
      vertex 205.75 8 16
    endloop
  endfacet
  facet normal 0 1 0
    outer loop
      vertex 207 8 14.75
      vertex 205.75 8 15.9992
      vertex 205.881 8 15.9932
    endloop
  endfacet
  facet normal 0 1 0
    outer loop
      vertex 207 8 14.75
      vertex 205.881 8 15.9932
      vertex 205.967 8 15.981
    endloop
  endfacet
  facet normal 0 1 0
    outer loop
      vertex 207 8 14.75
      vertex 205.967 8 15.981
      vertex 206.052 8 15.9629
    endloop
  endfacet
  facet normal 0 1 0
    outer loop
      vertex 207 8 14.75
      vertex 206.052 8 15.9629
      vertex 206.136 8 15.9388
    endloop
  endfacet
  facet normal 0 1 0
    outer loop
      vertex 207 8 14.75
      vertex 206.136 8 15.9388
      vertex 206.218 8 15.909
    endloop
  endfacet
  facet normal 0 1 0
    outer loop
      vertex 207 8 14.75
      vertex 206.218 8 15.909
      vertex 206.298 8 15.8735
    endloop
  endfacet
  facet normal 0 1 0
    outer loop
      vertex 207 8 14.75
      vertex 206.298 8 15.8735
      vertex 206.375 8 15.8325
    endloop
  endfacet
  facet normal 0 1 0
    outer loop
      vertex 207 8 14.75
      vertex 206.375 8 15.8325
      vertex 206.449 8 15.7863
    endloop
  endfacet
  facet normal 0 1 0
    outer loop
      vertex 207 8 14.75
      vertex 206.449 8 15.7863
      vertex 206.52 8 15.735
    endloop
  endfacet
  facet normal 0 1 0
    outer loop
      vertex 207 8 14.75
      vertex 206.52 8 15.735
      vertex 206.586 8 15.6789
    endloop
  endfacet
  facet normal 0 1 0
    outer loop
      vertex 207 8 14.75
      vertex 206.586 8 15.6789
      vertex 206.649 8 15.6183
    endloop
  endfacet
  facet normal 0 1 0
    outer loop
      vertex 207 8 14.75
      vertex 206.649 8 15.6183
      vertex 206.708 8 15.5535
    endloop
  endfacet
  facet normal 0 1 0
    outer loop
      vertex 207 8 14.75
      vertex 206.708 8 15.5535
      vertex 206.761 8 15.4847
    endloop
  endfacet
  facet normal 0 1 0
    outer loop
      vertex 207 8 14.75
      vertex 206.761 8 15.4847
      vertex 206.81 8 15.4124
    endloop
  endfacet
  facet normal 0 1 0
    outer loop
      vertex 207 8 14.75
      vertex 206.81 8 15.4124
      vertex 206.854 8 15.3368
    endloop
  endfacet
  facet normal 0 1 0
    outer loop
      vertex 207 8 14.75
      vertex 206.854 8 15.3368
      vertex 206.892 8 15.2584
    endloop
  endfacet
  facet normal 0 1 0
    outer loop
      vertex 207 8 14.75
      vertex 206.892 8 15.2584
      vertex 206.925 8 15.1775
    endloop
  endfacet
  facet normal 0 1 0
    outer loop
      vertex 207 8 14.75
      vertex 206.925 8 15.1775
      vertex 206.952 8 15.0945
    endloop
  endfacet
  facet normal 0 1 0
    outer loop
      vertex 207 8 14.75
      vertex 206.952 8 15.0945
      vertex 206.973 8 15.0099
    endloop
  endfacet
  facet normal 0 1 0
    outer loop
      vertex 207 8 14.75
      vertex 206.973 8 15.0099
      vertex 206.988 8 14.924
    endloop
  endfacet
  facet normal 0 1 0
    outer loop
      vertex 207 8 14.75
      vertex 206.988 8 14.924
      vertex 206.997 8 14.8372
    endloop
  endfacet
  facet normal 0 1 0
    outer loop
      vertex 205.75 8 15.9992
      vertex 207 8 14.75
      vertex 197 8 6
    endloop
  endfacet
  facet normal 0 1 0
    outer loop
      vertex 205.75 8 15.9992
      vertex 197 8 6
      vertex 197 8 16
    endloop
  endfacet
  facet normal 0 1 0
    outer loop
      vertex 197 8 6
      vertex 207 8 5.5
      vertex 10 8 6
    endloop
  endfacet
  facet normal 0 1 -0
    outer loop
      vertex 207 8 5.5
      vertex 197 8 6
      vertex 207 8 14.75
    endloop
  endfacet
  facet normal 0 1 -0
    outer loop
      vertex 10 8 6
      vertex 1.25 8 16
      vertex 10 8 16
    endloop
  endfacet
  facet normal -0 1 0
    outer loop
      vertex 0.000761986 8 14.75
      vertex 1.25 8 16
      vertex 10 8 6
    endloop
  endfacet
  facet normal 0 1 0
    outer loop
      vertex 1.1628 8 15.997
      vertex 0.000761986 8 14.75
      vertex 1.07603 8 15.9878
    endloop
  endfacet
  facet normal 0 1 0
    outer loop
      vertex 1.07603 8 15.9878
      vertex 0.000761986 8 14.75
      vertex 0.99011 8 15.9727
    endloop
  endfacet
  facet normal 0 1 0
    outer loop
      vertex 0.99011 8 15.9727
      vertex 0.000761986 8 14.75
      vertex 0.905454 8 15.9516
    endloop
  endfacet
  facet normal 0 1 0
    outer loop
      vertex 0.905454 8 15.9516
      vertex 0.000761986 8 14.75
      vertex 0.822475 8 15.9246
    endloop
  endfacet
  facet normal 0 1 0
    outer loop
      vertex 0.822475 8 15.9246
      vertex 0.000761986 8 14.75
      vertex 0.74158 8 15.8919
    endloop
  endfacet
  facet normal 0 1 0
    outer loop
      vertex 0.74158 8 15.8919
      vertex 0.000761986 8 14.75
      vertex 0.663161 8 15.8537
    endloop
  endfacet
  facet normal 0 1 0
    outer loop
      vertex 0.663161 8 15.8537
      vertex 0.000761986 8 14.75
      vertex 0.587602 8 15.8101
    endloop
  endfacet
  facet normal 0 1 0
    outer loop
      vertex 0.587602 8 15.8101
      vertex 0.000761986 8 14.75
      vertex 0.515269 8 15.7613
    endloop
  endfacet
  facet normal 0 1 0
    outer loop
      vertex 0.515269 8 15.7613
      vertex 0.000761986 8 14.75
      vertex 0.446516 8 15.7076
    endloop
  endfacet
  facet normal 0 1 0
    outer loop
      vertex 0.446516 8 15.7076
      vertex 0.000761986 8 14.75
      vertex 0.381678 8 15.6492
    endloop
  endfacet
  facet normal 0 1 0
    outer loop
      vertex 0.381678 8 15.6492
      vertex 0.000761986 8 14.75
      vertex 0.32107 8 15.5864
    endloop
  endfacet
  facet normal 0 1 0
    outer loop
      vertex 0.32107 8 15.5864
      vertex 0.000761986 8 14.75
      vertex 0.264987 8 15.5196
    endloop
  endfacet
  facet normal 0 1 0
    outer loop
      vertex 0.264987 8 15.5196
      vertex 0.000761986 8 14.75
      vertex 0.213703 8 15.449
    endloop
  endfacet
  facet normal 0 1 0
    outer loop
      vertex 0.213703 8 15.449
      vertex 0.000761986 8 14.75
      vertex 0.167469 8 15.375
    endloop
  endfacet
  facet normal 0 1 0
    outer loop
      vertex 0.167469 8 15.375
      vertex 0.000761986 8 14.75
      vertex 0.126508 8 15.298
    endloop
  endfacet
  facet normal 0 1 0
    outer loop
      vertex 0.126508 8 15.298
      vertex 0.000761986 8 14.75
      vertex 0.0910206 8 15.2183
    endloop
  endfacet
  facet normal 0 1 0
    outer loop
      vertex 0.0910206 8 15.2183
      vertex 0.000761986 8 14.75
      vertex 0.0611801 8 15.1363
    endloop
  endfacet
  facet normal 0 1 0
    outer loop
      vertex 0.0611801 8 15.1363
      vertex 0.000761986 8 14.75
      vertex 0.0371304 8 15.0524
    endloop
  endfacet
  facet normal 0 1 0
    outer loop
      vertex 0.0371304 8 15.0524
      vertex 0.000761986 8 14.75
      vertex 0.0189905 8 14.9671
    endloop
  endfacet
  facet normal 0 1 0
    outer loop
      vertex 0.0189905 8 14.9671
      vertex 0.000761986 8 14.75
      vertex 0.00684834 8 14.8807
    endloop
  endfacet
  facet normal 0 1 0
    outer loop
      vertex 0.00684834 8 14.8807
      vertex 0.000761986 8 14.75
      vertex 0.000761986 8 14.7936
    endloop
  endfacet
  facet normal 0 1 0
    outer loop
      vertex 1.25 8 16
      vertex 0.000761986 8 14.75
      vertex 1.1628 8 15.997
    endloop
  endfacet
  facet normal 0 1 0
    outer loop
      vertex 0 8 5.5
      vertex 0.000761986 8 14.75
      vertex 10 8 6
    endloop
  endfacet
  facet normal 0 1 0
    outer loop
      vertex 0.000761986 8 14.75
      vertex 0 8 5.5
      vertex 0 8 14.75
    endloop
  endfacet
  facet normal 0 1 0
    outer loop
      vertex 0 8 5.5
      vertex 10 8 6
      vertex 207 8 5.5
    endloop
  endfacet
  facet normal -0 0 1
    outer loop
      vertex 0 8 14.75
      vertex 0.000761986 0 14.75
      vertex 0.000761986 8 14.75
    endloop
  endfacet
  facet normal 0 0 1
    outer loop
      vertex 0.000761986 0 14.75
      vertex 0 8 14.75
      vertex 0 0 14.75
    endloop
  endfacet
  facet normal -0.615549 0 0.788098
    outer loop
      vertex 0.446516 8 15.7076
      vertex 0.515269 0 15.7613
      vertex 0.515269 8 15.7613
    endloop
  endfacet
  facet normal -0.615549 0 0.788098
    outer loop
      vertex 0.515269 0 15.7613
      vertex 0.446516 8 15.7076
      vertex 0.446516 0 15.7076
    endloop
  endfacet
  facet normal -0.105436 0 0.994426
    outer loop
      vertex 1.07603 8 15.9878
      vertex 1.1628 0 15.997
      vertex 1.1628 8 15.997
    endloop
  endfacet
  facet normal -0.105436 0 0.994426
    outer loop
      vertex 1.1628 0 15.997
      vertex 1.07603 8 15.9878
      vertex 1.07603 0 15.9878
    endloop
  endfacet
  facet normal -0.0343833 0 0.999409
    outer loop
      vertex 1.1628 8 15.997
      vertex 1.25 0 16
      vertex 1.25 8 16
    endloop
  endfacet
  facet normal -0.0343833 0 0.999409
    outer loop
      vertex 1.25 0 16
      vertex 1.1628 8 15.997
      vertex 1.1628 0 15.997
    endloop
  endfacet
  facet normal -0.939711 0 0.341969
    outer loop
      vertex 0.0611801 0 15.1363
      vertex 0.0910206 8 15.2183
      vertex 0.0611801 8 15.1363
    endloop
  endfacet
  facet normal -0.939711 0 0.341969
    outer loop
      vertex 0.0910206 8 15.2183
      vertex 0.0611801 0 15.1363
      vertex 0.0910206 0 15.2183
    endloop
  endfacet
  facet normal -0.309416 0 0.950927
    outer loop
      vertex 0.822475 8 15.9246
      vertex 0.905454 0 15.9516
      vertex 0.905454 8 15.9516
    endloop
  endfacet
  facet normal -0.309416 0 0.950927
    outer loop
      vertex 0.905454 0 15.9516
      vertex 0.822475 8 15.9246
      vertex 0.822475 0 15.9246
    endloop
  endfacet
  facet normal -0.719553 0 0.694437
    outer loop
      vertex 0.32107 0 15.5864
      vertex 0.381678 8 15.6492
      vertex 0.32107 8 15.5864
    endloop
  endfacet
  facet normal -0.719553 0 0.694437
    outer loop
      vertex 0.381678 8 15.6492
      vertex 0.32107 0 15.5864
      vertex 0.381678 0 15.6492
    endloop
  endfacet
  facet normal -0.809071 0 0.587711
    outer loop
      vertex 0.213703 0 15.449
      vertex 0.264987 8 15.5196
      vertex 0.213703 8 15.449
    endloop
  endfacet
  facet normal -0.809071 0 0.587711
    outer loop
      vertex 0.264987 8 15.5196
      vertex 0.213703 0 15.449
      vertex 0.264987 0 15.5196
    endloop
  endfacet
  facet normal -0.559278 0 0.82898
    outer loop
      vertex 0.515269 8 15.7613
      vertex 0.587602 0 15.8101
      vertex 0.587602 8 15.8101
    endloop
  endfacet
  facet normal -0.559278 0 0.82898
    outer loop
      vertex 0.587602 0 15.8101
      vertex 0.515269 8 15.7613
      vertex 0.515269 0 15.7613
    endloop
  endfacet
  facet normal -1 0 0
    outer loop
      vertex 0.000761986 0 14.75
      vertex 0.000761986 8 14.7936
      vertex 0.000761986 8 14.75
    endloop
  endfacet
  facet normal -1 -0 0
    outer loop
      vertex 0.000761986 8 14.7936
      vertex 0.000761986 0 14.75
      vertex 0.000761986 0 14.7936
    endloop
  endfacet
  facet normal -0.913534 0 0.406762
    outer loop
      vertex 0.0910206 0 15.2183
      vertex 0.126508 8 15.298
      vertex 0.0910206 8 15.2183
    endloop
  endfacet
  facet normal -0.913534 0 0.406762
    outer loop
      vertex 0.126508 8 15.298
      vertex 0.0910206 0 15.2183
      vertex 0.126508 0 15.298
    endloop
  endfacet
  facet normal -0.437931 0 0.899009
    outer loop
      vertex 0.663161 8 15.8537
      vertex 0.74158 0 15.8919
      vertex 0.74158 8 15.8919
    endloop
  endfacet
  facet normal -0.437931 0 0.899009
    outer loop
      vertex 0.74158 0 15.8919
      vertex 0.663161 8 15.8537
      vertex 0.663161 0 15.8537
    endloop
  endfacet
  facet normal -0.961287 0 0.27555
    outer loop
      vertex 0.0371304 0 15.0524
      vertex 0.0611801 8 15.1363
      vertex 0.0371304 8 15.0524
    endloop
  endfacet
  facet normal -0.961287 0 0.27555
    outer loop
      vertex 0.0611801 8 15.1363
      vertex 0.0371304 0 15.0524
      vertex 0.0611801 0 15.1363
    endloop
  endfacet
  facet normal -0.848081 0 0.529867
    outer loop
      vertex 0.167469 0 15.375
      vertex 0.213703 8 15.449
      vertex 0.167469 8 15.375
    endloop
  endfacet
  facet normal -0.848081 0 0.529867
    outer loop
      vertex 0.213703 8 15.449
      vertex 0.167469 0 15.375
      vertex 0.213703 0 15.449
    endloop
  endfacet
  facet normal -0.765869 0 0.642997
    outer loop
      vertex 0.264987 0 15.5196
      vertex 0.32107 8 15.5864
      vertex 0.264987 8 15.5196
    endloop
  endfacet
  facet normal -0.765869 0 0.642997
    outer loop
      vertex 0.32107 8 15.5864
      vertex 0.264987 0 15.5196
      vertex 0.32107 0 15.5864
    endloop
  endfacet
  facet normal -0.499794 0 0.866145
    outer loop
      vertex 0.587602 8 15.8101
      vertex 0.663161 0 15.8537
      vertex 0.663161 8 15.8537
    endloop
  endfacet
  facet normal -0.499794 0 0.866145
    outer loop
      vertex 0.663161 0 15.8537
      vertex 0.587602 8 15.8101
      vertex 0.587602 0 15.8101
    endloop
  endfacet
  facet normal -0.241845 0 0.970315
    outer loop
      vertex 0.905454 8 15.9516
      vertex 0.99011 0 15.9727
      vertex 0.99011 8 15.9727
    endloop
  endfacet
  facet normal -0.241845 0 0.970315
    outer loop
      vertex 0.99011 0 15.9727
      vertex 0.905454 8 15.9516
      vertex 0.905454 0 15.9516
    endloop
  endfacet
  facet normal -0.374767 0 0.927119
    outer loop
      vertex 0.74158 8 15.8919
      vertex 0.822475 0 15.9246
      vertex 0.822475 8 15.9246
    endloop
  endfacet
  facet normal -0.374767 0 0.927119
    outer loop
      vertex 0.822475 0 15.9246
      vertex 0.74158 8 15.8919
      vertex 0.74158 0 15.8919
    endloop
  endfacet
  facet normal -0.882855 0 0.469645
    outer loop
      vertex 0.126508 0 15.298
      vertex 0.167469 8 15.375
      vertex 0.126508 8 15.298
    endloop
  endfacet
  facet normal -0.882855 0 0.469645
    outer loop
      vertex 0.167469 8 15.375
      vertex 0.126508 0 15.298
      vertex 0.167469 0 15.375
    endloop
  endfacet
  facet normal -0.669255 0 0.743033
    outer loop
      vertex 0.381678 8 15.6492
      vertex 0.446516 0 15.7076
      vertex 0.446516 8 15.7076
    endloop
  endfacet
  facet normal -0.669255 0 0.743033
    outer loop
      vertex 0.446516 0 15.7076
      vertex 0.381678 8 15.6492
      vertex 0.381678 0 15.6492
    endloop
  endfacet
  facet normal -0.173092 0 0.984906
    outer loop
      vertex 0.99011 8 15.9727
      vertex 1.07603 0 15.9878
      vertex 1.07603 8 15.9878
    endloop
  endfacet
  facet normal -0.173092 0 0.984906
    outer loop
      vertex 1.07603 0 15.9878
      vertex 0.99011 8 15.9727
      vertex 0.99011 0 15.9727
    endloop
  endfacet
  facet normal -0.997567 0 0.0697078
    outer loop
      vertex 0.000761986 0 14.7936
      vertex 0.00684834 8 14.8807
      vertex 0.000761986 8 14.7936
    endloop
  endfacet
  facet normal -0.997567 0 0.0697078
    outer loop
      vertex 0.00684834 8 14.8807
      vertex 0.000761986 0 14.7936
      vertex 0.00684834 0 14.8807
    endloop
  endfacet
  facet normal -0.990269 0 0.139167
    outer loop
      vertex 0.00684834 0 14.8807
      vertex 0.0189905 8 14.9671
      vertex 0.00684834 8 14.8807
    endloop
  endfacet
  facet normal -0.990269 0 0.139167
    outer loop
      vertex 0.0189905 8 14.9671
      vertex 0.00684834 0 14.8807
      vertex 0.0189905 0 14.9671
    endloop
  endfacet
  facet normal -0.978127 0 0.208009
    outer loop
      vertex 0.0189905 0 14.9671
      vertex 0.0371304 8 15.0524
      vertex 0.0189905 8 14.9671
    endloop
  endfacet
  facet normal -0.978127 0 0.208009
    outer loop
      vertex 0.0371304 8 15.0524
      vertex 0.0189905 0 14.9671
      vertex 0.0371304 0 15.0524
    endloop
  endfacet
  facet normal 1 -0 0
    outer loop
      vertex 205.75 0 16
      vertex 205.75 8 15.9992
      vertex 205.75 8 16
    endloop
  endfacet
  facet normal 1 0 0
    outer loop
      vertex 205.75 8 15.9992
      vertex 205.75 0 16
      vertex 205.75 0 15.9992
    endloop
  endfacet
  facet normal 0.792196 -0 0.610267
    outer loop
      vertex 206.708 0 15.5535
      vertex 206.761 8 15.4847
      vertex 206.708 8 15.5535
    endloop
  endfacet
  facet normal 0.792196 0 0.610267
    outer loop
      vertex 206.761 8 15.4847
      vertex 206.708 0 15.5535
      vertex 206.761 0 15.4847
    endloop
  endfacet
  facet normal 0.994667 -0 0.103134
    outer loop
      vertex 206.988 0 14.924
      vertex 206.997 8 14.8372
      vertex 206.988 8 14.924
    endloop
  endfacet
  facet normal 0.994667 0 0.103134
    outer loop
      vertex 206.997 8 14.8372
      vertex 206.988 0 14.924
      vertex 206.997 0 14.8372
    endloop
  endfacet
  facet normal 0.999409 -0 0.0343833
    outer loop
      vertex 206.997 0 14.8372
      vertex 207 8 14.75
      vertex 206.997 8 14.8372
    endloop
  endfacet
  facet normal 0.999409 0 0.0343833
    outer loop
      vertex 207 8 14.75
      vertex 206.997 0 14.8372
      vertex 207 0 14.75
    endloop
  endfacet
  facet normal 0.341559 0 0.93986
    outer loop
      vertex 206.136 8 15.9388
      vertex 206.218 0 15.909
      vertex 206.218 8 15.909
    endloop
  endfacet
  facet normal 0.341559 0 0.93986
    outer loop
      vertex 206.218 0 15.909
      vertex 206.136 8 15.9388
      vertex 206.136 0 15.9388
    endloop
  endfacet
  facet normal 0.95095 -0 0.309345
    outer loop
      vertex 206.925 0 15.1775
      vertex 206.952 8 15.0945
      vertex 206.925 8 15.1775
    endloop
  endfacet
  facet normal 0.95095 0 0.309345
    outer loop
      vertex 206.952 8 15.0945
      vertex 206.925 0 15.1775
      vertex 206.952 0 15.0945
    endloop
  endfacet
  facet normal 0.693246 0 0.720701
    outer loop
      vertex 206.586 8 15.6789
      vertex 206.649 0 15.6183
      vertex 206.649 8 15.6183
    endloop
  endfacet
  facet normal 0.693246 0 0.720701
    outer loop
      vertex 206.649 0 15.6183
      vertex 206.586 8 15.6789
      vertex 206.586 0 15.6789
    endloop
  endfacet
  facet normal 0.585657 0 0.810559
    outer loop
      vertex 206.449 8 15.7863
      vertex 206.52 0 15.735
      vertex 206.52 8 15.735
    endloop
  endfacet
  facet normal 0.585657 0 0.810559
    outer loop
      vertex 206.52 0 15.735
      vertex 206.449 8 15.7863
      vertex 206.449 0 15.7863
    endloop
  endfacet
  facet normal 0.827799 -0 0.561025
    outer loop
      vertex 206.761 0 15.4847
      vertex 206.81 8 15.4124
      vertex 206.761 8 15.4847
    endloop
  endfacet
  facet normal 0.827799 0 0.561025
    outer loop
      vertex 206.81 8 15.4124
      vertex 206.761 0 15.4847
      vertex 206.81 0 15.4124
    endloop
  endfacet
  facet normal -0 0 1
    outer loop
      vertex 205.75 8 15.9992
      vertex 205.794 0 15.9992
      vertex 205.794 8 15.9992
    endloop
  endfacet
  facet normal 0 0 1
    outer loop
      vertex 205.794 0 15.9992
      vertex 205.75 8 15.9992
      vertex 205.75 0 15.9992
    endloop
  endfacet
  facet normal 0.405608 0 0.914047
    outer loop
      vertex 206.218 8 15.909
      vertex 206.298 0 15.8735
      vertex 206.298 8 15.8735
    endloop
  endfacet
  facet normal 0.405608 0 0.914047
    outer loop
      vertex 206.298 0 15.8735
      vertex 206.218 8 15.909
      vertex 206.218 0 15.909
    endloop
  endfacet
  facet normal 0.899869 -0 0.436161
    outer loop
      vertex 206.854 0 15.3368
      vertex 206.892 8 15.2584
      vertex 206.854 8 15.3368
    endloop
  endfacet
  facet normal 0.899869 0 0.436161
    outer loop
      vertex 206.892 8 15.2584
      vertex 206.854 0 15.3368
      vertex 206.892 0 15.2584
    endloop
  endfacet
  facet normal 0.275779 0 0.961221
    outer loop
      vertex 206.052 8 15.9629
      vertex 206.136 0 15.9388
      vertex 206.136 8 15.9388
    endloop
  endfacet
  facet normal 0.275779 0 0.961221
    outer loop
      vertex 206.136 0 15.9388
      vertex 206.052 8 15.9629
      vertex 206.052 0 15.9629
    endloop
  endfacet
  facet normal 0.529587 0 0.848256
    outer loop
      vertex 206.375 8 15.8325
      vertex 206.449 0 15.7863
      vertex 206.449 8 15.7863
    endloop
  endfacet
  facet normal 0.529587 0 0.848256
    outer loop
      vertex 206.449 0 15.7863
      vertex 206.375 8 15.8325
      vertex 206.375 0 15.8325
    endloop
  endfacet
  facet normal 0.647648 0 0.761939
    outer loop
      vertex 206.52 8 15.735
      vertex 206.586 0 15.6789
      vertex 206.586 8 15.6789
    endloop
  endfacet
  facet normal 0.647648 0 0.761939
    outer loop
      vertex 206.586 0 15.6789
      vertex 206.52 8 15.735
      vertex 206.52 0 15.735
    endloop
  endfacet
  facet normal 0.864276 -0 0.503018
    outer loop
      vertex 206.81 0 15.4124
      vertex 206.854 8 15.3368
      vertex 206.81 8 15.4124
    endloop
  endfacet
  facet normal 0.864276 0 0.503018
    outer loop
      vertex 206.854 8 15.3368
      vertex 206.81 0 15.4124
      vertex 206.854 0 15.3368
    endloop
  endfacet
  facet normal 0.970546 -0 0.240916
    outer loop
      vertex 206.952 0 15.0945
      vertex 206.973 8 15.0099
      vertex 206.952 8 15.0945
    endloop
  endfacet
  facet normal 0.970546 0 0.240916
    outer loop
      vertex 206.973 8 15.0099
      vertex 206.952 0 15.0945
      vertex 206.973 0 15.0099
    endloop
  endfacet
  facet normal 0.925929 -0 0.377697
    outer loop
      vertex 206.892 0 15.2584
      vertex 206.925 8 15.1775
      vertex 206.892 8 15.2584
    endloop
  endfacet
  facet normal 0.925929 0 0.377697
    outer loop
      vertex 206.925 8 15.1775
      vertex 206.892 0 15.2584
      vertex 206.925 0 15.1775
    endloop
  endfacet
  facet normal 0.469993 0 0.88267
    outer loop
      vertex 206.298 8 15.8735
      vertex 206.375 0 15.8325
      vertex 206.375 8 15.8325
    endloop
  endfacet
  facet normal 0.469993 0 0.88267
    outer loop
      vertex 206.375 0 15.8325
      vertex 206.298 8 15.8735
      vertex 206.298 0 15.8735
    endloop
  endfacet
  facet normal 0.739424 -0 0.673241
    outer loop
      vertex 206.649 0 15.6183
      vertex 206.708 8 15.5535
      vertex 206.649 8 15.6183
    endloop
  endfacet
  facet normal 0.739424 0 0.673241
    outer loop
      vertex 206.708 8 15.5535
      vertex 206.649 0 15.6183
      vertex 206.708 0 15.5535
    endloop
  endfacet
  facet normal 0.985094 -0 0.172019
    outer loop
      vertex 206.973 0 15.0099
      vertex 206.988 8 14.924
      vertex 206.973 8 15.0099
    endloop
  endfacet
  facet normal 0.985094 0 0.172019
    outer loop
      vertex 206.988 8 14.924
      vertex 206.973 0 15.0099
      vertex 206.988 0 14.924
    endloop
  endfacet
  facet normal 0.0688021 0 0.99763
    outer loop
      vertex 205.794 8 15.9992
      vertex 205.881 0 15.9932
      vertex 205.881 8 15.9932
    endloop
  endfacet
  facet normal 0.0688021 0 0.99763
    outer loop
      vertex 205.881 0 15.9932
      vertex 205.794 8 15.9992
      vertex 205.794 0 15.9992
    endloop
  endfacet
  facet normal 0.140454 0 0.990087
    outer loop
      vertex 205.881 8 15.9932
      vertex 205.967 0 15.981
      vertex 205.967 8 15.981
    endloop
  endfacet
  facet normal 0.140454 0 0.990087
    outer loop
      vertex 205.967 0 15.981
      vertex 205.881 8 15.9932
      vertex 205.881 0 15.9932
    endloop
  endfacet
  facet normal 0.208272 0 0.978071
    outer loop
      vertex 205.967 8 15.981
      vertex 206.052 0 15.9629
      vertex 206.052 8 15.9629
    endloop
  endfacet
  facet normal 0.208272 0 0.978071
    outer loop
      vertex 206.052 0 15.9629
      vertex 205.967 8 15.981
      vertex 205.967 0 15.981
    endloop
  endfacet
  facet normal -1 0 0
    outer loop
      vertex 197 0 6
      vertex 197 8 16
      vertex 197 8 6
    endloop
  endfacet
  facet normal -1 -0 0
    outer loop
      vertex 197 8 16
      vertex 197 0 6
      vertex 197 0 16
    endloop
  endfacet
  facet normal -0 0 1
    outer loop
      vertex 10 8 6
      vertex 197 0 6
      vertex 197 8 6
    endloop
  endfacet
  facet normal 0 0 1
    outer loop
      vertex 197 0 6
      vertex 10 8 6
      vertex 10 0 6
    endloop
  endfacet
  facet normal 1 -0 0
    outer loop
      vertex 10 0 16
      vertex 10 8 6
      vertex 10 8 16
    endloop
  endfacet
  facet normal 1 0 0
    outer loop
      vertex 10 8 6
      vertex 10 0 16
      vertex 10 0 6
    endloop
  endfacet
endsolid OpenSCAD_Model
