solid OpenSCAD_Model
  facet normal 1 -0 0
    outer loop
      vertex 8 -1.35 5.5
      vertex 8 1.35 -5.5
      vertex 8 1.35 5.5
    endloop
  endfacet
  facet normal 1 0 0
    outer loop
      vertex 8 1.35 -5.5
      vertex 8 -1.35 5.5
      vertex 8 -1.35 -5.5
    endloop
  endfacet
  facet normal 0 0 1
    outer loop
      vertex 8 1.35 5.5
      vertex 7 0.349999 5.5
      vertex 8 -1.35 5.5
    endloop
  endfacet
  facet normal 0 0 1
    outer loop
      vertex 8 1.35 5.5
      vertex -7 0.349999 5.5
      vertex 7 0.349999 5.5
    endloop
  endfacet
  facet normal 0 0 1
    outer loop
      vertex -7 0.349999 5.5
      vertex -8 1.35 5.5
      vertex -7 -0.349999 5.5
    endloop
  endfacet
  facet normal -0 0 1
    outer loop
      vertex -8 1.35 5.5
      vertex -7 0.349999 5.5
      vertex 8 1.35 5.5
    endloop
  endfacet
  facet normal -0 0 1
    outer loop
      vertex 7 -0.349999 5.5
      vertex 8 -1.35 5.5
      vertex 7 0.349999 5.5
    endloop
  endfacet
  facet normal -0 0 1
    outer loop
      vertex -7 -0.349999 5.5
      vertex 8 -1.35 5.5
      vertex 7 -0.349999 5.5
    endloop
  endfacet
  facet normal 0 0 1
    outer loop
      vertex -7 -0.349999 5.5
      vertex -8 -1.35 5.5
      vertex 8 -1.35 5.5
    endloop
  endfacet
  facet normal 0 0 1
    outer loop
      vertex -8 -1.35 5.5
      vertex -7 -0.349999 5.5
      vertex -8 1.35 5.5
    endloop
  endfacet
  facet normal 0 0 -1
    outer loop
      vertex -8 -1.35 -5.5
      vertex 8 1.35 -5.5
      vertex 8 -1.35 -5.5
    endloop
  endfacet
  facet normal -0 0 -1
    outer loop
      vertex 8 1.35 -5.5
      vertex -8 -1.35 -5.5
      vertex -8 1.35 -5.5
    endloop
  endfacet
  facet normal -1 0 0
    outer loop
      vertex -8 -1.35 -5.5
      vertex -8 1.35 5.5
      vertex -8 1.35 -5.5
    endloop
  endfacet
  facet normal -1 -0 0
    outer loop
      vertex -8 1.35 5.5
      vertex -8 -1.35 -5.5
      vertex -8 -1.35 5.5
    endloop
  endfacet
  facet normal 0 1 -0
    outer loop
      vertex 8 1.35 -5.5
      vertex -8 1.35 5.5
      vertex 8 1.35 5.5
    endloop
  endfacet
  facet normal 0 1 0
    outer loop
      vertex -8 1.35 5.5
      vertex 8 1.35 -5.5
      vertex -8 1.35 -5.5
    endloop
  endfacet
  facet normal 0 -1 0
    outer loop
      vertex -8 -1.35 -5.5
      vertex 8 -1.35 5.5
      vertex -8 -1.35 5.5
    endloop
  endfacet
  facet normal 0 -1 -0
    outer loop
      vertex 8 -1.35 5.5
      vertex -8 -1.35 -5.5
      vertex 8 -1.35 -5.5
    endloop
  endfacet
  facet normal -1 0 0
    outer loop
      vertex 7 -0.349999 -4.5
      vertex 7 0.349999 5.5
      vertex 7 0.349999 -4.5
    endloop
  endfacet
  facet normal -1 -0 0
    outer loop
      vertex 7 0.349999 5.5
      vertex 7 -0.349999 -4.5
      vertex 7 -0.349999 5.5
    endloop
  endfacet
  facet normal -0 0 1
    outer loop
      vertex -7 0.349999 -4.5
      vertex 7 -0.349999 -4.5
      vertex 7 0.349999 -4.5
    endloop
  endfacet
  facet normal 0 0 1
    outer loop
      vertex 7 -0.349999 -4.5
      vertex -7 0.349999 -4.5
      vertex -7 -0.349999 -4.5
    endloop
  endfacet
  facet normal 1 -0 0
    outer loop
      vertex -7 -0.349999 5.5
      vertex -7 0.349999 -4.5
      vertex -7 0.349999 5.5
    endloop
  endfacet
  facet normal 1 0 0
    outer loop
      vertex -7 0.349999 -4.5
      vertex -7 -0.349999 5.5
      vertex -7 -0.349999 -4.5
    endloop
  endfacet
  facet normal 0 -1 0
    outer loop
      vertex -7 0.349999 -4.5
      vertex 7 0.349999 5.5
      vertex -7 0.349999 5.5
    endloop
  endfacet
  facet normal 0 -1 -0
    outer loop
      vertex 7 0.349999 5.5
      vertex -7 0.349999 -4.5
      vertex 7 0.349999 -4.5
    endloop
  endfacet
  facet normal 0 1 -0
    outer loop
      vertex 7 -0.349999 -4.5
      vertex -7 -0.349999 5.5
      vertex 7 -0.349999 5.5
    endloop
  endfacet
  facet normal 0 1 0
    outer loop
      vertex -7 -0.349999 5.5
      vertex 7 -0.349999 -4.5
      vertex -7 -0.349999 -4.5
    endloop
  endfacet
endsolid OpenSCAD_Model
