solid OpenSCAD_Model
  facet normal 1 -0 0
    outer loop
      vertex 65 -45 2.5
      vertex 65 105 -2.5
      vertex 65 105 2.5
    endloop
  endfacet
  facet normal 1 0 0
    outer loop
      vertex 65 105 -2.5
      vertex 65 -45 2.5
      vertex 65 -45 -2.5
    endloop
  endfacet
  facet normal -0 0 1
    outer loop
      vertex -165 105 2.5
      vertex 65 -45 2.5
      vertex 65 105 2.5
    endloop
  endfacet
  facet normal 0 0 1
    outer loop
      vertex 65 -45 2.5
      vertex -165 105 2.5
      vertex -165 -45 2.5
    endloop
  endfacet
  facet normal 0 0 -1
    outer loop
      vertex 65 -45 -2.5
      vertex 55 -35 -2.5
      vertex 65 105 -2.5
    endloop
  endfacet
  facet normal 0 0 -1
    outer loop
      vertex 65 -45 -2.5
      vertex -155 -35 -2.5
      vertex 55 -35 -2.5
    endloop
  endfacet
  facet normal -0 0 -1
    outer loop
      vertex -155 -35 -2.5
      vertex -165 -45 -2.5
      vertex -155 95 -2.5
    endloop
  endfacet
  facet normal 0 0 -1
    outer loop
      vertex -165 -45 -2.5
      vertex -155 -35 -2.5
      vertex 65 -45 -2.5
    endloop
  endfacet
  facet normal 0 0 -1
    outer loop
      vertex 55 95 -2.5
      vertex 65 105 -2.5
      vertex 55 -35 -2.5
    endloop
  endfacet
  facet normal 0 0 -1
    outer loop
      vertex -155 95 -2.5
      vertex 65 105 -2.5
      vertex 55 95 -2.5
    endloop
  endfacet
  facet normal 0 0 -1
    outer loop
      vertex -155 95 -2.5
      vertex -165 105 -2.5
      vertex 65 105 -2.5
    endloop
  endfacet
  facet normal 0 0 -1
    outer loop
      vertex -165 105 -2.5
      vertex -155 95 -2.5
      vertex -165 -45 -2.5
    endloop
  endfacet
  facet normal -1 0 0
    outer loop
      vertex -165 -45 -2.5
      vertex -165 105 2.5
      vertex -165 105 -2.5
    endloop
  endfacet
  facet normal -1 -0 0
    outer loop
      vertex -165 105 2.5
      vertex -165 -45 -2.5
      vertex -165 -45 2.5
    endloop
  endfacet
  facet normal 0 1 -0
    outer loop
      vertex 65 105 -2.5
      vertex -165 105 2.5
      vertex 65 105 2.5
    endloop
  endfacet
  facet normal 0 1 0
    outer loop
      vertex -165 105 2.5
      vertex 65 105 -2.5
      vertex -165 105 -2.5
    endloop
  endfacet
  facet normal 0 -1 0
    outer loop
      vertex -165 -45 -2.5
      vertex 65 -45 2.5
      vertex -165 -45 2.5
    endloop
  endfacet
  facet normal 0 -1 -0
    outer loop
      vertex 65 -45 2.5
      vertex -165 -45 -2.5
      vertex 65 -45 -2.5
    endloop
  endfacet
  facet normal -1 0 0
    outer loop
      vertex 55 -35 -2.5
      vertex 55 95 1.9
      vertex 55 95 -2.5
    endloop
  endfacet
  facet normal -1 -0 0
    outer loop
      vertex 55 95 1.9
      vertex 55 -35 -2.5
      vertex 55 -35 1.9
    endloop
  endfacet
  facet normal 0 0 -1
    outer loop
      vertex -155 -35 1.9
      vertex 55 95 1.9
      vertex 55 -35 1.9
    endloop
  endfacet
  facet normal -0 0 -1
    outer loop
      vertex 55 95 1.9
      vertex -155 -35 1.9
      vertex -155 95 1.9
    endloop
  endfacet
  facet normal 1 -0 0
    outer loop
      vertex -155 -35 1.9
      vertex -155 95 -2.5
      vertex -155 95 1.9
    endloop
  endfacet
  facet normal 1 0 0
    outer loop
      vertex -155 95 -2.5
      vertex -155 -35 1.9
      vertex -155 -35 -2.5
    endloop
  endfacet
  facet normal 0 -1 0
    outer loop
      vertex -155 95 -2.5
      vertex 55 95 1.9
      vertex -155 95 1.9
    endloop
  endfacet
  facet normal 0 -1 -0
    outer loop
      vertex 55 95 1.9
      vertex -155 95 -2.5
      vertex 55 95 -2.5
    endloop
  endfacet
  facet normal 0 1 -0
    outer loop
      vertex 55 -35 -2.5
      vertex -155 -35 1.9
      vertex 55 -35 1.9
    endloop
  endfacet
  facet normal 0 1 0
    outer loop
      vertex -155 -35 1.9
      vertex 55 -35 -2.5
      vertex -155 -35 -2.5
    endloop
  endfacet
endsolid OpenSCAD_Model
