<?xml version="1.0" encoding="utf-8"?>
<!DOCTYPE svg PUBLIC "-//W3C//DTD SVG 20010904//EN" "http://www.w3.org/TR/2001/REC-SVG-20010904/DTD/svg10.dtd">
<svg version="1.0" xmlns="http://www.w3.org/2000/svg" width="255pt" height="1382pt" viewBox="0 0 255 1382" style="" preserveAspectRatio="xMidYMid meet">
<g fill="#FFFFFFFF" stroke="#FFFFFFFF">
<path d="M 81.860 16.165 C 80.526 17.449 78.670 19.709 77.736 21.186 C 76.020 23.900 75.238 25.245 68.542 37.000 C 66.505 40.575 64.200 44.210 63.420 45.079 C 62.639 45.947 62.000 46.959 62.000 47.326 C 62.000 47.694 60.427 50.186 58.503 52.862 C 54.491 58.448 51.715 65.525 52.529 68.093 C 52.842 69.078 52.457 70.214 51.653 70.676 C 50.864 71.129 48.176 76.450 45.679 82.500 C 43.182 88.550 39.041 98.225 36.477 104.000 C 33.912 109.775 31.112 116.188 30.255 118.250 C 29.398 120.313 28.138 122.000 27.455 122.000 C 26.773 122.000 25.941 122.712 25.607 123.582 C 24.666 126.035 24.873 126.351 26.524 124.980 C 29.265 122.705 29.355 124.881 26.679 128.742 C 25.239 130.820 23.923 133.421 23.755 134.522 C 23.587 135.624 22.456 138.432 21.241 140.763 C 20.026 143.093 19.231 145.000 19.475 145.000 C 19.718 145.000 18.811 147.203 17.459 149.895 C 14.828 155.133 14.326 157.534 16.090 156.444 C 16.690 156.074 15.565 158.815 13.590 162.536 C 11.616 166.257 10.000 169.853 10.000 170.528 C 10.000 171.203 9.387 172.264 8.638 172.885 C 6.206 174.904 5.896 183.452 8.007 190.284 C 9.475 195.033 11.386 198.152 16.106 203.500 C 19.504 207.350 23.908 212.339 25.892 214.587 C 29.927 219.157 30.452 219.847 39.526 232.500 C 46.799 242.641 57.487 263.446 58.533 269.500 C 58.913 271.700 59.849 274.497 60.612 275.715 C 63.269 279.955 67.094 293.939 68.895 306.000 C 71.562 323.858 71.235 339.239 67.416 375.551 C 66.603 383.279 65.962 390.929 65.992 392.551 C 66.022 394.173 65.628 398.425 65.117 402.000 C 64.606 405.575 63.895 411.875 63.537 416.000 C 63.179 420.125 62.268 429.800 61.513 437.500 C 60.758 445.200 59.235 460.725 58.128 472.000 C 57.022 483.275 55.857 495.425 55.539 499.000 C 53.622 520.583 52.817 528.818 51.531 540.000 C 50.741 546.875 49.827 555.650 49.500 559.500 C 49.173 563.350 48.705 568.300 48.459 570.500 C 48.213 572.700 46.905 585.750 45.552 599.500 C 39.757 658.411 39.531 662.486 39.515 708.500 C 39.495 767.538 40.057 776.092 49.441 859.500 C 49.688 861.700 50.138 865.975 50.441 869.000 C 50.743 872.025 51.681 880.575 52.526 888.000 C 53.371 895.425 54.266 903.300 54.516 905.500 C 54.766 907.700 55.447 914.225 56.030 920.000 C 56.613 925.775 58.166 940.400 59.482 952.500 C 62.378 979.139 64.795 1003.045 65.547 1012.500 C 65.854 1016.350 66.347 1021.075 66.644 1023.000 C 67.986 1031.700 68.693 1045.445 68.341 1056.000 C 68.131 1062.325 67.944 1070.075 67.927 1073.223 C 67.910 1076.371 67.484 1079.201 66.980 1079.512 C 66.477 1079.823 66.301 1081.298 66.589 1082.789 C 67.063 1085.245 65.459 1092.295 60.170 1111.000 C 59.160 1114.575 55.736 1122.891 52.563 1129.480 C 44.026 1147.206 33.907 1161.855 20.659 1175.668 C 16.171 1180.346 12.085 1184.922 11.577 1185.837 C 11.069 1186.752 9.874 1188.058 8.921 1188.741 C 7.564 1189.712 7.310 1190.907 7.749 1194.241 C 8.312 1198.512 18.881 1231.872 21.454 1237.500 C 25.441 1246.219 25.864 1250.665 25.861 1283.812 C 25.859 1306.182 26.203 1316.540 26.978 1317.473 C 27.626 1318.254 27.711 1319.061 27.180 1319.389 C 25.739 1320.279 25.074 1327.037 25.915 1332.243 C 26.336 1334.852 26.415 1337.251 26.090 1337.576 C 25.766 1337.901 25.448 1348.029 25.385 1360.083 L 25.271 1382.000 124.508 1382.000 L 223.746 1382.000 224.383 1352.750 C 225.797 1287.756 226.004 1273.803 226.526 1208.000 C 226.825 1170.325 227.507 1120.825 228.040 1098.000 C 229.303 1044.040 230.833 985.394 231.472 966.500 C 231.751 958.250 232.213 942.950 232.499 932.500 C 232.784 922.050 233.236 906.975 233.502 899.000 C 233.767 891.025 234.221 875.950 234.508 865.500 C 234.796 855.050 235.244 839.975 235.503 832.000 C 236.219 809.998 236.943 783.512 238.007 740.500 C 238.940 702.718 239.497 682.847 240.498 651.500 C 240.761 643.250 241.214 627.050 241.505 615.500 C 241.796 603.950 242.259 589.325 242.534 583.000 C 243.012 572.006 244.346 525.884 245.513 480.000 C 245.814 468.175 246.486 442.975 247.006 424.000 C 250.624 292.023 250.758 236.175 247.528 206.500 C 243.009 164.980 237.907 145.483 224.284 117.676 C 213.458 95.577 190.280 68.115 169.500 52.766 C 164.550 49.110 159.375 45.279 158.000 44.254 C 144.699 34.335 121.842 23.766 100.500 17.666 C 86.199 13.579 84.675 13.456 81.860 16.165 M 140.658 1158.681 C 149.897 1161.594 150.125 1162.140 150.026 1181.124 C 149.978 1190.131 149.794 1198.701 149.616 1200.170 C 149.438 1201.638 149.604 1204.890 149.984 1207.396 C 150.656 1211.825 150.571 1212.025 146.947 1214.537 C 138.533 1220.368 119.345 1219.103 111.666 1212.212 C 109.853 1210.585 109.794 1209.363 110.477 1187.581 C 110.873 1174.976 111.652 1163.663 112.208 1162.442 C 114.444 1157.535 130.351 1155.432 140.658 1158.681 M 151.602 703.586 C 156.651 705.300 162.905 710.492 166.050 715.581 C 167.650 718.169 167.952 720.139 167.669 726.132 C 167.236 735.292 166.057 737.783 159.951 742.439 C 144.168 754.476 119.000 741.193 119.000 720.827 C 119.000 715.290 119.200 714.840 123.750 710.118 C 131.146 702.444 141.255 700.073 151.602 703.586 M 155.000 199.614 C 166.507 205.776 168.264 215.138 159.656 224.426 C 155.845 228.538 145.863 230.191 138.899 227.864 C 129.776 224.815 122.518 210.900 127.144 205.326 C 129.159 202.899 137.090 198.674 140.897 197.999 C 145.511 197.182 151.804 197.903 155.000 199.614 "/></g>
</svg>
