solid OpenSCAD_Model
  facet normal 0 0 -1
    outer loop
      vertex -55 -22.5 3
      vertex -59 -18.5 3
      vertex -55 22.5 3
    endloop
  endfacet
  facet normal 0 0 -1
    outer loop
      vertex -55 -22.5 3
      vertex -71 -18.5 3
      vertex -59 -18.5 3
    endloop
  endfacet
  facet normal -0 0 -1
    outer loop
      vertex -71 -18.5 3
      vertex -75 -22.5 3
      vertex -71 18.5 3
    endloop
  endfacet
  facet normal 0 0 -1
    outer loop
      vertex -75 -22.5 3
      vertex -71 -18.5 3
      vertex -55 -22.5 3
    endloop
  endfacet
  facet normal 0 0 -1
    outer loop
      vertex -59 18.5 3
      vertex -55 22.5 3
      vertex -59 -18.5 3
    endloop
  endfacet
  facet normal 0 0 -1
    outer loop
      vertex -71 18.5 3
      vertex -55 22.5 3
      vertex -59 18.5 3
    endloop
  endfacet
  facet normal 0 0 -1
    outer loop
      vertex -71 18.5 3
      vertex -75 22.5 3
      vertex -55 22.5 3
    endloop
  endfacet
  facet normal 0 0 -1
    outer loop
      vertex -75 22.5 3
      vertex -71 18.5 3
      vertex -75 -22.5 3
    endloop
  endfacet
  facet normal 0.6 0.8 -0
    outer loop
      vertex -51 19.5 33
      vertex -55 22.5 3.1
      vertex -51 19.5 33.1
    endloop
  endfacet
  facet normal 0.6 0.8 0
    outer loop
      vertex -55 22.5 3.1
      vertex -51 19.5 33
      vertex -55 22.5 3
    endloop
  endfacet
  facet normal 0 0 1
    outer loop
      vertex -51 19.5 33.1
      vertex -52 18.5 33.1
      vertex -51 -19.5 33.1
    endloop
  endfacet
  facet normal 0 0 1
    outer loop
      vertex -51 19.5 33.1
      vertex -64 18.5 33.1
      vertex -52 18.5 33.1
    endloop
  endfacet
  facet normal 0 0 1
    outer loop
      vertex -64 18.5 33.1
      vertex -65 19.5 33.1
      vertex -64 -18.5 33.1
    endloop
  endfacet
  facet normal -0 0 1
    outer loop
      vertex -65 19.5 33.1
      vertex -64 18.5 33.1
      vertex -51 19.5 33.1
    endloop
  endfacet
  facet normal -0 0 1
    outer loop
      vertex -52 -18.5 33.1
      vertex -51 -19.5 33.1
      vertex -52 18.5 33.1
    endloop
  endfacet
  facet normal -0 0 1
    outer loop
      vertex -64 -18.5 33.1
      vertex -51 -19.5 33.1
      vertex -52 -18.5 33.1
    endloop
  endfacet
  facet normal 0 0 1
    outer loop
      vertex -64 -18.5 33.1
      vertex -65 -19.5 33.1
      vertex -51 -19.5 33.1
    endloop
  endfacet
  facet normal 0 0 1
    outer loop
      vertex -65 -19.5 33.1
      vertex -64 -18.5 33.1
      vertex -65 19.5 33.1
    endloop
  endfacet
  facet normal 0 -1 0
    outer loop
      vertex -75 -22.5 3
      vertex -55 -22.5 3.1
      vertex -75 -22.5 3.1
    endloop
  endfacet
  facet normal 0 -1 -0
    outer loop
      vertex -55 -22.5 3.1
      vertex -75 -22.5 3
      vertex -55 -22.5 3
    endloop
  endfacet
  facet normal 1 -0 0
    outer loop
      vertex -51 -19.5 33.1
      vertex -51 19.5 33
      vertex -51 19.5 33.1
    endloop
  endfacet
  facet normal 1 0 0
    outer loop
      vertex -51 19.5 33
      vertex -51 -19.5 33.1
      vertex -51 -19.5 33
    endloop
  endfacet
  facet normal -0.948683 0 0.316228
    outer loop
      vertex -75 22.5 3.1
      vertex -65 -19.5 33.1
      vertex -65 19.5 33.1
    endloop
  endfacet
  facet normal -0.948683 0 0.316228
    outer loop
      vertex -65 -19.5 33.1
      vertex -75 22.5 3.1
      vertex -75 -22.5 3.1
    endloop
  endfacet
  facet normal 0 1 -0
    outer loop
      vertex -55 22.5 3
      vertex -75 22.5 3.1
      vertex -55 22.5 3.1
    endloop
  endfacet
  facet normal 0 1 0
    outer loop
      vertex -75 22.5 3.1
      vertex -55 22.5 3
      vertex -75 22.5 3
    endloop
  endfacet
  facet normal -1 0 0
    outer loop
      vertex -75 -22.5 3
      vertex -75 22.5 3.1
      vertex -75 22.5 3
    endloop
  endfacet
  facet normal -1 -0 0
    outer loop
      vertex -75 22.5 3.1
      vertex -75 -22.5 3
      vertex -75 -22.5 3.1
    endloop
  endfacet
  facet normal 0 -0.995037 0.0995037
    outer loop
      vertex -55 -22.5 3.1
      vertex -65 -19.5 33.1
      vertex -75 -22.5 3.1
    endloop
  endfacet
  facet normal 0 -0.995037 0.0995037
    outer loop
      vertex -65 -19.5 33.1
      vertex -55 -22.5 3.1
      vertex -51 -19.5 33.1
    endloop
  endfacet
  facet normal 0 0.995037 0.0995037
    outer loop
      vertex -55 22.5 3.1
      vertex -65 19.5 33.1
      vertex -51 19.5 33.1
    endloop
  endfacet
  facet normal 0 0.995037 0.0995037
    outer loop
      vertex -65 19.5 33.1
      vertex -55 22.5 3.1
      vertex -75 22.5 3.1
    endloop
  endfacet
  facet normal 0.6 -0.8 0
    outer loop
      vertex -55 -22.5 3.1
      vertex -51 -19.5 33
      vertex -51 -19.5 33.1
    endloop
  endfacet
  facet normal 0.6 -0.8 0
    outer loop
      vertex -51 -19.5 33
      vertex -55 -22.5 3.1
      vertex -55 -22.5 3
    endloop
  endfacet
  facet normal 0.991228 0 -0.132164
    outer loop
      vertex -51 -19.5 33
      vertex -55 22.5 3
      vertex -51 19.5 33
    endloop
  endfacet
  facet normal 0.991228 0 -0.132164
    outer loop
      vertex -55 22.5 3
      vertex -51 -19.5 33
      vertex -55 -22.5 3
    endloop
  endfacet
  facet normal 0.973841 0 -0.22723
    outer loop
      vertex -64 -18.5 33.1
      vertex -71 18.5 3.1
      vertex -64 18.5 33.1
    endloop
  endfacet
  facet normal 0.973841 0 -0.22723
    outer loop
      vertex -71 18.5 3.1
      vertex -64 -18.5 33.1
      vertex -71 -18.5 3.1
    endloop
  endfacet
  facet normal 0 -1 0
    outer loop
      vertex -64 18.5 33.1
      vertex -52 18.5 33
      vertex -52 18.5 33.1
    endloop
  endfacet
  facet normal 0 -1 0
    outer loop
      vertex -59 18.5 3
      vertex -64 18.5 33.1
      vertex -71 18.5 3.1
    endloop
  endfacet
  facet normal 0 -1 0
    outer loop
      vertex -59 18.5 3
      vertex -71 18.5 3.1
      vertex -71 18.5 3
    endloop
  endfacet
  facet normal 0 -1 0
    outer loop
      vertex -64 18.5 33.1
      vertex -59 18.5 3
      vertex -52 18.5 33
    endloop
  endfacet
  facet normal 1 -0 0
    outer loop
      vertex -71 -18.5 3.1
      vertex -71 18.5 3
      vertex -71 18.5 3.1
    endloop
  endfacet
  facet normal 1 0 0
    outer loop
      vertex -71 18.5 3
      vertex -71 -18.5 3.1
      vertex -71 -18.5 3
    endloop
  endfacet
  facet normal -0.973841 0 0.22723
    outer loop
      vertex -59 -18.5 3
      vertex -52 18.5 33
      vertex -59 18.5 3
    endloop
  endfacet
  facet normal -0.973841 0 0.22723
    outer loop
      vertex -52 18.5 33
      vertex -59 -18.5 3
      vertex -52 -18.5 33
    endloop
  endfacet
  facet normal -1 0 0
    outer loop
      vertex -52 -18.5 33
      vertex -52 18.5 33.1
      vertex -52 18.5 33
    endloop
  endfacet
  facet normal -1 -0 0
    outer loop
      vertex -52 18.5 33.1
      vertex -52 -18.5 33
      vertex -52 -18.5 33.1
    endloop
  endfacet
  facet normal 0 1 -0
    outer loop
      vertex -52 -18.5 33
      vertex -64 -18.5 33.1
      vertex -52 -18.5 33.1
    endloop
  endfacet
  facet normal 0 1 -0
    outer loop
      vertex -59 -18.5 3
      vertex -64 -18.5 33.1
      vertex -52 -18.5 33
    endloop
  endfacet
  facet normal 0 1 0
    outer loop
      vertex -64 -18.5 33.1
      vertex -59 -18.5 3
      vertex -71 -18.5 3.1
    endloop
  endfacet
  facet normal 0 1 0
    outer loop
      vertex -71 -18.5 3.1
      vertex -59 -18.5 3
      vertex -71 -18.5 3
    endloop
  endfacet
  facet normal -1 0 0
    outer loop
      vertex 75 -22.5 3
      vertex 75 22.5 8
      vertex 75 22.5 3
    endloop
  endfacet
  facet normal -1 -0 0
    outer loop
      vertex 75 22.5 8
      vertex 75 -22.5 3
      vertex 75 -22.5 8
    endloop
  endfacet
  facet normal -0 0 1
    outer loop
      vertex -75 22.5 3
      vertex 75 -22.5 3
      vertex 75 22.5 3
    endloop
  endfacet
  facet normal 0 0 1
    outer loop
      vertex 75 -22.5 3
      vertex -75 22.5 3
      vertex -75 -22.5 3
    endloop
  endfacet
  facet normal 0 0 -1
    outer loop
      vertex 75 -22.5 0
      vertex 75 22.5 0
      vertex 87.9904 0 0
    endloop
  endfacet
  facet normal 0 0 -1
    outer loop
      vertex -75 -22.5 0
      vertex 75 22.5 0
      vertex 75 -22.5 0
    endloop
  endfacet
  facet normal -0 0 -1
    outer loop
      vertex 75 22.5 0
      vertex -75 -22.5 0
      vertex -75 22.5 0
    endloop
  endfacet
  facet normal -1 0 0
    outer loop
      vertex -75 -22.5 0
      vertex -75 22.5 3
      vertex -75 22.5 0
    endloop
  endfacet
  facet normal -1 -0 0
    outer loop
      vertex -75 22.5 3
      vertex -75 -22.5 0
      vertex -75 -22.5 3
    endloop
  endfacet
  facet normal 0 1 -0
    outer loop
      vertex 75 22.5 0
      vertex -75 22.5 3
      vertex 75 22.5 3
    endloop
  endfacet
  facet normal 0 1 0
    outer loop
      vertex -75 22.5 3
      vertex 75 22.5 0
      vertex -75 22.5 0
    endloop
  endfacet
  facet normal 0 -1 0
    outer loop
      vertex -75 -22.5 0
      vertex 75 -22.5 3
      vertex -75 -22.5 3
    endloop
  endfacet
  facet normal 0 -1 -0
    outer loop
      vertex 75 -22.5 3
      vertex -75 -22.5 0
      vertex 75 -22.5 0
    endloop
  endfacet
  facet normal 0.866025 -0.500001 0
    outer loop
      vertex 75 -22.5 3
      vertex 87.9904 0 8
      vertex 75 -22.5 8
    endloop
  endfacet
  facet normal 0.866025 -0.500001 0
    outer loop
      vertex 87.9904 0 8
      vertex 75 -22.5 3
      vertex 87.9904 0 0
    endloop
  endfacet
  facet normal 0.866025 -0.500001 0
    outer loop
      vertex 87.9904 0 0
      vertex 75 -22.5 3
      vertex 75 -22.5 0
    endloop
  endfacet
  facet normal 0 0 1
    outer loop
      vertex 75 22.5 8
      vertex 75 -22.5 8
      vertex 87.9904 0 8
    endloop
  endfacet
  facet normal 0.866025 0.500001 0
    outer loop
      vertex 87.9904 0 8
      vertex 75 22.5 3
      vertex 75 22.5 8
    endloop
  endfacet
  facet normal 0.866025 0.500001 -0
    outer loop
      vertex 87.9904 0 0
      vertex 75 22.5 3
      vertex 87.9904 0 8
    endloop
  endfacet
  facet normal 0.866025 0.500001 0
    outer loop
      vertex 75 22.5 3
      vertex 87.9904 0 0
      vertex 75 22.5 0
    endloop
  endfacet
endsolid OpenSCAD_Model
