solid OpenSCAD_Model
  facet normal -0.34202 -0.939693 0
    outer loop
      vertex -14.25 -24.6817 0
      vertex -4.94897 -28.067 7
      vertex -14.25 -24.6817 7
    endloop
  endfacet
  facet normal -0.34202 -0.939693 -0
    outer loop
      vertex -4.94897 -28.067 7
      vertex -14.25 -24.6817 0
      vertex -4.94897 -28.067 0
    endloop
  endfacet
  facet normal 0.866028 0.499996 0
    outer loop
      vertex 26.7812 9.74757 7
      vertex 21.8323 18.3194 0
      vertex 21.8323 18.3194 7
    endloop
  endfacet
  facet normal 0.866028 0.499996 0
    outer loop
      vertex 21.8323 18.3194 0
      vertex 26.7812 9.74757 7
      vertex 26.7812 9.74757 0
    endloop
  endfacet
  facet normal 0.984807 0.173652 0
    outer loop
      vertex 28.5 0 7
      vertex 26.7812 9.74757 0
      vertex 26.7812 9.74757 7
    endloop
  endfacet
  facet normal 0.984807 0.173652 0
    outer loop
      vertex 26.7812 9.74757 0
      vertex 28.5 0 7
      vertex 28.5 0 0
    endloop
  endfacet
  facet normal 0.642787 0.766045 -0
    outer loop
      vertex 21.8323 18.3194 0
      vertex 14.25 24.6817 7
      vertex 21.8323 18.3194 7
    endloop
  endfacet
  facet normal 0.642787 0.766045 0
    outer loop
      vertex 14.25 24.6817 7
      vertex 21.8323 18.3194 0
      vertex 14.25 24.6817 0
    endloop
  endfacet
  facet normal 0.34202 -0.939693 0
    outer loop
      vertex 4.94897 -28.067 0
      vertex 14.25 -24.6817 7
      vertex 4.94897 -28.067 7
    endloop
  endfacet
  facet normal 0.34202 -0.939693 0
    outer loop
      vertex 14.25 -24.6817 7
      vertex 4.94897 -28.067 0
      vertex 14.25 -24.6817 0
    endloop
  endfacet
  facet normal -0.642787 0.766045 0
    outer loop
      vertex -14.25 24.6817 0
      vertex -21.8323 18.3194 7
      vertex -14.25 24.6817 7
    endloop
  endfacet
  facet normal -0.642787 0.766045 0
    outer loop
      vertex -21.8323 18.3194 7
      vertex -14.25 24.6817 0
      vertex -21.8323 18.3194 0
    endloop
  endfacet
  facet normal 0.984807 -0.173652 0
    outer loop
      vertex 26.7812 -9.74757 7
      vertex 28.5 0 0
      vertex 28.5 0 7
    endloop
  endfacet
  facet normal 0.984807 -0.173652 0
    outer loop
      vertex 28.5 0 0
      vertex 26.7812 -9.74757 7
      vertex 26.7812 -9.74757 0
    endloop
  endfacet
  facet normal 0 1 -0
    outer loop
      vertex 4.94897 28.067 0
      vertex -4.94897 28.067 7
      vertex 4.94897 28.067 7
    endloop
  endfacet
  facet normal 0 1 0
    outer loop
      vertex -4.94897 28.067 7
      vertex 4.94897 28.067 0
      vertex -4.94897 28.067 0
    endloop
  endfacet
  facet normal 0 0 1
    outer loop
      vertex 26.7812 9.74757 7
      vertex 26.7812 -9.74757 7
      vertex 28.5 0 7
    endloop
  endfacet
  facet normal 0 0 1
    outer loop
      vertex 21.8323 18.3194 7
      vertex 26.7812 -9.74757 7
      vertex 26.7812 9.74757 7
    endloop
  endfacet
  facet normal 0 0 1
    outer loop
      vertex 21.8323 18.3194 7
      vertex 21.8323 -18.3194 7
      vertex 26.7812 -9.74757 7
    endloop
  endfacet
  facet normal 0 0 1
    outer loop
      vertex 14.25 24.6817 7
      vertex 21.8323 -18.3194 7
      vertex 21.8323 18.3194 7
    endloop
  endfacet
  facet normal 0 0 1
    outer loop
      vertex 14.25 24.6817 7
      vertex 14.25 -24.6817 7
      vertex 21.8323 -18.3194 7
    endloop
  endfacet
  facet normal 0 0 1
    outer loop
      vertex 4.94897 28.067 7
      vertex 14.25 -24.6817 7
      vertex 14.25 24.6817 7
    endloop
  endfacet
  facet normal 0 0 1
    outer loop
      vertex 4.94897 28.067 7
      vertex 4.94897 -28.067 7
      vertex 14.25 -24.6817 7
    endloop
  endfacet
  facet normal -0 0 1
    outer loop
      vertex -4.94897 28.067 7
      vertex 4.94897 -28.067 7
      vertex 4.94897 28.067 7
    endloop
  endfacet
  facet normal 0 0 1
    outer loop
      vertex -4.94897 28.067 7
      vertex -4.94897 -28.067 7
      vertex 4.94897 -28.067 7
    endloop
  endfacet
  facet normal -0 0 1
    outer loop
      vertex -14.25 24.6817 7
      vertex -4.94897 -28.067 7
      vertex -4.94897 28.067 7
    endloop
  endfacet
  facet normal 0 0 1
    outer loop
      vertex -14.25 24.6817 7
      vertex -14.25 -24.6817 7
      vertex -4.94897 -28.067 7
    endloop
  endfacet
  facet normal -0 0 1
    outer loop
      vertex -21.8323 18.3194 7
      vertex -14.25 -24.6817 7
      vertex -14.25 24.6817 7
    endloop
  endfacet
  facet normal 0 0 1
    outer loop
      vertex -21.8323 18.3194 7
      vertex -21.8323 -18.3194 7
      vertex -14.25 -24.6817 7
    endloop
  endfacet
  facet normal -0 0 1
    outer loop
      vertex -26.7812 9.74757 7
      vertex -21.8323 -18.3194 7
      vertex -21.8323 18.3194 7
    endloop
  endfacet
  facet normal 0 0 1
    outer loop
      vertex -26.7812 9.74757 7
      vertex -26.7812 -9.74757 7
      vertex -21.8323 -18.3194 7
    endloop
  endfacet
  facet normal 0 -0 1
    outer loop
      vertex -26.7812 -9.74757 7
      vertex -26.7812 9.74757 7
      vertex -28.5 0 7
    endloop
  endfacet
  facet normal -0.34202 0.939693 0
    outer loop
      vertex -4.94897 28.067 0
      vertex -14.25 24.6817 7
      vertex -4.94897 28.067 7
    endloop
  endfacet
  facet normal -0.34202 0.939693 0
    outer loop
      vertex -14.25 24.6817 7
      vertex -4.94897 28.067 0
      vertex -14.25 24.6817 0
    endloop
  endfacet
  facet normal -0.866028 0.499996 0
    outer loop
      vertex -26.7812 9.74757 0
      vertex -21.8323 18.3194 7
      vertex -21.8323 18.3194 0
    endloop
  endfacet
  facet normal -0.866028 0.499996 0
    outer loop
      vertex -21.8323 18.3194 7
      vertex -26.7812 9.74757 0
      vertex -26.7812 9.74757 7
    endloop
  endfacet
  facet normal -0.984807 0.173652 0
    outer loop
      vertex -28.5 0 0
      vertex -26.7812 9.74757 7
      vertex -26.7812 9.74757 0
    endloop
  endfacet
  facet normal -0.984807 0.173652 0
    outer loop
      vertex -26.7812 9.74757 7
      vertex -28.5 0 0
      vertex -28.5 0 7
    endloop
  endfacet
  facet normal 0.34202 0.939693 -0
    outer loop
      vertex 14.25 24.6817 0
      vertex 4.94897 28.067 7
      vertex 14.25 24.6817 7
    endloop
  endfacet
  facet normal 0.34202 0.939693 0
    outer loop
      vertex 4.94897 28.067 7
      vertex 14.25 24.6817 0
      vertex 4.94897 28.067 0
    endloop
  endfacet
  facet normal 0.866028 -0.499996 0
    outer loop
      vertex 21.8323 -18.3194 7
      vertex 26.7812 -9.74757 0
      vertex 26.7812 -9.74757 7
    endloop
  endfacet
  facet normal 0.866028 -0.499996 0
    outer loop
      vertex 26.7812 -9.74757 0
      vertex 21.8323 -18.3194 7
      vertex 21.8323 -18.3194 0
    endloop
  endfacet
  facet normal -0.866028 -0.499996 0
    outer loop
      vertex -21.8323 -18.3194 0
      vertex -26.7812 -9.74757 7
      vertex -26.7812 -9.74757 0
    endloop
  endfacet
  facet normal -0.866028 -0.499996 0
    outer loop
      vertex -26.7812 -9.74757 7
      vertex -21.8323 -18.3194 0
      vertex -21.8323 -18.3194 7
    endloop
  endfacet
  facet normal 0 -1 0
    outer loop
      vertex -4.94897 -28.067 0
      vertex 4.94897 -28.067 7
      vertex -4.94897 -28.067 7
    endloop
  endfacet
  facet normal 0 -1 -0
    outer loop
      vertex 4.94897 -28.067 7
      vertex -4.94897 -28.067 0
      vertex 4.94897 -28.067 0
    endloop
  endfacet
  facet normal -0.642787 -0.766045 0
    outer loop
      vertex -21.8323 -18.3194 0
      vertex -14.25 -24.6817 7
      vertex -21.8323 -18.3194 7
    endloop
  endfacet
  facet normal -0.642787 -0.766045 -0
    outer loop
      vertex -14.25 -24.6817 7
      vertex -21.8323 -18.3194 0
      vertex -14.25 -24.6817 0
    endloop
  endfacet
  facet normal 0.642787 -0.766045 0
    outer loop
      vertex 14.25 -24.6817 0
      vertex 21.8323 -18.3194 7
      vertex 14.25 -24.6817 7
    endloop
  endfacet
  facet normal 0.642787 -0.766045 0
    outer loop
      vertex 21.8323 -18.3194 7
      vertex 14.25 -24.6817 0
      vertex 21.8323 -18.3194 0
    endloop
  endfacet
  facet normal -0.984807 -0.173652 0
    outer loop
      vertex -26.7812 -9.74757 0
      vertex -28.5 0 7
      vertex -28.5 0 0
    endloop
  endfacet
  facet normal -0.984807 -0.173652 0
    outer loop
      vertex -28.5 0 7
      vertex -26.7812 -9.74757 0
      vertex -26.7812 -9.74757 7
    endloop
  endfacet
  facet normal 0 0 -1
    outer loop
      vertex 26.5 0 0
      vertex 28.5 0 0
      vertex 26.7812 -9.74757 0
    endloop
  endfacet
  facet normal 0 0 -1
    outer loop
      vertex 28.5 0 0
      vertex 26.5 0 0
      vertex 26.7812 9.74757 0
    endloop
  endfacet
  facet normal 0 0 -1
    outer loop
      vertex 21.8323 -18.3194 0
      vertex 26.5 0 0
      vertex 26.7812 -9.74757 0
    endloop
  endfacet
  facet normal 0 0 -1
    outer loop
      vertex 14.25 -24.6817 0
      vertex 26.5 0 0
      vertex 21.8323 -18.3194 0
    endloop
  endfacet
  facet normal 0 0 -1
    outer loop
      vertex -13.25 -22.9497 0
      vertex 14.25 -24.6817 0
      vertex 4.94897 -28.067 0
    endloop
  endfacet
  facet normal 0 0 -1
    outer loop
      vertex -13.25 -22.9497 0
      vertex 4.94897 -28.067 0
      vertex -4.94897 -28.067 0
    endloop
  endfacet
  facet normal 0 0 -1
    outer loop
      vertex 14.25 -24.6817 0
      vertex -13.25 -22.9497 0
      vertex 26.5 0 0
    endloop
  endfacet
  facet normal 0 0 -1
    outer loop
      vertex -21.8323 -18.3194 0
      vertex -13.25 -22.9497 0
      vertex -14.25 -24.6817 0
    endloop
  endfacet
  facet normal 0 0 -1
    outer loop
      vertex -14.25 -24.6817 0
      vertex -13.25 -22.9497 0
      vertex -4.94897 -28.067 0
    endloop
  endfacet
  facet normal 0 0 -1
    outer loop
      vertex 26.5 0 0
      vertex 21.8323 18.3194 0
      vertex 26.7812 9.74757 0
    endloop
  endfacet
  facet normal 0 0 -1
    outer loop
      vertex 26.5 0 0
      vertex 14.25 24.6817 0
      vertex 21.8323 18.3194 0
    endloop
  endfacet
  facet normal 0 0 -1
    outer loop
      vertex -13.25 22.9497 0
      vertex 14.25 24.6817 0
      vertex 26.5 0 0
    endloop
  endfacet
  facet normal -0 0 -1
    outer loop
      vertex 14.25 24.6817 0
      vertex -13.25 22.9497 0
      vertex 4.94897 28.067 0
    endloop
  endfacet
  facet normal -0 0 -1
    outer loop
      vertex 4.94897 28.067 0
      vertex -13.25 22.9497 0
      vertex -4.94897 28.067 0
    endloop
  endfacet
  facet normal 0 0 -1
    outer loop
      vertex -13.25 22.9497 0
      vertex -14.25 24.6817 0
      vertex -4.94897 28.067 0
    endloop
  endfacet
  facet normal 0 0 -1
    outer loop
      vertex -26.7812 -9.74757 0
      vertex -13.25 -22.9497 0
      vertex -21.8323 -18.3194 0
    endloop
  endfacet
  facet normal 0 0 -1
    outer loop
      vertex -28.5 0 0
      vertex -13.25 -22.9497 0
      vertex -26.7812 -9.74757 0
    endloop
  endfacet
  facet normal -0 0 -1
    outer loop
      vertex -13.25 22.9497 0
      vertex -21.8323 18.3194 0
      vertex -14.25 24.6817 0
    endloop
  endfacet
  facet normal 0 0 -1
    outer loop
      vertex -13.25 -22.9497 0
      vertex -28.5 0 0
      vertex -13.25 22.9497 0
    endloop
  endfacet
  facet normal 0 0 -1
    outer loop
      vertex -13.25 22.9497 0
      vertex -26.7812 9.74757 0
      vertex -21.8323 18.3194 0
    endloop
  endfacet
  facet normal 0 0 -1
    outer loop
      vertex -13.25 22.9497 0
      vertex -28.5 0 0
      vertex -26.7812 9.74757 0
    endloop
  endfacet
  facet normal 1 -0 0
    outer loop
      vertex -13.25 -22.9497 5.2
      vertex -13.25 22.9497 0
      vertex -13.25 22.9497 5.2
    endloop
  endfacet
  facet normal 1 0 0
    outer loop
      vertex -13.25 22.9497 0
      vertex -13.25 -22.9497 5.2
      vertex -13.25 -22.9497 0
    endloop
  endfacet
  facet normal -0.5 -0.866025 0
    outer loop
      vertex -13.25 22.9497 0
      vertex 26.5 0 5.2
      vertex -13.25 22.9497 5.2
    endloop
  endfacet
  facet normal -0.5 -0.866025 -0
    outer loop
      vertex 26.5 0 5.2
      vertex -13.25 22.9497 0
      vertex 26.5 0 0
    endloop
  endfacet
  facet normal 0 0 -1
    outer loop
      vertex -13.25 22.9497 5.2
      vertex 26.5 0 5.2
      vertex -13.25 -22.9497 5.2
    endloop
  endfacet
  facet normal -0.5 0.866025 0
    outer loop
      vertex 26.5 0 0
      vertex -13.25 -22.9497 5.2
      vertex 26.5 0 5.2
    endloop
  endfacet
  facet normal -0.5 0.866025 0
    outer loop
      vertex -13.25 -22.9497 5.2
      vertex 26.5 0 0
      vertex -13.25 -22.9497 0
    endloop
  endfacet
endsolid OpenSCAD_Model
