solid OpenSCAD_Model
  facet normal 1 -0 0
    outer loop
      vertex 30 -15 45
      vertex 30 15 35
      vertex 30 15 45
    endloop
  endfacet
  facet normal 1 0 0
    outer loop
      vertex 30 15 35
      vertex 30 -15 45
      vertex 30 15 32.0001
    endloop
  endfacet
  facet normal 1 0 0
    outer loop
      vertex 30 -15 -45
      vertex 30 15 32.0001
      vertex 30 -15 45
    endloop
  endfacet
  facet normal 1 0 0
    outer loop
      vertex 30 15 32.0001
      vertex 30 -15 -45
      vertex 30 15 -45
    endloop
  endfacet
  facet normal 1 -0 0
    outer loop
      vertex 30 34.7 32.0001
      vertex 30 37 22
      vertex 30 37 35
    endloop
  endfacet
  facet normal 1 0 0
    outer loop
      vertex 30 37 22
      vertex 30 34.7 32.0001
      vertex 30 35.8 22.0001
    endloop
  endfacet
  facet normal 1 -0 0
    outer loop
      vertex 30 15 35
      vertex 30 34.7 32.0001
      vertex 30 37 35
    endloop
  endfacet
  facet normal 1 0 0
    outer loop
      vertex 30 34.7 32.0001
      vertex 30 15 35
      vertex 30 15 32.0001
    endloop
  endfacet
  facet normal 1 0 0
    outer loop
      vertex 30 37 22
      vertex 30 35.8 22.0001
      vertex 30 35.8 22
    endloop
  endfacet
  facet normal -0 0 1
    outer loop
      vertex -30 37 35
      vertex -15 15 35
      vertex -15 37 35
    endloop
  endfacet
  facet normal 0 0 1
    outer loop
      vertex -15 15 35
      vertex -30 37 35
      vertex -30 15 35
    endloop
  endfacet
  facet normal -0 0 1
    outer loop
      vertex 15 37 35
      vertex 30 15 35
      vertex 30 37 35
    endloop
  endfacet
  facet normal 0 0 1
    outer loop
      vertex 30 15 35
      vertex 15 37 35
      vertex 15 15 35
    endloop
  endfacet
  facet normal 0 0 -1
    outer loop
      vertex 15 35.8 22
      vertex 30 37 22
      vertex 30 35.8 22
    endloop
  endfacet
  facet normal -0 0 -1
    outer loop
      vertex 30 37 22
      vertex 15 35.8 22
      vertex 15 37 22
    endloop
  endfacet
  facet normal 0 0 -1
    outer loop
      vertex -30 35.8 22
      vertex -15 37 22
      vertex -15 35.8 22
    endloop
  endfacet
  facet normal -0 0 -1
    outer loop
      vertex -15 37 22
      vertex -30 35.8 22
      vertex -30 37 22
    endloop
  endfacet
  facet normal -1 0 0
    outer loop
      vertex -30 -15 -45
      vertex -30 15 32.0001
      vertex -30 15 -45
    endloop
  endfacet
  facet normal -1 0 0
    outer loop
      vertex -30 -15 45
      vertex -30 15 32.0001
      vertex -30 -15 -45
    endloop
  endfacet
  facet normal -1 0 0
    outer loop
      vertex -30 15 32.0001
      vertex -30 -15 45
      vertex -30 15 35
    endloop
  endfacet
  facet normal -1 0 0
    outer loop
      vertex -30 15 35
      vertex -30 -15 45
      vertex -30 15 45
    endloop
  endfacet
  facet normal -1 0 0
    outer loop
      vertex -30 35.8 22.0001
      vertex -30 37 22
      vertex -30 35.8 22
    endloop
  endfacet
  facet normal -1 0 0
    outer loop
      vertex -30 34.7 32.0001
      vertex -30 37 22
      vertex -30 35.8 22.0001
    endloop
  endfacet
  facet normal -1 0 0
    outer loop
      vertex -30 37 22
      vertex -30 34.7 32.0001
      vertex -30 37 35
    endloop
  endfacet
  facet normal -1 0 0
    outer loop
      vertex -30 15 35
      vertex -30 34.7 32.0001
      vertex -30 15 32.0001
    endloop
  endfacet
  facet normal -1 0 0
    outer loop
      vertex -30 34.7 32.0001
      vertex -30 15 35
      vertex -30 37 35
    endloop
  endfacet
  facet normal 0 1 -0
    outer loop
      vertex -15 37 22
      vertex -30 37 35
      vertex -15 37 35
    endloop
  endfacet
  facet normal 0 1 0
    outer loop
      vertex -30 37 35
      vertex -15 37 22
      vertex -30 37 22
    endloop
  endfacet
  facet normal 0 1 -0
    outer loop
      vertex 30 37 22
      vertex 15 37 35
      vertex 30 37 35
    endloop
  endfacet
  facet normal 0 1 0
    outer loop
      vertex 15 37 35
      vertex 30 37 22
      vertex 15 37 22
    endloop
  endfacet
  facet normal 0 1 -0
    outer loop
      vertex 30 15 -45
      vertex 15 15 32.0001
      vertex 30 15 32.0001
    endloop
  endfacet
  facet normal 0 1 0
    outer loop
      vertex 15 15 32.0001
      vertex 30 15 -45
      vertex -15 15 32.0001
    endloop
  endfacet
  facet normal 0 1 0
    outer loop
      vertex -30 15 -45
      vertex -15 15 32.0001
      vertex 30 15 -45
    endloop
  endfacet
  facet normal 0 1 0
    outer loop
      vertex -15 15 32.0001
      vertex -30 15 -45
      vertex -30 15 32.0001
    endloop
  endfacet
  facet normal 0 1 -0
    outer loop
      vertex 15 15 32.0001
      vertex -15 15 35
      vertex 15 15 35
    endloop
  endfacet
  facet normal 0 1 0
    outer loop
      vertex -15 15 35
      vertex 15 15 32.0001
      vertex -15 15 32.0001
    endloop
  endfacet
  facet normal 0 1 0
    outer loop
      vertex 15 15 35
      vertex 30 15 45
      vertex 30 15 35
    endloop
  endfacet
  facet normal 0 1 0
    outer loop
      vertex 30 15 45
      vertex 15 15 35
      vertex -30 15 45
    endloop
  endfacet
  facet normal 0 1 -0
    outer loop
      vertex -15 15 35
      vertex -30 15 45
      vertex 15 15 35
    endloop
  endfacet
  facet normal 0 1 0
    outer loop
      vertex -30 15 45
      vertex -15 15 35
      vertex -30 15 35
    endloop
  endfacet
  facet normal 0 0 -1
    outer loop
      vertex -30 15 32.0001
      vertex -15 34.7 32.0001
      vertex -15 15 32.0001
    endloop
  endfacet
  facet normal -0 0 -1
    outer loop
      vertex -15 34.7 32.0001
      vertex -30 15 32.0001
      vertex -30 34.7 32.0001
    endloop
  endfacet
  facet normal 0 0 -1
    outer loop
      vertex 15 15 32.0001
      vertex 30 34.7 32.0001
      vertex 30 15 32.0001
    endloop
  endfacet
  facet normal -0 0 -1
    outer loop
      vertex 30 34.7 32.0001
      vertex 15 15 32.0001
      vertex 15 34.7 32.0001
    endloop
  endfacet
  facet normal 0 -1 0
    outer loop
      vertex -30 35.8 22
      vertex -15 35.8 22.0001
      vertex -30 35.8 22.0001
    endloop
  endfacet
  facet normal 0 -1 -0
    outer loop
      vertex -15 35.8 22.0001
      vertex -30 35.8 22
      vertex -15 35.8 22
    endloop
  endfacet
  facet normal 0 -1 0
    outer loop
      vertex 15 35.8 22
      vertex 30 35.8 22.0001
      vertex 15 35.8 22.0001
    endloop
  endfacet
  facet normal 0 -1 -0
    outer loop
      vertex 30 35.8 22.0001
      vertex 15 35.8 22
      vertex 30 35.8 22
    endloop
  endfacet
  facet normal 0 -0.994004 -0.10934
    outer loop
      vertex -30 35.8 22.0001
      vertex -15 34.7 32.0001
      vertex -30 34.7 32.0001
    endloop
  endfacet
  facet normal 0 -0.994004 -0.10934
    outer loop
      vertex -15 34.7 32.0001
      vertex -30 35.8 22.0001
      vertex -15 35.8 22.0001
    endloop
  endfacet
  facet normal 0 -0.994004 -0.10934
    outer loop
      vertex 15 35.8 22.0001
      vertex 30 34.7 32.0001
      vertex 15 34.7 32.0001
    endloop
  endfacet
  facet normal 0 -0.994004 -0.10934
    outer loop
      vertex 30 34.7 32.0001
      vertex 15 35.8 22.0001
      vertex 30 35.8 22.0001
    endloop
  endfacet
  facet normal -1 0 0
    outer loop
      vertex 15 35.8 22.0001
      vertex 15 37 22
      vertex 15 35.8 22
    endloop
  endfacet
  facet normal -1 0 0
    outer loop
      vertex 15 34.7 32.0001
      vertex 15 37 22
      vertex 15 35.8 22.0001
    endloop
  endfacet
  facet normal -1 0 0
    outer loop
      vertex 15 37 22
      vertex 15 34.7 32.0001
      vertex 15 37 35
    endloop
  endfacet
  facet normal -1 0 0
    outer loop
      vertex 15 15 35
      vertex 15 34.7 32.0001
      vertex 15 15 32.0001
    endloop
  endfacet
  facet normal -1 0 0
    outer loop
      vertex 15 34.7 32.0001
      vertex 15 15 35
      vertex 15 37 35
    endloop
  endfacet
  facet normal 1 -0 0
    outer loop
      vertex -15 34.7 32.0001
      vertex -15 37 22
      vertex -15 37 35
    endloop
  endfacet
  facet normal 1 0 0
    outer loop
      vertex -15 37 22
      vertex -15 34.7 32.0001
      vertex -15 35.8 22.0001
    endloop
  endfacet
  facet normal 1 -0 0
    outer loop
      vertex -15 15 35
      vertex -15 34.7 32.0001
      vertex -15 37 35
    endloop
  endfacet
  facet normal 1 0 0
    outer loop
      vertex -15 34.7 32.0001
      vertex -15 15 35
      vertex -15 15 32.0001
    endloop
  endfacet
  facet normal 1 0 0
    outer loop
      vertex -15 37 22
      vertex -15 35.8 22.0001
      vertex -15 35.8 22
    endloop
  endfacet
  facet normal 0 0 1
    outer loop
      vertex 30 15 45
      vertex 29 14 45
      vertex 30 -15 45
    endloop
  endfacet
  facet normal 0 0 1
    outer loop
      vertex 30 15 45
      vertex -29 14 45
      vertex 29 14 45
    endloop
  endfacet
  facet normal 0 0 1
    outer loop
      vertex -29 14 45
      vertex -30 15 45
      vertex -29 -14 45
    endloop
  endfacet
  facet normal -0 0 1
    outer loop
      vertex -30 15 45
      vertex -29 14 45
      vertex 30 15 45
    endloop
  endfacet
  facet normal -0 0 1
    outer loop
      vertex 29 -14 45
      vertex 30 -15 45
      vertex 29 14 45
    endloop
  endfacet
  facet normal -0 0 1
    outer loop
      vertex -29 -14 45
      vertex 30 -15 45
      vertex 29 -14 45
    endloop
  endfacet
  facet normal 0 0 1
    outer loop
      vertex -29 -14 45
      vertex -30 -15 45
      vertex 30 -15 45
    endloop
  endfacet
  facet normal 0 0 1
    outer loop
      vertex -30 -15 45
      vertex -29 -14 45
      vertex -30 15 45
    endloop
  endfacet
  facet normal 0 0 -1
    outer loop
      vertex -30 -15 -45
      vertex 30 15 -45
      vertex 30 -15 -45
    endloop
  endfacet
  facet normal -0 0 -1
    outer loop
      vertex 30 15 -45
      vertex -30 -15 -45
      vertex -30 15 -45
    endloop
  endfacet
  facet normal 0 -1 0
    outer loop
      vertex -30 -15 -45
      vertex 30 -15 45
      vertex -30 -15 45
    endloop
  endfacet
  facet normal 0 -1 -0
    outer loop
      vertex 30 -15 45
      vertex -30 -15 -45
      vertex 30 -15 -45
    endloop
  endfacet
  facet normal -1 0 0
    outer loop
      vertex 29 -14 -43
      vertex 29 14 45
      vertex 29 14 -43
    endloop
  endfacet
  facet normal -1 -0 0
    outer loop
      vertex 29 14 45
      vertex 29 -14 -43
      vertex 29 -14 45
    endloop
  endfacet
  facet normal -0 0 1
    outer loop
      vertex -29 14 -43
      vertex 29 -14 -43
      vertex 29 14 -43
    endloop
  endfacet
  facet normal 0 0 1
    outer loop
      vertex 29 -14 -43
      vertex -29 14 -43
      vertex -29 -14 -43
    endloop
  endfacet
  facet normal 1 -0 0
    outer loop
      vertex -29 -14 45
      vertex -29 14 -43
      vertex -29 14 45
    endloop
  endfacet
  facet normal 1 0 0
    outer loop
      vertex -29 14 -43
      vertex -29 -14 45
      vertex -29 -14 -43
    endloop
  endfacet
  facet normal 0 -1 0
    outer loop
      vertex -29 14 -43
      vertex 29 14 45
      vertex -29 14 45
    endloop
  endfacet
  facet normal 0 -1 -0
    outer loop
      vertex 29 14 45
      vertex -29 14 -43
      vertex 29 14 -43
    endloop
  endfacet
  facet normal 0 1 -0
    outer loop
      vertex 29 -14 -43
      vertex -29 -14 45
      vertex 29 -14 45
    endloop
  endfacet
  facet normal 0 1 0
    outer loop
      vertex -29 -14 45
      vertex 29 -14 -43
      vertex -29 -14 -43
    endloop
  endfacet
endsolid OpenSCAD_Model
