%TF.GenerationSoftware,KiCad,Pcbnew,(5.1.8)-1*%
%TF.CreationDate,2021-05-19T18:10:43+02:00*%
%TF.ProjectId,dummy,64756d6d-792e-46b6-9963-61645f706362,rev?*%
%TF.SameCoordinates,Original*%
%TF.FileFunction,Copper,L1,Top*%
%TF.FilePolarity,Positive*%
%FSLAX46Y46*%
G04 Gerber Fmt 4.6, Leading zero omitted, Abs format (unit mm)*
G04 Created by KiCad (PCBNEW (5.1.8)-1) date 2021-05-19 18:10:43*
%MOMM*%
%LPD*%
G01*
G04 APERTURE LIST*
%TA.AperFunction,NonConductor*%
%ADD10C,0.300000*%
%TD*%
%TA.AperFunction,SMDPad,CuDef*%
%ADD11R,10.000000X5.000000*%
%TD*%
%TA.AperFunction,Conductor*%
%ADD12C,0.500000*%
%TD*%
%TA.AperFunction,Conductor*%
%ADD13C,3.000000*%
%TD*%
%TA.AperFunction,Conductor*%
%ADD14C,1.000000*%
%TD*%
%TA.AperFunction,Conductor*%
%ADD15C,2.000000*%
%TD*%
%TA.AperFunction,NonConductor*%
%ADD16C,0.254000*%
%TD*%
%TA.AperFunction,NonConductor*%
%ADD17C,0.100000*%
%TD*%
G04 APERTURE END LIST*
D10*
X139347142Y-43628571D02*
X140275714Y-43628571D01*
X139775714Y-44200000D01*
X139990000Y-44200000D01*
X140132857Y-44271428D01*
X140204285Y-44342857D01*
X140275714Y-44485714D01*
X140275714Y-44842857D01*
X140204285Y-44985714D01*
X140132857Y-45057142D01*
X139990000Y-45128571D01*
X139561428Y-45128571D01*
X139418571Y-45057142D01*
X139347142Y-44985714D01*
X141632857Y-43628571D02*
X140918571Y-43628571D01*
X140847142Y-44342857D01*
X140918571Y-44271428D01*
X141061428Y-44200000D01*
X141418571Y-44200000D01*
X141561428Y-44271428D01*
X141632857Y-44342857D01*
X141704285Y-44485714D01*
X141704285Y-44842857D01*
X141632857Y-44985714D01*
X141561428Y-45057142D01*
X141418571Y-45128571D01*
X141061428Y-45128571D01*
X140918571Y-45057142D01*
X140847142Y-44985714D01*
X142990000Y-44128571D02*
X142990000Y-45128571D01*
X142347142Y-44128571D02*
X142347142Y-44914285D01*
X142418571Y-45057142D01*
X142561428Y-45128571D01*
X142775714Y-45128571D01*
X142918571Y-45057142D01*
X142990000Y-44985714D01*
X143704285Y-45128571D02*
X143704285Y-44128571D01*
X143704285Y-44271428D02*
X143775714Y-44200000D01*
X143918571Y-44128571D01*
X144132857Y-44128571D01*
X144275714Y-44200000D01*
X144347142Y-44342857D01*
X144347142Y-45128571D01*
X144347142Y-44342857D02*
X144418571Y-44200000D01*
X144561428Y-44128571D01*
X144775714Y-44128571D01*
X144918571Y-44200000D01*
X144990000Y-44342857D01*
X144990000Y-45128571D01*
X166410000Y-72838571D02*
X167338571Y-72838571D01*
X166838571Y-73410000D01*
X167052857Y-73410000D01*
X167195714Y-73481428D01*
X167267142Y-73552857D01*
X167338571Y-73695714D01*
X167338571Y-74052857D01*
X167267142Y-74195714D01*
X167195714Y-74267142D01*
X167052857Y-74338571D01*
X166624285Y-74338571D01*
X166481428Y-74267142D01*
X166410000Y-74195714D01*
X167981428Y-74338571D02*
X167981428Y-73338571D01*
X167981428Y-73481428D02*
X168052857Y-73410000D01*
X168195714Y-73338571D01*
X168410000Y-73338571D01*
X168552857Y-73410000D01*
X168624285Y-73552857D01*
X168624285Y-74338571D01*
X168624285Y-73552857D02*
X168695714Y-73410000D01*
X168838571Y-73338571D01*
X169052857Y-73338571D01*
X169195714Y-73410000D01*
X169267142Y-73552857D01*
X169267142Y-74338571D01*
X169981428Y-74338571D02*
X169981428Y-73338571D01*
X169981428Y-73481428D02*
X170052857Y-73410000D01*
X170195714Y-73338571D01*
X170410000Y-73338571D01*
X170552857Y-73410000D01*
X170624285Y-73552857D01*
X170624285Y-74338571D01*
X170624285Y-73552857D02*
X170695714Y-73410000D01*
X170838571Y-73338571D01*
X171052857Y-73338571D01*
X171195714Y-73410000D01*
X171267142Y-73552857D01*
X171267142Y-74338571D01*
X166481428Y-64091428D02*
X166552857Y-64020000D01*
X166695714Y-63948571D01*
X167052857Y-63948571D01*
X167195714Y-64020000D01*
X167267142Y-64091428D01*
X167338571Y-64234285D01*
X167338571Y-64377142D01*
X167267142Y-64591428D01*
X166410000Y-65448571D01*
X167338571Y-65448571D01*
X167981428Y-65448571D02*
X167981428Y-64448571D01*
X167981428Y-64591428D02*
X168052857Y-64520000D01*
X168195714Y-64448571D01*
X168410000Y-64448571D01*
X168552857Y-64520000D01*
X168624285Y-64662857D01*
X168624285Y-65448571D01*
X168624285Y-64662857D02*
X168695714Y-64520000D01*
X168838571Y-64448571D01*
X169052857Y-64448571D01*
X169195714Y-64520000D01*
X169267142Y-64662857D01*
X169267142Y-65448571D01*
X169981428Y-65448571D02*
X169981428Y-64448571D01*
X169981428Y-64591428D02*
X170052857Y-64520000D01*
X170195714Y-64448571D01*
X170410000Y-64448571D01*
X170552857Y-64520000D01*
X170624285Y-64662857D01*
X170624285Y-65448571D01*
X170624285Y-64662857D02*
X170695714Y-64520000D01*
X170838571Y-64448571D01*
X171052857Y-64448571D01*
X171195714Y-64520000D01*
X171267142Y-64662857D01*
X171267142Y-65448571D01*
X167338571Y-56558571D02*
X166481428Y-56558571D01*
X166910000Y-56558571D02*
X166910000Y-55058571D01*
X166767142Y-55272857D01*
X166624285Y-55415714D01*
X166481428Y-55487142D01*
X167981428Y-56558571D02*
X167981428Y-55558571D01*
X167981428Y-55701428D02*
X168052857Y-55630000D01*
X168195714Y-55558571D01*
X168410000Y-55558571D01*
X168552857Y-55630000D01*
X168624285Y-55772857D01*
X168624285Y-56558571D01*
X168624285Y-55772857D02*
X168695714Y-55630000D01*
X168838571Y-55558571D01*
X169052857Y-55558571D01*
X169195714Y-55630000D01*
X169267142Y-55772857D01*
X169267142Y-56558571D01*
X169981428Y-56558571D02*
X169981428Y-55558571D01*
X169981428Y-55701428D02*
X170052857Y-55630000D01*
X170195714Y-55558571D01*
X170410000Y-55558571D01*
X170552857Y-55630000D01*
X170624285Y-55772857D01*
X170624285Y-56558571D01*
X170624285Y-55772857D02*
X170695714Y-55630000D01*
X170838571Y-55558571D01*
X171052857Y-55558571D01*
X171195714Y-55630000D01*
X171267142Y-55772857D01*
X171267142Y-56558571D01*
X165767142Y-46168571D02*
X165910000Y-46168571D01*
X166052857Y-46240000D01*
X166124285Y-46311428D01*
X166195714Y-46454285D01*
X166267142Y-46740000D01*
X166267142Y-47097142D01*
X166195714Y-47382857D01*
X166124285Y-47525714D01*
X166052857Y-47597142D01*
X165910000Y-47668571D01*
X165767142Y-47668571D01*
X165624285Y-47597142D01*
X165552857Y-47525714D01*
X165481428Y-47382857D01*
X165410000Y-47097142D01*
X165410000Y-46740000D01*
X165481428Y-46454285D01*
X165552857Y-46311428D01*
X165624285Y-46240000D01*
X165767142Y-46168571D01*
X166910000Y-47525714D02*
X166981428Y-47597142D01*
X166910000Y-47668571D01*
X166838571Y-47597142D01*
X166910000Y-47525714D01*
X166910000Y-47668571D01*
X168338571Y-46168571D02*
X167624285Y-46168571D01*
X167552857Y-46882857D01*
X167624285Y-46811428D01*
X167767142Y-46740000D01*
X168124285Y-46740000D01*
X168267142Y-46811428D01*
X168338571Y-46882857D01*
X168410000Y-47025714D01*
X168410000Y-47382857D01*
X168338571Y-47525714D01*
X168267142Y-47597142D01*
X168124285Y-47668571D01*
X167767142Y-47668571D01*
X167624285Y-47597142D01*
X167552857Y-47525714D01*
X169052857Y-47668571D02*
X169052857Y-46668571D01*
X169052857Y-46811428D02*
X169124285Y-46740000D01*
X169267142Y-46668571D01*
X169481428Y-46668571D01*
X169624285Y-46740000D01*
X169695714Y-46882857D01*
X169695714Y-47668571D01*
X169695714Y-46882857D02*
X169767142Y-46740000D01*
X169910000Y-46668571D01*
X170124285Y-46668571D01*
X170267142Y-46740000D01*
X170338571Y-46882857D01*
X170338571Y-47668571D01*
X171052857Y-47668571D02*
X171052857Y-46668571D01*
X171052857Y-46811428D02*
X171124285Y-46740000D01*
X171267142Y-46668571D01*
X171481428Y-46668571D01*
X171624285Y-46740000D01*
X171695714Y-46882857D01*
X171695714Y-47668571D01*
X171695714Y-46882857D02*
X171767142Y-46740000D01*
X171910000Y-46668571D01*
X172124285Y-46668571D01*
X172267142Y-46740000D01*
X172338571Y-46882857D01*
X172338571Y-47668571D01*
D11*
%TO.P,J8,1*%
%TO.N,Net-(J4-Pad1)*%
X195580000Y-68580000D03*
%TD*%
%TO.P,J7,1*%
%TO.N,Net-(J3-Pad1)*%
X195580000Y-59690000D03*
%TD*%
%TO.P,J6,1*%
%TO.N,Net-(J2-Pad1)*%
X195580000Y-77470000D03*
%TD*%
%TO.P,J5,1*%
%TO.N,Net-(J1-Pad1)*%
X195580000Y-50800000D03*
%TD*%
%TO.P,J4,1*%
%TO.N,Net-(J4-Pad1)*%
X140970000Y-68580000D03*
%TD*%
%TO.P,J3,1*%
%TO.N,Net-(J3-Pad1)*%
X140970000Y-59690000D03*
%TD*%
%TO.P,J2,1*%
%TO.N,Net-(J2-Pad1)*%
X140970000Y-77470000D03*
%TD*%
%TO.P,J1,1*%
%TO.N,Net-(J1-Pad1)*%
X140970000Y-50800000D03*
%TD*%
D12*
%TO.N,Net-(J1-Pad1)*%
X140970000Y-50800000D02*
X195580000Y-50800000D01*
D13*
%TO.N,Net-(J2-Pad1)*%
X140970000Y-77470000D02*
X195580000Y-77470000D01*
D14*
%TO.N,Net-(J3-Pad1)*%
X140970000Y-59690000D02*
X195580000Y-59690000D01*
D15*
%TO.N,Net-(J4-Pad1)*%
X140970000Y-68580000D02*
X195580000Y-68580000D01*
%TD*%
D16*
X189941928Y-79970000D02*
X189954188Y-80094482D01*
X189990498Y-80214180D01*
X190049463Y-80324494D01*
X190128815Y-80421185D01*
X190225506Y-80500537D01*
X190335820Y-80559502D01*
X190455518Y-80595812D01*
X190580000Y-80608072D01*
X200000000Y-80608072D01*
X200000000Y-80620000D01*
X136550000Y-80620000D01*
X136550000Y-80608072D01*
X145970000Y-80608072D01*
X146094482Y-80595812D01*
X146214180Y-80559502D01*
X146324494Y-80500537D01*
X146421185Y-80421185D01*
X146500537Y-80324494D01*
X146559502Y-80214180D01*
X146595812Y-80094482D01*
X146608072Y-79970000D01*
X146608072Y-79605000D01*
X189941928Y-79605000D01*
X189941928Y-79970000D01*
%TA.AperFunction,NonConductor*%
D17*
G36*
X189941928Y-79970000D02*
G01*
X189954188Y-80094482D01*
X189990498Y-80214180D01*
X190049463Y-80324494D01*
X190128815Y-80421185D01*
X190225506Y-80500537D01*
X190335820Y-80559502D01*
X190455518Y-80595812D01*
X190580000Y-80608072D01*
X200000000Y-80608072D01*
X200000000Y-80620000D01*
X136550000Y-80620000D01*
X136550000Y-80608072D01*
X145970000Y-80608072D01*
X146094482Y-80595812D01*
X146214180Y-80559502D01*
X146324494Y-80500537D01*
X146421185Y-80421185D01*
X146500537Y-80324494D01*
X146559502Y-80214180D01*
X146595812Y-80094482D01*
X146608072Y-79970000D01*
X146608072Y-79605000D01*
X189941928Y-79605000D01*
X189941928Y-79970000D01*
G37*
%TD.AperFunction*%
D16*
X189941928Y-71080000D02*
X189954188Y-71204482D01*
X189990498Y-71324180D01*
X190049463Y-71434494D01*
X190128815Y-71531185D01*
X190225506Y-71610537D01*
X190335820Y-71669502D01*
X190455518Y-71705812D01*
X190580000Y-71718072D01*
X200000000Y-71718072D01*
X200000000Y-74331928D01*
X190580000Y-74331928D01*
X190455518Y-74344188D01*
X190335820Y-74380498D01*
X190225506Y-74439463D01*
X190128815Y-74518815D01*
X190049463Y-74615506D01*
X189990498Y-74725820D01*
X189954188Y-74845518D01*
X189941928Y-74970000D01*
X189941928Y-75335000D01*
X172409286Y-75335000D01*
X172409286Y-71870000D01*
X165410715Y-71870000D01*
X165410715Y-75335000D01*
X146608072Y-75335000D01*
X146608072Y-74970000D01*
X146595812Y-74845518D01*
X146559502Y-74725820D01*
X146500537Y-74615506D01*
X146421185Y-74518815D01*
X146324494Y-74439463D01*
X146214180Y-74380498D01*
X146094482Y-74344188D01*
X145970000Y-74331928D01*
X136550000Y-74331928D01*
X136550000Y-71718072D01*
X145970000Y-71718072D01*
X146094482Y-71705812D01*
X146214180Y-71669502D01*
X146324494Y-71610537D01*
X146421185Y-71531185D01*
X146500537Y-71434494D01*
X146559502Y-71324180D01*
X146595812Y-71204482D01*
X146608072Y-71080000D01*
X146608072Y-70215000D01*
X189941928Y-70215000D01*
X189941928Y-71080000D01*
%TA.AperFunction,NonConductor*%
D17*
G36*
X189941928Y-71080000D02*
G01*
X189954188Y-71204482D01*
X189990498Y-71324180D01*
X190049463Y-71434494D01*
X190128815Y-71531185D01*
X190225506Y-71610537D01*
X190335820Y-71669502D01*
X190455518Y-71705812D01*
X190580000Y-71718072D01*
X200000000Y-71718072D01*
X200000000Y-74331928D01*
X190580000Y-74331928D01*
X190455518Y-74344188D01*
X190335820Y-74380498D01*
X190225506Y-74439463D01*
X190128815Y-74518815D01*
X190049463Y-74615506D01*
X189990498Y-74725820D01*
X189954188Y-74845518D01*
X189941928Y-74970000D01*
X189941928Y-75335000D01*
X172409286Y-75335000D01*
X172409286Y-71870000D01*
X165410715Y-71870000D01*
X165410715Y-75335000D01*
X146608072Y-75335000D01*
X146608072Y-74970000D01*
X146595812Y-74845518D01*
X146559502Y-74725820D01*
X146500537Y-74615506D01*
X146421185Y-74518815D01*
X146324494Y-74439463D01*
X146214180Y-74380498D01*
X146094482Y-74344188D01*
X145970000Y-74331928D01*
X136550000Y-74331928D01*
X136550000Y-71718072D01*
X145970000Y-71718072D01*
X146094482Y-71705812D01*
X146214180Y-71669502D01*
X146324494Y-71610537D01*
X146421185Y-71531185D01*
X146500537Y-71434494D01*
X146559502Y-71324180D01*
X146595812Y-71204482D01*
X146608072Y-71080000D01*
X146608072Y-70215000D01*
X189941928Y-70215000D01*
X189941928Y-71080000D01*
G37*
%TD.AperFunction*%
D16*
X189941928Y-62190000D02*
X189954188Y-62314482D01*
X189990498Y-62434180D01*
X190049463Y-62544494D01*
X190128815Y-62641185D01*
X190225506Y-62720537D01*
X190335820Y-62779502D01*
X190455518Y-62815812D01*
X190580000Y-62828072D01*
X200000000Y-62828072D01*
X200000000Y-65441928D01*
X190580000Y-65441928D01*
X190455518Y-65454188D01*
X190335820Y-65490498D01*
X190225506Y-65549463D01*
X190128815Y-65628815D01*
X190049463Y-65725506D01*
X189990498Y-65835820D01*
X189954188Y-65955518D01*
X189941928Y-66080000D01*
X189941928Y-66945000D01*
X146608072Y-66945000D01*
X146608072Y-66080000D01*
X146595812Y-65955518D01*
X146559502Y-65835820D01*
X146500537Y-65725506D01*
X146421185Y-65628815D01*
X146324494Y-65549463D01*
X146214180Y-65490498D01*
X146094482Y-65454188D01*
X145970000Y-65441928D01*
X136550000Y-65441928D01*
X136550000Y-62980000D01*
X165410715Y-62980000D01*
X165410715Y-66800000D01*
X172409286Y-66800000D01*
X172409286Y-62980000D01*
X165410715Y-62980000D01*
X136550000Y-62980000D01*
X136550000Y-62828072D01*
X145970000Y-62828072D01*
X146094482Y-62815812D01*
X146214180Y-62779502D01*
X146324494Y-62720537D01*
X146421185Y-62641185D01*
X146500537Y-62544494D01*
X146559502Y-62434180D01*
X146595812Y-62314482D01*
X146608072Y-62190000D01*
X146608072Y-60825000D01*
X189941928Y-60825000D01*
X189941928Y-62190000D01*
%TA.AperFunction,NonConductor*%
D17*
G36*
X189941928Y-62190000D02*
G01*
X189954188Y-62314482D01*
X189990498Y-62434180D01*
X190049463Y-62544494D01*
X190128815Y-62641185D01*
X190225506Y-62720537D01*
X190335820Y-62779502D01*
X190455518Y-62815812D01*
X190580000Y-62828072D01*
X200000000Y-62828072D01*
X200000000Y-65441928D01*
X190580000Y-65441928D01*
X190455518Y-65454188D01*
X190335820Y-65490498D01*
X190225506Y-65549463D01*
X190128815Y-65628815D01*
X190049463Y-65725506D01*
X189990498Y-65835820D01*
X189954188Y-65955518D01*
X189941928Y-66080000D01*
X189941928Y-66945000D01*
X146608072Y-66945000D01*
X146608072Y-66080000D01*
X146595812Y-65955518D01*
X146559502Y-65835820D01*
X146500537Y-65725506D01*
X146421185Y-65628815D01*
X146324494Y-65549463D01*
X146214180Y-65490498D01*
X146094482Y-65454188D01*
X145970000Y-65441928D01*
X136550000Y-65441928D01*
X136550000Y-62980000D01*
X165410715Y-62980000D01*
X165410715Y-66800000D01*
X172409286Y-66800000D01*
X172409286Y-62980000D01*
X165410715Y-62980000D01*
X136550000Y-62980000D01*
X136550000Y-62828072D01*
X145970000Y-62828072D01*
X146094482Y-62815812D01*
X146214180Y-62779502D01*
X146324494Y-62720537D01*
X146421185Y-62641185D01*
X146500537Y-62544494D01*
X146559502Y-62434180D01*
X146595812Y-62314482D01*
X146608072Y-62190000D01*
X146608072Y-60825000D01*
X189941928Y-60825000D01*
X189941928Y-62190000D01*
G37*
%TD.AperFunction*%
D16*
X189941928Y-53300000D02*
X189954188Y-53424482D01*
X189990498Y-53544180D01*
X190049463Y-53654494D01*
X190128815Y-53751185D01*
X190225506Y-53830537D01*
X190335820Y-53889502D01*
X190455518Y-53925812D01*
X190580000Y-53938072D01*
X200000001Y-53938072D01*
X200000001Y-56551928D01*
X190580000Y-56551928D01*
X190455518Y-56564188D01*
X190335820Y-56600498D01*
X190225506Y-56659463D01*
X190128815Y-56738815D01*
X190049463Y-56835506D01*
X189990498Y-56945820D01*
X189954188Y-57065518D01*
X189941928Y-57190000D01*
X189941928Y-58555000D01*
X146608072Y-58555000D01*
X146608072Y-57190000D01*
X146595812Y-57065518D01*
X146559502Y-56945820D01*
X146500537Y-56835506D01*
X146421185Y-56738815D01*
X146324494Y-56659463D01*
X146214180Y-56600498D01*
X146094482Y-56564188D01*
X145970000Y-56551928D01*
X136550000Y-56551928D01*
X136550000Y-54090000D01*
X165410715Y-54090000D01*
X165410715Y-57910000D01*
X172409286Y-57910000D01*
X172409286Y-54090000D01*
X165410715Y-54090000D01*
X136550000Y-54090000D01*
X136550000Y-53938072D01*
X145970000Y-53938072D01*
X146094482Y-53925812D01*
X146214180Y-53889502D01*
X146324494Y-53830537D01*
X146421185Y-53751185D01*
X146500537Y-53654494D01*
X146559502Y-53544180D01*
X146595812Y-53424482D01*
X146608072Y-53300000D01*
X146608072Y-51685000D01*
X189941928Y-51685000D01*
X189941928Y-53300000D01*
%TA.AperFunction,NonConductor*%
D17*
G36*
X189941928Y-53300000D02*
G01*
X189954188Y-53424482D01*
X189990498Y-53544180D01*
X190049463Y-53654494D01*
X190128815Y-53751185D01*
X190225506Y-53830537D01*
X190335820Y-53889502D01*
X190455518Y-53925812D01*
X190580000Y-53938072D01*
X200000001Y-53938072D01*
X200000001Y-56551928D01*
X190580000Y-56551928D01*
X190455518Y-56564188D01*
X190335820Y-56600498D01*
X190225506Y-56659463D01*
X190128815Y-56738815D01*
X190049463Y-56835506D01*
X189990498Y-56945820D01*
X189954188Y-57065518D01*
X189941928Y-57190000D01*
X189941928Y-58555000D01*
X146608072Y-58555000D01*
X146608072Y-57190000D01*
X146595812Y-57065518D01*
X146559502Y-56945820D01*
X146500537Y-56835506D01*
X146421185Y-56738815D01*
X146324494Y-56659463D01*
X146214180Y-56600498D01*
X146094482Y-56564188D01*
X145970000Y-56551928D01*
X136550000Y-56551928D01*
X136550000Y-54090000D01*
X165410715Y-54090000D01*
X165410715Y-57910000D01*
X172409286Y-57910000D01*
X172409286Y-54090000D01*
X165410715Y-54090000D01*
X136550000Y-54090000D01*
X136550000Y-53938072D01*
X145970000Y-53938072D01*
X146094482Y-53925812D01*
X146214180Y-53889502D01*
X146324494Y-53830537D01*
X146421185Y-53751185D01*
X146500537Y-53654494D01*
X146559502Y-53544180D01*
X146595812Y-53424482D01*
X146608072Y-53300000D01*
X146608072Y-51685000D01*
X189941928Y-51685000D01*
X189941928Y-53300000D01*
G37*
%TD.AperFunction*%
D16*
X200000001Y-47661928D02*
X190580000Y-47661928D01*
X190455518Y-47674188D01*
X190335820Y-47710498D01*
X190225506Y-47769463D01*
X190128815Y-47848815D01*
X190049463Y-47945506D01*
X189990498Y-48055820D01*
X189954188Y-48175518D01*
X189941928Y-48300000D01*
X189941928Y-49915000D01*
X146608072Y-49915000D01*
X146608072Y-48300000D01*
X146595812Y-48175518D01*
X146559502Y-48055820D01*
X146500537Y-47945506D01*
X146421185Y-47848815D01*
X146324494Y-47769463D01*
X146214180Y-47710498D01*
X146094482Y-47674188D01*
X145970000Y-47661928D01*
X136550000Y-47661928D01*
X136550000Y-42660000D01*
X138347857Y-42660000D01*
X138347857Y-46480000D01*
X146132143Y-46480000D01*
X146132143Y-45200000D01*
X164339286Y-45200000D01*
X164339286Y-49020000D01*
X173480715Y-49020000D01*
X173480715Y-45200000D01*
X164339286Y-45200000D01*
X146132143Y-45200000D01*
X146132143Y-42660000D01*
X138347857Y-42660000D01*
X136550000Y-42660000D01*
X136550000Y-41300000D01*
X200000001Y-41300000D01*
X200000001Y-47661928D01*
%TA.AperFunction,NonConductor*%
D17*
G36*
X200000001Y-47661928D02*
G01*
X190580000Y-47661928D01*
X190455518Y-47674188D01*
X190335820Y-47710498D01*
X190225506Y-47769463D01*
X190128815Y-47848815D01*
X190049463Y-47945506D01*
X189990498Y-48055820D01*
X189954188Y-48175518D01*
X189941928Y-48300000D01*
X189941928Y-49915000D01*
X146608072Y-49915000D01*
X146608072Y-48300000D01*
X146595812Y-48175518D01*
X146559502Y-48055820D01*
X146500537Y-47945506D01*
X146421185Y-47848815D01*
X146324494Y-47769463D01*
X146214180Y-47710498D01*
X146094482Y-47674188D01*
X145970000Y-47661928D01*
X136550000Y-47661928D01*
X136550000Y-42660000D01*
X138347857Y-42660000D01*
X138347857Y-46480000D01*
X146132143Y-46480000D01*
X146132143Y-45200000D01*
X164339286Y-45200000D01*
X164339286Y-49020000D01*
X173480715Y-49020000D01*
X173480715Y-45200000D01*
X164339286Y-45200000D01*
X146132143Y-45200000D01*
X146132143Y-42660000D01*
X138347857Y-42660000D01*
X136550000Y-42660000D01*
X136550000Y-41300000D01*
X200000001Y-41300000D01*
X200000001Y-47661928D01*
G37*
%TD.AperFunction*%
M02*
