solid OpenSCAD_Model
  facet normal 1 -0 0
    outer loop
      vertex 43.5 -33.5 23.5
      vertex 43.5 33.5 -23.5
      vertex 43.5 33.5 23.5
    endloop
  endfacet
  facet normal 1 0 0
    outer loop
      vertex 43.5 33.5 -23.5
      vertex 43.5 -33.5 23.5
      vertex 43.5 -33.5 -23.5
    endloop
  endfacet
  facet normal 0 0 1
    outer loop
      vertex 43.5 33.5 23.5
      vertex 42.5 32.5 23.5
      vertex 43.5 -33.5 23.5
    endloop
  endfacet
  facet normal 0 0 1
    outer loop
      vertex 43.5 33.5 23.5
      vertex -42.5 32.5 23.5
      vertex 42.5 32.5 23.5
    endloop
  endfacet
  facet normal 0 0 1
    outer loop
      vertex -42.5 32.5 23.5
      vertex -43.5 33.5 23.5
      vertex -42.5 -32.5 23.5
    endloop
  endfacet
  facet normal -0 0 1
    outer loop
      vertex -43.5 33.5 23.5
      vertex -42.5 32.5 23.5
      vertex 43.5 33.5 23.5
    endloop
  endfacet
  facet normal -0 0 1
    outer loop
      vertex 42.5 -32.5 23.5
      vertex 43.5 -33.5 23.5
      vertex 42.5 32.5 23.5
    endloop
  endfacet
  facet normal -0 0 1
    outer loop
      vertex -42.5 -32.5 23.5
      vertex 43.5 -33.5 23.5
      vertex 42.5 -32.5 23.5
    endloop
  endfacet
  facet normal 0 0 1
    outer loop
      vertex -42.5 -32.5 23.5
      vertex -43.5 -33.5 23.5
      vertex 43.5 -33.5 23.5
    endloop
  endfacet
  facet normal 0 0 1
    outer loop
      vertex -43.5 -33.5 23.5
      vertex -42.5 -32.5 23.5
      vertex -43.5 33.5 23.5
    endloop
  endfacet
  facet normal 0 0 -1
    outer loop
      vertex -43.5 -33.5 -23.5
      vertex 43.5 33.5 -23.5
      vertex 43.5 -33.5 -23.5
    endloop
  endfacet
  facet normal -0 0 -1
    outer loop
      vertex 43.5 33.5 -23.5
      vertex -43.5 -33.5 -23.5
      vertex -43.5 33.5 -23.5
    endloop
  endfacet
  facet normal -1 0 0
    outer loop
      vertex -43.5 -33.5 -23.5
      vertex -43.5 33.5 23.5
      vertex -43.5 33.5 -23.5
    endloop
  endfacet
  facet normal -1 -0 0
    outer loop
      vertex -43.5 33.5 23.5
      vertex -43.5 -33.5 -23.5
      vertex -43.5 -33.5 23.5
    endloop
  endfacet
  facet normal 0 1 -0
    outer loop
      vertex 43.5 33.5 -23.5
      vertex -43.5 33.5 23.5
      vertex 43.5 33.5 23.5
    endloop
  endfacet
  facet normal 0 1 0
    outer loop
      vertex -43.5 33.5 23.5
      vertex 43.5 33.5 -23.5
      vertex -43.5 33.5 -23.5
    endloop
  endfacet
  facet normal 0 -1 0
    outer loop
      vertex -43.5 -33.5 -23.5
      vertex 43.5 -33.5 23.5
      vertex -43.5 -33.5 23.5
    endloop
  endfacet
  facet normal 0 -1 -0
    outer loop
      vertex 43.5 -33.5 23.5
      vertex -43.5 -33.5 -23.5
      vertex 43.5 -33.5 -23.5
    endloop
  endfacet
  facet normal -1 0 0
    outer loop
      vertex 42.5 -32.5 -21.5
      vertex 42.5 32.5 23.5
      vertex 42.5 32.5 -21.5
    endloop
  endfacet
  facet normal -1 -0 0
    outer loop
      vertex 42.5 32.5 23.5
      vertex 42.5 -32.5 -21.5
      vertex 42.5 -32.5 23.5
    endloop
  endfacet
  facet normal -0 0 1
    outer loop
      vertex -42.5 32.5 -21.5
      vertex 42.5 -32.5 -21.5
      vertex 42.5 32.5 -21.5
    endloop
  endfacet
  facet normal 0 0 1
    outer loop
      vertex 42.5 -32.5 -21.5
      vertex -42.5 32.5 -21.5
      vertex -42.5 -32.5 -21.5
    endloop
  endfacet
  facet normal 1 -0 0
    outer loop
      vertex -42.5 -32.5 23.5
      vertex -42.5 32.5 -21.5
      vertex -42.5 32.5 23.5
    endloop
  endfacet
  facet normal 1 0 0
    outer loop
      vertex -42.5 32.5 -21.5
      vertex -42.5 -32.5 23.5
      vertex -42.5 -32.5 -21.5
    endloop
  endfacet
  facet normal 0 -1 0
    outer loop
      vertex -42.5 32.5 -21.5
      vertex 42.5 32.5 23.5
      vertex -42.5 32.5 23.5
    endloop
  endfacet
  facet normal 0 -1 -0
    outer loop
      vertex 42.5 32.5 23.5
      vertex -42.5 32.5 -21.5
      vertex 42.5 32.5 -21.5
    endloop
  endfacet
  facet normal 0 1 -0
    outer loop
      vertex 42.5 -32.5 -21.5
      vertex -42.5 -32.5 23.5
      vertex 42.5 -32.5 23.5
    endloop
  endfacet
  facet normal 0 1 0
    outer loop
      vertex -42.5 -32.5 23.5
      vertex 42.5 -32.5 -21.5
      vertex -42.5 -32.5 -21.5
    endloop
  endfacet
endsolid OpenSCAD_Model
