solid OpenSCAD_Model
  facet normal -0 0 -1
    outer loop
      vertex -2.50661 0 0
      vertex -3.17019 -0.435733 0
      vertex -3.17019 0.435733 0
    endloop
  endfacet
  facet normal -0 0 -1
    outer loop
      vertex -2.41366 0.676276 0
      vertex -3.17019 0.435733 0
      vertex -2.93507 1.27488 0
    endloop
  endfacet
  facet normal -0 0 -1
    outer loop
      vertex -2.1417 1.30239 0
      vertex -2.93507 1.27488 0
      vertex -2.48227 2.01948 0
    endloop
  endfacet
  facet normal 0 0 -1
    outer loop
      vertex -1.7109 1.83192 0
      vertex -2.48227 2.01948 0
      vertex -1.84538 2.6143 0
    endloop
  endfacet
  facet normal -0 0 -1
    outer loop
      vertex 2.18417 2.33867 0
      vertex 1.44551 2.04783 0
      vertex 1.47221 2.84123 0
    endloop
  endfacet
  facet normal -0 0 -1
    outer loop
      vertex 2.73414 1.66267 0
      vertex 1.94441 1.58189 0
      vertex 2.18417 2.33867 0
    endloop
  endfacet
  facet normal 0 0 -1
    outer loop
      vertex 3.08133 0.863348 0
      vertex 2.29909 0.998636 0
      vertex 2.73414 1.66267 0
    endloop
  endfacet
  facet normal 0 0 -1
    outer loop
      vertex 3.2 0 0
      vertex 2.48326 0.341317 0
      vertex 3.08133 0.863348 0
    endloop
  endfacet
  facet normal 0 0 -1
    outer loop
      vertex 3.08133 -0.863348 0
      vertex 10 0 0
      vertex 7.07107 -7.07107 0
    endloop
  endfacet
  facet normal 0 0 -1
    outer loop
      vertex 3.08133 0.863348 0
      vertex 10 0 0
      vertex 3.2 0 0
    endloop
  endfacet
  facet normal -0 0 -1
    outer loop
      vertex 10 0 0
      vertex 3.08133 -0.863348 0
      vertex 3.2 0 0
    endloop
  endfacet
  facet normal 0 0 -1
    outer loop
      vertex 7.07107 -7.07107 0
      vertex 2.73414 -1.66267 0
      vertex 3.08133 -0.863348 0
    endloop
  endfacet
  facet normal 0 0 -1
    outer loop
      vertex 7.07107 -7.07107 0
      vertex 2.18417 -2.33867 0
      vertex 2.73414 -1.66267 0
    endloop
  endfacet
  facet normal 0 0 -1
    outer loop
      vertex 7.07107 -7.07107 0
      vertex 1.47221 -2.84123 0
      vertex 2.18417 -2.33867 0
    endloop
  endfacet
  facet normal -0 0 -1
    outer loop
      vertex 1.47221 -2.84123 0
      vertex 0.651058 -3.13307 0
      vertex 0.839413 -2.36188 0
    endloop
  endfacet
  facet normal 0 0 -1
    outer loop
      vertex 0 -10 0
      vertex 1.47221 -2.84123 0
      vertex 7.07107 -7.07107 0
    endloop
  endfacet
  facet normal 0 0 -1
    outer loop
      vertex 1.47221 -2.84123 0
      vertex 0 -10 0
      vertex 0.651058 -3.13307 0
    endloop
  endfacet
  facet normal 0 0 -1
    outer loop
      vertex -0.218375 -3.19254 0
      vertex 0.651058 -3.13307 0
      vertex 0 -10 0
    endloop
  endfacet
  facet normal -0 0 -1
    outer loop
      vertex 0.651058 -3.13307 0
      vertex -0.218375 -3.19254 0
      vertex 0.171057 -2.50077 0
    endloop
  endfacet
  facet normal 0 0 -1
    outer loop
      vertex -1.07161 -3.01523 0
      vertex -0.218375 -3.19254 0
      vertex 0 -10 0
    endloop
  endfacet
  facet normal 0 0 -1
    outer loop
      vertex -0.218375 -3.19254 0
      vertex -1.07161 -3.01523 0
      vertex -0.509985 -2.45418 0
    endloop
  endfacet
  facet normal 0 0 -1
    outer loop
      vertex -1.07161 -3.01523 0
      vertex -1.84538 -2.6143 0
      vertex -1.1532 -2.22558 0
    endloop
  endfacet
  facet normal 0 0 -1
    outer loop
      vertex -7.07107 -7.07107 0
      vertex -1.07161 -3.01523 0
      vertex 0 -10 0
    endloop
  endfacet
  facet normal -0 0 -1
    outer loop
      vertex -1.07161 -3.01523 0
      vertex -7.07107 -7.07107 0
      vertex -1.84538 -2.6143 0
    endloop
  endfacet
  facet normal -0 0 -1
    outer loop
      vertex -1.84538 -2.6143 0
      vertex -7.07107 -7.07107 0
      vertex -2.48227 -2.01948 0
    endloop
  endfacet
  facet normal 0 0 -1
    outer loop
      vertex -2.93507 -1.27488 0
      vertex -10 0 0
      vertex -3.17019 -0.435733 0
    endloop
  endfacet
  facet normal 0 0 -1
    outer loop
      vertex -10 0 0
      vertex -2.93507 -1.27488 0
      vertex -7.07107 -7.07107 0
    endloop
  endfacet
  facet normal -0 0 -1
    outer loop
      vertex -2.48227 -2.01948 0
      vertex -7.07107 -7.07107 0
      vertex -2.93507 -1.27488 0
    endloop
  endfacet
  facet normal 0 0 -1
    outer loop
      vertex 10 0 0
      vertex 3.08133 0.863348 0
      vertex 7.07107 7.07107 0
    endloop
  endfacet
  facet normal 0 0 -1
    outer loop
      vertex 2.73414 1.66267 0
      vertex 7.07107 7.07107 0
      vertex 3.08133 0.863348 0
    endloop
  endfacet
  facet normal 0 0 -1
    outer loop
      vertex 2.18417 2.33867 0
      vertex 7.07107 7.07107 0
      vertex 2.73414 1.66267 0
    endloop
  endfacet
  facet normal 0 0 -1
    outer loop
      vertex 1.47221 2.84123 0
      vertex 7.07107 7.07107 0
      vertex 2.18417 2.33867 0
    endloop
  endfacet
  facet normal 0 0 -1
    outer loop
      vertex 0.651058 3.13307 0
      vertex 1.47221 2.84123 0
      vertex 0.839413 2.36188 0
    endloop
  endfacet
  facet normal 0 0 -1
    outer loop
      vertex 0 10 0
      vertex 1.47221 2.84123 0
      vertex 0.651058 3.13307 0
    endloop
  endfacet
  facet normal 0 0 -1
    outer loop
      vertex 1.47221 2.84123 0
      vertex 0 10 0
      vertex 7.07107 7.07107 0
    endloop
  endfacet
  facet normal 0 0 -1
    outer loop
      vertex -0.218375 3.19254 0
      vertex 0.651058 3.13307 0
      vertex 0.171057 2.50077 0
    endloop
  endfacet
  facet normal 0 0 -1
    outer loop
      vertex 0.651058 3.13307 0
      vertex -0.218375 3.19254 0
      vertex 0 10 0
    endloop
  endfacet
  facet normal 0 0 -1
    outer loop
      vertex -1.07161 3.01523 0
      vertex -0.218375 3.19254 0
      vertex -0.509985 2.45418 0
    endloop
  endfacet
  facet normal -0 0 -1
    outer loop
      vertex -0.218375 3.19254 0
      vertex -1.07161 3.01523 0
      vertex 0 10 0
    endloop
  endfacet
  facet normal 0 0 -1
    outer loop
      vertex -1.84538 2.6143 0
      vertex -1.07161 3.01523 0
      vertex -1.1532 2.22558 0
    endloop
  endfacet
  facet normal 0 0 -1
    outer loop
      vertex -7.07107 7.07107 0
      vertex -1.07161 3.01523 0
      vertex -1.84538 2.6143 0
    endloop
  endfacet
  facet normal 0 0 -1
    outer loop
      vertex -7.07107 7.07107 0
      vertex -1.84538 2.6143 0
      vertex -2.48227 2.01948 0
    endloop
  endfacet
  facet normal 0 0 -1
    outer loop
      vertex -7.07107 7.07107 0
      vertex -2.48227 2.01948 0
      vertex -2.93507 1.27488 0
    endloop
  endfacet
  facet normal 0 0 -1
    outer loop
      vertex -3.17019 -0.435733 0
      vertex -10 0 0
      vertex -3.17019 0.435733 0
    endloop
  endfacet
  facet normal -0 0 -1
    outer loop
      vertex -3.17019 0.435733 0
      vertex -10 0 0
      vertex -2.93507 1.27488 0
    endloop
  endfacet
  facet normal 0 0 -1
    outer loop
      vertex -1.07161 3.01523 0
      vertex -7.07107 7.07107 0
      vertex 0 10 0
    endloop
  endfacet
  facet normal -0 0 -1
    outer loop
      vertex -2.93507 1.27488 0
      vertex -10 0 0
      vertex -7.07107 7.07107 0
    endloop
  endfacet
  facet normal 0 0 -1
    outer loop
      vertex 3.2 0 0
      vertex 3.08133 -0.863348 0
      vertex 2.48326 -0.341317 0
    endloop
  endfacet
  facet normal 0 0 -1
    outer loop
      vertex 3.08133 -0.863348 0
      vertex 2.73414 -1.66267 0
      vertex 2.29909 -0.998636 0
    endloop
  endfacet
  facet normal -0 0 -1
    outer loop
      vertex 2.73414 -1.66267 0
      vertex 2.18417 -2.33867 0
      vertex 1.94441 -1.58189 0
    endloop
  endfacet
  facet normal -0 0 -1
    outer loop
      vertex 2.18417 -2.33867 0
      vertex 1.47221 -2.84123 0
      vertex 1.44551 -2.04783 0
    endloop
  endfacet
  facet normal 0 0 -1
    outer loop
      vertex -1.7109 -1.83192 0
      vertex -1.84538 -2.6143 0
      vertex -2.48227 -2.01948 0
    endloop
  endfacet
  facet normal -0 0 -1
    outer loop
      vertex -2.1417 -1.30239 0
      vertex -2.48227 -2.01948 0
      vertex -2.93507 -1.27488 0
    endloop
  endfacet
  facet normal -0 0 -1
    outer loop
      vertex -2.41366 -0.676276 0
      vertex -2.93507 -1.27488 0
      vertex -3.17019 -0.435733 0
    endloop
  endfacet
  facet normal -0.429946 0.902855 0
    outer loop
      vertex 3.2 0 0
      vertex 2.48326 -0.341317 4
      vertex 3.2 0 4
    endloop
  endfacet
  facet normal -0.429946 0.902855 0
    outer loop
      vertex 2.48326 -0.341317 4
      vertex 3.2 0 0
      vertex 2.48326 -0.341317 0
    endloop
  endfacet
  facet normal 0 0 1
    outer loop
      vertex -2.41366 -0.676276 4
      vertex -3.17019 -0.435733 4
      vertex -2.93507 -1.27488 4
    endloop
  endfacet
  facet normal 0 0 1
    outer loop
      vertex -2.1417 -1.30239 4
      vertex -2.93507 -1.27488 4
      vertex -2.48227 -2.01948 4
    endloop
  endfacet
  facet normal 0 0 1
    outer loop
      vertex -1.7109 -1.83192 4
      vertex -2.48227 -2.01948 4
      vertex -1.84538 -2.6143 4
    endloop
  endfacet
  facet normal 0 0 1
    outer loop
      vertex 2.18417 -2.33867 4
      vertex 1.44551 -2.04783 4
      vertex 1.47221 -2.84123 4
    endloop
  endfacet
  facet normal 0 0 1
    outer loop
      vertex 2.73414 -1.66267 4
      vertex 1.94441 -1.58189 4
      vertex 2.18417 -2.33867 4
    endloop
  endfacet
  facet normal 0 0 1
    outer loop
      vertex 3.08133 -0.863348 4
      vertex 2.29909 -0.998636 4
      vertex 2.73414 -1.66267 4
    endloop
  endfacet
  facet normal 0 0 1
    outer loop
      vertex 3.2 0 4
      vertex 2.48326 -0.341317 4
      vertex 3.08133 -0.863348 4
    endloop
  endfacet
  facet normal -0 0 1
    outer loop
      vertex 3.08133 0.863348 4
      vertex 10 0 4
      vertex 7.07107 7.07107 4
    endloop
  endfacet
  facet normal 0 0 1
    outer loop
      vertex 3.08133 -0.863348 4
      vertex 10 0 4
      vertex 3.2 0 4
    endloop
  endfacet
  facet normal 0 0 1
    outer loop
      vertex 10 0 4
      vertex 3.08133 0.863348 4
      vertex 3.2 0 4
    endloop
  endfacet
  facet normal 0 0 1
    outer loop
      vertex 7.07107 7.07107 4
      vertex 2.73414 1.66267 4
      vertex 3.08133 0.863348 4
    endloop
  endfacet
  facet normal 0 0 1
    outer loop
      vertex 7.07107 7.07107 4
      vertex 2.18417 2.33867 4
      vertex 2.73414 1.66267 4
    endloop
  endfacet
  facet normal 0 0 1
    outer loop
      vertex 7.07107 7.07107 4
      vertex 1.47221 2.84123 4
      vertex 2.18417 2.33867 4
    endloop
  endfacet
  facet normal 0 0 1
    outer loop
      vertex 1.47221 2.84123 4
      vertex 0.651058 3.13307 4
      vertex 0.839413 2.36188 4
    endloop
  endfacet
  facet normal 0 0 1
    outer loop
      vertex 0 10 4
      vertex 1.47221 2.84123 4
      vertex 7.07107 7.07107 4
    endloop
  endfacet
  facet normal 0 0 1
    outer loop
      vertex 1.47221 2.84123 4
      vertex 0 10 4
      vertex 0.651058 3.13307 4
    endloop
  endfacet
  facet normal -0 0 1
    outer loop
      vertex -0.218375 3.19254 4
      vertex 0.651058 3.13307 4
      vertex 0 10 4
    endloop
  endfacet
  facet normal 0 0 1
    outer loop
      vertex 0.651058 3.13307 4
      vertex -0.218375 3.19254 4
      vertex 0.171057 2.50077 4
    endloop
  endfacet
  facet normal 0 0 1
    outer loop
      vertex -1.07161 3.01523 4
      vertex -0.218375 3.19254 4
      vertex 0 10 4
    endloop
  endfacet
  facet normal 0 0 1
    outer loop
      vertex -0.218375 3.19254 4
      vertex -1.07161 3.01523 4
      vertex -0.509985 2.45418 4
    endloop
  endfacet
  facet normal 0 0 1
    outer loop
      vertex -1.07161 3.01523 4
      vertex -1.84538 2.6143 4
      vertex -1.1532 2.22558 4
    endloop
  endfacet
  facet normal -0 0 1
    outer loop
      vertex -7.07107 7.07107 4
      vertex -1.07161 3.01523 4
      vertex 0 10 4
    endloop
  endfacet
  facet normal 0 0 1
    outer loop
      vertex -1.07161 3.01523 4
      vertex -7.07107 7.07107 4
      vertex -1.84538 2.6143 4
    endloop
  endfacet
  facet normal 0 0 1
    outer loop
      vertex -1.84538 2.6143 4
      vertex -7.07107 7.07107 4
      vertex -2.48227 2.01948 4
    endloop
  endfacet
  facet normal 0 0 1
    outer loop
      vertex -2.93507 1.27488 4
      vertex -10 0 4
      vertex -3.17019 0.435733 4
    endloop
  endfacet
  facet normal 0 0 1
    outer loop
      vertex -10 0 4
      vertex -2.93507 1.27488 4
      vertex -7.07107 7.07107 4
    endloop
  endfacet
  facet normal 0 0 1
    outer loop
      vertex -2.48227 2.01948 4
      vertex -7.07107 7.07107 4
      vertex -2.93507 1.27488 4
    endloop
  endfacet
  facet normal 0 0 1
    outer loop
      vertex 10 0 4
      vertex 3.08133 -0.863348 4
      vertex 7.07107 -7.07107 4
    endloop
  endfacet
  facet normal -0 0 1
    outer loop
      vertex 2.73414 -1.66267 4
      vertex 7.07107 -7.07107 4
      vertex 3.08133 -0.863348 4
    endloop
  endfacet
  facet normal -0 0 1
    outer loop
      vertex 2.18417 -2.33867 4
      vertex 7.07107 -7.07107 4
      vertex 2.73414 -1.66267 4
    endloop
  endfacet
  facet normal -0 0 1
    outer loop
      vertex 1.47221 -2.84123 4
      vertex 7.07107 -7.07107 4
      vertex 2.18417 -2.33867 4
    endloop
  endfacet
  facet normal 0 0 1
    outer loop
      vertex 0.651058 -3.13307 4
      vertex 1.47221 -2.84123 4
      vertex 0.839413 -2.36188 4
    endloop
  endfacet
  facet normal 0 0 1
    outer loop
      vertex 0 -10 4
      vertex 1.47221 -2.84123 4
      vertex 0.651058 -3.13307 4
    endloop
  endfacet
  facet normal 0 0 1
    outer loop
      vertex 1.47221 -2.84123 4
      vertex 0 -10 4
      vertex 7.07107 -7.07107 4
    endloop
  endfacet
  facet normal 0 0 1
    outer loop
      vertex -0.218375 -3.19254 4
      vertex 0.651058 -3.13307 4
      vertex 0.171057 -2.50077 4
    endloop
  endfacet
  facet normal 0 0 1
    outer loop
      vertex 0.651058 -3.13307 4
      vertex -0.218375 -3.19254 4
      vertex 0 -10 4
    endloop
  endfacet
  facet normal -0 0 1
    outer loop
      vertex -1.07161 -3.01523 4
      vertex -0.218375 -3.19254 4
      vertex -0.509985 -2.45418 4
    endloop
  endfacet
  facet normal 0 0 1
    outer loop
      vertex -0.218375 -3.19254 4
      vertex -1.07161 -3.01523 4
      vertex 0 -10 4
    endloop
  endfacet
  facet normal -0 0 1
    outer loop
      vertex -1.84538 -2.6143 4
      vertex -1.07161 -3.01523 4
      vertex -1.1532 -2.22558 4
    endloop
  endfacet
  facet normal 0 0 1
    outer loop
      vertex -7.07107 -7.07107 4
      vertex -1.07161 -3.01523 4
      vertex -1.84538 -2.6143 4
    endloop
  endfacet
  facet normal 0 0 1
    outer loop
      vertex -7.07107 -7.07107 4
      vertex -1.84538 -2.6143 4
      vertex -2.48227 -2.01948 4
    endloop
  endfacet
  facet normal 0 0 1
    outer loop
      vertex -7.07107 -7.07107 4
      vertex -2.48227 -2.01948 4
      vertex -2.93507 -1.27488 4
    endloop
  endfacet
  facet normal 0 0 1
    outer loop
      vertex -3.17019 0.435733 4
      vertex -10 0 4
      vertex -3.17019 -0.435733 4
    endloop
  endfacet
  facet normal 0 0 1
    outer loop
      vertex -3.17019 -0.435733 4
      vertex -10 0 4
      vertex -2.93507 -1.27488 4
    endloop
  endfacet
  facet normal 0 0 1
    outer loop
      vertex -1.07161 -3.01523 4
      vertex -7.07107 -7.07107 4
      vertex 0 -10 4
    endloop
  endfacet
  facet normal 0 0 1
    outer loop
      vertex -2.93507 -1.27488 4
      vertex -10 0 4
      vertex -7.07107 -7.07107 4
    endloop
  endfacet
  facet normal 0 0 1
    outer loop
      vertex 3.2 0 4
      vertex 3.08133 0.863348 4
      vertex 2.48326 0.341317 4
    endloop
  endfacet
  facet normal 0 0 1
    outer loop
      vertex 3.08133 0.863348 4
      vertex 2.73414 1.66267 4
      vertex 2.29909 0.998636 4
    endloop
  endfacet
  facet normal 0 0 1
    outer loop
      vertex 2.73414 1.66267 4
      vertex 2.18417 2.33867 4
      vertex 1.94441 1.58189 4
    endloop
  endfacet
  facet normal 0 0 1
    outer loop
      vertex 2.18417 2.33867 4
      vertex 1.47221 2.84123 4
      vertex 1.44551 2.04783 4
    endloop
  endfacet
  facet normal 0 0 1
    outer loop
      vertex -1.7109 1.83192 4
      vertex -1.84538 2.6143 4
      vertex -2.48227 2.01948 4
    endloop
  endfacet
  facet normal 0 0 1
    outer loop
      vertex -2.1417 1.30239 4
      vertex -2.48227 2.01948 4
      vertex -2.93507 1.27488 4
    endloop
  endfacet
  facet normal 0 0 1
    outer loop
      vertex -2.41366 0.676276 4
      vertex -2.93507 1.27488 4
      vertex -3.17019 0.435733 4
    endloop
  endfacet
  facet normal 0 0 1
    outer loop
      vertex -2.50661 0 4
      vertex -3.17019 0.435733 4
      vertex -3.17019 -0.435733 4
    endloop
  endfacet
  facet normal -0.429946 -0.902855 0
    outer loop
      vertex 2.48326 0.341317 0
      vertex 3.2 0 4
      vertex 2.48326 0.341317 4
    endloop
  endfacet
  facet normal -0.429946 -0.902855 -0
    outer loop
      vertex 3.2 0 4
      vertex 2.48326 0.341317 0
      vertex 3.2 0 0
    endloop
  endfacet
  facet normal -0.657591 0.753375 0
    outer loop
      vertex 3.08133 0.863348 0
      vertex 2.48326 0.341317 4
      vertex 3.08133 0.863348 4
    endloop
  endfacet
  facet normal -0.657591 0.753375 0
    outer loop
      vertex 2.48326 0.341317 4
      vertex 3.08133 0.863348 0
      vertex 2.48326 0.341317 0
    endloop
  endfacet
  facet normal -0.17042 -0.985372 0
    outer loop
      vertex 2.29909 0.998636 0
      vertex 3.08133 0.863348 4
      vertex 2.29909 0.998636 4
    endloop
  endfacet
  facet normal -0.17042 -0.985372 -0
    outer loop
      vertex 3.08133 0.863348 4
      vertex 2.29909 0.998636 0
      vertex 3.08133 0.863348 0
    endloop
  endfacet
  facet normal -0.836465 0.54802 0
    outer loop
      vertex 2.29909 0.998636 0
      vertex 2.73414 1.66267 4
      vertex 2.73414 1.66267 0
    endloop
  endfacet
  facet normal -0.836465 0.54802 0
    outer loop
      vertex 2.73414 1.66267 4
      vertex 2.29909 0.998636 0
      vertex 2.29909 0.998636 4
    endloop
  endfacet
  facet normal 0.101757 -0.994809 0
    outer loop
      vertex 1.94441 1.58189 0
      vertex 2.73414 1.66267 4
      vertex 1.94441 1.58189 4
    endloop
  endfacet
  facet normal 0.101757 -0.994809 0
    outer loop
      vertex 2.73414 1.66267 4
      vertex 1.94441 1.58189 0
      vertex 2.73414 1.66267 0
    endloop
  endfacet
  facet normal -0.953301 0.302021 0
    outer loop
      vertex 1.94441 1.58189 0
      vertex 2.18417 2.33867 4
      vertex 2.18417 2.33867 0
    endloop
  endfacet
  facet normal -0.953301 0.302021 0
    outer loop
      vertex 2.18417 2.33867 4
      vertex 1.94441 1.58189 0
      vertex 1.94441 1.58189 4
    endloop
  endfacet
  facet normal 0.366364 -0.930472 0
    outer loop
      vertex 1.44551 2.04783 0
      vertex 2.18417 2.33867 4
      vertex 1.44551 2.04783 4
    endloop
  endfacet
  facet normal 0.366364 -0.930472 0
    outer loop
      vertex 2.18417 2.33867 4
      vertex 1.44551 2.04783 0
      vertex 2.18417 2.33867 0
    endloop
  endfacet
  facet normal -0.999434 0.0336336 0
    outer loop
      vertex 1.44551 2.04783 0
      vertex 1.47221 2.84123 4
      vertex 1.47221 2.84123 0
    endloop
  endfacet
  facet normal -0.999434 0.0336336 0
    outer loop
      vertex 1.47221 2.84123 4
      vertex 1.44551 2.04783 0
      vertex 1.44551 2.04783 4
    endloop
  endfacet
  facet normal 0.603824 -0.797117 0
    outer loop
      vertex 0.839413 2.36188 0
      vertex 1.47221 2.84123 4
      vertex 0.839413 2.36188 4
    endloop
  endfacet
  facet normal 0.603824 -0.797117 0
    outer loop
      vertex 1.47221 2.84123 4
      vertex 0.839413 2.36188 0
      vertex 1.47221 2.84123 0
    endloop
  endfacet
  facet normal -0.971445 -0.237265 0
    outer loop
      vertex 0.839413 2.36188 0
      vertex 0.651058 3.13307 4
      vertex 0.651058 3.13307 0
    endloop
  endfacet
  facet normal -0.971445 -0.237265 0
    outer loop
      vertex 0.651058 3.13307 4
      vertex 0.839413 2.36188 0
      vertex 0.839413 2.36188 4
    endloop
  endfacet
  facet normal 0.796494 -0.604646 0
    outer loop
      vertex 0.171057 2.50077 4
      vertex 0.651058 3.13307 0
      vertex 0.651058 3.13307 4
    endloop
  endfacet
  facet normal 0.796494 -0.604646 0
    outer loop
      vertex 0.651058 3.13307 0
      vertex 0.171057 2.50077 4
      vertex 0.171057 2.50077 0
    endloop
  endfacet
  facet normal -0.871408 -0.490559 0
    outer loop
      vertex 0.171057 2.50077 0
      vertex -0.218375 3.19254 4
      vertex -0.218375 3.19254 0
    endloop
  endfacet
  facet normal -0.871408 -0.490559 0
    outer loop
      vertex -0.218375 3.19254 4
      vertex 0.171057 2.50077 0
      vertex 0.171057 2.50077 4
    endloop
  endfacet
  facet normal 0.93009 -0.367332 0
    outer loop
      vertex -0.509985 2.45418 4
      vertex -0.218375 3.19254 0
      vertex -0.218375 3.19254 4
    endloop
  endfacet
  facet normal 0.93009 -0.367332 0
    outer loop
      vertex -0.218375 3.19254 0
      vertex -0.509985 2.45418 4
      vertex -0.509985 2.45418 0
    endloop
  endfacet
  facet normal -0.706745 -0.707469 0
    outer loop
      vertex -1.07161 3.01523 0
      vertex -0.509985 2.45418 4
      vertex -1.07161 3.01523 4
    endloop
  endfacet
  facet normal -0.706745 -0.707469 -0
    outer loop
      vertex -0.509985 2.45418 4
      vertex -1.07161 3.01523 0
      vertex -0.509985 2.45418 0
    endloop
  endfacet
  facet normal 0.994704 -0.102777 0
    outer loop
      vertex -1.1532 2.22558 4
      vertex -1.07161 3.01523 0
      vertex -1.07161 3.01523 4
    endloop
  endfacet
  facet normal 0.994704 -0.102777 0
    outer loop
      vertex -1.07161 3.01523 0
      vertex -1.1532 2.22558 4
      vertex -1.1532 2.22558 0
    endloop
  endfacet
  facet normal -0.489657 -0.871915 0
    outer loop
      vertex -1.84538 2.6143 0
      vertex -1.1532 2.22558 4
      vertex -1.84538 2.6143 4
    endloop
  endfacet
  facet normal -0.489657 -0.871915 -0
    outer loop
      vertex -1.1532 2.22558 4
      vertex -1.84538 2.6143 0
      vertex -1.1532 2.22558 0
    endloop
  endfacet
  facet normal 0.985547 0.169402 0
    outer loop
      vertex -1.7109 1.83192 4
      vertex -1.84538 2.6143 0
      vertex -1.84538 2.6143 4
    endloop
  endfacet
  facet normal 0.985547 0.169402 0
    outer loop
      vertex -1.84538 2.6143 0
      vertex -1.7109 1.83192 4
      vertex -1.7109 1.83192 0
    endloop
  endfacet
  facet normal -0.236268 -0.971688 0
    outer loop
      vertex -2.48227 2.01948 0
      vertex -1.7109 1.83192 4
      vertex -2.48227 2.01948 4
    endloop
  endfacet
  facet normal -0.236268 -0.971688 -0
    outer loop
      vertex -1.7109 1.83192 4
      vertex -2.48227 2.01948 0
      vertex -1.7109 1.83192 0
    endloop
  endfacet
  facet normal 0.903301 0.429008 0
    outer loop
      vertex -2.1417 1.30239 4
      vertex -2.48227 2.01948 0
      vertex -2.48227 2.01948 4
    endloop
  endfacet
  facet normal 0.903301 0.429008 0
    outer loop
      vertex -2.48227 2.01948 0
      vertex -2.1417 1.30239 4
      vertex -2.1417 1.30239 0
    endloop
  endfacet
  facet normal 0.034654 -0.999399 0
    outer loop
      vertex -2.93507 1.27488 0
      vertex -2.1417 1.30239 4
      vertex -2.93507 1.27488 4
    endloop
  endfacet
  facet normal 0.034654 -0.999399 0
    outer loop
      vertex -2.1417 1.30239 4
      vertex -2.93507 1.27488 0
      vertex -2.1417 1.30239 0
    endloop
  endfacet
  facet normal 0.754053 0.656813 0
    outer loop
      vertex -2.41366 0.676276 4
      vertex -2.93507 1.27488 0
      vertex -2.93507 1.27488 4
    endloop
  endfacet
  facet normal 0.754053 0.656813 0
    outer loop
      vertex -2.93507 1.27488 0
      vertex -2.41366 0.676276 4
      vertex -2.41366 0.676276 0
    endloop
  endfacet
  facet normal 0.303008 -0.952988 0
    outer loop
      vertex -3.17019 0.435733 0
      vertex -2.41366 0.676276 4
      vertex -3.17019 0.435733 4
    endloop
  endfacet
  facet normal 0.303008 -0.952988 0
    outer loop
      vertex -2.41366 0.676276 4
      vertex -3.17019 0.435733 0
      vertex -2.41366 0.676276 0
    endloop
  endfacet
  facet normal 0.548884 0.835898 -0
    outer loop
      vertex -2.50661 0 0
      vertex -3.17019 0.435733 4
      vertex -2.50661 0 4
    endloop
  endfacet
  facet normal 0.548884 0.835898 0
    outer loop
      vertex -3.17019 0.435733 4
      vertex -2.50661 0 0
      vertex -3.17019 0.435733 0
    endloop
  endfacet
  facet normal 0.548884 -0.835898 0
    outer loop
      vertex -3.17019 -0.435733 0
      vertex -2.50661 0 4
      vertex -3.17019 -0.435733 4
    endloop
  endfacet
  facet normal 0.548884 -0.835898 0
    outer loop
      vertex -2.50661 0 4
      vertex -3.17019 -0.435733 0
      vertex -2.50661 0 0
    endloop
  endfacet
  facet normal 0.303008 0.952988 -0
    outer loop
      vertex -2.41366 -0.676276 0
      vertex -3.17019 -0.435733 4
      vertex -2.41366 -0.676276 4
    endloop
  endfacet
  facet normal 0.303008 0.952988 0
    outer loop
      vertex -3.17019 -0.435733 4
      vertex -2.41366 -0.676276 0
      vertex -3.17019 -0.435733 0
    endloop
  endfacet
  facet normal 0.754053 -0.656813 0
    outer loop
      vertex -2.93507 -1.27488 4
      vertex -2.41366 -0.676276 0
      vertex -2.41366 -0.676276 4
    endloop
  endfacet
  facet normal 0.754053 -0.656813 0
    outer loop
      vertex -2.41366 -0.676276 0
      vertex -2.93507 -1.27488 4
      vertex -2.93507 -1.27488 0
    endloop
  endfacet
  facet normal 0.034654 0.999399 -0
    outer loop
      vertex -2.1417 -1.30239 0
      vertex -2.93507 -1.27488 4
      vertex -2.1417 -1.30239 4
    endloop
  endfacet
  facet normal 0.034654 0.999399 0
    outer loop
      vertex -2.93507 -1.27488 4
      vertex -2.1417 -1.30239 0
      vertex -2.93507 -1.27488 0
    endloop
  endfacet
  facet normal 0.903301 -0.429008 0
    outer loop
      vertex -2.48227 -2.01948 4
      vertex -2.1417 -1.30239 0
      vertex -2.1417 -1.30239 4
    endloop
  endfacet
  facet normal 0.903301 -0.429008 0
    outer loop
      vertex -2.1417 -1.30239 0
      vertex -2.48227 -2.01948 4
      vertex -2.48227 -2.01948 0
    endloop
  endfacet
  facet normal -0.236268 0.971688 0
    outer loop
      vertex -1.7109 -1.83192 0
      vertex -2.48227 -2.01948 4
      vertex -1.7109 -1.83192 4
    endloop
  endfacet
  facet normal -0.236268 0.971688 0
    outer loop
      vertex -2.48227 -2.01948 4
      vertex -1.7109 -1.83192 0
      vertex -2.48227 -2.01948 0
    endloop
  endfacet
  facet normal 0.985547 -0.169402 0
    outer loop
      vertex -1.84538 -2.6143 4
      vertex -1.7109 -1.83192 0
      vertex -1.7109 -1.83192 4
    endloop
  endfacet
  facet normal 0.985547 -0.169402 0
    outer loop
      vertex -1.7109 -1.83192 0
      vertex -1.84538 -2.6143 4
      vertex -1.84538 -2.6143 0
    endloop
  endfacet
  facet normal -0.489657 0.871915 0
    outer loop
      vertex -1.1532 -2.22558 0
      vertex -1.84538 -2.6143 4
      vertex -1.1532 -2.22558 4
    endloop
  endfacet
  facet normal -0.489657 0.871915 0
    outer loop
      vertex -1.84538 -2.6143 4
      vertex -1.1532 -2.22558 0
      vertex -1.84538 -2.6143 0
    endloop
  endfacet
  facet normal 0.994704 0.102777 0
    outer loop
      vertex -1.07161 -3.01523 4
      vertex -1.1532 -2.22558 0
      vertex -1.1532 -2.22558 4
    endloop
  endfacet
  facet normal 0.994704 0.102777 0
    outer loop
      vertex -1.1532 -2.22558 0
      vertex -1.07161 -3.01523 4
      vertex -1.07161 -3.01523 0
    endloop
  endfacet
  facet normal -0.706745 0.707469 0
    outer loop
      vertex -0.509985 -2.45418 0
      vertex -1.07161 -3.01523 4
      vertex -0.509985 -2.45418 4
    endloop
  endfacet
  facet normal -0.706745 0.707469 0
    outer loop
      vertex -1.07161 -3.01523 4
      vertex -0.509985 -2.45418 0
      vertex -1.07161 -3.01523 0
    endloop
  endfacet
  facet normal 0.93009 0.367332 0
    outer loop
      vertex -0.218375 -3.19254 4
      vertex -0.509985 -2.45418 0
      vertex -0.509985 -2.45418 4
    endloop
  endfacet
  facet normal 0.93009 0.367332 0
    outer loop
      vertex -0.509985 -2.45418 0
      vertex -0.218375 -3.19254 4
      vertex -0.218375 -3.19254 0
    endloop
  endfacet
  facet normal -0.871408 0.490559 0
    outer loop
      vertex -0.218375 -3.19254 0
      vertex 0.171057 -2.50077 4
      vertex 0.171057 -2.50077 0
    endloop
  endfacet
  facet normal -0.871408 0.490559 0
    outer loop
      vertex 0.171057 -2.50077 4
      vertex -0.218375 -3.19254 0
      vertex -0.218375 -3.19254 4
    endloop
  endfacet
  facet normal 0.796494 0.604646 0
    outer loop
      vertex 0.651058 -3.13307 4
      vertex 0.171057 -2.50077 0
      vertex 0.171057 -2.50077 4
    endloop
  endfacet
  facet normal 0.796494 0.604646 0
    outer loop
      vertex 0.171057 -2.50077 0
      vertex 0.651058 -3.13307 4
      vertex 0.651058 -3.13307 0
    endloop
  endfacet
  facet normal -0.971445 0.237265 0
    outer loop
      vertex 0.651058 -3.13307 0
      vertex 0.839413 -2.36188 4
      vertex 0.839413 -2.36188 0
    endloop
  endfacet
  facet normal -0.971445 0.237265 0
    outer loop
      vertex 0.839413 -2.36188 4
      vertex 0.651058 -3.13307 0
      vertex 0.651058 -3.13307 4
    endloop
  endfacet
  facet normal 0.603824 0.797117 -0
    outer loop
      vertex 1.47221 -2.84123 0
      vertex 0.839413 -2.36188 4
      vertex 1.47221 -2.84123 4
    endloop
  endfacet
  facet normal 0.603824 0.797117 0
    outer loop
      vertex 0.839413 -2.36188 4
      vertex 1.47221 -2.84123 0
      vertex 0.839413 -2.36188 0
    endloop
  endfacet
  facet normal -0.999434 -0.0336336 0
    outer loop
      vertex 1.47221 -2.84123 0
      vertex 1.44551 -2.04783 4
      vertex 1.44551 -2.04783 0
    endloop
  endfacet
  facet normal -0.999434 -0.0336336 0
    outer loop
      vertex 1.44551 -2.04783 4
      vertex 1.47221 -2.84123 0
      vertex 1.47221 -2.84123 4
    endloop
  endfacet
  facet normal 0.366364 0.930472 -0
    outer loop
      vertex 2.18417 -2.33867 0
      vertex 1.44551 -2.04783 4
      vertex 2.18417 -2.33867 4
    endloop
  endfacet
  facet normal 0.366364 0.930472 0
    outer loop
      vertex 1.44551 -2.04783 4
      vertex 2.18417 -2.33867 0
      vertex 1.44551 -2.04783 0
    endloop
  endfacet
  facet normal -0.953301 -0.302021 0
    outer loop
      vertex 2.18417 -2.33867 0
      vertex 1.94441 -1.58189 4
      vertex 1.94441 -1.58189 0
    endloop
  endfacet
  facet normal -0.953301 -0.302021 0
    outer loop
      vertex 1.94441 -1.58189 4
      vertex 2.18417 -2.33867 0
      vertex 2.18417 -2.33867 4
    endloop
  endfacet
  facet normal 0.101757 0.994809 -0
    outer loop
      vertex 2.73414 -1.66267 0
      vertex 1.94441 -1.58189 4
      vertex 2.73414 -1.66267 4
    endloop
  endfacet
  facet normal 0.101757 0.994809 0
    outer loop
      vertex 1.94441 -1.58189 4
      vertex 2.73414 -1.66267 0
      vertex 1.94441 -1.58189 0
    endloop
  endfacet
  facet normal -0.836465 -0.54802 0
    outer loop
      vertex 2.73414 -1.66267 0
      vertex 2.29909 -0.998636 4
      vertex 2.29909 -0.998636 0
    endloop
  endfacet
  facet normal -0.836465 -0.54802 0
    outer loop
      vertex 2.29909 -0.998636 4
      vertex 2.73414 -1.66267 0
      vertex 2.73414 -1.66267 4
    endloop
  endfacet
  facet normal -0.17042 0.985372 0
    outer loop
      vertex 3.08133 -0.863348 0
      vertex 2.29909 -0.998636 4
      vertex 3.08133 -0.863348 4
    endloop
  endfacet
  facet normal -0.17042 0.985372 0
    outer loop
      vertex 2.29909 -0.998636 4
      vertex 3.08133 -0.863348 0
      vertex 2.29909 -0.998636 0
    endloop
  endfacet
  facet normal -0.657591 -0.753375 0
    outer loop
      vertex 2.48326 -0.341317 0
      vertex 3.08133 -0.863348 4
      vertex 2.48326 -0.341317 4
    endloop
  endfacet
  facet normal -0.657591 -0.753375 -0
    outer loop
      vertex 3.08133 -0.863348 4
      vertex 2.48326 -0.341317 0
      vertex 3.08133 -0.863348 0
    endloop
  endfacet
  facet normal -0.92388 -0.382683 0
    outer loop
      vertex -7.07107 -7.07107 0
      vertex -10 0 4
      vertex -10 0 0
    endloop
  endfacet
  facet normal -0.92388 -0.382683 0
    outer loop
      vertex -10 0 4
      vertex -7.07107 -7.07107 0
      vertex -7.07107 -7.07107 4
    endloop
  endfacet
  facet normal 0.382683 0.92388 -0
    outer loop
      vertex 7.07107 7.07107 0
      vertex 0 10 4
      vertex 7.07107 7.07107 4
    endloop
  endfacet
  facet normal 0.382683 0.92388 0
    outer loop
      vertex 0 10 4
      vertex 7.07107 7.07107 0
      vertex 0 10 0
    endloop
  endfacet
  facet normal 0.92388 0.382683 0
    outer loop
      vertex 10 0 4
      vertex 7.07107 7.07107 0
      vertex 7.07107 7.07107 4
    endloop
  endfacet
  facet normal 0.92388 0.382683 0
    outer loop
      vertex 7.07107 7.07107 0
      vertex 10 0 4
      vertex 10 0 0
    endloop
  endfacet
  facet normal 0.92388 -0.382683 0
    outer loop
      vertex 7.07107 -7.07107 4
      vertex 10 0 0
      vertex 10 0 4
    endloop
  endfacet
  facet normal 0.92388 -0.382683 0
    outer loop
      vertex 10 0 0
      vertex 7.07107 -7.07107 4
      vertex 7.07107 -7.07107 0
    endloop
  endfacet
  facet normal -0.382683 -0.92388 0
    outer loop
      vertex -7.07107 -7.07107 0
      vertex 0 -10 4
      vertex -7.07107 -7.07107 4
    endloop
  endfacet
  facet normal -0.382683 -0.92388 -0
    outer loop
      vertex 0 -10 4
      vertex -7.07107 -7.07107 0
      vertex 0 -10 0
    endloop
  endfacet
  facet normal -0.92388 0.382683 0
    outer loop
      vertex -10 0 0
      vertex -7.07107 7.07107 4
      vertex -7.07107 7.07107 0
    endloop
  endfacet
  facet normal -0.92388 0.382683 0
    outer loop
      vertex -7.07107 7.07107 4
      vertex -10 0 0
      vertex -10 0 4
    endloop
  endfacet
  facet normal 0.382683 -0.92388 0
    outer loop
      vertex 0 -10 0
      vertex 7.07107 -7.07107 4
      vertex 0 -10 4
    endloop
  endfacet
  facet normal 0.382683 -0.92388 0
    outer loop
      vertex 7.07107 -7.07107 4
      vertex 0 -10 0
      vertex 7.07107 -7.07107 0
    endloop
  endfacet
  facet normal -0.382683 0.92388 0
    outer loop
      vertex 0 10 0
      vertex -7.07107 7.07107 4
      vertex 0 10 4
    endloop
  endfacet
  facet normal -0.382683 0.92388 0
    outer loop
      vertex -7.07107 7.07107 4
      vertex 0 10 0
      vertex -7.07107 7.07107 0
    endloop
  endfacet
endsolid OpenSCAD_Model
