solid OpenSCAD_Model
  facet normal 1 -0 0
    outer loop
      vertex 10 -1 3
      vertex 10 1 -3
      vertex 10 1 3
    endloop
  endfacet
  facet normal 1 0 0
    outer loop
      vertex 10 1 -3
      vertex 10 -1 3
      vertex 10 -1 -3
    endloop
  endfacet
  facet normal 0 1 -0
    outer loop
      vertex 10 1 -3
      vertex 0.25 1 3
      vertex 10 1 3
    endloop
  endfacet
  facet normal 0 1 0
    outer loop
      vertex 0.25 1 3
      vertex 10 1 -3
      vertex 0.25 1 -3
    endloop
  endfacet
  facet normal 0 1 -0
    outer loop
      vertex -0.25 1 -3
      vertex -10 1 3
      vertex -0.25 1 3
    endloop
  endfacet
  facet normal 0 1 0
    outer loop
      vertex -10 1 3
      vertex -0.25 1 -3
      vertex -10 1 -3
    endloop
  endfacet
  facet normal 0 -1 0
    outer loop
      vertex -10 -1 -3
      vertex -0.25 -1 3
      vertex -10 -1 3
    endloop
  endfacet
  facet normal 0 -1 -0
    outer loop
      vertex -0.25 -1 3
      vertex -10 -1 -3
      vertex -0.25 -1 -3
    endloop
  endfacet
  facet normal 0 -1 0
    outer loop
      vertex 0.25 -1 -3
      vertex 10 -1 3
      vertex 0.25 -1 3
    endloop
  endfacet
  facet normal 0 -1 -0
    outer loop
      vertex 10 -1 3
      vertex 0.25 -1 -3
      vertex 10 -1 -3
    endloop
  endfacet
  facet normal -1 0 0
    outer loop
      vertex -10 -1 -3
      vertex -10 1 3
      vertex -10 1 -3
    endloop
  endfacet
  facet normal -1 -0 0
    outer loop
      vertex -10 1 3
      vertex -10 -1 -3
      vertex -10 -1 3
    endloop
  endfacet
  facet normal 0 0 -1
    outer loop
      vertex -10 -1 -3
      vertex -0.25 1 -3
      vertex -0.25 -1 -3
    endloop
  endfacet
  facet normal -0 0 -1
    outer loop
      vertex -0.25 1 -3
      vertex -10 -1 -3
      vertex -10 1 -3
    endloop
  endfacet
  facet normal 0 0 -1
    outer loop
      vertex -0.25 -1 -3
      vertex 0.25 -1 -3
      vertex 0.25 -4 -3
    endloop
  endfacet
  facet normal 0 0 -1
    outer loop
      vertex 0.25 -1 -3
      vertex -0.25 -1 -3
      vertex 0.25 1 -3
    endloop
  endfacet
  facet normal 0 0 -1
    outer loop
      vertex -0.25 -1 -3
      vertex 0.25 -4 -3
      vertex -0.25 -4 -3
    endloop
  endfacet
  facet normal 0 0 -1
    outer loop
      vertex -0.25 1 -3
      vertex 0.25 1 -3
      vertex -0.25 -1 -3
    endloop
  endfacet
  facet normal 0 0 -1
    outer loop
      vertex 0.25 1 -3
      vertex -0.25 1 -3
      vertex 0.25 4 -3
    endloop
  endfacet
  facet normal -0 0 -1
    outer loop
      vertex 0.25 4 -3
      vertex -0.25 1 -3
      vertex -0.25 4 -3
    endloop
  endfacet
  facet normal 0 0 -1
    outer loop
      vertex 0.25 -1 -3
      vertex 10 1 -3
      vertex 10 -1 -3
    endloop
  endfacet
  facet normal -0 0 -1
    outer loop
      vertex 10 1 -3
      vertex 0.25 -1 -3
      vertex 0.25 1 -3
    endloop
  endfacet
  facet normal -0 0 1
    outer loop
      vertex -10 1 3
      vertex -0.25 -1 3
      vertex -0.25 1 3
    endloop
  endfacet
  facet normal 0 0 1
    outer loop
      vertex -0.25 -1 3
      vertex -10 1 3
      vertex -10 -1 3
    endloop
  endfacet
  facet normal 0 0 1
    outer loop
      vertex 2 6 3
      vertex 0.25 4 3
      vertex 2 4 3
    endloop
  endfacet
  facet normal 0 0 1
    outer loop
      vertex -0.25 1 3
      vertex 0.25 1 3
      vertex 0.25 4 3
    endloop
  endfacet
  facet normal 0 0 1
    outer loop
      vertex 0.25 1 3
      vertex -0.25 1 3
      vertex 0.25 -1 3
    endloop
  endfacet
  facet normal 0 0 1
    outer loop
      vertex -0.25 1 3
      vertex 0.25 4 3
      vertex -0.25 4 3
    endloop
  endfacet
  facet normal 0 0 1
    outer loop
      vertex 2 6 3
      vertex -0.25 4 3
      vertex 0.25 4 3
    endloop
  endfacet
  facet normal -0 0 1
    outer loop
      vertex -2 6 3
      vertex -0.25 4 3
      vertex 2 6 3
    endloop
  endfacet
  facet normal 0 0 1
    outer loop
      vertex -0.25 4 3
      vertex -2 6 3
      vertex -2 4 3
    endloop
  endfacet
  facet normal -0 0 1
    outer loop
      vertex 0.25 1 3
      vertex 10 -1 3
      vertex 10 1 3
    endloop
  endfacet
  facet normal 0 0 1
    outer loop
      vertex 10 -1 3
      vertex 0.25 1 3
      vertex 0.25 -1 3
    endloop
  endfacet
  facet normal -0 0 1
    outer loop
      vertex 0.25 -4 3
      vertex 2 -6 3
      vertex 2 -4 3
    endloop
  endfacet
  facet normal 0 0 1
    outer loop
      vertex -0.25 -1 3
      vertex 0.25 -1 3
      vertex -0.25 1 3
    endloop
  endfacet
  facet normal 0 0 1
    outer loop
      vertex 0.25 -1 3
      vertex -0.25 -1 3
      vertex 0.25 -4 3
    endloop
  endfacet
  facet normal 0 0 1
    outer loop
      vertex -0.25 -4 3
      vertex 0.25 -4 3
      vertex -0.25 -1 3
    endloop
  endfacet
  facet normal -0 0 1
    outer loop
      vertex -0.25 -4 3
      vertex 2 -6 3
      vertex 0.25 -4 3
    endloop
  endfacet
  facet normal 0 0 1
    outer loop
      vertex -2 -6 3
      vertex -0.25 -4 3
      vertex -2 -4 3
    endloop
  endfacet
  facet normal 0 0 1
    outer loop
      vertex -0.25 -4 3
      vertex -2 -6 3
      vertex 2 -6 3
    endloop
  endfacet
  facet normal 1 -0 0
    outer loop
      vertex 0.25 1 3
      vertex 0.25 4 -3
      vertex 0.25 4 3
    endloop
  endfacet
  facet normal 1 0 0
    outer loop
      vertex 0.25 4 -3
      vertex 0.25 1 3
      vertex 0.25 1 -3
    endloop
  endfacet
  facet normal 0 -1 0
    outer loop
      vertex -2 4 3
      vertex -0.25 4 -3
      vertex -0.25 4 3
    endloop
  endfacet
  facet normal 0 -1 -0
    outer loop
      vertex -0.25 4 -3
      vertex -2 4 -4
      vertex 0.25 4 -3
    endloop
  endfacet
  facet normal 0 -1 0
    outer loop
      vertex -2 4 -4
      vertex -0.25 4 -3
      vertex -2 4 3
    endloop
  endfacet
  facet normal 0 -1 0
    outer loop
      vertex 0.25 4 -3
      vertex 2 4 3
      vertex 0.25 4 3
    endloop
  endfacet
  facet normal 0 -1 0
    outer loop
      vertex 0.25 4 -3
      vertex 2 4 -4
      vertex 2 4 3
    endloop
  endfacet
  facet normal 0 -1 0
    outer loop
      vertex 2 4 -4
      vertex 0.25 4 -3
      vertex -2 4 -4
    endloop
  endfacet
  facet normal -1 0 0
    outer loop
      vertex -0.25 1 -3
      vertex -0.25 4 3
      vertex -0.25 4 -3
    endloop
  endfacet
  facet normal -1 -0 0
    outer loop
      vertex -0.25 4 3
      vertex -0.25 1 -3
      vertex -0.25 1 3
    endloop
  endfacet
  facet normal 1 -0 0
    outer loop
      vertex 2 4 3
      vertex 2 6 -4
      vertex 2 6 3
    endloop
  endfacet
  facet normal 1 0 0
    outer loop
      vertex 2 6 -4
      vertex 2 4 3
      vertex 2 4 -4
    endloop
  endfacet
  facet normal 0 1 -0
    outer loop
      vertex 6 6 -7
      vertex 2 6 -4
      vertex 6 6 -4
    endloop
  endfacet
  facet normal 0 1 0
    outer loop
      vertex 2 6 -4
      vertex 6 6 -7
      vertex -2 6 -4
    endloop
  endfacet
  facet normal 0 1 0
    outer loop
      vertex -6 6 -7
      vertex -2 6 -4
      vertex 6 6 -7
    endloop
  endfacet
  facet normal 0 1 0
    outer loop
      vertex -2 6 -4
      vertex -6 6 -7
      vertex -6 6 -4
    endloop
  endfacet
  facet normal 0 1 -0
    outer loop
      vertex 2 6 -4
      vertex -2 6 3
      vertex 2 6 3
    endloop
  endfacet
  facet normal 0 1 0
    outer loop
      vertex -2 6 3
      vertex 2 6 -4
      vertex -2 6 -4
    endloop
  endfacet
  facet normal -1 0 0
    outer loop
      vertex -2 4 -4
      vertex -2 6 3
      vertex -2 6 -4
    endloop
  endfacet
  facet normal -1 -0 0
    outer loop
      vertex -2 6 3
      vertex -2 4 -4
      vertex -2 4 3
    endloop
  endfacet
  facet normal -0 0 1
    outer loop
      vertex -6 6 -4
      vertex -2 4 -4
      vertex -2 6 -4
    endloop
  endfacet
  facet normal 0 0 1
    outer loop
      vertex -2 4 -4
      vertex -6 6 -4
      vertex -2 -4 -4
    endloop
  endfacet
  facet normal 0 0 1
    outer loop
      vertex -6 -6 -4
      vertex -2 -4 -4
      vertex -6 6 -4
    endloop
  endfacet
  facet normal 0 0 1
    outer loop
      vertex -2 -4 -4
      vertex -6 -6 -4
      vertex -2 -6 -4
    endloop
  endfacet
  facet normal -0 0 1
    outer loop
      vertex -2 4 -4
      vertex 2 -4 -4
      vertex 2 4 -4
    endloop
  endfacet
  facet normal 0 0 1
    outer loop
      vertex 2 -4 -4
      vertex -2 4 -4
      vertex -2 -4 -4
    endloop
  endfacet
  facet normal 0 0 1
    outer loop
      vertex 2 4 -4
      vertex 6 6 -4
      vertex 2 6 -4
    endloop
  endfacet
  facet normal 0 0 1
    outer loop
      vertex 6 6 -4
      vertex 2 4 -4
      vertex 6 -6 -4
    endloop
  endfacet
  facet normal -0 0 1
    outer loop
      vertex 2 -4 -4
      vertex 6 -6 -4
      vertex 2 4 -4
    endloop
  endfacet
  facet normal 0 0 1
    outer loop
      vertex 6 -6 -4
      vertex 2 -4 -4
      vertex 2 -6 -4
    endloop
  endfacet
  facet normal 1 -0 0
    outer loop
      vertex 0.25 -4 3
      vertex 0.25 -1 -3
      vertex 0.25 -1 3
    endloop
  endfacet
  facet normal 1 0 0
    outer loop
      vertex 0.25 -1 -3
      vertex 0.25 -4 3
      vertex 0.25 -4 -3
    endloop
  endfacet
  facet normal 0 1 0
    outer loop
      vertex 2 -4 3
      vertex 0.25 -4 -3
      vertex 0.25 -4 3
    endloop
  endfacet
  facet normal 0 1 0
    outer loop
      vertex 0.25 -4 -3
      vertex 2 -4 -4
      vertex -0.25 -4 -3
    endloop
  endfacet
  facet normal 0 1 -0
    outer loop
      vertex 2 -4 -4
      vertex 0.25 -4 -3
      vertex 2 -4 3
    endloop
  endfacet
  facet normal 0 1 -0
    outer loop
      vertex -0.25 -4 -3
      vertex -2 -4 3
      vertex -0.25 -4 3
    endloop
  endfacet
  facet normal 0 1 0
    outer loop
      vertex -0.25 -4 -3
      vertex -2 -4 -4
      vertex -2 -4 3
    endloop
  endfacet
  facet normal 0 1 0
    outer loop
      vertex -2 -4 -4
      vertex -0.25 -4 -3
      vertex 2 -4 -4
    endloop
  endfacet
  facet normal -1 0 0
    outer loop
      vertex -0.25 -4 -3
      vertex -0.25 -1 3
      vertex -0.25 -1 -3
    endloop
  endfacet
  facet normal -1 -0 0
    outer loop
      vertex -0.25 -1 3
      vertex -0.25 -4 -3
      vertex -0.25 -4 3
    endloop
  endfacet
  facet normal 1 -0 0
    outer loop
      vertex 2 -6 3
      vertex 2 -4 -4
      vertex 2 -4 3
    endloop
  endfacet
  facet normal 1 0 0
    outer loop
      vertex 2 -4 -4
      vertex 2 -6 3
      vertex 2 -6 -4
    endloop
  endfacet
  facet normal 0 -1 0
    outer loop
      vertex -6 -6 -7
      vertex -2 -6 -4
      vertex -6 -6 -4
    endloop
  endfacet
  facet normal 0 -1 -0
    outer loop
      vertex -2 -6 -4
      vertex -6 -6 -7
      vertex 2 -6 -4
    endloop
  endfacet
  facet normal 0 -1 0
    outer loop
      vertex 6 -6 -7
      vertex 2 -6 -4
      vertex -6 -6 -7
    endloop
  endfacet
  facet normal 0 -1 0
    outer loop
      vertex 2 -6 -4
      vertex 6 -6 -7
      vertex 6 -6 -4
    endloop
  endfacet
  facet normal 0 -1 0
    outer loop
      vertex -2 -6 -4
      vertex 2 -6 3
      vertex -2 -6 3
    endloop
  endfacet
  facet normal 0 -1 -0
    outer loop
      vertex 2 -6 3
      vertex -2 -6 -4
      vertex 2 -6 -4
    endloop
  endfacet
  facet normal -1 0 0
    outer loop
      vertex -2 -6 -4
      vertex -2 -4 3
      vertex -2 -4 -4
    endloop
  endfacet
  facet normal -1 -0 0
    outer loop
      vertex -2 -4 3
      vertex -2 -6 -4
      vertex -2 -6 3
    endloop
  endfacet
  facet normal 1 -0 0
    outer loop
      vertex 6 -6 -4
      vertex 6 6 -7
      vertex 6 6 -4
    endloop
  endfacet
  facet normal 1 0 0
    outer loop
      vertex 6 6 -7
      vertex 6 -6 -4
      vertex 6 -6 -7
    endloop
  endfacet
  facet normal -1 0 0
    outer loop
      vertex -6 -6 -7
      vertex -6 6 -4
      vertex -6 6 -7
    endloop
  endfacet
  facet normal -1 -0 0
    outer loop
      vertex -6 6 -4
      vertex -6 -6 -7
      vertex -6 -6 -4
    endloop
  endfacet
  facet normal 0 0 -1
    outer loop
      vertex -6 -6 -7
      vertex 6 6 -7
      vertex 6 -6 -7
    endloop
  endfacet
  facet normal -0 0 -1
    outer loop
      vertex 6 6 -7
      vertex -6 -6 -7
      vertex -6 6 -7
    endloop
  endfacet
endsolid OpenSCAD_Model
